; NON-PLATED HOLES START AT T1
; THROUGH (PLATED) HOLES START AT T100
M48
INCH
T100C0.015748
T101C0.059060
T102C0.062992
T103C0.035000
T104C0.043307
T105C0.042000
T106C0.038000
T107C0.054000
T108C0.100000
T109C0.059055
T110C0.040000
T111C0.125984
T112C0.030000
T113C0.058083
T114C0.039370
T115C0.114173
T116C0.056000
%
T100
X021318Y005469
X068818Y010969
X021318Y006869
T101
X032559Y033191
X050074Y029114
X027638Y029134
X041811Y029134
X045153Y033171
X040826Y033191
X028622Y033191
X038858Y029134
X036889Y033191
X030590Y029134
X032559Y028119
X033543Y029134
X036889Y028119
X035905Y029134
X049090Y033171
X044169Y029114
X049090Y028099
X028622Y028119
X040826Y028119
X045153Y028099
X047121Y029114
T102
X136266Y027471
X072321Y026190
X136541Y031191
X123495Y031191
X112900Y031190
X064432Y026190
X115881Y027471
X080434Y029969
X131384Y026191
X093200Y028690
X115606Y028691
X115881Y032471
X092925Y027469
X120763Y026191
X120763Y031191
X131659Y027471
X115606Y031191
X136266Y032471
X088318Y027469
X103039Y026190
X128652Y028691
X092925Y032469
X123770Y032471
X103039Y028690
X080434Y027469
X098157Y029969
X107743Y031190
X064707Y027469
X128377Y029971
X072321Y031190
X069589Y031190
X064707Y029969
X120763Y028691
X077203Y029969
X098157Y032469
X085041Y032469
X107743Y026190
X080159Y028690
X088043Y028690
X077478Y031190
X123770Y029971
X069314Y032469
X103039Y031190
X115606Y026191
X064707Y032469
X131384Y028691
X069314Y027469
X093200Y026190
X088043Y031190
X112625Y027469
X123770Y027471
X080159Y031190
X077203Y027469
X115881Y029971
X108018Y029969
X136541Y028691
X131659Y032471
X108018Y027469
X088043Y026190
X072321Y028690
X069314Y029969
X120488Y027471
X102764Y029969
X128377Y032471
X069589Y028690
X136266Y029971
X088318Y032469
X077478Y026190
X093200Y031190
X102764Y027469
X128377Y027471
X131659Y029971
X112625Y032469
X085316Y031190
X136541Y026191
X112900Y026190
X123495Y026191
X085041Y027469
X080434Y032469
X072596Y027469
X097881Y031190
X131384Y031191
X112625Y029969
X072596Y032469
X069589Y026190
X112900Y028690
X088318Y029969
X077478Y028690
X080159Y026190
X077203Y032469
X085316Y026190
X128652Y026191
X108018Y032469
X064432Y031190
X085316Y028690
X098157Y027469
X097881Y028690
X085041Y029969
X097881Y026190
X120488Y029971
X072596Y029969
X102764Y032469
X128652Y031191
X120488Y032471
X064432Y028690
X123495Y028691
X107743Y028690
X092925Y029969
T103
X091318Y022969
X096318Y020469
X116838Y015969
X136319Y006969
X072818Y020969
X072818Y018969
X091318Y020969
X111838Y022969
X055318Y022969
X101819Y020969
X116838Y018969
X072818Y015969
X064818Y015969
X067818Y011969
X049318Y016469
X102319Y006969
X098818Y020969
X098818Y015969
X053318Y009969
X104819Y020469
X055318Y015969
X032818Y017969
X088318Y009969
X133319Y013969
X053318Y010969
X111819Y009969
X091318Y018969
X127819Y009969
X111819Y013969
X111838Y015969
X091318Y013969
X119838Y022969
X127819Y013969
X080818Y020969
X088318Y013969
X104819Y025469
X097318Y003969
X101819Y018969
X124819Y009969
X133338Y020969
X119819Y013969
X088318Y015969
X072818Y006969
X096318Y025469
X023318Y002869
X029818Y015969
X058318Y022969
X055318Y018969
X133338Y022969
X116838Y022969
X098818Y018969
X133319Y006969
X116819Y006969
X083818Y015969
X058318Y015969
X136338Y015969
X108838Y018969
X116838Y020969
X124819Y011969
X101819Y015969
X136319Y011969
X127838Y020969
X091318Y006969
X042354Y010005
X091318Y011969
X127838Y015969
X116819Y009969
X075818Y018969
X101819Y022969
X035818Y021969
X028318Y025969
X133319Y011969
X091318Y015969
X136338Y020969
X080818Y022969
X133319Y009969
X133338Y015969
X038818Y006469
X067818Y006969
X098318Y006969
X103319Y006969
X083818Y022969
X044818Y025969
X127819Y006969
X080818Y013969
X029818Y017969
X075818Y015969
X083818Y009969
X124819Y006969
X064818Y020969
X067818Y018969
X055318Y020969
X064818Y013969
X058318Y018969
X098818Y022969
X039318Y021969
X116819Y011969
X108819Y013969
X064818Y006969
X072818Y009969
X029818Y018969
X133338Y018969
X108838Y015969
X072818Y011969
X032818Y015969
X029818Y016969
X028318Y021969
X075818Y011969
X035818Y025969
X051818Y023469
X067818Y020969
X080818Y015969
X032818Y018969
X124838Y020969
X136319Y013969
X127838Y022969
X023318Y003869
X023318Y005569
X064818Y009969
X044818Y021969
X108819Y006969
X127838Y018969
X124838Y018969
X058318Y020969
X083818Y018969
X080818Y006969
X136338Y018969
X119838Y020969
X067818Y013969
X083818Y011969
X124838Y015969
X075818Y009969
X049318Y020469
X091318Y009969
X108819Y009969
X100319Y006969
X097318Y006969
X075818Y022969
X088318Y006969
X101319Y003969
X098318Y003969
X072818Y013969
X064818Y011969
X051818Y028469
X088318Y011969
X035318Y019969
X111838Y018969
X124819Y013969
X072818Y022969
X039318Y016969
X080818Y009969
X108838Y020969
X096318Y006969
X088318Y018969
X104319Y003969
X103319Y003969
X064818Y022969
X075818Y013969
X088318Y020969
X100319Y003969
X035318Y015969
X083818Y020969
X108819Y011969
X127819Y011969
X083818Y013969
X119819Y009969
X075818Y020969
X099318Y006969
X080818Y018969
X102319Y003969
X119819Y006969
X099318Y003969
X053318Y008969
X119838Y018969
X111819Y006969
X067818Y009969
X067818Y015969
X062318Y028469
X075818Y006969
X062318Y023469
X101319Y006969
X032818Y016969
X124838Y022969
X136319Y009969
X064818Y018969
X119819Y011969
X119838Y015969
X116819Y013969
X067818Y022969
X023318Y006947
X088318Y022969
X111838Y020969
X104319Y006969
X096318Y003969
X083818Y006969
X108838Y022969
X136338Y022969
X111819Y011969
X080818Y011969
T104
X020018Y006177
X020018Y004838
X020018Y006846
X020018Y005508
X020018Y004169
T105
X041318Y022969
X101819Y012969
X041318Y025949
X058318Y012969
X055338Y012969
X032798Y021969
X098839Y012969
X029818Y021969
T106
X097319Y002469
X100319Y002469
X099319Y002469
X103319Y002469
X047818Y002469
X053318Y002469
X096319Y002469
X054318Y002469
X098319Y002469
X046818Y002469
X045818Y002469
X007818Y002969
X034818Y002469
X101319Y002469
X048818Y002469
X022318Y014969
X022318Y015969
X022318Y016969
X007818Y004969
X102319Y002469
X056318Y002469
X104319Y002469
X007818Y003969
X052318Y002469
T107
X025818Y002469
X031818Y002469
T108
X013067Y031139
X014967Y032339
T109
X017318Y020469
X004818Y023469
X017318Y018469
X004818Y021469
T110
X030318Y005869
X026318Y005869
T111
X148819Y024969
X021818Y027469
X002818Y002969
X047318Y025969
X002818Y027469
X148819Y002969
X041318Y002969
X095318Y017469
T112
X015781Y016951
X015781Y012951
X015781Y010951
X015781Y014951
T113
X140595Y032469
X053985Y027469
X060375Y032469
X060375Y027469
X053985Y032469
X146985Y027469
X146985Y032469
X140595Y029969
X140595Y027469
X053985Y029969
X060375Y029969
X146985Y029969
T114
X010318Y012969
X010318Y013969
X010318Y014969
T115
X014967Y029939
T116
X012378Y023469
X010318Y023469
X016498Y023469
X014438Y023469
T00
M30
