G04 MADE WITH FRITZING*
G04 WWW.FRITZING.ORG*
G04 DOUBLE SIDED*
G04 HOLES PLATED*
G04 CONTOUR ON CENTER OF CONTOUR VECTOR*
%ASAXBY*%
%FSLAX23Y23*%
%MOIN*%
%OFA0B0*%
%SFA1.0B1.0*%
%ADD10C,0.164173*%
%ADD11C,0.150000*%
%ADD12C,0.092000*%
%ADD13C,0.109060*%
%ADD14C,0.085000*%
%ADD15C,0.088000*%
%ADD16C,0.063307*%
%ADD17C,0.109055*%
%ADD18C,0.049370*%
%ADD19C,0.090000*%
%ADD20C,0.104000*%
%ADD21C,0.122000*%
%ADD22C,0.084000*%
%ADD23C,0.080000*%
%ADD24C,0.214725*%
%ADD25C,0.112362*%
%ADD26C,0.101417*%
%ADD27C,0.069000*%
%ADD28R,0.092000X0.092000*%
%ADD29R,0.085000X0.085000*%
%ADD30R,0.712222X0.943333*%
%ADD31R,0.420000X0.435000*%
%ADD32R,0.095000X0.052000*%
%ADD33R,0.104000X0.104000*%
%ADD34C,0.067087*%
%ADD35R,0.001000X0.001000*%
%LNMASK1*%
G90*
G70*
G54D10*
X1497Y2994D03*
G54D11*
X1497Y3234D03*
X1307Y3114D03*
G54D12*
X10182Y1297D03*
X9884Y1297D03*
G54D13*
X5007Y2911D03*
X4909Y2810D03*
X4712Y2911D03*
X4515Y2810D03*
X4417Y2911D03*
X4909Y3317D03*
X4515Y3317D03*
G54D14*
X4482Y2597D03*
X4482Y2197D03*
X4932Y2047D03*
X4932Y1647D03*
G54D15*
X5632Y247D03*
G54D14*
X2332Y557D03*
X2332Y695D03*
G54D16*
X2002Y685D03*
X2002Y618D03*
X2002Y551D03*
X2002Y484D03*
X2002Y417D03*
G54D17*
X482Y2347D03*
X482Y2147D03*
G54D15*
X2232Y1697D03*
X2232Y1597D03*
X2232Y1497D03*
G54D18*
X2132Y547D03*
X2132Y687D03*
G54D17*
X1732Y2047D03*
X1732Y1847D03*
G54D14*
X2332Y387D03*
X2332Y287D03*
G54D19*
X2632Y587D03*
X3032Y587D03*
G54D15*
X782Y497D03*
X782Y397D03*
X782Y297D03*
G54D20*
X3182Y247D03*
X2582Y247D03*
G54D18*
X6882Y1097D03*
G54D15*
X3482Y247D03*
G54D21*
X1032Y2347D03*
X1238Y2347D03*
X1444Y2347D03*
X1650Y2347D03*
X1032Y2347D03*
X1238Y2347D03*
X1444Y2347D03*
X1650Y2347D03*
G54D22*
X1032Y1297D03*
X1032Y1397D03*
X1032Y1497D03*
X1032Y1297D03*
X1032Y1397D03*
X1032Y1497D03*
G54D23*
X1578Y1495D03*
X1578Y1695D03*
X1578Y1295D03*
X1578Y1095D03*
G54D24*
X9532Y1747D03*
X14882Y297D03*
X14882Y2497D03*
X282Y2747D03*
X282Y297D03*
X2182Y2747D03*
X4732Y2597D03*
X4132Y297D03*
G54D15*
X4582Y247D03*
X4682Y247D03*
X4782Y247D03*
X4882Y247D03*
X5432Y247D03*
X5332Y247D03*
X5232Y247D03*
G54D12*
X4132Y2297D03*
X4132Y2595D03*
G54D25*
X9816Y3247D03*
X9816Y2997D03*
X9816Y2747D03*
X10276Y3247D03*
X10276Y2997D03*
X10276Y2747D03*
X9788Y3119D03*
X9788Y2869D03*
X9788Y2619D03*
X10304Y3119D03*
X10304Y2869D03*
X10304Y2619D03*
X6471Y3247D03*
X6471Y2997D03*
X6471Y2747D03*
X6931Y3247D03*
X6931Y2997D03*
X6931Y2747D03*
X6443Y3119D03*
X6443Y2869D03*
X6443Y2619D03*
X6959Y3119D03*
X6959Y2869D03*
X6959Y2619D03*
X7260Y3247D03*
X7260Y2997D03*
X7260Y2747D03*
X7720Y3247D03*
X7720Y2997D03*
X7720Y2747D03*
X7232Y3119D03*
X7232Y2869D03*
X7232Y2619D03*
X7748Y3119D03*
X7748Y2869D03*
X7748Y2619D03*
X8832Y3247D03*
X8832Y2997D03*
X8832Y2747D03*
X9293Y3247D03*
X9293Y2997D03*
X9293Y2747D03*
X8804Y3119D03*
X8804Y2869D03*
X8804Y2619D03*
X9320Y3119D03*
X9320Y2869D03*
X9320Y2619D03*
X8043Y3247D03*
X8043Y2997D03*
X8043Y2747D03*
X8504Y3247D03*
X8504Y2997D03*
X8504Y2747D03*
X8016Y3119D03*
X8016Y2869D03*
X8016Y2619D03*
X8532Y3119D03*
X8532Y2869D03*
X8532Y2619D03*
X10802Y3247D03*
X10802Y2997D03*
X10802Y2747D03*
X11263Y3247D03*
X11263Y2997D03*
X11263Y2747D03*
X10774Y3119D03*
X10774Y2869D03*
X10774Y2619D03*
X11290Y3119D03*
X11290Y2869D03*
X11290Y2619D03*
X11588Y3247D03*
X11588Y2997D03*
X11588Y2747D03*
X12049Y3247D03*
X12049Y2997D03*
X12049Y2747D03*
X11561Y3119D03*
X11561Y2869D03*
X11561Y2619D03*
X12076Y3119D03*
X12076Y2869D03*
X12076Y2619D03*
G54D14*
X9632Y397D03*
X9632Y697D03*
X9732Y397D03*
X9732Y697D03*
X9832Y397D03*
X9832Y697D03*
X9932Y397D03*
X9932Y697D03*
X10032Y397D03*
X10032Y697D03*
X10132Y397D03*
X10132Y697D03*
X10232Y397D03*
X10232Y697D03*
X10332Y397D03*
X10332Y697D03*
X10432Y397D03*
X10432Y697D03*
G54D25*
X13166Y3247D03*
X13166Y2997D03*
X13166Y2747D03*
X13627Y3247D03*
X13627Y2997D03*
X13627Y2747D03*
X13138Y3119D03*
X13138Y2869D03*
X13138Y2619D03*
X13654Y3119D03*
X13654Y2869D03*
X13654Y2619D03*
G54D26*
X5399Y3247D03*
X6038Y3247D03*
X5399Y2997D03*
X6038Y2997D03*
X5399Y2747D03*
X6038Y2747D03*
X14060Y3247D03*
X14699Y3247D03*
X14060Y2997D03*
X14699Y2997D03*
X14060Y2747D03*
X14699Y2747D03*
G54D25*
X12377Y3247D03*
X12377Y2997D03*
X12377Y2747D03*
X12838Y3247D03*
X12838Y2997D03*
X12838Y2747D03*
X12350Y3119D03*
X12350Y2869D03*
X12350Y2619D03*
X12865Y3119D03*
X12865Y2869D03*
X12865Y2619D03*
G54D15*
X10432Y247D03*
X10332Y247D03*
X10232Y247D03*
X10132Y247D03*
X10032Y247D03*
X9932Y247D03*
X9832Y247D03*
X9732Y247D03*
X9632Y247D03*
G54D27*
X13634Y1897D03*
X13334Y2297D03*
X13334Y2097D03*
X13334Y1897D03*
X13334Y1597D03*
X13634Y1597D03*
X13634Y2097D03*
X13634Y2297D03*
X12784Y1897D03*
X12484Y2297D03*
X12484Y2097D03*
X12484Y1897D03*
X12484Y1597D03*
X12784Y1597D03*
X12784Y2097D03*
X12784Y2297D03*
X11984Y1897D03*
X11684Y2297D03*
X11684Y2097D03*
X11684Y1897D03*
X11684Y1597D03*
X11984Y1597D03*
X11984Y2097D03*
X11984Y2297D03*
X11184Y1897D03*
X10884Y2297D03*
X10884Y2097D03*
X10884Y1897D03*
X10884Y1597D03*
X11184Y1597D03*
X11184Y2097D03*
X11184Y2297D03*
X9132Y1897D03*
X8832Y2297D03*
X8832Y2097D03*
X8832Y1897D03*
X8832Y1597D03*
X9132Y1597D03*
X9132Y2097D03*
X9132Y2297D03*
X8382Y1897D03*
X8082Y2297D03*
X8082Y2097D03*
X8082Y1897D03*
X8082Y1597D03*
X8382Y1597D03*
X8382Y2097D03*
X8382Y2297D03*
X7582Y1897D03*
X7282Y2297D03*
X7282Y2097D03*
X7282Y1897D03*
X7282Y1597D03*
X7582Y1597D03*
X7582Y2097D03*
X7582Y2297D03*
X6782Y1897D03*
X6482Y2297D03*
X6482Y2097D03*
X6482Y1897D03*
X6482Y1597D03*
X6782Y1597D03*
X6782Y2097D03*
X6782Y2297D03*
X6782Y997D03*
X6482Y1397D03*
X6482Y1197D03*
X6482Y997D03*
X6482Y697D03*
X6782Y697D03*
X6782Y1197D03*
X6782Y1397D03*
X7582Y997D03*
X7282Y1397D03*
X7282Y1197D03*
X7282Y997D03*
X7282Y697D03*
X7582Y697D03*
X7582Y1197D03*
X7582Y1397D03*
X8382Y997D03*
X8082Y1397D03*
X8082Y1197D03*
X8082Y997D03*
X8082Y697D03*
X8382Y697D03*
X8382Y1197D03*
X8382Y1397D03*
X11182Y997D03*
X10882Y1397D03*
X10882Y1197D03*
X10882Y997D03*
X10882Y697D03*
X11182Y697D03*
X11182Y1197D03*
X11182Y1397D03*
X11982Y997D03*
X11682Y1397D03*
X11682Y1197D03*
X11682Y997D03*
X11682Y697D03*
X11982Y697D03*
X11982Y1197D03*
X11982Y1397D03*
X12782Y997D03*
X12482Y1397D03*
X12482Y1197D03*
X12482Y997D03*
X12482Y697D03*
X12782Y697D03*
X12782Y1197D03*
X12782Y1397D03*
X13632Y997D03*
X13332Y1397D03*
X13332Y1197D03*
X13332Y997D03*
X13332Y697D03*
X13632Y697D03*
X13632Y1197D03*
X13632Y1397D03*
X10182Y1897D03*
X9882Y2297D03*
X9882Y2097D03*
X9882Y1897D03*
X9882Y1597D03*
X10182Y1597D03*
X10182Y2097D03*
X10182Y2297D03*
X5832Y1897D03*
X5532Y2297D03*
X5532Y2097D03*
X5532Y1897D03*
X5532Y1597D03*
X5832Y1597D03*
X5832Y2097D03*
X5832Y2297D03*
X9132Y997D03*
X8832Y1397D03*
X8832Y1197D03*
X8832Y997D03*
X8832Y697D03*
X9132Y697D03*
X9132Y1197D03*
X9132Y1397D03*
G54D14*
X2832Y2597D03*
X2832Y2197D03*
G54D12*
X2982Y2197D03*
X3280Y2197D03*
G54D14*
X3932Y2197D03*
X3932Y1697D03*
X3532Y1597D03*
X3532Y1997D03*
X3582Y2597D03*
X3582Y2197D03*
X2982Y1897D03*
X3282Y1897D03*
X2982Y1797D03*
X3282Y1797D03*
X2982Y1697D03*
X3282Y1697D03*
X2982Y1597D03*
X3282Y1597D03*
G54D13*
X4181Y2913D03*
X4083Y2812D03*
X3886Y2913D03*
X3689Y2812D03*
X3591Y2913D03*
X4083Y3319D03*
X3689Y3319D03*
X3354Y2913D03*
X3256Y2812D03*
X3059Y2913D03*
X2862Y2812D03*
X2764Y2913D03*
X3256Y3319D03*
X2862Y3319D03*
G54D14*
X5182Y2347D03*
X5182Y2847D03*
X9632Y2047D03*
X9632Y2547D03*
X10482Y2047D03*
X10482Y2547D03*
X6232Y2347D03*
X6232Y2847D03*
X5332Y1097D03*
X5332Y997D03*
X5332Y897D03*
X3882Y647D03*
X4235Y1001D03*
G54D12*
X5832Y1297D03*
X5534Y1297D03*
G54D28*
X10183Y1297D03*
G54D29*
X2332Y557D03*
G54D30*
X1302Y517D03*
G54D31*
X1464Y551D03*
G54D32*
X1792Y417D03*
X1792Y484D03*
X1792Y551D03*
X1792Y618D03*
X1792Y685D03*
G54D29*
X2332Y387D03*
G54D33*
X3182Y247D03*
G54D28*
X4132Y2296D03*
G54D29*
X9632Y397D03*
G54D28*
X2981Y2197D03*
G54D29*
X2982Y1897D03*
G54D28*
X5833Y1297D03*
G54D34*
X2013Y685D02*
X1991Y685D01*
D02*
X2013Y618D02*
X1991Y618D01*
D02*
X2013Y551D02*
X1991Y551D01*
D02*
X2013Y484D02*
X1991Y484D01*
D02*
X2013Y417D02*
X1991Y417D01*
G54D35*
X990Y1439D02*
X1073Y1439D01*
X990Y1438D02*
X1073Y1438D01*
X990Y1437D02*
X1073Y1437D01*
X990Y1436D02*
X1073Y1436D01*
X990Y1435D02*
X1073Y1435D01*
X990Y1434D02*
X1073Y1434D01*
X990Y1433D02*
X1073Y1433D01*
X990Y1432D02*
X1073Y1432D01*
X990Y1431D02*
X1073Y1431D01*
X990Y1430D02*
X1073Y1430D01*
X990Y1429D02*
X1073Y1429D01*
X990Y1428D02*
X1073Y1428D01*
X990Y1427D02*
X1073Y1427D01*
X990Y1426D02*
X1073Y1426D01*
X990Y1425D02*
X1073Y1425D01*
X990Y1424D02*
X1073Y1424D01*
X990Y1423D02*
X1073Y1423D01*
X990Y1422D02*
X1073Y1422D01*
X990Y1421D02*
X1073Y1421D01*
X990Y1420D02*
X1073Y1420D01*
X990Y1419D02*
X1073Y1419D01*
X990Y1418D02*
X1073Y1418D01*
X990Y1417D02*
X1073Y1417D01*
X990Y1416D02*
X1073Y1416D01*
X990Y1415D02*
X1073Y1415D01*
X990Y1414D02*
X1073Y1414D01*
X990Y1413D02*
X1073Y1413D01*
X990Y1412D02*
X1030Y1412D01*
X1033Y1412D02*
X1073Y1412D01*
X990Y1411D02*
X1025Y1411D01*
X1038Y1411D02*
X1073Y1411D01*
X990Y1410D02*
X1023Y1410D01*
X1039Y1410D02*
X1073Y1410D01*
X990Y1409D02*
X1022Y1409D01*
X1041Y1409D02*
X1073Y1409D01*
X990Y1408D02*
X1021Y1408D01*
X1042Y1408D02*
X1073Y1408D01*
X990Y1407D02*
X1020Y1407D01*
X1043Y1407D02*
X1073Y1407D01*
X990Y1406D02*
X1019Y1406D01*
X1044Y1406D02*
X1073Y1406D01*
X990Y1405D02*
X1018Y1405D01*
X1044Y1405D02*
X1073Y1405D01*
X990Y1404D02*
X1018Y1404D01*
X1045Y1404D02*
X1073Y1404D01*
X990Y1403D02*
X1017Y1403D01*
X1045Y1403D02*
X1073Y1403D01*
X990Y1402D02*
X1017Y1402D01*
X1046Y1402D02*
X1073Y1402D01*
X990Y1401D02*
X1017Y1401D01*
X1046Y1401D02*
X1073Y1401D01*
X990Y1400D02*
X1016Y1400D01*
X1046Y1400D02*
X1073Y1400D01*
X990Y1399D02*
X1016Y1399D01*
X1046Y1399D02*
X1073Y1399D01*
X990Y1398D02*
X1016Y1398D01*
X1046Y1398D02*
X1073Y1398D01*
X990Y1397D02*
X1016Y1397D01*
X1047Y1397D02*
X1073Y1397D01*
X990Y1396D02*
X1016Y1396D01*
X1046Y1396D02*
X1073Y1396D01*
X990Y1395D02*
X1016Y1395D01*
X1046Y1395D02*
X1073Y1395D01*
X990Y1394D02*
X1017Y1394D01*
X1046Y1394D02*
X1073Y1394D01*
X990Y1393D02*
X1017Y1393D01*
X1046Y1393D02*
X1073Y1393D01*
X990Y1392D02*
X1017Y1392D01*
X1046Y1392D02*
X1073Y1392D01*
X990Y1391D02*
X1018Y1391D01*
X1045Y1391D02*
X1073Y1391D01*
X990Y1390D02*
X1018Y1390D01*
X1045Y1390D02*
X1073Y1390D01*
X990Y1389D02*
X1019Y1389D01*
X1044Y1389D02*
X1073Y1389D01*
X990Y1388D02*
X1020Y1388D01*
X1043Y1388D02*
X1073Y1388D01*
X990Y1387D02*
X1021Y1387D01*
X1042Y1387D02*
X1073Y1387D01*
X990Y1386D02*
X1022Y1386D01*
X1041Y1386D02*
X1073Y1386D01*
X990Y1385D02*
X1023Y1385D01*
X1040Y1385D02*
X1073Y1385D01*
X990Y1384D02*
X1025Y1384D01*
X1038Y1384D02*
X1073Y1384D01*
X990Y1383D02*
X1028Y1383D01*
X1035Y1383D02*
X1073Y1383D01*
X990Y1382D02*
X1073Y1382D01*
X990Y1381D02*
X1073Y1381D01*
X990Y1380D02*
X1073Y1380D01*
X990Y1379D02*
X1073Y1379D01*
X990Y1378D02*
X1073Y1378D01*
X990Y1377D02*
X1073Y1377D01*
X990Y1376D02*
X1073Y1376D01*
X990Y1375D02*
X1073Y1375D01*
X990Y1374D02*
X1073Y1374D01*
X990Y1373D02*
X1073Y1373D01*
X990Y1372D02*
X1073Y1372D01*
X990Y1371D02*
X1073Y1371D01*
X990Y1370D02*
X1073Y1370D01*
X990Y1369D02*
X1073Y1369D01*
X990Y1368D02*
X1073Y1368D01*
X990Y1367D02*
X1073Y1367D01*
X990Y1366D02*
X1073Y1366D01*
X990Y1365D02*
X1073Y1365D01*
X990Y1364D02*
X1073Y1364D01*
X990Y1363D02*
X1073Y1363D01*
X990Y1362D02*
X1073Y1362D01*
X990Y1361D02*
X1073Y1361D01*
X990Y1360D02*
X1073Y1360D01*
X990Y1359D02*
X1073Y1359D01*
X990Y1358D02*
X1073Y1358D01*
X990Y1357D02*
X1073Y1357D01*
X990Y1356D02*
X1073Y1356D01*
D02*
G04 End of Mask1*
M02*