G04 MADE WITH FRITZING*
G04 WWW.FRITZING.ORG*
G04 DOUBLE SIDED*
G04 HOLES PLATED*
G04 CONTOUR ON CENTER OF CONTOUR VECTOR*
%ASAXBY*%
%FSLAX23Y23*%
%MOIN*%
%OFA0B0*%
%SFA1.0B1.0*%
%ADD10C,0.154173*%
%ADD11C,0.140000*%
%ADD12C,0.082000*%
%ADD13C,0.099060*%
%ADD14C,0.075000*%
%ADD15C,0.078000*%
%ADD16C,0.053307*%
%ADD17C,0.099055*%
%ADD18C,0.039370*%
%ADD19C,0.080000*%
%ADD20C,0.094000*%
%ADD21C,0.112000*%
%ADD22C,0.074000*%
%ADD23C,0.070000*%
%ADD24C,0.204725*%
%ADD25C,0.102362*%
%ADD26C,0.091417*%
%ADD27C,0.059000*%
%ADD28R,0.082000X0.082000*%
%ADD29R,0.075000X0.075000*%
%ADD30R,0.702222X0.933333*%
%ADD31R,0.410000X0.425000*%
%ADD32R,0.085000X0.042000*%
%ADD33R,0.094000X0.094000*%
%ADD34C,0.057087*%
%ADD35C,0.024000*%
%ADD36C,0.048000*%
%ADD37C,0.036000*%
%ADD38R,0.001000X0.001000*%
%LNCOPPER1*%
G90*
G70*
G54D10*
X1497Y2994D03*
G54D11*
X1497Y3234D03*
X1307Y3114D03*
G54D12*
X10182Y1297D03*
X9884Y1297D03*
G54D13*
X5007Y2911D03*
X4909Y2810D03*
X4712Y2911D03*
X4515Y2810D03*
X4417Y2911D03*
X4909Y3317D03*
X4515Y3317D03*
G54D14*
X4482Y2597D03*
X4482Y2197D03*
X4932Y2047D03*
X4932Y1647D03*
G54D15*
X5632Y247D03*
G54D14*
X2332Y557D03*
X2332Y695D03*
G54D16*
X2002Y685D03*
X2002Y618D03*
X2002Y551D03*
X2002Y484D03*
X2002Y417D03*
G54D17*
X482Y2347D03*
X482Y2147D03*
G54D15*
X2232Y1697D03*
X2232Y1597D03*
X2232Y1497D03*
G54D18*
X2132Y547D03*
X2132Y687D03*
G54D17*
X1732Y2047D03*
X1732Y1847D03*
G54D14*
X2332Y387D03*
X2332Y287D03*
G54D19*
X2632Y587D03*
X3032Y587D03*
G54D15*
X782Y497D03*
X782Y397D03*
X782Y297D03*
G54D20*
X3182Y247D03*
X2582Y247D03*
G54D18*
X6882Y1097D03*
G54D15*
X3482Y247D03*
G54D21*
X1032Y2347D03*
X1238Y2347D03*
X1444Y2347D03*
X1650Y2347D03*
X1032Y2347D03*
X1238Y2347D03*
X1444Y2347D03*
X1650Y2347D03*
G54D22*
X1032Y1297D03*
X1032Y1397D03*
X1032Y1497D03*
X1032Y1297D03*
X1032Y1397D03*
X1032Y1497D03*
G54D23*
X1578Y1495D03*
X1578Y1695D03*
X1578Y1295D03*
X1578Y1095D03*
G54D24*
X9532Y1747D03*
X14882Y297D03*
X14882Y2497D03*
X282Y2747D03*
X282Y297D03*
X2182Y2747D03*
X4732Y2597D03*
X4132Y297D03*
G54D15*
X4582Y247D03*
X4682Y247D03*
X4782Y247D03*
X4882Y247D03*
X5432Y247D03*
X5332Y247D03*
X5232Y247D03*
G54D12*
X4132Y2297D03*
X4132Y2595D03*
G54D25*
X9816Y3247D03*
X9816Y2997D03*
X9816Y2747D03*
X10276Y3247D03*
X10276Y2997D03*
X10276Y2747D03*
X9788Y3119D03*
X9788Y2869D03*
X9788Y2619D03*
X10304Y3119D03*
X10304Y2869D03*
X10304Y2619D03*
X6471Y3247D03*
X6471Y2997D03*
X6471Y2747D03*
X6931Y3247D03*
X6931Y2997D03*
X6931Y2747D03*
X6443Y3119D03*
X6443Y2869D03*
X6443Y2619D03*
X6959Y3119D03*
X6959Y2869D03*
X6959Y2619D03*
X7260Y3247D03*
X7260Y2997D03*
X7260Y2747D03*
X7720Y3247D03*
X7720Y2997D03*
X7720Y2747D03*
X7232Y3119D03*
X7232Y2869D03*
X7232Y2619D03*
X7748Y3119D03*
X7748Y2869D03*
X7748Y2619D03*
X8832Y3247D03*
X8832Y2997D03*
X8832Y2747D03*
X9293Y3247D03*
X9293Y2997D03*
X9293Y2747D03*
X8804Y3119D03*
X8804Y2869D03*
X8804Y2619D03*
X9320Y3119D03*
X9320Y2869D03*
X9320Y2619D03*
X8043Y3247D03*
X8043Y2997D03*
X8043Y2747D03*
X8504Y3247D03*
X8504Y2997D03*
X8504Y2747D03*
X8016Y3119D03*
X8016Y2869D03*
X8016Y2619D03*
X8532Y3119D03*
X8532Y2869D03*
X8532Y2619D03*
X10802Y3247D03*
X10802Y2997D03*
X10802Y2747D03*
X11263Y3247D03*
X11263Y2997D03*
X11263Y2747D03*
X10774Y3119D03*
X10774Y2869D03*
X10774Y2619D03*
X11290Y3119D03*
X11290Y2869D03*
X11290Y2619D03*
X11588Y3247D03*
X11588Y2997D03*
X11588Y2747D03*
X12049Y3247D03*
X12049Y2997D03*
X12049Y2747D03*
X11561Y3119D03*
X11561Y2869D03*
X11561Y2619D03*
X12076Y3119D03*
X12076Y2869D03*
X12076Y2619D03*
G54D14*
X9632Y397D03*
X9632Y697D03*
X9732Y397D03*
X9732Y697D03*
X9832Y397D03*
X9832Y697D03*
X9932Y397D03*
X9932Y697D03*
X10032Y397D03*
X10032Y697D03*
X10132Y397D03*
X10132Y697D03*
X10232Y397D03*
X10232Y697D03*
X10332Y397D03*
X10332Y697D03*
X10432Y397D03*
X10432Y697D03*
G54D25*
X13166Y3247D03*
X13166Y2997D03*
X13166Y2747D03*
X13627Y3247D03*
X13627Y2997D03*
X13627Y2747D03*
X13138Y3119D03*
X13138Y2869D03*
X13138Y2619D03*
X13654Y3119D03*
X13654Y2869D03*
X13654Y2619D03*
G54D26*
X5399Y3247D03*
X6038Y3247D03*
X5399Y2997D03*
X6038Y2997D03*
X5399Y2747D03*
X6038Y2747D03*
X14060Y3247D03*
X14699Y3247D03*
X14060Y2997D03*
X14699Y2997D03*
X14060Y2747D03*
X14699Y2747D03*
G54D25*
X12377Y3247D03*
X12377Y2997D03*
X12377Y2747D03*
X12838Y3247D03*
X12838Y2997D03*
X12838Y2747D03*
X12350Y3119D03*
X12350Y2869D03*
X12350Y2619D03*
X12865Y3119D03*
X12865Y2869D03*
X12865Y2619D03*
G54D15*
X10432Y247D03*
X10332Y247D03*
X10232Y247D03*
X10132Y247D03*
X10032Y247D03*
X9932Y247D03*
X9832Y247D03*
X9732Y247D03*
X9632Y247D03*
G54D27*
X13634Y1897D03*
X13334Y2297D03*
X13334Y2097D03*
X13334Y1897D03*
X13334Y1597D03*
X13634Y1597D03*
X13634Y2097D03*
X13634Y2297D03*
X12784Y1897D03*
X12484Y2297D03*
X12484Y2097D03*
X12484Y1897D03*
X12484Y1597D03*
X12784Y1597D03*
X12784Y2097D03*
X12784Y2297D03*
X11984Y1897D03*
X11684Y2297D03*
X11684Y2097D03*
X11684Y1897D03*
X11684Y1597D03*
X11984Y1597D03*
X11984Y2097D03*
X11984Y2297D03*
X11184Y1897D03*
X10884Y2297D03*
X10884Y2097D03*
X10884Y1897D03*
X10884Y1597D03*
X11184Y1597D03*
X11184Y2097D03*
X11184Y2297D03*
X9132Y1897D03*
X8832Y2297D03*
X8832Y2097D03*
X8832Y1897D03*
X8832Y1597D03*
X9132Y1597D03*
X9132Y2097D03*
X9132Y2297D03*
X8382Y1897D03*
X8082Y2297D03*
X8082Y2097D03*
X8082Y1897D03*
X8082Y1597D03*
X8382Y1597D03*
X8382Y2097D03*
X8382Y2297D03*
X7582Y1897D03*
X7282Y2297D03*
X7282Y2097D03*
X7282Y1897D03*
X7282Y1597D03*
X7582Y1597D03*
X7582Y2097D03*
X7582Y2297D03*
X6782Y1897D03*
X6482Y2297D03*
X6482Y2097D03*
X6482Y1897D03*
X6482Y1597D03*
X6782Y1597D03*
X6782Y2097D03*
X6782Y2297D03*
X6782Y997D03*
X6482Y1397D03*
X6482Y1197D03*
X6482Y997D03*
X6482Y697D03*
X6782Y697D03*
X6782Y1197D03*
X6782Y1397D03*
X7582Y997D03*
X7282Y1397D03*
X7282Y1197D03*
X7282Y997D03*
X7282Y697D03*
X7582Y697D03*
X7582Y1197D03*
X7582Y1397D03*
X8382Y997D03*
X8082Y1397D03*
X8082Y1197D03*
X8082Y997D03*
X8082Y697D03*
X8382Y697D03*
X8382Y1197D03*
X8382Y1397D03*
X11182Y997D03*
X10882Y1397D03*
X10882Y1197D03*
X10882Y997D03*
X10882Y697D03*
X11182Y697D03*
X11182Y1197D03*
X11182Y1397D03*
X11982Y997D03*
X11682Y1397D03*
X11682Y1197D03*
X11682Y997D03*
X11682Y697D03*
X11982Y697D03*
X11982Y1197D03*
X11982Y1397D03*
X12782Y997D03*
X12482Y1397D03*
X12482Y1197D03*
X12482Y997D03*
X12482Y697D03*
X12782Y697D03*
X12782Y1197D03*
X12782Y1397D03*
X13632Y997D03*
X13332Y1397D03*
X13332Y1197D03*
X13332Y997D03*
X13332Y697D03*
X13632Y697D03*
X13632Y1197D03*
X13632Y1397D03*
X10182Y1897D03*
X9882Y2297D03*
X9882Y2097D03*
X9882Y1897D03*
X9882Y1597D03*
X10182Y1597D03*
X10182Y2097D03*
X10182Y2297D03*
X5832Y1897D03*
X5532Y2297D03*
X5532Y2097D03*
X5532Y1897D03*
X5532Y1597D03*
X5832Y1597D03*
X5832Y2097D03*
X5832Y2297D03*
X9132Y997D03*
X8832Y1397D03*
X8832Y1197D03*
X8832Y997D03*
X8832Y697D03*
X9132Y697D03*
X9132Y1197D03*
X9132Y1397D03*
G54D14*
X2832Y2597D03*
X2832Y2197D03*
G54D12*
X2982Y2197D03*
X3280Y2197D03*
G54D14*
X3932Y2197D03*
X3932Y1697D03*
X3532Y1597D03*
X3532Y1997D03*
X3582Y2597D03*
X3582Y2197D03*
X2982Y1897D03*
X3282Y1897D03*
X2982Y1797D03*
X3282Y1797D03*
X2982Y1697D03*
X3282Y1697D03*
X2982Y1597D03*
X3282Y1597D03*
G54D13*
X4181Y2913D03*
X4083Y2812D03*
X3886Y2913D03*
X3689Y2812D03*
X3591Y2913D03*
X4083Y3319D03*
X3689Y3319D03*
X3354Y2913D03*
X3256Y2812D03*
X3059Y2913D03*
X2862Y2812D03*
X2764Y2913D03*
X3256Y3319D03*
X2862Y3319D03*
G54D14*
X5182Y2347D03*
X5182Y2847D03*
X9632Y2047D03*
X9632Y2547D03*
X10482Y2047D03*
X10482Y2547D03*
X6232Y2347D03*
X6232Y2847D03*
X5332Y1097D03*
X5332Y997D03*
X5332Y897D03*
X3882Y647D03*
X4235Y1001D03*
G54D12*
X5832Y1297D03*
X5534Y1297D03*
G54D28*
X10183Y1297D03*
G54D29*
X2332Y557D03*
G54D30*
X1302Y517D03*
G54D31*
X1464Y551D03*
G54D32*
X1792Y417D03*
X1792Y484D03*
X1792Y551D03*
X1792Y618D03*
X1792Y685D03*
G54D29*
X2332Y387D03*
G54D33*
X3182Y247D03*
G54D28*
X4132Y2296D03*
G54D29*
X9632Y397D03*
G54D28*
X2981Y2197D03*
G54D29*
X2982Y1897D03*
G54D28*
X5833Y1297D03*
G54D34*
X2013Y685D02*
X1991Y685D01*
D02*
X2013Y618D02*
X1991Y618D01*
D02*
X2013Y551D02*
X1991Y551D01*
D02*
X2013Y484D02*
X1991Y484D01*
D02*
X2013Y417D02*
X1991Y417D01*
G54D35*
D02*
X9884Y1329D02*
X9882Y1568D01*
G54D36*
D02*
X3972Y2197D02*
X4442Y2197D01*
D02*
X3554Y2169D02*
X3310Y1925D01*
D02*
X3622Y2197D02*
X3892Y2197D01*
G54D35*
D02*
X4932Y947D02*
X4932Y1618D01*
D02*
X5611Y268D02*
X4932Y947D01*
G54D37*
D02*
X1829Y685D02*
X1964Y685D01*
D02*
X2512Y697D02*
X2366Y695D01*
D02*
X2605Y612D02*
X2512Y697D01*
D02*
X2306Y673D02*
X2241Y617D01*
D02*
X2241Y617D02*
X2040Y618D01*
D02*
X3005Y562D02*
X2923Y488D01*
D02*
X2923Y488D02*
X2040Y484D01*
D02*
X1964Y417D02*
X1829Y417D01*
D02*
X1964Y484D02*
X1829Y484D01*
D02*
X1829Y551D02*
X1964Y551D01*
D02*
X1964Y618D02*
X1829Y618D01*
G54D36*
D02*
X2191Y1697D02*
X1615Y1695D01*
D02*
X2632Y1097D02*
X2632Y629D01*
D02*
X2261Y1468D02*
X2632Y1097D01*
D02*
X2332Y1597D02*
X2782Y2047D01*
D02*
X2782Y2047D02*
X1784Y2047D01*
D02*
X2273Y1597D02*
X2332Y1597D01*
D02*
X3182Y438D02*
X3182Y296D01*
D02*
X3062Y557D02*
X3182Y438D01*
D02*
X1230Y1699D02*
X1541Y1695D01*
D02*
X1061Y1527D02*
X1230Y1699D01*
G54D35*
D02*
X11281Y3161D02*
X11271Y3205D01*
D02*
X10295Y3161D02*
X10285Y3205D01*
D02*
X9797Y3161D02*
X9807Y3205D01*
D02*
X9311Y3161D02*
X9301Y3205D01*
D02*
X8523Y3161D02*
X8513Y3205D01*
D02*
X7739Y3161D02*
X7729Y3205D01*
D02*
X6950Y3161D02*
X6940Y3205D01*
D02*
X6078Y3247D02*
X6428Y3247D01*
D02*
X13669Y3247D02*
X14019Y3247D01*
D02*
X13645Y3161D02*
X13636Y3205D01*
D02*
X12856Y3161D02*
X12847Y3205D01*
D02*
X12067Y3161D02*
X12058Y3205D01*
D02*
X10783Y3161D02*
X10793Y3205D01*
D02*
X8813Y3161D02*
X8823Y3205D01*
D02*
X8025Y3161D02*
X8035Y3205D01*
D02*
X7241Y3161D02*
X7251Y3205D01*
D02*
X6452Y3161D02*
X6462Y3205D01*
D02*
X13147Y3161D02*
X13157Y3205D01*
D02*
X12359Y3161D02*
X12368Y3205D01*
D02*
X11570Y3161D02*
X11579Y3205D01*
G54D36*
D02*
X2582Y1347D02*
X3482Y1347D01*
D02*
X3482Y1347D02*
X4553Y276D01*
D02*
X2333Y1596D02*
X2582Y1347D01*
D02*
X2273Y1597D02*
X2333Y1596D01*
G54D35*
D02*
X9782Y1297D02*
X9852Y1297D01*
D02*
X9382Y897D02*
X9782Y1297D01*
D02*
X5932Y897D02*
X9382Y897D01*
D02*
X5532Y1297D02*
X5932Y897D01*
D02*
X5502Y1297D02*
X5532Y1297D01*
D02*
X3503Y268D02*
X3862Y627D01*
D02*
X5511Y1274D02*
X5352Y1117D01*
D02*
X9482Y895D02*
X9782Y895D01*
D02*
X9782Y895D02*
X9930Y747D01*
D02*
X9930Y747D02*
X9931Y726D01*
D02*
X9182Y597D02*
X9482Y895D01*
D02*
X8932Y597D02*
X9182Y597D01*
D02*
X8852Y677D02*
X8932Y597D01*
D02*
X10682Y897D02*
X10182Y899D01*
D02*
X10182Y899D02*
X10034Y747D01*
D02*
X10034Y747D02*
X10033Y726D01*
D02*
X10862Y717D02*
X10682Y897D01*
D02*
X5534Y1329D02*
X5532Y1568D01*
G54D36*
D02*
X2333Y1596D02*
X2273Y1597D01*
D02*
X2782Y2047D02*
X2333Y1596D01*
D02*
X3134Y2047D02*
X2782Y2047D01*
D02*
X3254Y1925D02*
X3134Y2047D01*
G54D35*
D02*
X5332Y297D02*
X5332Y277D01*
D02*
X3952Y1677D02*
X5332Y297D01*
D02*
X10232Y277D02*
X10232Y368D01*
D02*
X10132Y277D02*
X10132Y368D01*
D02*
X10032Y277D02*
X10032Y368D01*
D02*
X9932Y277D02*
X9932Y368D01*
D02*
X9832Y277D02*
X9832Y368D01*
D02*
X9732Y277D02*
X9732Y368D01*
D02*
X9632Y277D02*
X9632Y368D01*
D02*
X10432Y277D02*
X10432Y368D01*
D02*
X10332Y277D02*
X10332Y368D01*
D02*
X11432Y1347D02*
X11434Y1647D01*
D02*
X11434Y1647D02*
X11204Y1877D01*
D02*
X11882Y1097D02*
X11682Y1097D01*
D02*
X11682Y1097D02*
X11432Y1347D01*
D02*
X11962Y1017D02*
X11882Y1097D01*
D02*
X11382Y1297D02*
X11384Y1597D01*
D02*
X11084Y1897D02*
X10912Y1897D01*
D02*
X11384Y1597D02*
X11084Y1897D01*
D02*
X11662Y1017D02*
X11382Y1297D01*
D02*
X12232Y1347D02*
X12232Y1647D01*
D02*
X12232Y1647D02*
X12004Y1877D01*
D02*
X12682Y1097D02*
X12482Y1097D01*
D02*
X12482Y1097D02*
X12232Y1347D01*
D02*
X12762Y1017D02*
X12682Y1097D01*
D02*
X12182Y1297D02*
X12184Y1595D01*
D02*
X11884Y1895D02*
X11712Y1897D01*
D02*
X12184Y1595D02*
X11884Y1895D01*
D02*
X12462Y1017D02*
X12182Y1297D01*
D02*
X14282Y2447D02*
X13732Y1897D01*
D02*
X13732Y1897D02*
X13662Y1897D01*
D02*
X14282Y2773D02*
X14282Y2447D01*
D02*
X14088Y2968D02*
X14282Y2773D01*
D02*
X13432Y1997D02*
X13354Y1917D01*
D02*
X13682Y1997D02*
X13432Y1997D01*
D02*
X13882Y2197D02*
X13682Y1997D01*
D02*
X13882Y2547D02*
X13882Y2197D01*
D02*
X14033Y2717D02*
X13882Y2547D01*
D02*
X5582Y2747D02*
X5439Y2747D01*
D02*
X6232Y1347D02*
X6230Y2195D01*
D02*
X5456Y2973D02*
X5436Y2981D01*
D02*
X6230Y2195D02*
X5456Y2973D01*
D02*
X6482Y1097D02*
X6232Y1347D01*
D02*
X6682Y1097D02*
X6482Y1097D01*
D02*
X6762Y1017D02*
X6682Y1097D01*
D02*
X6182Y1297D02*
X6178Y2143D01*
D02*
X6178Y2143D02*
X5582Y2747D01*
D02*
X6462Y1017D02*
X6182Y1297D01*
D02*
X5439Y3247D02*
X5997Y3247D01*
D02*
X14658Y3247D02*
X14100Y3247D01*
D02*
X10582Y1297D02*
X10582Y2347D01*
D02*
X10582Y2347D02*
X10334Y2589D01*
D02*
X10862Y1017D02*
X10582Y1297D01*
D02*
X10630Y2547D02*
X10334Y2839D01*
D02*
X10632Y1347D02*
X10630Y2547D01*
D02*
X11082Y1097D02*
X10882Y1097D01*
D02*
X10882Y1097D02*
X10632Y1347D01*
D02*
X11162Y1017D02*
X11082Y1097D01*
D02*
X8232Y547D02*
X8102Y677D01*
D02*
X9232Y547D02*
X8232Y547D01*
D02*
X9532Y847D02*
X9232Y547D01*
D02*
X9734Y847D02*
X9532Y847D01*
D02*
X9834Y747D02*
X9734Y847D01*
D02*
X9833Y726D02*
X9834Y747D01*
D02*
X10282Y797D02*
X10232Y747D01*
D02*
X12332Y547D02*
X10732Y547D01*
D02*
X10482Y797D02*
X10282Y797D01*
D02*
X10732Y547D02*
X10482Y797D01*
D02*
X10232Y747D02*
X10232Y726D01*
D02*
X12462Y677D02*
X12332Y547D01*
D02*
X10782Y597D02*
X10533Y847D01*
D02*
X11582Y597D02*
X10782Y597D01*
D02*
X10232Y847D02*
X10132Y747D01*
D02*
X10533Y847D02*
X10232Y847D01*
D02*
X10132Y747D02*
X10132Y726D01*
D02*
X11662Y677D02*
X11582Y597D01*
D02*
X10332Y647D02*
X10332Y668D01*
D02*
X10482Y497D02*
X10332Y647D01*
D02*
X13132Y497D02*
X10482Y497D01*
D02*
X13312Y677D02*
X13132Y497D01*
D02*
X6732Y447D02*
X9432Y447D01*
D02*
X9432Y447D02*
X9632Y647D01*
D02*
X9632Y647D02*
X9632Y668D01*
D02*
X6502Y677D02*
X6732Y447D01*
D02*
X7482Y497D02*
X7302Y677D01*
D02*
X9282Y497D02*
X7482Y497D01*
D02*
X9582Y795D02*
X9282Y497D01*
D02*
X9682Y797D02*
X9582Y795D01*
D02*
X9732Y747D02*
X9682Y797D01*
D02*
X9732Y726D02*
X9732Y747D01*
D02*
X13634Y2447D02*
X13634Y2326D01*
D02*
X13334Y2421D02*
X13334Y2326D01*
D02*
X13168Y2589D02*
X13334Y2421D01*
D02*
X13208Y2873D02*
X13634Y2447D01*
D02*
X13181Y2871D02*
X13208Y2873D01*
D02*
X11182Y2547D02*
X11184Y2326D01*
D02*
X10856Y2873D02*
X11182Y2547D01*
D02*
X10817Y2871D02*
X10856Y2873D01*
D02*
X10882Y2521D02*
X10884Y2326D01*
D02*
X10806Y2590D02*
X10882Y2521D01*
D02*
X11982Y2521D02*
X11984Y2326D01*
D02*
X11630Y2873D02*
X11982Y2521D01*
D02*
X11603Y2871D02*
X11630Y2873D01*
D02*
X11682Y2499D02*
X11684Y2326D01*
D02*
X11591Y2589D02*
X11682Y2499D01*
D02*
X12482Y2495D02*
X12484Y2326D01*
D02*
X12381Y2590D02*
X12482Y2495D01*
D02*
X9132Y1797D02*
X9782Y2447D01*
D02*
X8832Y1297D02*
X8682Y1447D01*
D02*
X8682Y1447D02*
X8682Y1847D01*
D02*
X8934Y2099D02*
X9103Y2097D01*
D02*
X8682Y1847D02*
X8934Y2099D01*
D02*
X9032Y1297D02*
X8832Y1297D01*
D02*
X9112Y1217D02*
X9032Y1297D01*
D02*
X8632Y1397D02*
X8634Y1895D01*
D02*
X8634Y1895D02*
X8812Y2077D01*
D02*
X8812Y1217D02*
X8632Y1397D01*
D02*
X8834Y2573D02*
X8832Y2326D01*
D02*
X8827Y2583D02*
X8834Y2573D01*
D02*
X9134Y2573D02*
X9132Y2326D01*
D02*
X8856Y2847D02*
X9134Y2573D01*
D02*
X8844Y2852D02*
X8856Y2847D01*
D02*
X9532Y2297D02*
X9152Y1917D01*
D02*
X9532Y2597D02*
X9532Y2297D01*
D02*
X9759Y2838D02*
X9532Y2597D01*
D02*
X8932Y1797D02*
X9132Y1797D01*
D02*
X9782Y2447D02*
X9787Y2576D01*
D02*
X8852Y1877D02*
X8932Y1797D01*
D02*
X7932Y1447D02*
X7934Y1843D01*
D02*
X8182Y2099D02*
X8353Y2097D01*
D02*
X7934Y1843D02*
X8182Y2099D01*
D02*
X8282Y1297D02*
X8082Y1297D01*
D02*
X8082Y1297D02*
X7932Y1447D01*
D02*
X8362Y1217D02*
X8282Y1297D01*
D02*
X8582Y1347D02*
X8582Y1695D01*
D02*
X8582Y1695D02*
X8402Y1877D01*
D02*
X8832Y1097D02*
X8582Y1347D01*
D02*
X9032Y1097D02*
X8832Y1097D01*
D02*
X9112Y1017D02*
X9032Y1097D01*
D02*
X7882Y1397D02*
X7882Y1895D01*
D02*
X7882Y1895D02*
X8062Y2077D01*
D02*
X8062Y1217D02*
X7882Y1397D01*
D02*
X8382Y2547D02*
X8382Y2326D01*
D02*
X8082Y2847D02*
X8382Y2547D01*
D02*
X8056Y2855D02*
X8082Y2847D01*
D02*
X8082Y2547D02*
X8082Y2326D01*
D02*
X8045Y2588D02*
X8082Y2547D01*
D02*
X8282Y1895D02*
X8111Y1897D01*
D02*
X8532Y1647D02*
X8282Y1895D01*
D02*
X8532Y1297D02*
X8532Y1647D01*
D02*
X8812Y1017D02*
X8532Y1297D01*
D02*
X7082Y1397D02*
X7082Y1895D01*
D02*
X7082Y1895D02*
X7262Y2077D01*
D02*
X7262Y1217D02*
X7082Y1397D01*
D02*
X7582Y2573D02*
X7582Y2326D01*
D02*
X7308Y2847D02*
X7582Y2573D01*
D02*
X7273Y2857D02*
X7308Y2847D01*
D02*
X7282Y2573D02*
X7282Y2326D01*
D02*
X7263Y2590D02*
X7282Y2573D01*
D02*
X6782Y2547D02*
X6782Y2326D01*
D02*
X6508Y2821D02*
X6782Y2547D01*
D02*
X6477Y2844D02*
X6508Y2821D01*
D02*
X6482Y2573D02*
X6482Y2326D01*
D02*
X6471Y2586D02*
X6482Y2573D01*
D02*
X7782Y1297D02*
X7782Y1597D01*
D02*
X7482Y1897D02*
X7311Y1897D01*
D02*
X7782Y1597D02*
X7482Y1897D01*
D02*
X8062Y1017D02*
X7782Y1297D01*
D02*
X7832Y1647D02*
X7602Y1877D01*
D02*
X7832Y1347D02*
X7832Y1647D01*
D02*
X8082Y1097D02*
X7832Y1347D01*
D02*
X8282Y1097D02*
X8082Y1097D01*
D02*
X8362Y1017D02*
X8282Y1097D01*
D02*
X7132Y1447D02*
X7134Y1851D01*
D02*
X7282Y1297D02*
X7132Y1447D01*
D02*
X7382Y2097D02*
X7553Y2097D01*
D02*
X7134Y1851D02*
X7382Y2097D01*
D02*
X7482Y1297D02*
X7282Y1297D01*
D02*
X7562Y1217D02*
X7482Y1297D01*
D02*
X9934Y2873D02*
X9845Y2966D01*
D02*
X10261Y2869D02*
X9934Y2873D01*
D02*
X7032Y1347D02*
X7030Y1643D01*
D02*
X6982Y1297D02*
X6978Y1599D01*
D02*
X7030Y1643D02*
X6802Y1876D01*
D02*
X7282Y1097D02*
X7032Y1347D01*
D02*
X7482Y1097D02*
X7282Y1097D01*
D02*
X7562Y1017D02*
X7482Y1097D01*
D02*
X6682Y1897D02*
X6511Y1897D01*
D02*
X6978Y1599D02*
X6682Y1897D01*
D02*
X7262Y1017D02*
X6982Y1297D01*
D02*
X6332Y1447D02*
X6334Y1843D01*
D02*
X6582Y2097D02*
X6753Y2097D01*
D02*
X6334Y1843D02*
X6582Y2097D01*
D02*
X6682Y1297D02*
X6482Y1297D01*
D02*
X6482Y1297D02*
X6332Y1447D01*
D02*
X6762Y1217D02*
X6682Y1297D01*
D02*
X6282Y1397D02*
X6282Y1895D01*
D02*
X6282Y1895D02*
X6462Y2077D01*
D02*
X6462Y1217D02*
X6282Y1397D01*
D02*
X9934Y2621D02*
X9845Y2716D01*
D02*
X10261Y2619D02*
X9934Y2621D01*
D02*
X11484Y1897D02*
X11664Y2077D01*
D02*
X11482Y1397D02*
X11484Y1897D01*
D02*
X11662Y1217D02*
X11482Y1397D01*
D02*
X11532Y1447D02*
X11534Y1847D01*
D02*
X11784Y2097D02*
X11955Y2097D01*
D02*
X11534Y1847D02*
X11784Y2097D01*
D02*
X11882Y1297D02*
X11682Y1297D01*
D02*
X11682Y1297D02*
X11532Y1447D01*
D02*
X11962Y1217D02*
X11882Y1297D01*
D02*
X12282Y1397D02*
X12284Y1897D01*
D02*
X12284Y1897D02*
X12464Y2077D01*
D02*
X12462Y1217D02*
X12282Y1397D01*
D02*
X12332Y1447D02*
X12334Y1847D01*
D02*
X12584Y2097D02*
X12755Y2097D01*
D02*
X12334Y1847D02*
X12584Y2097D01*
D02*
X12682Y1297D02*
X12482Y1297D01*
D02*
X12482Y1297D02*
X12332Y1447D01*
D02*
X12762Y1217D02*
X12682Y1297D01*
D02*
X13132Y1447D02*
X13134Y1797D01*
D02*
X13434Y2097D02*
X13605Y2097D01*
D02*
X13134Y1797D02*
X13434Y2097D01*
D02*
X13532Y1297D02*
X13282Y1297D01*
D02*
X13282Y1297D02*
X13132Y1447D01*
D02*
X13612Y1217D02*
X13532Y1297D01*
D02*
X13082Y1397D02*
X13084Y1847D01*
D02*
X13084Y1847D02*
X13314Y2077D01*
D02*
X13282Y1197D02*
X13082Y1397D01*
D02*
X13303Y1197D02*
X13282Y1197D01*
D02*
X13032Y1347D02*
X13034Y1647D01*
D02*
X13034Y1647D02*
X12804Y1877D01*
D02*
X13532Y1097D02*
X13282Y1097D01*
D02*
X13282Y1097D02*
X13032Y1347D01*
D02*
X13612Y1017D02*
X13532Y1097D01*
D02*
X12982Y1297D02*
X12984Y1597D01*
D02*
X13282Y997D02*
X12982Y1297D01*
D02*
X12684Y1897D02*
X12512Y1897D01*
D02*
X12984Y1597D02*
X12684Y1897D01*
D02*
X13303Y997D02*
X13282Y997D01*
D02*
X10682Y1397D02*
X10684Y1897D01*
D02*
X10684Y1897D02*
X10864Y2077D01*
D02*
X10862Y1217D02*
X10682Y1397D01*
D02*
X10732Y1447D02*
X10734Y1847D01*
D02*
X10882Y1297D02*
X10732Y1447D01*
D02*
X10984Y2097D02*
X11155Y2097D01*
D02*
X10734Y1847D02*
X10984Y2097D01*
D02*
X11082Y1297D02*
X10882Y1297D01*
D02*
X11162Y1217D02*
X11082Y1297D01*
D02*
X7973Y3119D02*
X7790Y3119D01*
D02*
X7705Y3119D02*
X7275Y3119D01*
D02*
X7190Y3119D02*
X7002Y3119D01*
D02*
X6916Y3119D02*
X6486Y3119D01*
D02*
X10261Y3119D02*
X9831Y3119D01*
D02*
X9746Y3119D02*
X9363Y3119D01*
D02*
X9277Y3119D02*
X8847Y3119D01*
D02*
X8762Y3119D02*
X8574Y3119D01*
D02*
X8489Y3119D02*
X8059Y3119D01*
D02*
X12307Y3119D02*
X12119Y3119D01*
D02*
X12034Y3119D02*
X11603Y3119D01*
D02*
X11518Y3119D02*
X11333Y3119D01*
D02*
X11247Y3119D02*
X10817Y3119D01*
D02*
X10732Y3119D02*
X10347Y3119D01*
D02*
X13612Y3119D02*
X13181Y3119D01*
D02*
X13096Y3119D02*
X12908Y3119D01*
D02*
X12823Y3119D02*
X12392Y3119D01*
D02*
X12782Y2495D02*
X12784Y2326D01*
D02*
X12408Y2873D02*
X12782Y2495D01*
D02*
X12392Y2872D02*
X12408Y2873D01*
D02*
X7678Y3247D02*
X7302Y3247D01*
D02*
X7217Y3247D02*
X6974Y3247D01*
D02*
X6889Y3247D02*
X6513Y3247D01*
D02*
X9773Y3247D02*
X9335Y3247D01*
D02*
X9250Y3247D02*
X8875Y3247D01*
D02*
X8789Y3247D02*
X8547Y3247D01*
D02*
X8462Y3247D02*
X8086Y3247D01*
D02*
X8001Y3247D02*
X7763Y3247D01*
D02*
X12006Y3247D02*
X11631Y3247D01*
D02*
X11546Y3247D02*
X11305Y3247D01*
D02*
X11220Y3247D02*
X10844Y3247D01*
D02*
X10759Y3247D02*
X10319Y3247D01*
D02*
X10234Y3247D02*
X9858Y3247D01*
D02*
X13584Y3247D02*
X13209Y3247D01*
D02*
X13123Y3247D02*
X12880Y3247D01*
D02*
X12795Y3247D02*
X12420Y3247D01*
D02*
X12334Y3247D02*
X12091Y3247D01*
D02*
X5332Y2297D02*
X5332Y2947D01*
D02*
X5332Y2947D02*
X5366Y2973D01*
D02*
X5512Y2117D02*
X5332Y2297D01*
D02*
X5812Y2117D02*
X5432Y2497D01*
D02*
X5432Y2497D02*
X5404Y2707D01*
G54D38*
X173Y1812D02*
X193Y1812D01*
X213Y1812D02*
X217Y1812D01*
X171Y1811D02*
X194Y1811D01*
X211Y1811D02*
X218Y1811D01*
X169Y1810D02*
X195Y1810D01*
X211Y1810D02*
X219Y1810D01*
X167Y1809D02*
X196Y1809D01*
X210Y1809D02*
X219Y1809D01*
X166Y1808D02*
X196Y1808D01*
X210Y1808D02*
X220Y1808D01*
X165Y1807D02*
X196Y1807D01*
X210Y1807D02*
X220Y1807D01*
X164Y1806D02*
X196Y1806D01*
X210Y1806D02*
X220Y1806D01*
X164Y1805D02*
X196Y1805D01*
X210Y1805D02*
X220Y1805D01*
X163Y1804D02*
X196Y1804D01*
X210Y1804D02*
X220Y1804D01*
X162Y1803D02*
X196Y1803D01*
X210Y1803D02*
X220Y1803D01*
X161Y1802D02*
X196Y1802D01*
X210Y1802D02*
X220Y1802D01*
X160Y1801D02*
X175Y1801D01*
X186Y1801D02*
X196Y1801D01*
X210Y1801D02*
X220Y1801D01*
X160Y1800D02*
X173Y1800D01*
X186Y1800D02*
X196Y1800D01*
X210Y1800D02*
X220Y1800D01*
X159Y1799D02*
X172Y1799D01*
X186Y1799D02*
X196Y1799D01*
X210Y1799D02*
X220Y1799D01*
X159Y1798D02*
X171Y1798D01*
X186Y1798D02*
X196Y1798D01*
X210Y1798D02*
X220Y1798D01*
X158Y1797D02*
X170Y1797D01*
X186Y1797D02*
X196Y1797D01*
X210Y1797D02*
X220Y1797D01*
X158Y1796D02*
X169Y1796D01*
X186Y1796D02*
X196Y1796D01*
X210Y1796D02*
X220Y1796D01*
X158Y1795D02*
X169Y1795D01*
X186Y1795D02*
X196Y1795D01*
X210Y1795D02*
X220Y1795D01*
X158Y1794D02*
X168Y1794D01*
X186Y1794D02*
X196Y1794D01*
X210Y1794D02*
X220Y1794D01*
X158Y1793D02*
X168Y1793D01*
X186Y1793D02*
X196Y1793D01*
X210Y1793D02*
X220Y1793D01*
X158Y1792D02*
X168Y1792D01*
X186Y1792D02*
X196Y1792D01*
X210Y1792D02*
X220Y1792D01*
X158Y1791D02*
X168Y1791D01*
X186Y1791D02*
X196Y1791D01*
X210Y1791D02*
X220Y1791D01*
X158Y1790D02*
X168Y1790D01*
X186Y1790D02*
X196Y1790D01*
X210Y1790D02*
X220Y1790D01*
X158Y1789D02*
X168Y1789D01*
X186Y1789D02*
X196Y1789D01*
X210Y1789D02*
X220Y1789D01*
X158Y1788D02*
X168Y1788D01*
X186Y1788D02*
X196Y1788D01*
X210Y1788D02*
X220Y1788D01*
X158Y1787D02*
X168Y1787D01*
X186Y1787D02*
X196Y1787D01*
X210Y1787D02*
X220Y1787D01*
X158Y1786D02*
X168Y1786D01*
X186Y1786D02*
X196Y1786D01*
X210Y1786D02*
X220Y1786D01*
X158Y1785D02*
X168Y1785D01*
X186Y1785D02*
X196Y1785D01*
X210Y1785D02*
X220Y1785D01*
X158Y1784D02*
X168Y1784D01*
X186Y1784D02*
X196Y1784D01*
X210Y1784D02*
X220Y1784D01*
X158Y1783D02*
X168Y1783D01*
X186Y1783D02*
X196Y1783D01*
X210Y1783D02*
X220Y1783D01*
X158Y1782D02*
X168Y1782D01*
X186Y1782D02*
X196Y1782D01*
X210Y1782D02*
X220Y1782D01*
X158Y1781D02*
X168Y1781D01*
X186Y1781D02*
X196Y1781D01*
X210Y1781D02*
X220Y1781D01*
X158Y1780D02*
X168Y1780D01*
X186Y1780D02*
X196Y1780D01*
X210Y1780D02*
X220Y1780D01*
X158Y1779D02*
X168Y1779D01*
X186Y1779D02*
X196Y1779D01*
X210Y1779D02*
X220Y1779D01*
X158Y1778D02*
X168Y1778D01*
X186Y1778D02*
X196Y1778D01*
X210Y1778D02*
X220Y1778D01*
X158Y1777D02*
X168Y1777D01*
X186Y1777D02*
X196Y1777D01*
X209Y1777D02*
X220Y1777D01*
X158Y1776D02*
X168Y1776D01*
X186Y1776D02*
X196Y1776D01*
X209Y1776D02*
X220Y1776D01*
X158Y1775D02*
X169Y1775D01*
X186Y1775D02*
X196Y1775D01*
X209Y1775D02*
X220Y1775D01*
X158Y1774D02*
X169Y1774D01*
X186Y1774D02*
X196Y1774D01*
X208Y1774D02*
X219Y1774D01*
X158Y1773D02*
X170Y1773D01*
X186Y1773D02*
X196Y1773D01*
X207Y1773D02*
X219Y1773D01*
X159Y1772D02*
X171Y1772D01*
X186Y1772D02*
X196Y1772D01*
X206Y1772D02*
X219Y1772D01*
X159Y1771D02*
X172Y1771D01*
X186Y1771D02*
X196Y1771D01*
X205Y1771D02*
X218Y1771D01*
X160Y1770D02*
X173Y1770D01*
X186Y1770D02*
X196Y1770D01*
X204Y1770D02*
X218Y1770D01*
X160Y1769D02*
X175Y1769D01*
X186Y1769D02*
X196Y1769D01*
X203Y1769D02*
X217Y1769D01*
X161Y1768D02*
X217Y1768D01*
X162Y1767D02*
X216Y1767D01*
X163Y1766D02*
X215Y1766D01*
X164Y1765D02*
X214Y1765D01*
X164Y1764D02*
X213Y1764D01*
X165Y1763D02*
X212Y1763D01*
X166Y1762D02*
X211Y1762D01*
X167Y1761D02*
X210Y1761D01*
X169Y1760D02*
X209Y1760D01*
X171Y1759D02*
X207Y1759D01*
X173Y1758D02*
X205Y1758D01*
X204Y1732D02*
X207Y1732D01*
X202Y1731D02*
X209Y1731D01*
X201Y1730D02*
X211Y1730D01*
X201Y1729D02*
X213Y1729D01*
X200Y1728D02*
X214Y1728D01*
X200Y1727D02*
X215Y1727D01*
X161Y1726D02*
X165Y1726D01*
X200Y1726D02*
X216Y1726D01*
X159Y1725D02*
X166Y1725D01*
X200Y1725D02*
X217Y1725D01*
X159Y1724D02*
X167Y1724D01*
X201Y1724D02*
X217Y1724D01*
X158Y1723D02*
X167Y1723D01*
X202Y1723D02*
X218Y1723D01*
X158Y1722D02*
X168Y1722D01*
X203Y1722D02*
X218Y1722D01*
X158Y1721D02*
X168Y1721D01*
X205Y1721D02*
X219Y1721D01*
X158Y1720D02*
X168Y1720D01*
X207Y1720D02*
X219Y1720D01*
X158Y1719D02*
X168Y1719D01*
X208Y1719D02*
X219Y1719D01*
X158Y1718D02*
X168Y1718D01*
X209Y1718D02*
X220Y1718D01*
X158Y1717D02*
X168Y1717D01*
X209Y1717D02*
X220Y1717D01*
X158Y1716D02*
X168Y1716D01*
X209Y1716D02*
X220Y1716D01*
X158Y1715D02*
X168Y1715D01*
X210Y1715D02*
X220Y1715D01*
X158Y1714D02*
X168Y1714D01*
X210Y1714D02*
X220Y1714D01*
X158Y1713D02*
X168Y1713D01*
X210Y1713D02*
X220Y1713D01*
X158Y1712D02*
X168Y1712D01*
X210Y1712D02*
X220Y1712D01*
X158Y1711D02*
X168Y1711D01*
X210Y1711D02*
X220Y1711D01*
X158Y1710D02*
X168Y1710D01*
X210Y1710D02*
X220Y1710D01*
X158Y1709D02*
X168Y1709D01*
X210Y1709D02*
X220Y1709D01*
X158Y1708D02*
X168Y1708D01*
X210Y1708D02*
X220Y1708D01*
X158Y1707D02*
X168Y1707D01*
X210Y1707D02*
X220Y1707D01*
X158Y1706D02*
X168Y1706D01*
X210Y1706D02*
X220Y1706D01*
X158Y1705D02*
X168Y1705D01*
X210Y1705D02*
X220Y1705D01*
X158Y1704D02*
X168Y1704D01*
X209Y1704D02*
X220Y1704D01*
X158Y1703D02*
X168Y1703D01*
X209Y1703D02*
X220Y1703D01*
X158Y1702D02*
X168Y1702D01*
X209Y1702D02*
X220Y1702D01*
X158Y1701D02*
X168Y1701D01*
X208Y1701D02*
X219Y1701D01*
X158Y1700D02*
X168Y1700D01*
X207Y1700D02*
X219Y1700D01*
X143Y1699D02*
X219Y1699D01*
X141Y1698D02*
X218Y1698D01*
X140Y1697D02*
X218Y1697D01*
X139Y1696D02*
X217Y1696D01*
X139Y1695D02*
X217Y1695D01*
X139Y1694D02*
X216Y1694D01*
X139Y1693D02*
X215Y1693D01*
X139Y1692D02*
X214Y1692D01*
X139Y1691D02*
X213Y1691D01*
X140Y1690D02*
X211Y1690D01*
X141Y1689D02*
X209Y1689D01*
X144Y1688D02*
X204Y1688D01*
X158Y1687D02*
X168Y1687D01*
X158Y1686D02*
X168Y1686D01*
X158Y1685D02*
X168Y1685D01*
X158Y1684D02*
X168Y1684D01*
X158Y1683D02*
X168Y1683D01*
X158Y1682D02*
X168Y1682D01*
X158Y1681D02*
X168Y1681D01*
X158Y1680D02*
X167Y1680D01*
X159Y1679D02*
X167Y1679D01*
X160Y1678D02*
X166Y1678D01*
X188Y1651D02*
X217Y1651D01*
X170Y1650D02*
X218Y1650D01*
X167Y1649D02*
X219Y1649D01*
X166Y1648D02*
X219Y1648D01*
X164Y1647D02*
X220Y1647D01*
X302Y1647D02*
X366Y1647D01*
X163Y1646D02*
X220Y1646D01*
X300Y1646D02*
X368Y1646D01*
X162Y1645D02*
X220Y1645D01*
X299Y1645D02*
X369Y1645D01*
X161Y1644D02*
X219Y1644D01*
X298Y1644D02*
X370Y1644D01*
X160Y1643D02*
X219Y1643D01*
X297Y1643D02*
X371Y1643D01*
X160Y1642D02*
X218Y1642D01*
X297Y1642D02*
X371Y1642D01*
X159Y1641D02*
X216Y1641D01*
X296Y1641D02*
X372Y1641D01*
X159Y1640D02*
X196Y1640D01*
X202Y1640D02*
X215Y1640D01*
X296Y1640D02*
X372Y1640D01*
X158Y1639D02*
X173Y1639D01*
X182Y1639D02*
X194Y1639D01*
X203Y1639D02*
X215Y1639D01*
X296Y1639D02*
X372Y1639D01*
X158Y1638D02*
X170Y1638D01*
X182Y1638D02*
X193Y1638D01*
X204Y1638D02*
X216Y1638D01*
X296Y1638D02*
X373Y1638D01*
X158Y1637D02*
X169Y1637D01*
X181Y1637D02*
X192Y1637D01*
X204Y1637D02*
X216Y1637D01*
X296Y1637D02*
X305Y1637D01*
X363Y1637D02*
X373Y1637D01*
X158Y1636D02*
X168Y1636D01*
X181Y1636D02*
X192Y1636D01*
X205Y1636D02*
X217Y1636D01*
X296Y1636D02*
X305Y1636D01*
X363Y1636D02*
X373Y1636D01*
X158Y1635D02*
X168Y1635D01*
X181Y1635D02*
X192Y1635D01*
X206Y1635D02*
X218Y1635D01*
X296Y1635D02*
X305Y1635D01*
X363Y1635D02*
X373Y1635D01*
X158Y1634D02*
X168Y1634D01*
X181Y1634D02*
X191Y1634D01*
X206Y1634D02*
X218Y1634D01*
X296Y1634D02*
X305Y1634D01*
X363Y1634D02*
X373Y1634D01*
X158Y1633D02*
X168Y1633D01*
X181Y1633D02*
X191Y1633D01*
X207Y1633D02*
X219Y1633D01*
X296Y1633D02*
X305Y1633D01*
X363Y1633D02*
X373Y1633D01*
X158Y1632D02*
X168Y1632D01*
X181Y1632D02*
X191Y1632D01*
X207Y1632D02*
X219Y1632D01*
X296Y1632D02*
X305Y1632D01*
X363Y1632D02*
X373Y1632D01*
X158Y1631D02*
X168Y1631D01*
X181Y1631D02*
X191Y1631D01*
X208Y1631D02*
X220Y1631D01*
X296Y1631D02*
X305Y1631D01*
X363Y1631D02*
X373Y1631D01*
X158Y1630D02*
X168Y1630D01*
X181Y1630D02*
X191Y1630D01*
X208Y1630D02*
X220Y1630D01*
X296Y1630D02*
X305Y1630D01*
X363Y1630D02*
X373Y1630D01*
X158Y1629D02*
X168Y1629D01*
X181Y1629D02*
X191Y1629D01*
X209Y1629D02*
X220Y1629D01*
X296Y1629D02*
X305Y1629D01*
X363Y1629D02*
X373Y1629D01*
X158Y1628D02*
X168Y1628D01*
X181Y1628D02*
X191Y1628D01*
X209Y1628D02*
X220Y1628D01*
X296Y1628D02*
X305Y1628D01*
X363Y1628D02*
X373Y1628D01*
X158Y1627D02*
X168Y1627D01*
X181Y1627D02*
X191Y1627D01*
X210Y1627D02*
X220Y1627D01*
X296Y1627D02*
X305Y1627D01*
X363Y1627D02*
X373Y1627D01*
X158Y1626D02*
X168Y1626D01*
X181Y1626D02*
X191Y1626D01*
X210Y1626D02*
X220Y1626D01*
X296Y1626D02*
X305Y1626D01*
X363Y1626D02*
X373Y1626D01*
X158Y1625D02*
X168Y1625D01*
X181Y1625D02*
X191Y1625D01*
X210Y1625D02*
X220Y1625D01*
X296Y1625D02*
X305Y1625D01*
X363Y1625D02*
X373Y1625D01*
X158Y1624D02*
X168Y1624D01*
X181Y1624D02*
X191Y1624D01*
X210Y1624D02*
X220Y1624D01*
X296Y1624D02*
X305Y1624D01*
X363Y1624D02*
X373Y1624D01*
X158Y1623D02*
X168Y1623D01*
X181Y1623D02*
X191Y1623D01*
X210Y1623D02*
X220Y1623D01*
X296Y1623D02*
X305Y1623D01*
X363Y1623D02*
X373Y1623D01*
X158Y1622D02*
X168Y1622D01*
X181Y1622D02*
X191Y1622D01*
X210Y1622D02*
X220Y1622D01*
X296Y1622D02*
X305Y1622D01*
X363Y1622D02*
X373Y1622D01*
X158Y1621D02*
X168Y1621D01*
X181Y1621D02*
X191Y1621D01*
X210Y1621D02*
X220Y1621D01*
X296Y1621D02*
X305Y1621D01*
X363Y1621D02*
X373Y1621D01*
X158Y1620D02*
X168Y1620D01*
X181Y1620D02*
X191Y1620D01*
X210Y1620D02*
X220Y1620D01*
X296Y1620D02*
X305Y1620D01*
X363Y1620D02*
X373Y1620D01*
X158Y1619D02*
X168Y1619D01*
X181Y1619D02*
X191Y1619D01*
X210Y1619D02*
X220Y1619D01*
X296Y1619D02*
X305Y1619D01*
X363Y1619D02*
X373Y1619D01*
X158Y1618D02*
X168Y1618D01*
X181Y1618D02*
X191Y1618D01*
X210Y1618D02*
X220Y1618D01*
X296Y1618D02*
X305Y1618D01*
X363Y1618D02*
X373Y1618D01*
X158Y1617D02*
X168Y1617D01*
X181Y1617D02*
X191Y1617D01*
X210Y1617D02*
X220Y1617D01*
X296Y1617D02*
X305Y1617D01*
X363Y1617D02*
X373Y1617D01*
X158Y1616D02*
X168Y1616D01*
X181Y1616D02*
X191Y1616D01*
X210Y1616D02*
X220Y1616D01*
X296Y1616D02*
X305Y1616D01*
X363Y1616D02*
X373Y1616D01*
X158Y1615D02*
X168Y1615D01*
X181Y1615D02*
X191Y1615D01*
X210Y1615D02*
X220Y1615D01*
X296Y1615D02*
X305Y1615D01*
X363Y1615D02*
X373Y1615D01*
X158Y1614D02*
X168Y1614D01*
X181Y1614D02*
X191Y1614D01*
X210Y1614D02*
X220Y1614D01*
X296Y1614D02*
X305Y1614D01*
X363Y1614D02*
X373Y1614D01*
X158Y1613D02*
X168Y1613D01*
X181Y1613D02*
X191Y1613D01*
X209Y1613D02*
X220Y1613D01*
X296Y1613D02*
X305Y1613D01*
X363Y1613D02*
X373Y1613D01*
X158Y1612D02*
X168Y1612D01*
X181Y1612D02*
X192Y1612D01*
X209Y1612D02*
X220Y1612D01*
X296Y1612D02*
X305Y1612D01*
X363Y1612D02*
X373Y1612D01*
X158Y1611D02*
X167Y1611D01*
X181Y1611D02*
X192Y1611D01*
X209Y1611D02*
X220Y1611D01*
X296Y1611D02*
X305Y1611D01*
X363Y1611D02*
X373Y1611D01*
X159Y1610D02*
X167Y1610D01*
X182Y1610D02*
X193Y1610D01*
X208Y1610D02*
X219Y1610D01*
X296Y1610D02*
X305Y1610D01*
X363Y1610D02*
X373Y1610D01*
X160Y1609D02*
X166Y1609D01*
X182Y1609D02*
X194Y1609D01*
X207Y1609D02*
X219Y1609D01*
X296Y1609D02*
X305Y1609D01*
X363Y1609D02*
X373Y1609D01*
X161Y1608D02*
X164Y1608D01*
X182Y1608D02*
X196Y1608D01*
X205Y1608D02*
X219Y1608D01*
X296Y1608D02*
X305Y1608D01*
X363Y1608D02*
X373Y1608D01*
X182Y1607D02*
X219Y1607D01*
X296Y1607D02*
X372Y1607D01*
X183Y1606D02*
X218Y1606D01*
X296Y1606D02*
X372Y1606D01*
X183Y1605D02*
X218Y1605D01*
X296Y1605D02*
X372Y1605D01*
X184Y1604D02*
X217Y1604D01*
X296Y1604D02*
X372Y1604D01*
X185Y1603D02*
X216Y1603D01*
X297Y1603D02*
X371Y1603D01*
X186Y1602D02*
X215Y1602D01*
X298Y1602D02*
X371Y1602D01*
X187Y1601D02*
X214Y1601D01*
X298Y1601D02*
X370Y1601D01*
X188Y1600D02*
X213Y1600D01*
X300Y1600D02*
X369Y1600D01*
X189Y1599D02*
X212Y1599D01*
X301Y1599D02*
X367Y1599D01*
X191Y1598D02*
X210Y1598D01*
X304Y1598D02*
X364Y1598D01*
X194Y1597D02*
X207Y1597D01*
X341Y1575D02*
X369Y1575D01*
X340Y1574D02*
X371Y1574D01*
X339Y1573D02*
X372Y1573D01*
X338Y1572D02*
X372Y1572D01*
X134Y1571D02*
X217Y1571D01*
X338Y1571D02*
X372Y1571D01*
X134Y1570D02*
X218Y1570D01*
X338Y1570D02*
X373Y1570D01*
X134Y1569D02*
X219Y1569D01*
X338Y1569D02*
X373Y1569D01*
X134Y1568D02*
X219Y1568D01*
X339Y1568D02*
X373Y1568D01*
X134Y1567D02*
X220Y1567D01*
X339Y1567D02*
X373Y1567D01*
X134Y1566D02*
X220Y1566D01*
X341Y1566D02*
X373Y1566D01*
X134Y1565D02*
X220Y1565D01*
X363Y1565D02*
X373Y1565D01*
X134Y1564D02*
X219Y1564D01*
X363Y1564D02*
X373Y1564D01*
X134Y1563D02*
X219Y1563D01*
X363Y1563D02*
X373Y1563D01*
X134Y1562D02*
X218Y1562D01*
X363Y1562D02*
X373Y1562D01*
X134Y1561D02*
X217Y1561D01*
X363Y1561D02*
X373Y1561D01*
X134Y1560D02*
X149Y1560D01*
X363Y1560D02*
X373Y1560D01*
X134Y1559D02*
X151Y1559D01*
X363Y1559D02*
X373Y1559D01*
X134Y1558D02*
X152Y1558D01*
X363Y1558D02*
X373Y1558D01*
X135Y1557D02*
X153Y1557D01*
X363Y1557D02*
X373Y1557D01*
X136Y1556D02*
X155Y1556D01*
X363Y1556D02*
X373Y1556D01*
X138Y1555D02*
X156Y1555D01*
X296Y1555D02*
X373Y1555D01*
X139Y1554D02*
X158Y1554D01*
X296Y1554D02*
X373Y1554D01*
X141Y1553D02*
X159Y1553D01*
X296Y1553D02*
X373Y1553D01*
X142Y1552D02*
X161Y1552D01*
X296Y1552D02*
X373Y1552D01*
X143Y1551D02*
X162Y1551D01*
X296Y1551D02*
X373Y1551D01*
X145Y1550D02*
X163Y1550D01*
X296Y1550D02*
X373Y1550D01*
X146Y1549D02*
X169Y1549D01*
X296Y1549D02*
X373Y1549D01*
X148Y1548D02*
X171Y1548D01*
X296Y1548D02*
X373Y1548D01*
X149Y1547D02*
X172Y1547D01*
X296Y1547D02*
X373Y1547D01*
X151Y1546D02*
X172Y1546D01*
X296Y1546D02*
X373Y1546D01*
X152Y1545D02*
X172Y1545D01*
X296Y1545D02*
X305Y1545D01*
X363Y1545D02*
X373Y1545D01*
X153Y1544D02*
X173Y1544D01*
X296Y1544D02*
X305Y1544D01*
X363Y1544D02*
X373Y1544D01*
X152Y1543D02*
X173Y1543D01*
X296Y1543D02*
X305Y1543D01*
X363Y1543D02*
X373Y1543D01*
X151Y1542D02*
X172Y1542D01*
X296Y1542D02*
X305Y1542D01*
X363Y1542D02*
X373Y1542D01*
X149Y1541D02*
X172Y1541D01*
X296Y1541D02*
X305Y1541D01*
X363Y1541D02*
X373Y1541D01*
X148Y1540D02*
X171Y1540D01*
X296Y1540D02*
X305Y1540D01*
X363Y1540D02*
X373Y1540D01*
X146Y1539D02*
X170Y1539D01*
X296Y1539D02*
X305Y1539D01*
X363Y1539D02*
X373Y1539D01*
X145Y1538D02*
X164Y1538D01*
X296Y1538D02*
X305Y1538D01*
X363Y1538D02*
X373Y1538D01*
X144Y1537D02*
X162Y1537D01*
X296Y1537D02*
X305Y1537D01*
X363Y1537D02*
X373Y1537D01*
X142Y1536D02*
X161Y1536D01*
X296Y1536D02*
X305Y1536D01*
X363Y1536D02*
X373Y1536D01*
X141Y1535D02*
X159Y1535D01*
X296Y1535D02*
X305Y1535D01*
X363Y1535D02*
X373Y1535D01*
X139Y1534D02*
X158Y1534D01*
X296Y1534D02*
X305Y1534D01*
X363Y1534D02*
X373Y1534D01*
X138Y1533D02*
X157Y1533D01*
X296Y1533D02*
X305Y1533D01*
X363Y1533D02*
X373Y1533D01*
X137Y1532D02*
X155Y1532D01*
X296Y1532D02*
X305Y1532D01*
X363Y1532D02*
X373Y1532D01*
X135Y1531D02*
X154Y1531D01*
X296Y1531D02*
X305Y1531D01*
X363Y1531D02*
X373Y1531D01*
X134Y1530D02*
X152Y1530D01*
X296Y1530D02*
X305Y1530D01*
X364Y1530D02*
X372Y1530D01*
X134Y1529D02*
X151Y1529D01*
X296Y1529D02*
X304Y1529D01*
X364Y1529D02*
X372Y1529D01*
X134Y1528D02*
X149Y1528D01*
X296Y1528D02*
X304Y1528D01*
X364Y1528D02*
X372Y1528D01*
X134Y1527D02*
X216Y1527D01*
X297Y1527D02*
X303Y1527D01*
X365Y1527D02*
X371Y1527D01*
X134Y1526D02*
X218Y1526D01*
X299Y1526D02*
X302Y1526D01*
X367Y1526D02*
X369Y1526D01*
X134Y1525D02*
X219Y1525D01*
X134Y1524D02*
X219Y1524D01*
X134Y1523D02*
X220Y1523D01*
X134Y1522D02*
X220Y1522D01*
X134Y1521D02*
X220Y1521D01*
X134Y1520D02*
X219Y1520D01*
X134Y1519D02*
X219Y1519D01*
X134Y1518D02*
X218Y1518D01*
X134Y1517D02*
X217Y1517D01*
X209Y1491D02*
X215Y1491D01*
X178Y1490D02*
X217Y1490D01*
X169Y1489D02*
X219Y1489D01*
X167Y1488D02*
X219Y1488D01*
X346Y1488D02*
X356Y1488D01*
X165Y1487D02*
X220Y1487D01*
X344Y1487D02*
X358Y1487D01*
X164Y1486D02*
X220Y1486D01*
X343Y1486D02*
X359Y1486D01*
X163Y1485D02*
X220Y1485D01*
X343Y1485D02*
X359Y1485D01*
X162Y1484D02*
X219Y1484D01*
X342Y1484D02*
X360Y1484D01*
X161Y1483D02*
X219Y1483D01*
X342Y1483D02*
X360Y1483D01*
X160Y1482D02*
X218Y1482D01*
X342Y1482D02*
X360Y1482D01*
X160Y1481D02*
X217Y1481D01*
X342Y1481D02*
X360Y1481D01*
X159Y1480D02*
X212Y1480D01*
X342Y1480D02*
X360Y1480D01*
X159Y1479D02*
X183Y1479D01*
X342Y1479D02*
X360Y1479D01*
X158Y1478D02*
X171Y1478D01*
X342Y1478D02*
X360Y1478D01*
X158Y1477D02*
X170Y1477D01*
X342Y1477D02*
X360Y1477D01*
X158Y1476D02*
X169Y1476D01*
X342Y1476D02*
X360Y1476D01*
X158Y1475D02*
X168Y1475D01*
X342Y1475D02*
X360Y1475D01*
X158Y1474D02*
X168Y1474D01*
X342Y1474D02*
X360Y1474D01*
X158Y1473D02*
X168Y1473D01*
X342Y1473D02*
X360Y1473D01*
X158Y1472D02*
X168Y1472D01*
X342Y1472D02*
X360Y1472D01*
X158Y1471D02*
X168Y1471D01*
X343Y1471D02*
X359Y1471D01*
X158Y1470D02*
X168Y1470D01*
X343Y1470D02*
X359Y1470D01*
X158Y1469D02*
X168Y1469D01*
X345Y1469D02*
X358Y1469D01*
X158Y1468D02*
X168Y1468D01*
X158Y1467D02*
X168Y1467D01*
X158Y1466D02*
X168Y1466D01*
X158Y1465D02*
X168Y1465D01*
X158Y1464D02*
X169Y1464D01*
X158Y1463D02*
X169Y1463D01*
X158Y1462D02*
X170Y1462D01*
X159Y1461D02*
X171Y1461D01*
X159Y1460D02*
X171Y1460D01*
X160Y1459D02*
X172Y1459D01*
X160Y1458D02*
X173Y1458D01*
X161Y1457D02*
X173Y1457D01*
X161Y1456D02*
X174Y1456D01*
X162Y1455D02*
X175Y1455D01*
X163Y1454D02*
X175Y1454D01*
X163Y1453D02*
X176Y1453D01*
X164Y1452D02*
X176Y1452D01*
X165Y1451D02*
X177Y1451D01*
X165Y1450D02*
X178Y1450D01*
X166Y1449D02*
X178Y1449D01*
X167Y1448D02*
X179Y1448D01*
X139Y1447D02*
X216Y1447D01*
X136Y1446D02*
X217Y1446D01*
X135Y1445D02*
X218Y1445D01*
X135Y1444D02*
X219Y1444D01*
X134Y1443D02*
X220Y1443D01*
X134Y1442D02*
X220Y1442D01*
X134Y1441D02*
X220Y1441D01*
X134Y1440D02*
X220Y1440D01*
X135Y1439D02*
X219Y1439D01*
X135Y1438D02*
X218Y1438D01*
X137Y1437D02*
X217Y1437D01*
X140Y1436D02*
X214Y1436D01*
X995Y1434D02*
X1068Y1434D01*
X995Y1433D02*
X1068Y1433D01*
X995Y1432D02*
X1068Y1432D01*
X995Y1431D02*
X1068Y1431D01*
X302Y1430D02*
X366Y1430D01*
X995Y1430D02*
X1068Y1430D01*
X300Y1429D02*
X368Y1429D01*
X995Y1429D02*
X1068Y1429D01*
X299Y1428D02*
X369Y1428D01*
X995Y1428D02*
X1068Y1428D01*
X298Y1427D02*
X370Y1427D01*
X995Y1427D02*
X1068Y1427D01*
X297Y1426D02*
X371Y1426D01*
X995Y1426D02*
X1068Y1426D01*
X297Y1425D02*
X371Y1425D01*
X995Y1425D02*
X1068Y1425D01*
X296Y1424D02*
X372Y1424D01*
X995Y1424D02*
X1068Y1424D01*
X296Y1423D02*
X372Y1423D01*
X995Y1423D02*
X1068Y1423D01*
X296Y1422D02*
X372Y1422D01*
X995Y1422D02*
X1068Y1422D01*
X296Y1421D02*
X373Y1421D01*
X995Y1421D02*
X1068Y1421D01*
X296Y1420D02*
X305Y1420D01*
X363Y1420D02*
X373Y1420D01*
X995Y1420D02*
X1068Y1420D01*
X296Y1419D02*
X305Y1419D01*
X363Y1419D02*
X373Y1419D01*
X995Y1419D02*
X1068Y1419D01*
X296Y1418D02*
X305Y1418D01*
X363Y1418D02*
X373Y1418D01*
X995Y1418D02*
X1068Y1418D01*
X296Y1417D02*
X305Y1417D01*
X363Y1417D02*
X373Y1417D01*
X995Y1417D02*
X1030Y1417D01*
X1032Y1417D02*
X1068Y1417D01*
X296Y1416D02*
X305Y1416D01*
X363Y1416D02*
X373Y1416D01*
X995Y1416D02*
X1025Y1416D01*
X1038Y1416D02*
X1068Y1416D01*
X296Y1415D02*
X305Y1415D01*
X363Y1415D02*
X373Y1415D01*
X995Y1415D02*
X1022Y1415D01*
X1040Y1415D02*
X1068Y1415D01*
X296Y1414D02*
X305Y1414D01*
X363Y1414D02*
X373Y1414D01*
X995Y1414D02*
X1020Y1414D01*
X1042Y1414D02*
X1068Y1414D01*
X296Y1413D02*
X305Y1413D01*
X363Y1413D02*
X373Y1413D01*
X995Y1413D02*
X1019Y1413D01*
X1044Y1413D02*
X1068Y1413D01*
X296Y1412D02*
X305Y1412D01*
X363Y1412D02*
X373Y1412D01*
X995Y1412D02*
X1018Y1412D01*
X1045Y1412D02*
X1068Y1412D01*
X296Y1411D02*
X305Y1411D01*
X363Y1411D02*
X373Y1411D01*
X995Y1411D02*
X1017Y1411D01*
X1046Y1411D02*
X1068Y1411D01*
X160Y1410D02*
X165Y1410D01*
X212Y1410D02*
X217Y1410D01*
X296Y1410D02*
X305Y1410D01*
X363Y1410D02*
X373Y1410D01*
X995Y1410D02*
X1016Y1410D01*
X1047Y1410D02*
X1068Y1410D01*
X159Y1409D02*
X166Y1409D01*
X211Y1409D02*
X218Y1409D01*
X296Y1409D02*
X305Y1409D01*
X363Y1409D02*
X373Y1409D01*
X995Y1409D02*
X1015Y1409D01*
X1048Y1409D02*
X1068Y1409D01*
X158Y1408D02*
X167Y1408D01*
X210Y1408D02*
X219Y1408D01*
X296Y1408D02*
X305Y1408D01*
X363Y1408D02*
X373Y1408D01*
X995Y1408D02*
X1014Y1408D01*
X1048Y1408D02*
X1068Y1408D01*
X158Y1407D02*
X168Y1407D01*
X210Y1407D02*
X219Y1407D01*
X296Y1407D02*
X305Y1407D01*
X363Y1407D02*
X373Y1407D01*
X995Y1407D02*
X1014Y1407D01*
X1049Y1407D02*
X1068Y1407D01*
X158Y1406D02*
X168Y1406D01*
X210Y1406D02*
X220Y1406D01*
X296Y1406D02*
X305Y1406D01*
X363Y1406D02*
X373Y1406D01*
X995Y1406D02*
X1013Y1406D01*
X1049Y1406D02*
X1068Y1406D01*
X158Y1405D02*
X168Y1405D01*
X210Y1405D02*
X220Y1405D01*
X296Y1405D02*
X305Y1405D01*
X363Y1405D02*
X373Y1405D01*
X995Y1405D02*
X1013Y1405D01*
X1050Y1405D02*
X1068Y1405D01*
X158Y1404D02*
X168Y1404D01*
X210Y1404D02*
X220Y1404D01*
X296Y1404D02*
X305Y1404D01*
X363Y1404D02*
X373Y1404D01*
X995Y1404D02*
X1012Y1404D01*
X1050Y1404D02*
X1068Y1404D01*
X158Y1403D02*
X168Y1403D01*
X210Y1403D02*
X220Y1403D01*
X296Y1403D02*
X305Y1403D01*
X363Y1403D02*
X373Y1403D01*
X995Y1403D02*
X1012Y1403D01*
X1051Y1403D02*
X1068Y1403D01*
X158Y1402D02*
X168Y1402D01*
X210Y1402D02*
X220Y1402D01*
X296Y1402D02*
X305Y1402D01*
X363Y1402D02*
X373Y1402D01*
X995Y1402D02*
X1012Y1402D01*
X1051Y1402D02*
X1068Y1402D01*
X158Y1401D02*
X168Y1401D01*
X210Y1401D02*
X220Y1401D01*
X296Y1401D02*
X305Y1401D01*
X363Y1401D02*
X373Y1401D01*
X995Y1401D02*
X1012Y1401D01*
X1051Y1401D02*
X1068Y1401D01*
X158Y1400D02*
X168Y1400D01*
X210Y1400D02*
X220Y1400D01*
X296Y1400D02*
X305Y1400D01*
X363Y1400D02*
X373Y1400D01*
X995Y1400D02*
X1011Y1400D01*
X1051Y1400D02*
X1068Y1400D01*
X158Y1399D02*
X168Y1399D01*
X210Y1399D02*
X220Y1399D01*
X296Y1399D02*
X305Y1399D01*
X363Y1399D02*
X373Y1399D01*
X995Y1399D02*
X1011Y1399D01*
X1051Y1399D02*
X1068Y1399D01*
X158Y1398D02*
X168Y1398D01*
X210Y1398D02*
X220Y1398D01*
X296Y1398D02*
X305Y1398D01*
X363Y1398D02*
X373Y1398D01*
X995Y1398D02*
X1011Y1398D01*
X1051Y1398D02*
X1068Y1398D01*
X158Y1397D02*
X168Y1397D01*
X210Y1397D02*
X220Y1397D01*
X296Y1397D02*
X305Y1397D01*
X363Y1397D02*
X373Y1397D01*
X995Y1397D02*
X1011Y1397D01*
X1052Y1397D02*
X1068Y1397D01*
X158Y1396D02*
X168Y1396D01*
X210Y1396D02*
X220Y1396D01*
X296Y1396D02*
X305Y1396D01*
X363Y1396D02*
X373Y1396D01*
X995Y1396D02*
X1011Y1396D01*
X1051Y1396D02*
X1068Y1396D01*
X158Y1395D02*
X168Y1395D01*
X210Y1395D02*
X220Y1395D01*
X296Y1395D02*
X305Y1395D01*
X363Y1395D02*
X373Y1395D01*
X995Y1395D02*
X1011Y1395D01*
X1051Y1395D02*
X1068Y1395D01*
X158Y1394D02*
X168Y1394D01*
X210Y1394D02*
X220Y1394D01*
X296Y1394D02*
X305Y1394D01*
X363Y1394D02*
X373Y1394D01*
X995Y1394D02*
X1012Y1394D01*
X1051Y1394D02*
X1068Y1394D01*
X158Y1393D02*
X168Y1393D01*
X210Y1393D02*
X220Y1393D01*
X296Y1393D02*
X305Y1393D01*
X363Y1393D02*
X373Y1393D01*
X995Y1393D02*
X1012Y1393D01*
X1051Y1393D02*
X1068Y1393D01*
X158Y1392D02*
X168Y1392D01*
X210Y1392D02*
X220Y1392D01*
X296Y1392D02*
X305Y1392D01*
X363Y1392D02*
X373Y1392D01*
X995Y1392D02*
X1012Y1392D01*
X1051Y1392D02*
X1068Y1392D01*
X158Y1391D02*
X168Y1391D01*
X210Y1391D02*
X220Y1391D01*
X296Y1391D02*
X373Y1391D01*
X995Y1391D02*
X1012Y1391D01*
X1050Y1391D02*
X1068Y1391D01*
X158Y1390D02*
X168Y1390D01*
X210Y1390D02*
X220Y1390D01*
X296Y1390D02*
X372Y1390D01*
X995Y1390D02*
X1013Y1390D01*
X1050Y1390D02*
X1068Y1390D01*
X158Y1389D02*
X168Y1389D01*
X210Y1389D02*
X220Y1389D01*
X296Y1389D02*
X372Y1389D01*
X995Y1389D02*
X1013Y1389D01*
X1050Y1389D02*
X1068Y1389D01*
X158Y1388D02*
X168Y1388D01*
X210Y1388D02*
X220Y1388D01*
X296Y1388D02*
X372Y1388D01*
X995Y1388D02*
X1014Y1388D01*
X1049Y1388D02*
X1068Y1388D01*
X158Y1387D02*
X168Y1387D01*
X210Y1387D02*
X220Y1387D01*
X296Y1387D02*
X372Y1387D01*
X995Y1387D02*
X1014Y1387D01*
X1049Y1387D02*
X1068Y1387D01*
X158Y1386D02*
X168Y1386D01*
X210Y1386D02*
X220Y1386D01*
X297Y1386D02*
X371Y1386D01*
X995Y1386D02*
X1015Y1386D01*
X1048Y1386D02*
X1068Y1386D01*
X158Y1385D02*
X168Y1385D01*
X210Y1385D02*
X220Y1385D01*
X298Y1385D02*
X370Y1385D01*
X995Y1385D02*
X1016Y1385D01*
X1047Y1385D02*
X1068Y1385D01*
X158Y1384D02*
X168Y1384D01*
X210Y1384D02*
X220Y1384D01*
X299Y1384D02*
X370Y1384D01*
X995Y1384D02*
X1016Y1384D01*
X1046Y1384D02*
X1068Y1384D01*
X158Y1383D02*
X168Y1383D01*
X210Y1383D02*
X220Y1383D01*
X300Y1383D02*
X368Y1383D01*
X995Y1383D02*
X1017Y1383D01*
X1045Y1383D02*
X1068Y1383D01*
X158Y1382D02*
X168Y1382D01*
X210Y1382D02*
X220Y1382D01*
X301Y1382D02*
X367Y1382D01*
X995Y1382D02*
X1019Y1382D01*
X1044Y1382D02*
X1068Y1382D01*
X158Y1381D02*
X168Y1381D01*
X209Y1381D02*
X220Y1381D01*
X305Y1381D02*
X363Y1381D01*
X995Y1381D02*
X1020Y1381D01*
X1043Y1381D02*
X1068Y1381D01*
X158Y1380D02*
X168Y1380D01*
X209Y1380D02*
X220Y1380D01*
X995Y1380D02*
X1022Y1380D01*
X1041Y1380D02*
X1068Y1380D01*
X158Y1379D02*
X169Y1379D01*
X209Y1379D02*
X220Y1379D01*
X995Y1379D02*
X1024Y1379D01*
X1039Y1379D02*
X1068Y1379D01*
X158Y1378D02*
X169Y1378D01*
X208Y1378D02*
X219Y1378D01*
X995Y1378D02*
X1028Y1378D01*
X1035Y1378D02*
X1068Y1378D01*
X158Y1377D02*
X170Y1377D01*
X207Y1377D02*
X219Y1377D01*
X995Y1377D02*
X1068Y1377D01*
X159Y1376D02*
X171Y1376D01*
X206Y1376D02*
X219Y1376D01*
X995Y1376D02*
X1068Y1376D01*
X159Y1375D02*
X172Y1375D01*
X205Y1375D02*
X218Y1375D01*
X995Y1375D02*
X1068Y1375D01*
X160Y1374D02*
X173Y1374D01*
X205Y1374D02*
X218Y1374D01*
X995Y1374D02*
X1068Y1374D01*
X160Y1373D02*
X174Y1373D01*
X204Y1373D02*
X217Y1373D01*
X995Y1373D02*
X1068Y1373D01*
X161Y1372D02*
X175Y1372D01*
X203Y1372D02*
X217Y1372D01*
X995Y1372D02*
X1068Y1372D01*
X161Y1371D02*
X175Y1371D01*
X202Y1371D02*
X216Y1371D01*
X995Y1371D02*
X1068Y1371D01*
X162Y1370D02*
X176Y1370D01*
X201Y1370D02*
X215Y1370D01*
X995Y1370D02*
X1068Y1370D01*
X163Y1369D02*
X177Y1369D01*
X200Y1369D02*
X214Y1369D01*
X995Y1369D02*
X1068Y1369D01*
X164Y1368D02*
X178Y1368D01*
X199Y1368D02*
X213Y1368D01*
X995Y1368D02*
X1068Y1368D01*
X165Y1367D02*
X180Y1367D01*
X197Y1367D02*
X212Y1367D01*
X995Y1367D02*
X1068Y1367D01*
X166Y1366D02*
X211Y1366D01*
X995Y1366D02*
X1068Y1366D01*
X167Y1365D02*
X211Y1365D01*
X995Y1365D02*
X1068Y1365D01*
X168Y1364D02*
X210Y1364D01*
X995Y1364D02*
X1068Y1364D01*
X168Y1363D02*
X209Y1363D01*
X995Y1363D02*
X1068Y1363D01*
X169Y1362D02*
X208Y1362D01*
X995Y1362D02*
X1068Y1362D01*
X170Y1361D02*
X207Y1361D01*
X995Y1361D02*
X1068Y1361D01*
X171Y1360D02*
X206Y1360D01*
X172Y1359D02*
X205Y1359D01*
X174Y1358D02*
X203Y1358D01*
X341Y1358D02*
X370Y1358D01*
X176Y1357D02*
X202Y1357D01*
X340Y1357D02*
X371Y1357D01*
X179Y1356D02*
X198Y1356D01*
X339Y1356D02*
X372Y1356D01*
X338Y1355D02*
X372Y1355D01*
X338Y1354D02*
X372Y1354D01*
X338Y1353D02*
X373Y1353D01*
X338Y1352D02*
X373Y1352D01*
X339Y1351D02*
X373Y1351D01*
X339Y1350D02*
X373Y1350D01*
X341Y1349D02*
X373Y1349D01*
X363Y1348D02*
X373Y1348D01*
X363Y1347D02*
X373Y1347D01*
X363Y1346D02*
X373Y1346D01*
X363Y1345D02*
X373Y1345D01*
X363Y1344D02*
X373Y1344D01*
X363Y1343D02*
X373Y1343D01*
X363Y1342D02*
X373Y1342D01*
X363Y1341D02*
X373Y1341D01*
X363Y1340D02*
X373Y1340D01*
X363Y1339D02*
X373Y1339D01*
X296Y1338D02*
X373Y1338D01*
X296Y1337D02*
X373Y1337D01*
X296Y1336D02*
X373Y1336D01*
X296Y1335D02*
X373Y1335D01*
X296Y1334D02*
X373Y1334D01*
X296Y1333D02*
X373Y1333D01*
X296Y1332D02*
X373Y1332D01*
X296Y1331D02*
X373Y1331D01*
X203Y1330D02*
X208Y1330D01*
X296Y1330D02*
X373Y1330D01*
X202Y1329D02*
X210Y1329D01*
X296Y1329D02*
X373Y1329D01*
X201Y1328D02*
X212Y1328D01*
X296Y1328D02*
X305Y1328D01*
X363Y1328D02*
X373Y1328D01*
X200Y1327D02*
X213Y1327D01*
X296Y1327D02*
X305Y1327D01*
X363Y1327D02*
X373Y1327D01*
X200Y1326D02*
X214Y1326D01*
X296Y1326D02*
X305Y1326D01*
X363Y1326D02*
X373Y1326D01*
X200Y1325D02*
X215Y1325D01*
X296Y1325D02*
X305Y1325D01*
X363Y1325D02*
X373Y1325D01*
X160Y1324D02*
X165Y1324D01*
X200Y1324D02*
X216Y1324D01*
X296Y1324D02*
X305Y1324D01*
X363Y1324D02*
X373Y1324D01*
X159Y1323D02*
X167Y1323D01*
X201Y1323D02*
X217Y1323D01*
X296Y1323D02*
X305Y1323D01*
X363Y1323D02*
X373Y1323D01*
X158Y1322D02*
X167Y1322D01*
X201Y1322D02*
X218Y1322D01*
X296Y1322D02*
X305Y1322D01*
X363Y1322D02*
X373Y1322D01*
X158Y1321D02*
X168Y1321D01*
X202Y1321D02*
X218Y1321D01*
X296Y1321D02*
X305Y1321D01*
X363Y1321D02*
X373Y1321D01*
X158Y1320D02*
X168Y1320D01*
X204Y1320D02*
X219Y1320D01*
X296Y1320D02*
X305Y1320D01*
X363Y1320D02*
X373Y1320D01*
X158Y1319D02*
X168Y1319D01*
X206Y1319D02*
X219Y1319D01*
X296Y1319D02*
X305Y1319D01*
X363Y1319D02*
X373Y1319D01*
X158Y1318D02*
X168Y1318D01*
X207Y1318D02*
X219Y1318D01*
X296Y1318D02*
X305Y1318D01*
X363Y1318D02*
X373Y1318D01*
X158Y1317D02*
X168Y1317D01*
X208Y1317D02*
X219Y1317D01*
X296Y1317D02*
X305Y1317D01*
X363Y1317D02*
X373Y1317D01*
X158Y1316D02*
X168Y1316D01*
X209Y1316D02*
X220Y1316D01*
X296Y1316D02*
X305Y1316D01*
X363Y1316D02*
X373Y1316D01*
X158Y1315D02*
X168Y1315D01*
X209Y1315D02*
X220Y1315D01*
X296Y1315D02*
X305Y1315D01*
X363Y1315D02*
X373Y1315D01*
X158Y1314D02*
X168Y1314D01*
X210Y1314D02*
X220Y1314D01*
X296Y1314D02*
X305Y1314D01*
X363Y1314D02*
X373Y1314D01*
X158Y1313D02*
X168Y1313D01*
X210Y1313D02*
X220Y1313D01*
X296Y1313D02*
X305Y1313D01*
X364Y1313D02*
X372Y1313D01*
X158Y1312D02*
X168Y1312D01*
X210Y1312D02*
X220Y1312D01*
X296Y1312D02*
X304Y1312D01*
X364Y1312D02*
X372Y1312D01*
X158Y1311D02*
X168Y1311D01*
X210Y1311D02*
X220Y1311D01*
X296Y1311D02*
X304Y1311D01*
X364Y1311D02*
X372Y1311D01*
X158Y1310D02*
X168Y1310D01*
X210Y1310D02*
X220Y1310D01*
X297Y1310D02*
X303Y1310D01*
X365Y1310D02*
X371Y1310D01*
X158Y1309D02*
X168Y1309D01*
X210Y1309D02*
X220Y1309D01*
X299Y1309D02*
X301Y1309D01*
X367Y1309D02*
X369Y1309D01*
X158Y1308D02*
X168Y1308D01*
X210Y1308D02*
X220Y1308D01*
X158Y1307D02*
X168Y1307D01*
X210Y1307D02*
X220Y1307D01*
X158Y1306D02*
X168Y1306D01*
X210Y1306D02*
X220Y1306D01*
X158Y1305D02*
X168Y1305D01*
X210Y1305D02*
X220Y1305D01*
X158Y1304D02*
X168Y1304D01*
X210Y1304D02*
X220Y1304D01*
X158Y1303D02*
X168Y1303D01*
X210Y1303D02*
X220Y1303D01*
X158Y1302D02*
X168Y1302D01*
X209Y1302D02*
X220Y1302D01*
X158Y1301D02*
X168Y1301D01*
X209Y1301D02*
X220Y1301D01*
X158Y1300D02*
X168Y1300D01*
X209Y1300D02*
X219Y1300D01*
X158Y1299D02*
X168Y1299D01*
X208Y1299D02*
X219Y1299D01*
X158Y1298D02*
X168Y1298D01*
X206Y1298D02*
X219Y1298D01*
X142Y1297D02*
X219Y1297D01*
X141Y1296D02*
X218Y1296D01*
X140Y1295D02*
X218Y1295D01*
X139Y1294D02*
X217Y1294D01*
X139Y1293D02*
X216Y1293D01*
X139Y1292D02*
X215Y1292D01*
X139Y1291D02*
X215Y1291D01*
X139Y1290D02*
X213Y1290D01*
X140Y1289D02*
X212Y1289D01*
X140Y1288D02*
X210Y1288D01*
X142Y1287D02*
X208Y1287D01*
X158Y1286D02*
X168Y1286D01*
X158Y1285D02*
X168Y1285D01*
X158Y1284D02*
X168Y1284D01*
X158Y1283D02*
X168Y1283D01*
X158Y1282D02*
X168Y1282D01*
X158Y1281D02*
X168Y1281D01*
X158Y1280D02*
X168Y1280D01*
X158Y1279D02*
X168Y1279D01*
X159Y1278D02*
X167Y1278D01*
X159Y1277D02*
X166Y1277D01*
X161Y1276D02*
X165Y1276D01*
X346Y1271D02*
X356Y1271D01*
X344Y1270D02*
X358Y1270D01*
X343Y1269D02*
X359Y1269D01*
X343Y1268D02*
X359Y1268D01*
X342Y1267D02*
X360Y1267D01*
X342Y1266D02*
X360Y1266D01*
X342Y1265D02*
X360Y1265D01*
X342Y1264D02*
X360Y1264D01*
X342Y1263D02*
X360Y1263D01*
X342Y1262D02*
X360Y1262D01*
X342Y1261D02*
X360Y1261D01*
X342Y1260D02*
X360Y1260D01*
X342Y1259D02*
X360Y1259D01*
X342Y1258D02*
X360Y1258D01*
X342Y1257D02*
X360Y1257D01*
X342Y1256D02*
X360Y1256D01*
X342Y1255D02*
X360Y1255D01*
X343Y1254D02*
X359Y1254D01*
X344Y1253D02*
X359Y1253D01*
X345Y1252D02*
X357Y1252D01*
X206Y1250D02*
X216Y1250D01*
X177Y1249D02*
X218Y1249D01*
X169Y1248D02*
X219Y1248D01*
X167Y1247D02*
X219Y1247D01*
X165Y1246D02*
X219Y1246D01*
X164Y1245D02*
X220Y1245D01*
X163Y1244D02*
X220Y1244D01*
X162Y1243D02*
X219Y1243D01*
X161Y1242D02*
X219Y1242D01*
X160Y1241D02*
X218Y1241D01*
X160Y1240D02*
X217Y1240D01*
X159Y1239D02*
X215Y1239D01*
X159Y1238D02*
X195Y1238D01*
X203Y1238D02*
X215Y1238D01*
X158Y1237D02*
X171Y1237D01*
X182Y1237D02*
X193Y1237D01*
X203Y1237D02*
X215Y1237D01*
X158Y1236D02*
X169Y1236D01*
X182Y1236D02*
X193Y1236D01*
X204Y1236D02*
X216Y1236D01*
X158Y1235D02*
X168Y1235D01*
X181Y1235D02*
X192Y1235D01*
X205Y1235D02*
X217Y1235D01*
X158Y1234D02*
X168Y1234D01*
X181Y1234D02*
X192Y1234D01*
X205Y1234D02*
X217Y1234D01*
X158Y1233D02*
X168Y1233D01*
X181Y1233D02*
X191Y1233D01*
X206Y1233D02*
X218Y1233D01*
X158Y1232D02*
X168Y1232D01*
X181Y1232D02*
X191Y1232D01*
X206Y1232D02*
X218Y1232D01*
X158Y1231D02*
X168Y1231D01*
X181Y1231D02*
X191Y1231D01*
X207Y1231D02*
X219Y1231D01*
X158Y1230D02*
X168Y1230D01*
X181Y1230D02*
X191Y1230D01*
X207Y1230D02*
X219Y1230D01*
X158Y1229D02*
X168Y1229D01*
X181Y1229D02*
X191Y1229D01*
X208Y1229D02*
X220Y1229D01*
X158Y1228D02*
X168Y1228D01*
X181Y1228D02*
X191Y1228D01*
X209Y1228D02*
X220Y1228D01*
X158Y1227D02*
X168Y1227D01*
X181Y1227D02*
X191Y1227D01*
X209Y1227D02*
X220Y1227D01*
X158Y1226D02*
X168Y1226D01*
X181Y1226D02*
X191Y1226D01*
X210Y1226D02*
X220Y1226D01*
X158Y1225D02*
X168Y1225D01*
X181Y1225D02*
X191Y1225D01*
X210Y1225D02*
X220Y1225D01*
X158Y1224D02*
X168Y1224D01*
X181Y1224D02*
X191Y1224D01*
X210Y1224D02*
X220Y1224D01*
X158Y1223D02*
X168Y1223D01*
X181Y1223D02*
X191Y1223D01*
X210Y1223D02*
X220Y1223D01*
X158Y1222D02*
X168Y1222D01*
X181Y1222D02*
X191Y1222D01*
X210Y1222D02*
X220Y1222D01*
X158Y1221D02*
X168Y1221D01*
X181Y1221D02*
X191Y1221D01*
X210Y1221D02*
X220Y1221D01*
X158Y1220D02*
X168Y1220D01*
X181Y1220D02*
X191Y1220D01*
X210Y1220D02*
X220Y1220D01*
X158Y1219D02*
X168Y1219D01*
X181Y1219D02*
X191Y1219D01*
X210Y1219D02*
X220Y1219D01*
X158Y1218D02*
X168Y1218D01*
X181Y1218D02*
X191Y1218D01*
X210Y1218D02*
X220Y1218D01*
X158Y1217D02*
X168Y1217D01*
X181Y1217D02*
X191Y1217D01*
X210Y1217D02*
X220Y1217D01*
X158Y1216D02*
X168Y1216D01*
X181Y1216D02*
X191Y1216D01*
X210Y1216D02*
X220Y1216D01*
X158Y1215D02*
X168Y1215D01*
X181Y1215D02*
X191Y1215D01*
X210Y1215D02*
X220Y1215D01*
X158Y1214D02*
X168Y1214D01*
X181Y1214D02*
X191Y1214D01*
X210Y1214D02*
X220Y1214D01*
X158Y1213D02*
X168Y1213D01*
X181Y1213D02*
X191Y1213D01*
X210Y1213D02*
X220Y1213D01*
X336Y1213D02*
X367Y1213D01*
X158Y1212D02*
X168Y1212D01*
X181Y1212D02*
X191Y1212D01*
X210Y1212D02*
X220Y1212D01*
X334Y1212D02*
X368Y1212D01*
X158Y1211D02*
X168Y1211D01*
X181Y1211D02*
X192Y1211D01*
X209Y1211D02*
X220Y1211D01*
X333Y1211D02*
X369Y1211D01*
X158Y1210D02*
X168Y1210D01*
X181Y1210D02*
X192Y1210D01*
X209Y1210D02*
X220Y1210D01*
X332Y1210D02*
X370Y1210D01*
X158Y1209D02*
X167Y1209D01*
X181Y1209D02*
X192Y1209D01*
X209Y1209D02*
X220Y1209D01*
X331Y1209D02*
X371Y1209D01*
X159Y1208D02*
X167Y1208D01*
X182Y1208D02*
X193Y1208D01*
X208Y1208D02*
X219Y1208D01*
X330Y1208D02*
X372Y1208D01*
X160Y1207D02*
X165Y1207D01*
X182Y1207D02*
X194Y1207D01*
X207Y1207D02*
X219Y1207D01*
X330Y1207D02*
X372Y1207D01*
X182Y1206D02*
X219Y1206D01*
X330Y1206D02*
X372Y1206D01*
X183Y1205D02*
X218Y1205D01*
X330Y1205D02*
X372Y1205D01*
X183Y1204D02*
X218Y1204D01*
X329Y1204D02*
X373Y1204D01*
X184Y1203D02*
X217Y1203D01*
X298Y1203D02*
X339Y1203D01*
X363Y1203D02*
X373Y1203D01*
X184Y1202D02*
X217Y1202D01*
X297Y1202D02*
X339Y1202D01*
X363Y1202D02*
X373Y1202D01*
X185Y1201D02*
X216Y1201D01*
X296Y1201D02*
X339Y1201D01*
X363Y1201D02*
X373Y1201D01*
X186Y1200D02*
X215Y1200D01*
X296Y1200D02*
X339Y1200D01*
X363Y1200D02*
X373Y1200D01*
X187Y1199D02*
X214Y1199D01*
X296Y1199D02*
X339Y1199D01*
X363Y1199D02*
X373Y1199D01*
X188Y1198D02*
X213Y1198D01*
X296Y1198D02*
X339Y1198D01*
X363Y1198D02*
X373Y1198D01*
X190Y1197D02*
X211Y1197D01*
X296Y1197D02*
X339Y1197D01*
X363Y1197D02*
X373Y1197D01*
X192Y1196D02*
X209Y1196D01*
X296Y1196D02*
X339Y1196D01*
X363Y1196D02*
X373Y1196D01*
X198Y1195D02*
X203Y1195D01*
X296Y1195D02*
X339Y1195D01*
X363Y1195D02*
X373Y1195D01*
X296Y1194D02*
X339Y1194D01*
X363Y1194D02*
X373Y1194D01*
X296Y1193D02*
X305Y1193D01*
X329Y1193D02*
X339Y1193D01*
X363Y1193D02*
X373Y1193D01*
X296Y1192D02*
X305Y1192D01*
X329Y1192D02*
X339Y1192D01*
X363Y1192D02*
X373Y1192D01*
X296Y1191D02*
X305Y1191D01*
X329Y1191D02*
X339Y1191D01*
X363Y1191D02*
X373Y1191D01*
X296Y1190D02*
X305Y1190D01*
X329Y1190D02*
X339Y1190D01*
X363Y1190D02*
X373Y1190D01*
X296Y1189D02*
X305Y1189D01*
X329Y1189D02*
X339Y1189D01*
X363Y1189D02*
X373Y1189D01*
X296Y1188D02*
X305Y1188D01*
X329Y1188D02*
X339Y1188D01*
X363Y1188D02*
X373Y1188D01*
X296Y1187D02*
X305Y1187D01*
X329Y1187D02*
X339Y1187D01*
X363Y1187D02*
X373Y1187D01*
X296Y1186D02*
X305Y1186D01*
X329Y1186D02*
X339Y1186D01*
X363Y1186D02*
X373Y1186D01*
X296Y1185D02*
X305Y1185D01*
X329Y1185D02*
X339Y1185D01*
X363Y1185D02*
X373Y1185D01*
X296Y1184D02*
X339Y1184D01*
X363Y1184D02*
X373Y1184D01*
X296Y1183D02*
X339Y1183D01*
X363Y1183D02*
X373Y1183D01*
X296Y1182D02*
X339Y1182D01*
X363Y1182D02*
X373Y1182D01*
X296Y1181D02*
X339Y1181D01*
X363Y1181D02*
X373Y1181D01*
X296Y1180D02*
X339Y1180D01*
X363Y1180D02*
X373Y1180D01*
X296Y1179D02*
X339Y1179D01*
X363Y1179D02*
X373Y1179D01*
X296Y1178D02*
X339Y1178D01*
X363Y1178D02*
X373Y1178D01*
X296Y1177D02*
X339Y1177D01*
X363Y1177D02*
X373Y1177D01*
X297Y1176D02*
X339Y1176D01*
X363Y1176D02*
X373Y1176D01*
X298Y1175D02*
X339Y1175D01*
X363Y1175D02*
X373Y1175D01*
X329Y1174D02*
X373Y1174D01*
X330Y1173D02*
X372Y1173D01*
X330Y1172D02*
X372Y1172D01*
X330Y1171D02*
X372Y1171D01*
X151Y1170D02*
X170Y1170D01*
X330Y1170D02*
X372Y1170D01*
X145Y1169D02*
X175Y1169D01*
X331Y1169D02*
X371Y1169D01*
X143Y1168D02*
X178Y1168D01*
X332Y1168D02*
X370Y1168D01*
X141Y1167D02*
X179Y1167D01*
X333Y1167D02*
X369Y1167D01*
X140Y1166D02*
X181Y1166D01*
X334Y1166D02*
X368Y1166D01*
X139Y1165D02*
X182Y1165D01*
X335Y1165D02*
X367Y1165D01*
X138Y1164D02*
X183Y1164D01*
X137Y1163D02*
X183Y1163D01*
X137Y1162D02*
X184Y1162D01*
X136Y1161D02*
X185Y1161D01*
X136Y1160D02*
X185Y1160D01*
X135Y1159D02*
X186Y1159D01*
X135Y1158D02*
X147Y1158D01*
X174Y1158D02*
X186Y1158D01*
X135Y1157D02*
X146Y1157D01*
X175Y1157D02*
X186Y1157D01*
X134Y1156D02*
X145Y1156D01*
X176Y1156D02*
X186Y1156D01*
X134Y1155D02*
X145Y1155D01*
X176Y1155D02*
X187Y1155D01*
X134Y1154D02*
X144Y1154D01*
X176Y1154D02*
X187Y1154D01*
X134Y1153D02*
X144Y1153D01*
X177Y1153D02*
X187Y1153D01*
X134Y1152D02*
X144Y1152D01*
X177Y1152D02*
X187Y1152D01*
X134Y1151D02*
X144Y1151D01*
X177Y1151D02*
X187Y1151D01*
X134Y1150D02*
X144Y1150D01*
X177Y1150D02*
X187Y1150D01*
X134Y1149D02*
X144Y1149D01*
X177Y1149D02*
X187Y1149D01*
X134Y1148D02*
X144Y1148D01*
X177Y1148D02*
X187Y1148D01*
X134Y1147D02*
X144Y1147D01*
X177Y1147D02*
X187Y1147D01*
X134Y1146D02*
X144Y1146D01*
X177Y1146D02*
X187Y1146D01*
X134Y1145D02*
X144Y1145D01*
X177Y1145D02*
X187Y1145D01*
X134Y1144D02*
X144Y1144D01*
X177Y1144D02*
X187Y1144D01*
X134Y1143D02*
X144Y1143D01*
X177Y1143D02*
X187Y1143D01*
X134Y1142D02*
X144Y1142D01*
X177Y1142D02*
X187Y1142D01*
X134Y1141D02*
X144Y1141D01*
X177Y1141D02*
X187Y1141D01*
X341Y1141D02*
X370Y1141D01*
X134Y1140D02*
X144Y1140D01*
X177Y1140D02*
X187Y1140D01*
X339Y1140D02*
X371Y1140D01*
X134Y1139D02*
X144Y1139D01*
X177Y1139D02*
X187Y1139D01*
X339Y1139D02*
X372Y1139D01*
X134Y1138D02*
X144Y1138D01*
X177Y1138D02*
X187Y1138D01*
X338Y1138D02*
X372Y1138D01*
X134Y1137D02*
X144Y1137D01*
X177Y1137D02*
X187Y1137D01*
X338Y1137D02*
X372Y1137D01*
X134Y1136D02*
X144Y1136D01*
X177Y1136D02*
X187Y1136D01*
X338Y1136D02*
X373Y1136D01*
X134Y1135D02*
X144Y1135D01*
X177Y1135D02*
X187Y1135D01*
X338Y1135D02*
X373Y1135D01*
X134Y1134D02*
X144Y1134D01*
X177Y1134D02*
X187Y1134D01*
X339Y1134D02*
X373Y1134D01*
X134Y1133D02*
X144Y1133D01*
X177Y1133D02*
X187Y1133D01*
X339Y1133D02*
X373Y1133D01*
X134Y1132D02*
X144Y1132D01*
X177Y1132D02*
X187Y1132D01*
X341Y1132D02*
X373Y1132D01*
X134Y1131D02*
X144Y1131D01*
X177Y1131D02*
X187Y1131D01*
X363Y1131D02*
X373Y1131D01*
X134Y1130D02*
X144Y1130D01*
X177Y1130D02*
X187Y1130D01*
X363Y1130D02*
X373Y1130D01*
X134Y1129D02*
X144Y1129D01*
X177Y1129D02*
X187Y1129D01*
X363Y1129D02*
X373Y1129D01*
X134Y1128D02*
X144Y1128D01*
X177Y1128D02*
X187Y1128D01*
X363Y1128D02*
X373Y1128D01*
X134Y1127D02*
X144Y1127D01*
X177Y1127D02*
X187Y1127D01*
X363Y1127D02*
X373Y1127D01*
X134Y1126D02*
X145Y1126D01*
X176Y1126D02*
X187Y1126D01*
X363Y1126D02*
X373Y1126D01*
X134Y1125D02*
X217Y1125D01*
X363Y1125D02*
X373Y1125D01*
X134Y1124D02*
X218Y1124D01*
X363Y1124D02*
X373Y1124D01*
X134Y1123D02*
X219Y1123D01*
X363Y1123D02*
X373Y1123D01*
X134Y1122D02*
X219Y1122D01*
X363Y1122D02*
X373Y1122D01*
X134Y1121D02*
X220Y1121D01*
X296Y1121D02*
X373Y1121D01*
X134Y1120D02*
X220Y1120D01*
X296Y1120D02*
X373Y1120D01*
X134Y1119D02*
X220Y1119D01*
X296Y1119D02*
X373Y1119D01*
X134Y1118D02*
X219Y1118D01*
X296Y1118D02*
X373Y1118D01*
X134Y1117D02*
X219Y1117D01*
X296Y1117D02*
X373Y1117D01*
X134Y1116D02*
X218Y1116D01*
X296Y1116D02*
X373Y1116D01*
X134Y1115D02*
X216Y1115D01*
X296Y1115D02*
X373Y1115D01*
X296Y1114D02*
X373Y1114D01*
X296Y1113D02*
X373Y1113D01*
X296Y1112D02*
X373Y1112D01*
X296Y1111D02*
X305Y1111D01*
X363Y1111D02*
X373Y1111D01*
X296Y1110D02*
X305Y1110D01*
X363Y1110D02*
X373Y1110D01*
X296Y1109D02*
X305Y1109D01*
X363Y1109D02*
X373Y1109D01*
X296Y1108D02*
X305Y1108D01*
X363Y1108D02*
X373Y1108D01*
X296Y1107D02*
X305Y1107D01*
X363Y1107D02*
X373Y1107D01*
X296Y1106D02*
X305Y1106D01*
X363Y1106D02*
X373Y1106D01*
X296Y1105D02*
X305Y1105D01*
X363Y1105D02*
X373Y1105D01*
X296Y1104D02*
X305Y1104D01*
X363Y1104D02*
X373Y1104D01*
X296Y1103D02*
X305Y1103D01*
X363Y1103D02*
X373Y1103D01*
X296Y1102D02*
X305Y1102D01*
X363Y1102D02*
X373Y1102D01*
X296Y1101D02*
X305Y1101D01*
X363Y1101D02*
X373Y1101D01*
X296Y1100D02*
X305Y1100D01*
X363Y1100D02*
X373Y1100D01*
X296Y1099D02*
X305Y1099D01*
X363Y1099D02*
X373Y1099D01*
X296Y1098D02*
X305Y1098D01*
X363Y1098D02*
X373Y1098D01*
X296Y1097D02*
X305Y1097D01*
X363Y1097D02*
X373Y1097D01*
X296Y1096D02*
X304Y1096D01*
X364Y1096D02*
X372Y1096D01*
X296Y1095D02*
X304Y1095D01*
X364Y1095D02*
X372Y1095D01*
X297Y1094D02*
X304Y1094D01*
X364Y1094D02*
X372Y1094D01*
X297Y1093D02*
X303Y1093D01*
X365Y1093D02*
X371Y1093D01*
X300Y1092D02*
X301Y1092D01*
X367Y1092D02*
X368Y1092D01*
X137Y1089D02*
X141Y1089D01*
X213Y1089D02*
X217Y1089D01*
X136Y1088D02*
X143Y1088D01*
X211Y1088D02*
X218Y1088D01*
X135Y1087D02*
X143Y1087D01*
X211Y1087D02*
X219Y1087D01*
X134Y1086D02*
X144Y1086D01*
X210Y1086D02*
X219Y1086D01*
X134Y1085D02*
X144Y1085D01*
X210Y1085D02*
X220Y1085D01*
X134Y1084D02*
X144Y1084D01*
X210Y1084D02*
X220Y1084D01*
X134Y1083D02*
X144Y1083D01*
X210Y1083D02*
X220Y1083D01*
X134Y1082D02*
X144Y1082D01*
X210Y1082D02*
X220Y1082D01*
X134Y1081D02*
X144Y1081D01*
X210Y1081D02*
X220Y1081D01*
X134Y1080D02*
X144Y1080D01*
X210Y1080D02*
X220Y1080D01*
X134Y1079D02*
X144Y1079D01*
X210Y1079D02*
X220Y1079D01*
X134Y1078D02*
X144Y1078D01*
X210Y1078D02*
X220Y1078D01*
X134Y1077D02*
X144Y1077D01*
X210Y1077D02*
X220Y1077D01*
X134Y1076D02*
X144Y1076D01*
X210Y1076D02*
X220Y1076D01*
X134Y1075D02*
X144Y1075D01*
X210Y1075D02*
X220Y1075D01*
X134Y1074D02*
X144Y1074D01*
X210Y1074D02*
X220Y1074D01*
X134Y1073D02*
X144Y1073D01*
X210Y1073D02*
X220Y1073D01*
X134Y1072D02*
X144Y1072D01*
X210Y1072D02*
X220Y1072D01*
X134Y1071D02*
X144Y1071D01*
X210Y1071D02*
X220Y1071D01*
X134Y1070D02*
X144Y1070D01*
X210Y1070D02*
X220Y1070D01*
X134Y1069D02*
X144Y1069D01*
X210Y1069D02*
X220Y1069D01*
X303Y1069D02*
X365Y1069D01*
X134Y1068D02*
X144Y1068D01*
X209Y1068D02*
X220Y1068D01*
X301Y1068D02*
X367Y1068D01*
X134Y1067D02*
X220Y1067D01*
X299Y1067D02*
X369Y1067D01*
X134Y1066D02*
X220Y1066D01*
X298Y1066D02*
X370Y1066D01*
X134Y1065D02*
X220Y1065D01*
X298Y1065D02*
X371Y1065D01*
X134Y1064D02*
X220Y1064D01*
X297Y1064D02*
X371Y1064D01*
X134Y1063D02*
X220Y1063D01*
X296Y1063D02*
X372Y1063D01*
X134Y1062D02*
X220Y1062D01*
X296Y1062D02*
X372Y1062D01*
X134Y1061D02*
X220Y1061D01*
X296Y1061D02*
X372Y1061D01*
X134Y1060D02*
X220Y1060D01*
X296Y1060D02*
X372Y1060D01*
X134Y1059D02*
X220Y1059D01*
X296Y1059D02*
X305Y1059D01*
X363Y1059D02*
X373Y1059D01*
X134Y1058D02*
X220Y1058D01*
X296Y1058D02*
X305Y1058D01*
X363Y1058D02*
X373Y1058D01*
X134Y1057D02*
X220Y1057D01*
X296Y1057D02*
X305Y1057D01*
X363Y1057D02*
X373Y1057D01*
X134Y1056D02*
X144Y1056D01*
X209Y1056D02*
X220Y1056D01*
X296Y1056D02*
X305Y1056D01*
X363Y1056D02*
X373Y1056D01*
X134Y1055D02*
X144Y1055D01*
X210Y1055D02*
X220Y1055D01*
X296Y1055D02*
X305Y1055D01*
X363Y1055D02*
X373Y1055D01*
X134Y1054D02*
X144Y1054D01*
X210Y1054D02*
X220Y1054D01*
X296Y1054D02*
X305Y1054D01*
X363Y1054D02*
X373Y1054D01*
X134Y1053D02*
X144Y1053D01*
X210Y1053D02*
X220Y1053D01*
X296Y1053D02*
X305Y1053D01*
X363Y1053D02*
X373Y1053D01*
X134Y1052D02*
X144Y1052D01*
X210Y1052D02*
X220Y1052D01*
X296Y1052D02*
X305Y1052D01*
X363Y1052D02*
X373Y1052D01*
X134Y1051D02*
X144Y1051D01*
X210Y1051D02*
X220Y1051D01*
X296Y1051D02*
X305Y1051D01*
X363Y1051D02*
X373Y1051D01*
X134Y1050D02*
X144Y1050D01*
X210Y1050D02*
X220Y1050D01*
X296Y1050D02*
X305Y1050D01*
X363Y1050D02*
X373Y1050D01*
X134Y1049D02*
X144Y1049D01*
X210Y1049D02*
X220Y1049D01*
X296Y1049D02*
X305Y1049D01*
X363Y1049D02*
X373Y1049D01*
X134Y1048D02*
X144Y1048D01*
X210Y1048D02*
X220Y1048D01*
X296Y1048D02*
X305Y1048D01*
X363Y1048D02*
X373Y1048D01*
X134Y1047D02*
X144Y1047D01*
X210Y1047D02*
X220Y1047D01*
X296Y1047D02*
X305Y1047D01*
X363Y1047D02*
X373Y1047D01*
X134Y1046D02*
X144Y1046D01*
X210Y1046D02*
X220Y1046D01*
X296Y1046D02*
X305Y1046D01*
X363Y1046D02*
X373Y1046D01*
X134Y1045D02*
X144Y1045D01*
X210Y1045D02*
X220Y1045D01*
X296Y1045D02*
X305Y1045D01*
X363Y1045D02*
X373Y1045D01*
X134Y1044D02*
X144Y1044D01*
X210Y1044D02*
X220Y1044D01*
X296Y1044D02*
X305Y1044D01*
X363Y1044D02*
X373Y1044D01*
X134Y1043D02*
X144Y1043D01*
X210Y1043D02*
X220Y1043D01*
X296Y1043D02*
X305Y1043D01*
X363Y1043D02*
X373Y1043D01*
X134Y1042D02*
X144Y1042D01*
X210Y1042D02*
X220Y1042D01*
X296Y1042D02*
X305Y1042D01*
X363Y1042D02*
X373Y1042D01*
X134Y1041D02*
X144Y1041D01*
X210Y1041D02*
X220Y1041D01*
X296Y1041D02*
X305Y1041D01*
X363Y1041D02*
X373Y1041D01*
X134Y1040D02*
X144Y1040D01*
X210Y1040D02*
X220Y1040D01*
X296Y1040D02*
X305Y1040D01*
X363Y1040D02*
X373Y1040D01*
X134Y1039D02*
X144Y1039D01*
X210Y1039D02*
X220Y1039D01*
X296Y1039D02*
X305Y1039D01*
X363Y1039D02*
X373Y1039D01*
X134Y1038D02*
X144Y1038D01*
X210Y1038D02*
X219Y1038D01*
X296Y1038D02*
X305Y1038D01*
X363Y1038D02*
X373Y1038D01*
X135Y1037D02*
X143Y1037D01*
X210Y1037D02*
X219Y1037D01*
X296Y1037D02*
X305Y1037D01*
X363Y1037D02*
X373Y1037D01*
X136Y1036D02*
X143Y1036D01*
X211Y1036D02*
X218Y1036D01*
X296Y1036D02*
X305Y1036D01*
X363Y1036D02*
X373Y1036D01*
X137Y1035D02*
X141Y1035D01*
X213Y1035D02*
X217Y1035D01*
X296Y1035D02*
X305Y1035D01*
X363Y1035D02*
X373Y1035D01*
X296Y1034D02*
X305Y1034D01*
X363Y1034D02*
X373Y1034D01*
X296Y1033D02*
X305Y1033D01*
X363Y1033D02*
X373Y1033D01*
X296Y1032D02*
X305Y1032D01*
X363Y1032D02*
X373Y1032D01*
X296Y1031D02*
X305Y1031D01*
X363Y1031D02*
X373Y1031D01*
X296Y1030D02*
X305Y1030D01*
X363Y1030D02*
X373Y1030D01*
X296Y1029D02*
X372Y1029D01*
X296Y1028D02*
X372Y1028D01*
X296Y1027D02*
X372Y1027D01*
X296Y1026D02*
X372Y1026D01*
X297Y1025D02*
X371Y1025D01*
X297Y1024D02*
X371Y1024D01*
X298Y1023D02*
X370Y1023D01*
X299Y1022D02*
X369Y1022D01*
X300Y1021D02*
X368Y1021D01*
X303Y1020D02*
X365Y1020D01*
X174Y1009D02*
X180Y1009D01*
X170Y1008D02*
X184Y1008D01*
X167Y1007D02*
X187Y1007D01*
X165Y1006D02*
X189Y1006D01*
X163Y1005D02*
X191Y1005D01*
X161Y1004D02*
X193Y1004D01*
X159Y1003D02*
X195Y1003D01*
X157Y1002D02*
X197Y1002D01*
X155Y1001D02*
X199Y1001D01*
X153Y1000D02*
X201Y1000D01*
X151Y999D02*
X203Y999D01*
X149Y998D02*
X175Y998D01*
X178Y998D02*
X205Y998D01*
X147Y997D02*
X171Y997D01*
X183Y997D02*
X207Y997D01*
X305Y997D02*
X329Y997D01*
X145Y996D02*
X169Y996D01*
X185Y996D02*
X209Y996D01*
X301Y996D02*
X333Y996D01*
X366Y996D02*
X370Y996D01*
X143Y995D02*
X167Y995D01*
X187Y995D02*
X211Y995D01*
X300Y995D02*
X334Y995D01*
X365Y995D02*
X371Y995D01*
X141Y994D02*
X165Y994D01*
X189Y994D02*
X213Y994D01*
X299Y994D02*
X336Y994D01*
X364Y994D02*
X372Y994D01*
X140Y993D02*
X163Y993D01*
X191Y993D02*
X214Y993D01*
X298Y993D02*
X336Y993D01*
X364Y993D02*
X372Y993D01*
X139Y992D02*
X161Y992D01*
X193Y992D02*
X215Y992D01*
X297Y992D02*
X337Y992D01*
X363Y992D02*
X373Y992D01*
X138Y991D02*
X159Y991D01*
X195Y991D02*
X216Y991D01*
X296Y991D02*
X338Y991D01*
X363Y991D02*
X373Y991D01*
X137Y990D02*
X157Y990D01*
X197Y990D02*
X217Y990D01*
X296Y990D02*
X338Y990D01*
X363Y990D02*
X373Y990D01*
X137Y989D02*
X155Y989D01*
X199Y989D02*
X217Y989D01*
X296Y989D02*
X338Y989D01*
X363Y989D02*
X373Y989D01*
X136Y988D02*
X153Y988D01*
X201Y988D02*
X218Y988D01*
X296Y988D02*
X338Y988D01*
X363Y988D02*
X373Y988D01*
X136Y987D02*
X151Y987D01*
X203Y987D02*
X218Y987D01*
X296Y987D02*
X339Y987D01*
X363Y987D02*
X373Y987D01*
X135Y986D02*
X149Y986D01*
X205Y986D02*
X219Y986D01*
X296Y986D02*
X305Y986D01*
X330Y986D02*
X339Y986D01*
X363Y986D02*
X373Y986D01*
X135Y985D02*
X147Y985D01*
X207Y985D02*
X219Y985D01*
X296Y985D02*
X305Y985D01*
X330Y985D02*
X339Y985D01*
X363Y985D02*
X373Y985D01*
X135Y984D02*
X146Y984D01*
X208Y984D02*
X219Y984D01*
X296Y984D02*
X305Y984D01*
X330Y984D02*
X339Y984D01*
X363Y984D02*
X373Y984D01*
X134Y983D02*
X145Y983D01*
X209Y983D02*
X220Y983D01*
X296Y983D02*
X305Y983D01*
X330Y983D02*
X339Y983D01*
X363Y983D02*
X373Y983D01*
X134Y982D02*
X145Y982D01*
X209Y982D02*
X220Y982D01*
X296Y982D02*
X305Y982D01*
X330Y982D02*
X339Y982D01*
X363Y982D02*
X373Y982D01*
X134Y981D02*
X144Y981D01*
X209Y981D02*
X220Y981D01*
X296Y981D02*
X305Y981D01*
X330Y981D02*
X339Y981D01*
X363Y981D02*
X373Y981D01*
X134Y980D02*
X144Y980D01*
X210Y980D02*
X220Y980D01*
X296Y980D02*
X305Y980D01*
X330Y980D02*
X339Y980D01*
X363Y980D02*
X373Y980D01*
X134Y979D02*
X144Y979D01*
X210Y979D02*
X220Y979D01*
X296Y979D02*
X305Y979D01*
X330Y979D02*
X339Y979D01*
X363Y979D02*
X373Y979D01*
X134Y978D02*
X144Y978D01*
X210Y978D02*
X220Y978D01*
X296Y978D02*
X305Y978D01*
X330Y978D02*
X339Y978D01*
X363Y978D02*
X373Y978D01*
X134Y977D02*
X144Y977D01*
X210Y977D02*
X220Y977D01*
X296Y977D02*
X305Y977D01*
X330Y977D02*
X339Y977D01*
X363Y977D02*
X373Y977D01*
X134Y976D02*
X220Y976D01*
X296Y976D02*
X305Y976D01*
X330Y976D02*
X339Y976D01*
X363Y976D02*
X373Y976D01*
X134Y975D02*
X220Y975D01*
X296Y975D02*
X305Y975D01*
X330Y975D02*
X339Y975D01*
X363Y975D02*
X373Y975D01*
X134Y974D02*
X220Y974D01*
X296Y974D02*
X305Y974D01*
X330Y974D02*
X339Y974D01*
X363Y974D02*
X373Y974D01*
X134Y973D02*
X220Y973D01*
X296Y973D02*
X305Y973D01*
X330Y973D02*
X339Y973D01*
X363Y973D02*
X373Y973D01*
X134Y972D02*
X220Y972D01*
X296Y972D02*
X305Y972D01*
X330Y972D02*
X339Y972D01*
X363Y972D02*
X373Y972D01*
X134Y971D02*
X220Y971D01*
X296Y971D02*
X305Y971D01*
X330Y971D02*
X339Y971D01*
X363Y971D02*
X373Y971D01*
X134Y970D02*
X220Y970D01*
X296Y970D02*
X305Y970D01*
X330Y970D02*
X339Y970D01*
X363Y970D02*
X373Y970D01*
X134Y969D02*
X220Y969D01*
X296Y969D02*
X305Y969D01*
X330Y969D02*
X339Y969D01*
X363Y969D02*
X373Y969D01*
X134Y968D02*
X220Y968D01*
X296Y968D02*
X305Y968D01*
X330Y968D02*
X339Y968D01*
X363Y968D02*
X373Y968D01*
X134Y967D02*
X220Y967D01*
X296Y967D02*
X305Y967D01*
X330Y967D02*
X339Y967D01*
X363Y967D02*
X373Y967D01*
X134Y966D02*
X220Y966D01*
X296Y966D02*
X305Y966D01*
X330Y966D02*
X339Y966D01*
X363Y966D02*
X373Y966D01*
X134Y965D02*
X145Y965D01*
X209Y965D02*
X220Y965D01*
X296Y965D02*
X305Y965D01*
X330Y965D02*
X339Y965D01*
X363Y965D02*
X373Y965D01*
X134Y964D02*
X144Y964D01*
X210Y964D02*
X220Y964D01*
X296Y964D02*
X305Y964D01*
X330Y964D02*
X339Y964D01*
X363Y964D02*
X373Y964D01*
X134Y963D02*
X144Y963D01*
X210Y963D02*
X220Y963D01*
X296Y963D02*
X305Y963D01*
X330Y963D02*
X339Y963D01*
X363Y963D02*
X373Y963D01*
X134Y962D02*
X144Y962D01*
X210Y962D02*
X220Y962D01*
X296Y962D02*
X305Y962D01*
X330Y962D02*
X339Y962D01*
X363Y962D02*
X373Y962D01*
X134Y961D02*
X144Y961D01*
X210Y961D02*
X220Y961D01*
X296Y961D02*
X305Y961D01*
X330Y961D02*
X339Y961D01*
X363Y961D02*
X373Y961D01*
X134Y960D02*
X144Y960D01*
X210Y960D02*
X220Y960D01*
X296Y960D02*
X305Y960D01*
X330Y960D02*
X339Y960D01*
X363Y960D02*
X373Y960D01*
X134Y959D02*
X144Y959D01*
X210Y959D02*
X220Y959D01*
X296Y959D02*
X305Y959D01*
X330Y959D02*
X339Y959D01*
X363Y959D02*
X373Y959D01*
X134Y958D02*
X144Y958D01*
X210Y958D02*
X220Y958D01*
X296Y958D02*
X305Y958D01*
X330Y958D02*
X339Y958D01*
X363Y958D02*
X373Y958D01*
X135Y957D02*
X144Y957D01*
X210Y957D02*
X219Y957D01*
X296Y957D02*
X305Y957D01*
X330Y957D02*
X373Y957D01*
X136Y956D02*
X143Y956D01*
X211Y956D02*
X218Y956D01*
X296Y956D02*
X305Y956D01*
X330Y956D02*
X373Y956D01*
X137Y955D02*
X142Y955D01*
X212Y955D02*
X217Y955D01*
X296Y955D02*
X305Y955D01*
X330Y955D02*
X373Y955D01*
X296Y954D02*
X305Y954D01*
X330Y954D02*
X373Y954D01*
X296Y953D02*
X305Y953D01*
X331Y953D02*
X373Y953D01*
X296Y952D02*
X305Y952D01*
X331Y952D02*
X373Y952D01*
X296Y951D02*
X304Y951D01*
X332Y951D02*
X373Y951D01*
X296Y950D02*
X304Y950D01*
X333Y950D02*
X373Y950D01*
X297Y949D02*
X303Y949D01*
X334Y949D02*
X373Y949D01*
X298Y948D02*
X302Y948D01*
X336Y948D02*
X373Y948D01*
X137Y928D02*
X142Y928D01*
X212Y928D02*
X217Y928D01*
X136Y927D02*
X143Y927D01*
X211Y927D02*
X218Y927D01*
X135Y926D02*
X144Y926D01*
X210Y926D02*
X219Y926D01*
X134Y925D02*
X144Y925D01*
X210Y925D02*
X220Y925D01*
X134Y924D02*
X144Y924D01*
X210Y924D02*
X220Y924D01*
X134Y923D02*
X144Y923D01*
X210Y923D02*
X220Y923D01*
X134Y922D02*
X144Y922D01*
X210Y922D02*
X220Y922D01*
X134Y921D02*
X144Y921D01*
X210Y921D02*
X220Y921D01*
X134Y920D02*
X144Y920D01*
X210Y920D02*
X220Y920D01*
X134Y919D02*
X144Y919D01*
X210Y919D02*
X220Y919D01*
X134Y918D02*
X144Y918D01*
X210Y918D02*
X220Y918D01*
X134Y917D02*
X144Y917D01*
X210Y917D02*
X220Y917D01*
X134Y916D02*
X144Y916D01*
X210Y916D02*
X220Y916D01*
X134Y915D02*
X144Y915D01*
X210Y915D02*
X220Y915D01*
X134Y914D02*
X144Y914D01*
X210Y914D02*
X220Y914D01*
X134Y913D02*
X144Y913D01*
X210Y913D02*
X220Y913D01*
X134Y912D02*
X144Y912D01*
X210Y912D02*
X220Y912D01*
X134Y911D02*
X144Y911D01*
X210Y911D02*
X220Y911D01*
X134Y910D02*
X144Y910D01*
X210Y910D02*
X220Y910D01*
X134Y909D02*
X144Y909D01*
X210Y909D02*
X220Y909D01*
X134Y908D02*
X144Y908D01*
X210Y908D02*
X220Y908D01*
X134Y907D02*
X145Y907D01*
X209Y907D02*
X220Y907D01*
X134Y906D02*
X220Y906D01*
X134Y905D02*
X220Y905D01*
X134Y904D02*
X220Y904D01*
X134Y903D02*
X220Y903D01*
X134Y902D02*
X220Y902D01*
X134Y901D02*
X220Y901D01*
X134Y900D02*
X220Y900D01*
X134Y899D02*
X220Y899D01*
X134Y898D02*
X220Y898D01*
X134Y897D02*
X220Y897D01*
X134Y896D02*
X220Y896D01*
X134Y895D02*
X144Y895D01*
X210Y895D02*
X220Y895D01*
X134Y894D02*
X144Y894D01*
X210Y894D02*
X220Y894D01*
X134Y893D02*
X144Y893D01*
X210Y893D02*
X220Y893D01*
X134Y892D02*
X144Y892D01*
X210Y892D02*
X220Y892D01*
X134Y891D02*
X144Y891D01*
X210Y891D02*
X220Y891D01*
X134Y890D02*
X144Y890D01*
X210Y890D02*
X220Y890D01*
X134Y889D02*
X144Y889D01*
X210Y889D02*
X220Y889D01*
X134Y888D02*
X144Y888D01*
X210Y888D02*
X220Y888D01*
X134Y887D02*
X144Y887D01*
X210Y887D02*
X220Y887D01*
X134Y886D02*
X144Y886D01*
X210Y886D02*
X220Y886D01*
X134Y885D02*
X144Y885D01*
X210Y885D02*
X220Y885D01*
X134Y884D02*
X144Y884D01*
X210Y884D02*
X220Y884D01*
X134Y883D02*
X144Y883D01*
X210Y883D02*
X220Y883D01*
X134Y882D02*
X144Y882D01*
X210Y882D02*
X220Y882D01*
X134Y881D02*
X144Y881D01*
X210Y881D02*
X220Y881D01*
X134Y880D02*
X144Y880D01*
X210Y880D02*
X220Y880D01*
X134Y879D02*
X144Y879D01*
X210Y879D02*
X220Y879D01*
X134Y878D02*
X144Y878D01*
X210Y878D02*
X220Y878D01*
X135Y877D02*
X144Y877D01*
X210Y877D02*
X219Y877D01*
X135Y876D02*
X143Y876D01*
X211Y876D02*
X219Y876D01*
X136Y875D02*
X142Y875D01*
X212Y875D02*
X218Y875D01*
X138Y874D02*
X140Y874D01*
X213Y874D02*
X216Y874D01*
X134Y848D02*
X217Y848D01*
X134Y847D02*
X218Y847D01*
X134Y846D02*
X219Y846D01*
X134Y845D02*
X219Y845D01*
X134Y844D02*
X220Y844D01*
X134Y843D02*
X220Y843D01*
X134Y842D02*
X220Y842D01*
X134Y841D02*
X219Y841D01*
X134Y840D02*
X219Y840D01*
X134Y839D02*
X218Y839D01*
X134Y838D02*
X216Y838D01*
X134Y837D02*
X149Y837D01*
X134Y836D02*
X151Y836D01*
X134Y835D02*
X152Y835D01*
X135Y834D02*
X154Y834D01*
X136Y833D02*
X155Y833D01*
X138Y832D02*
X156Y832D01*
X139Y831D02*
X158Y831D01*
X141Y830D02*
X159Y830D01*
X142Y829D02*
X161Y829D01*
X144Y828D02*
X162Y828D01*
X145Y827D02*
X164Y827D01*
X146Y826D02*
X169Y826D01*
X148Y825D02*
X171Y825D01*
X149Y824D02*
X172Y824D01*
X151Y823D02*
X172Y823D01*
X152Y822D02*
X172Y822D01*
X153Y821D02*
X173Y821D01*
X152Y820D02*
X173Y820D01*
X151Y819D02*
X172Y819D01*
X149Y818D02*
X172Y818D01*
X148Y817D02*
X171Y817D01*
X146Y816D02*
X169Y816D01*
X145Y815D02*
X164Y815D01*
X144Y814D02*
X162Y814D01*
X142Y813D02*
X161Y813D01*
X141Y812D02*
X159Y812D01*
X139Y811D02*
X158Y811D01*
X138Y810D02*
X156Y810D01*
X136Y809D02*
X155Y809D01*
X135Y808D02*
X154Y808D01*
X134Y807D02*
X152Y807D01*
X134Y806D02*
X151Y806D01*
X134Y805D02*
X149Y805D01*
X134Y804D02*
X217Y804D01*
X134Y803D02*
X218Y803D01*
X134Y802D02*
X219Y802D01*
X134Y801D02*
X219Y801D01*
X134Y800D02*
X220Y800D01*
X134Y799D02*
X220Y799D01*
X134Y798D02*
X220Y798D01*
X134Y797D02*
X219Y797D01*
X134Y796D02*
X219Y796D01*
X134Y795D02*
X218Y795D01*
X134Y794D02*
X217Y794D01*
D02*
G04 End of Copper1*
M02*