G04 MADE WITH FRITZING*
G04 WWW.FRITZING.ORG*
G04 DOUBLE SIDED*
G04 HOLES PLATED*
G04 CONTOUR ON CENTER OF CONTOUR VECTOR*
%ASAXBY*%
%FSLAX23Y23*%
%MOIN*%
%OFA0B0*%
%SFA1.0B1.0*%
%ADD10C,0.154173*%
%ADD11C,0.140000*%
%ADD12C,0.082000*%
%ADD13C,0.099060*%
%ADD14C,0.075000*%
%ADD15C,0.078000*%
%ADD16C,0.053307*%
%ADD17C,0.099055*%
%ADD18C,0.039370*%
%ADD19C,0.080000*%
%ADD20C,0.094000*%
%ADD21C,0.112000*%
%ADD22C,0.074000*%
%ADD23C,0.070000*%
%ADD24C,0.204725*%
%ADD25C,0.102362*%
%ADD26C,0.091417*%
%ADD27C,0.059000*%
%ADD28R,0.082000X0.082000*%
%ADD29R,0.766667X0.266667*%
%ADD30R,0.075000X0.075000*%
%ADD31R,0.094000X0.094000*%
%ADD32R,0.914814X0.781481*%
%ADD33R,0.755559X0.274073*%
%ADD34R,0.759260X0.270370*%
%ADD35C,0.057087*%
%ADD36C,0.048000*%
%ADD37C,0.024000*%
%ADD38C,0.036000*%
%ADD39R,0.001000X0.001000*%
%LNCOPPER0*%
G90*
G70*
G54D10*
X1497Y2994D03*
G54D11*
X1497Y3234D03*
X1307Y3114D03*
G54D12*
X10182Y1297D03*
X9884Y1297D03*
G54D13*
X5007Y2911D03*
X4909Y2810D03*
X4712Y2911D03*
X4515Y2810D03*
X4417Y2911D03*
X4909Y3317D03*
X4515Y3317D03*
G54D14*
X4482Y2597D03*
X4482Y2197D03*
X4932Y2047D03*
X4932Y1647D03*
G54D15*
X5632Y247D03*
G54D14*
X2332Y557D03*
X2332Y695D03*
G54D16*
X2002Y685D03*
X2002Y618D03*
X2002Y551D03*
X2002Y484D03*
X2002Y417D03*
G54D17*
X482Y2347D03*
X482Y2147D03*
G54D15*
X2232Y1697D03*
X2232Y1597D03*
X2232Y1497D03*
G54D18*
X2132Y547D03*
X2132Y687D03*
G54D17*
X1732Y2047D03*
X1732Y1847D03*
G54D14*
X2332Y387D03*
X2332Y287D03*
G54D19*
X2632Y587D03*
X3032Y587D03*
G54D15*
X782Y497D03*
X782Y397D03*
X782Y297D03*
G54D20*
X3182Y247D03*
X2582Y247D03*
G54D18*
X6882Y1097D03*
G54D15*
X3482Y247D03*
G54D21*
X1032Y2347D03*
X1238Y2347D03*
X1444Y2347D03*
X1650Y2347D03*
G54D22*
X1032Y1297D03*
X1032Y1397D03*
X1032Y1497D03*
G54D23*
X1578Y1495D03*
X1578Y1695D03*
X1578Y1295D03*
X1578Y1095D03*
G54D24*
X9532Y1747D03*
X14882Y297D03*
X14882Y2497D03*
X282Y2747D03*
X282Y297D03*
X2182Y2747D03*
X4732Y2597D03*
X4132Y297D03*
G54D15*
X4582Y247D03*
X4682Y247D03*
X4782Y247D03*
X4882Y247D03*
X5432Y247D03*
X5332Y247D03*
X5232Y247D03*
G54D12*
X4132Y2297D03*
X4132Y2595D03*
G54D25*
X9816Y3247D03*
X9816Y2997D03*
X9816Y2747D03*
X10276Y3247D03*
X10276Y2997D03*
X10276Y2747D03*
X9788Y3119D03*
X9788Y2869D03*
X9788Y2619D03*
X10304Y3119D03*
X10304Y2869D03*
X10304Y2619D03*
X6471Y3247D03*
X6471Y2997D03*
X6471Y2747D03*
X6931Y3247D03*
X6931Y2997D03*
X6931Y2747D03*
X6443Y3119D03*
X6443Y2869D03*
X6443Y2619D03*
X6959Y3119D03*
X6959Y2869D03*
X6959Y2619D03*
X7260Y3247D03*
X7260Y2997D03*
X7260Y2747D03*
X7720Y3247D03*
X7720Y2997D03*
X7720Y2747D03*
X7232Y3119D03*
X7232Y2869D03*
X7232Y2619D03*
X7748Y3119D03*
X7748Y2869D03*
X7748Y2619D03*
X8832Y3247D03*
X8832Y2997D03*
X8832Y2747D03*
X9293Y3247D03*
X9293Y2997D03*
X9293Y2747D03*
X8804Y3119D03*
X8804Y2869D03*
X8804Y2619D03*
X9320Y3119D03*
X9320Y2869D03*
X9320Y2619D03*
X8043Y3247D03*
X8043Y2997D03*
X8043Y2747D03*
X8504Y3247D03*
X8504Y2997D03*
X8504Y2747D03*
X8016Y3119D03*
X8016Y2869D03*
X8016Y2619D03*
X8532Y3119D03*
X8532Y2869D03*
X8532Y2619D03*
X10802Y3247D03*
X10802Y2997D03*
X10802Y2747D03*
X11263Y3247D03*
X11263Y2997D03*
X11263Y2747D03*
X10774Y3119D03*
X10774Y2869D03*
X10774Y2619D03*
X11290Y3119D03*
X11290Y2869D03*
X11290Y2619D03*
X11588Y3247D03*
X11588Y2997D03*
X11588Y2747D03*
X12049Y3247D03*
X12049Y2997D03*
X12049Y2747D03*
X11561Y3119D03*
X11561Y2869D03*
X11561Y2619D03*
X12076Y3119D03*
X12076Y2869D03*
X12076Y2619D03*
G54D14*
X9632Y397D03*
X9632Y697D03*
X9732Y397D03*
X9732Y697D03*
X9832Y397D03*
X9832Y697D03*
X9932Y397D03*
X9932Y697D03*
X10032Y397D03*
X10032Y697D03*
X10132Y397D03*
X10132Y697D03*
X10232Y397D03*
X10232Y697D03*
X10332Y397D03*
X10332Y697D03*
X10432Y397D03*
X10432Y697D03*
G54D25*
X13166Y3247D03*
X13166Y2997D03*
X13166Y2747D03*
X13627Y3247D03*
X13627Y2997D03*
X13627Y2747D03*
X13138Y3119D03*
X13138Y2869D03*
X13138Y2619D03*
X13654Y3119D03*
X13654Y2869D03*
X13654Y2619D03*
G54D26*
X5399Y3247D03*
X6038Y3247D03*
X5399Y2997D03*
X6038Y2997D03*
X5399Y2747D03*
X6038Y2747D03*
X14060Y3247D03*
X14699Y3247D03*
X14060Y2997D03*
X14699Y2997D03*
X14060Y2747D03*
X14699Y2747D03*
G54D25*
X12377Y3247D03*
X12377Y2997D03*
X12377Y2747D03*
X12838Y3247D03*
X12838Y2997D03*
X12838Y2747D03*
X12350Y3119D03*
X12350Y2869D03*
X12350Y2619D03*
X12865Y3119D03*
X12865Y2869D03*
X12865Y2619D03*
G54D15*
X10432Y247D03*
X10332Y247D03*
X10232Y247D03*
X10132Y247D03*
X10032Y247D03*
X9932Y247D03*
X9832Y247D03*
X9732Y247D03*
X9632Y247D03*
G54D27*
X13634Y1897D03*
X13334Y2297D03*
X13334Y2097D03*
X13334Y1897D03*
X13334Y1597D03*
X13634Y1597D03*
X13634Y2097D03*
X13634Y2297D03*
X12784Y1897D03*
X12484Y2297D03*
X12484Y2097D03*
X12484Y1897D03*
X12484Y1597D03*
X12784Y1597D03*
X12784Y2097D03*
X12784Y2297D03*
X11984Y1897D03*
X11684Y2297D03*
X11684Y2097D03*
X11684Y1897D03*
X11684Y1597D03*
X11984Y1597D03*
X11984Y2097D03*
X11984Y2297D03*
X11184Y1897D03*
X10884Y2297D03*
X10884Y2097D03*
X10884Y1897D03*
X10884Y1597D03*
X11184Y1597D03*
X11184Y2097D03*
X11184Y2297D03*
X9132Y1897D03*
X8832Y2297D03*
X8832Y2097D03*
X8832Y1897D03*
X8832Y1597D03*
X9132Y1597D03*
X9132Y2097D03*
X9132Y2297D03*
X8382Y1897D03*
X8082Y2297D03*
X8082Y2097D03*
X8082Y1897D03*
X8082Y1597D03*
X8382Y1597D03*
X8382Y2097D03*
X8382Y2297D03*
X7582Y1897D03*
X7282Y2297D03*
X7282Y2097D03*
X7282Y1897D03*
X7282Y1597D03*
X7582Y1597D03*
X7582Y2097D03*
X7582Y2297D03*
X6782Y1897D03*
X6482Y2297D03*
X6482Y2097D03*
X6482Y1897D03*
X6482Y1597D03*
X6782Y1597D03*
X6782Y2097D03*
X6782Y2297D03*
X6782Y997D03*
X6482Y1397D03*
X6482Y1197D03*
X6482Y997D03*
X6482Y697D03*
X6782Y697D03*
X6782Y1197D03*
X6782Y1397D03*
X7582Y997D03*
X7282Y1397D03*
X7282Y1197D03*
X7282Y997D03*
X7282Y697D03*
X7582Y697D03*
X7582Y1197D03*
X7582Y1397D03*
X8382Y997D03*
X8082Y1397D03*
X8082Y1197D03*
X8082Y997D03*
X8082Y697D03*
X8382Y697D03*
X8382Y1197D03*
X8382Y1397D03*
X11182Y997D03*
X10882Y1397D03*
X10882Y1197D03*
X10882Y997D03*
X10882Y697D03*
X11182Y697D03*
X11182Y1197D03*
X11182Y1397D03*
X11982Y997D03*
X11682Y1397D03*
X11682Y1197D03*
X11682Y997D03*
X11682Y697D03*
X11982Y697D03*
X11982Y1197D03*
X11982Y1397D03*
X12782Y997D03*
X12482Y1397D03*
X12482Y1197D03*
X12482Y997D03*
X12482Y697D03*
X12782Y697D03*
X12782Y1197D03*
X12782Y1397D03*
X13632Y997D03*
X13332Y1397D03*
X13332Y1197D03*
X13332Y997D03*
X13332Y697D03*
X13632Y697D03*
X13632Y1197D03*
X13632Y1397D03*
X10182Y1897D03*
X9882Y2297D03*
X9882Y2097D03*
X9882Y1897D03*
X9882Y1597D03*
X10182Y1597D03*
X10182Y2097D03*
X10182Y2297D03*
X5832Y1897D03*
X5532Y2297D03*
X5532Y2097D03*
X5532Y1897D03*
X5532Y1597D03*
X5832Y1597D03*
X5832Y2097D03*
X5832Y2297D03*
X9132Y997D03*
X8832Y1397D03*
X8832Y1197D03*
X8832Y997D03*
X8832Y697D03*
X9132Y697D03*
X9132Y1197D03*
X9132Y1397D03*
G54D14*
X2832Y2597D03*
X2832Y2197D03*
G54D12*
X2982Y2197D03*
X3280Y2197D03*
G54D14*
X3932Y2197D03*
X3932Y1697D03*
X3532Y1597D03*
X3532Y1997D03*
X3582Y2597D03*
X3582Y2197D03*
X2982Y1897D03*
X3282Y1897D03*
X2982Y1797D03*
X3282Y1797D03*
X2982Y1697D03*
X3282Y1697D03*
X2982Y1597D03*
X3282Y1597D03*
G54D13*
X4181Y2913D03*
X4083Y2812D03*
X3886Y2913D03*
X3689Y2812D03*
X3591Y2913D03*
X4083Y3319D03*
X3689Y3319D03*
X3354Y2913D03*
X3256Y2812D03*
X3059Y2913D03*
X2862Y2812D03*
X2764Y2913D03*
X3256Y3319D03*
X2862Y3319D03*
G54D14*
X5182Y2347D03*
X5182Y2847D03*
X9632Y2047D03*
X9632Y2547D03*
X10482Y2047D03*
X10482Y2547D03*
X6232Y2347D03*
X6232Y2847D03*
X5332Y1097D03*
X5332Y997D03*
X5332Y897D03*
X3882Y647D03*
X4235Y1001D03*
G54D12*
X5832Y1297D03*
X5534Y1297D03*
G54D28*
X10183Y1297D03*
G54D29*
X4715Y3271D03*
G54D30*
X2332Y557D03*
X2332Y387D03*
G54D31*
X3182Y247D03*
G54D32*
X932Y3022D03*
G54D33*
X3056Y3263D03*
G54D34*
X3886Y3266D03*
G54D28*
X4132Y2296D03*
G54D30*
X9632Y397D03*
G54D28*
X2981Y2197D03*
G54D30*
X2982Y1897D03*
G54D28*
X5833Y1297D03*
G54D35*
X2013Y685D02*
X1991Y685D01*
D02*
X2013Y618D02*
X1991Y618D01*
D02*
X2013Y551D02*
X1991Y551D01*
D02*
X2013Y484D02*
X1991Y484D01*
D02*
X2013Y417D02*
X1991Y417D01*
G54D36*
D02*
X10432Y1047D02*
X10213Y1266D01*
D02*
X10432Y737D02*
X10432Y1047D01*
D02*
X10182Y1340D02*
X10182Y1557D01*
D02*
X5032Y97D02*
X4911Y218D01*
D02*
X5832Y97D02*
X5032Y97D01*
D02*
X5832Y1254D02*
X5832Y97D01*
D02*
X5832Y1340D02*
X5832Y1557D01*
D02*
X4682Y2947D02*
X4679Y2951D01*
D02*
X4582Y3047D02*
X4682Y2947D01*
D02*
X3982Y3047D02*
X4582Y3047D01*
D02*
X3882Y2947D02*
X3982Y3047D01*
D02*
X3880Y2965D02*
X3882Y2947D01*
G54D37*
D02*
X4482Y2747D02*
X4482Y2626D01*
D02*
X4496Y2774D02*
X4482Y2747D01*
D02*
X4932Y2076D02*
X4932Y2747D01*
D02*
X4932Y2747D02*
X4923Y2772D01*
G54D36*
D02*
X2291Y547D02*
X2162Y547D01*
D02*
X2293Y547D02*
X2291Y547D01*
G54D38*
D02*
X2107Y687D02*
X2040Y685D01*
G54D36*
D02*
X2002Y288D02*
X2002Y373D01*
D02*
X2292Y287D02*
X2002Y288D01*
G54D38*
D02*
X2040Y550D02*
X2107Y548D01*
G54D36*
D02*
X1582Y1396D02*
X2131Y1396D01*
D02*
X2131Y1396D02*
X2132Y717D01*
D02*
X1580Y1332D02*
X1582Y1396D01*
D02*
X2132Y577D02*
X2132Y657D01*
D02*
X2282Y397D02*
X2293Y395D01*
D02*
X2153Y526D02*
X2282Y397D01*
D02*
X2482Y377D02*
X2552Y286D01*
D02*
X2372Y384D02*
X2482Y377D01*
D02*
X534Y2347D02*
X982Y2347D01*
D02*
X682Y395D02*
X482Y597D01*
D02*
X482Y597D02*
X482Y2095D01*
D02*
X741Y396D02*
X682Y395D01*
D02*
X1030Y751D02*
X811Y526D01*
D02*
X1032Y1255D02*
X1030Y751D01*
D02*
X2292Y287D02*
X823Y297D01*
D02*
X1582Y1396D02*
X1334Y1399D01*
D02*
X1372Y1847D02*
X1680Y1847D01*
D02*
X1334Y1795D02*
X1372Y1847D01*
D02*
X1334Y1399D02*
X1334Y1795D01*
D02*
X1580Y1332D02*
X1582Y1396D01*
G54D37*
D02*
X5182Y3047D02*
X5369Y3220D01*
D02*
X5182Y2876D02*
X5182Y3047D01*
D02*
X6232Y3047D02*
X6066Y3218D01*
D02*
X6232Y2876D02*
X6232Y3047D01*
D02*
X9632Y2947D02*
X9760Y3087D01*
D02*
X9632Y2576D02*
X9632Y2947D01*
D02*
X10482Y2947D02*
X10335Y3089D01*
D02*
X10482Y2576D02*
X10482Y2947D01*
G54D36*
D02*
X4682Y295D02*
X4682Y288D01*
D02*
X3582Y1395D02*
X4682Y295D01*
D02*
X1586Y1395D02*
X3582Y1395D01*
D02*
X1581Y1458D02*
X1586Y1395D01*
D02*
X5304Y869D02*
X4711Y276D01*
G54D37*
D02*
X4264Y1000D02*
X5303Y997D01*
D02*
X5182Y2247D02*
X5512Y1917D01*
D02*
X5182Y2318D02*
X5182Y2247D01*
D02*
X5851Y1918D02*
X6213Y2326D01*
G54D36*
D02*
X10582Y97D02*
X5032Y97D01*
D02*
X5032Y97D02*
X4911Y218D01*
D02*
X11154Y669D02*
X10582Y97D01*
D02*
X6882Y797D02*
X6810Y725D01*
D02*
X6882Y1067D02*
X6882Y797D01*
D02*
X6882Y1497D02*
X6810Y1569D01*
D02*
X6882Y1127D02*
X6882Y1497D01*
D02*
X9104Y669D02*
X9032Y597D01*
D02*
X9032Y597D02*
X8482Y597D01*
D02*
X8482Y597D02*
X8410Y669D01*
D02*
X8354Y669D02*
X8282Y597D01*
D02*
X8282Y597D02*
X7682Y597D01*
D02*
X7682Y597D02*
X7610Y669D01*
D02*
X6882Y597D02*
X6810Y669D01*
D02*
X7482Y597D02*
X6882Y597D01*
D02*
X7554Y669D02*
X7482Y597D01*
D02*
X13534Y595D02*
X12882Y599D01*
D02*
X12882Y599D02*
X12810Y669D01*
D02*
X13604Y668D02*
X13534Y595D01*
D02*
X12754Y669D02*
X12682Y599D01*
D02*
X12682Y599D02*
X12082Y595D01*
D02*
X12082Y595D02*
X12010Y669D01*
D02*
X11954Y669D02*
X11882Y595D01*
D02*
X11882Y595D02*
X11282Y599D01*
D02*
X11282Y599D02*
X11210Y669D01*
D02*
X13660Y725D02*
X13732Y797D01*
D02*
X13732Y797D02*
X13734Y1497D01*
D02*
X13734Y1497D02*
X13662Y1569D01*
D02*
X12810Y725D02*
X12882Y797D01*
D02*
X12882Y797D02*
X12884Y1497D01*
D02*
X12884Y1497D02*
X12812Y1569D01*
D02*
X12082Y797D02*
X12084Y1497D01*
D02*
X12084Y1497D02*
X12012Y1569D01*
D02*
X12010Y725D02*
X12082Y797D01*
D02*
X11210Y725D02*
X11282Y797D01*
D02*
X11282Y797D02*
X11284Y1497D01*
D02*
X11284Y1497D02*
X11212Y1569D01*
D02*
X1732Y2997D02*
X1548Y3183D01*
D02*
X1732Y2647D02*
X1732Y2997D01*
D02*
X1479Y2383D02*
X1732Y2647D01*
D02*
X1482Y2597D02*
X1494Y2915D01*
D02*
X1273Y2383D02*
X1482Y2597D01*
D02*
X1582Y1397D02*
X1580Y1332D01*
D02*
X1074Y1397D02*
X1582Y1397D01*
D02*
X1582Y1397D02*
X1580Y1458D01*
D02*
X1074Y1397D02*
X1582Y1397D01*
D02*
X1230Y1099D02*
X1541Y1096D01*
D02*
X1062Y1267D02*
X1230Y1099D01*
D02*
X1334Y1395D02*
X1074Y1397D01*
D02*
X1334Y1795D02*
X1334Y1395D01*
D02*
X1632Y2197D02*
X1334Y1795D01*
D02*
X1644Y2297D02*
X1632Y2197D01*
D02*
X4882Y197D02*
X4882Y206D01*
D02*
X4782Y97D02*
X4882Y197D01*
D02*
X4682Y97D02*
X4782Y97D01*
D02*
X4582Y197D02*
X4682Y97D01*
D02*
X4582Y206D02*
X4582Y197D01*
D02*
X4723Y247D02*
X4741Y247D01*
D02*
X5232Y297D02*
X5232Y288D01*
D02*
X5330Y399D02*
X5232Y297D01*
D02*
X5432Y297D02*
X5330Y399D01*
D02*
X5432Y288D02*
X5432Y297D01*
D02*
X6182Y97D02*
X6754Y669D01*
D02*
X5032Y97D02*
X6182Y97D01*
D02*
X4911Y218D02*
X5032Y97D01*
G54D37*
D02*
X2832Y1897D02*
X2832Y2197D01*
D02*
X2832Y2197D02*
X2950Y2197D01*
D02*
X2932Y1797D02*
X2832Y1897D01*
D02*
X2953Y1797D02*
X2932Y1797D01*
D02*
X3282Y2147D02*
X3281Y2165D01*
D02*
X3133Y1998D02*
X3282Y2147D01*
D02*
X3132Y1797D02*
X3133Y1998D01*
D02*
X3032Y1697D02*
X3132Y1797D01*
D02*
X3011Y1697D02*
X3032Y1697D01*
G54D36*
D02*
X3082Y1397D02*
X3254Y1569D01*
D02*
X1582Y1396D02*
X3082Y1397D01*
D02*
X1580Y1458D02*
X1582Y1396D01*
D02*
X3492Y1597D02*
X3322Y1597D01*
D02*
X3982Y1599D02*
X3572Y1597D01*
D02*
X4282Y1895D02*
X3982Y1599D01*
D02*
X3982Y3047D02*
X4282Y3047D01*
D02*
X3882Y2947D02*
X3982Y3047D01*
D02*
X4282Y3047D02*
X4282Y1895D01*
D02*
X3880Y2965D02*
X3882Y2947D01*
G54D37*
D02*
X3332Y1797D02*
X3512Y1977D01*
D02*
X3311Y1797D02*
X3332Y1797D01*
D02*
X9982Y2573D02*
X9845Y2716D01*
D02*
X9982Y2197D02*
X9982Y2573D01*
D02*
X9902Y2117D02*
X9982Y2197D01*
D02*
X10082Y2197D02*
X10082Y2721D01*
D02*
X10082Y2721D02*
X9845Y2966D01*
D02*
X10162Y2117D02*
X10082Y2197D01*
D02*
X9782Y1897D02*
X9853Y1897D01*
D02*
X9652Y2027D02*
X9782Y1897D01*
D02*
X10332Y1897D02*
X10211Y1897D01*
D02*
X10462Y2027D02*
X10332Y1897D01*
G54D36*
D02*
X5082Y397D02*
X5203Y276D01*
D02*
X4832Y396D02*
X5082Y397D01*
D02*
X4711Y276D02*
X4832Y396D01*
G54D37*
D02*
X3311Y1697D02*
X3903Y1697D01*
D02*
X4134Y1895D02*
X4132Y2265D01*
D02*
X3952Y1717D02*
X4134Y1895D01*
D02*
X4133Y2747D02*
X4108Y2780D01*
D02*
X4132Y2627D02*
X4133Y2747D01*
G54D36*
D02*
X7182Y797D02*
X7182Y1497D01*
D02*
X7182Y1497D02*
X7254Y1569D01*
D02*
X7254Y725D02*
X7182Y797D01*
D02*
X7682Y797D02*
X7682Y1497D01*
D02*
X7682Y1497D02*
X7610Y1569D01*
D02*
X7610Y725D02*
X7682Y797D01*
D02*
X6382Y797D02*
X6382Y1497D01*
D02*
X6382Y1497D02*
X6454Y1569D01*
D02*
X6454Y725D02*
X6382Y797D01*
G54D37*
D02*
X2833Y2747D02*
X2846Y2775D01*
D02*
X2832Y2626D02*
X2833Y2747D01*
D02*
X3282Y2747D02*
X3271Y2774D01*
D02*
X3280Y2229D02*
X3282Y2747D01*
D02*
X3582Y2697D02*
X3661Y2782D01*
D02*
X3582Y2626D02*
X3582Y2697D01*
G54D36*
D02*
X13232Y797D02*
X13234Y1497D01*
D02*
X13234Y1497D02*
X13306Y1569D01*
D02*
X13304Y725D02*
X13232Y797D01*
D02*
X12382Y797D02*
X12384Y1497D01*
D02*
X12384Y1497D02*
X12456Y1569D01*
D02*
X12454Y725D02*
X12382Y797D01*
D02*
X11582Y797D02*
X11584Y1497D01*
D02*
X11584Y1497D02*
X11656Y1569D01*
D02*
X11654Y725D02*
X11582Y797D01*
D02*
X10782Y797D02*
X10784Y1497D01*
D02*
X10784Y1497D02*
X10856Y1569D01*
D02*
X10854Y725D02*
X10782Y797D01*
D02*
X9232Y797D02*
X9234Y1495D01*
D02*
X9234Y1495D02*
X9160Y1569D01*
D02*
X9160Y725D02*
X9232Y797D01*
D02*
X8732Y797D02*
X8734Y1499D01*
D02*
X8734Y1499D02*
X8804Y1569D01*
D02*
X8804Y725D02*
X8732Y797D01*
D02*
X8482Y797D02*
X8482Y1497D01*
D02*
X8482Y1497D02*
X8410Y1569D01*
D02*
X8410Y725D02*
X8482Y797D01*
D02*
X7982Y797D02*
X7982Y1497D01*
D02*
X7982Y1497D02*
X8054Y1569D01*
D02*
X8054Y725D02*
X7982Y797D01*
D02*
X10532Y597D02*
X10460Y669D01*
D02*
X11082Y597D02*
X10532Y597D01*
D02*
X11154Y669D02*
X11082Y597D01*
G54D37*
D02*
X8934Y2647D02*
X8932Y1497D01*
D02*
X8932Y1497D02*
X8852Y1417D01*
D02*
X8862Y2717D02*
X8934Y2647D01*
D02*
X9034Y2795D02*
X9032Y1497D01*
D02*
X9032Y1497D02*
X9112Y1417D01*
D02*
X8862Y2967D02*
X9034Y2795D01*
D02*
X8182Y1497D02*
X8182Y2621D01*
D02*
X8182Y2621D02*
X8075Y2718D01*
D02*
X8102Y1417D02*
X8182Y1497D01*
D02*
X8282Y2773D02*
X8075Y2968D01*
D02*
X8282Y1497D02*
X8282Y2773D01*
D02*
X8362Y1417D02*
X8282Y1497D01*
D02*
X7382Y2621D02*
X7382Y1497D01*
D02*
X7382Y1497D02*
X7302Y1417D01*
D02*
X7289Y2716D02*
X7382Y2621D01*
D02*
X7482Y2773D02*
X7482Y1497D01*
D02*
X7482Y1497D02*
X7562Y1417D01*
D02*
X7290Y2967D02*
X7482Y2773D01*
D02*
X6582Y2647D02*
X6582Y1497D01*
D02*
X6582Y1497D02*
X6502Y1417D01*
D02*
X6502Y2718D02*
X6582Y2647D01*
D02*
X6682Y2795D02*
X6682Y1497D01*
D02*
X6682Y1497D02*
X6762Y1417D01*
D02*
X6502Y2968D02*
X6682Y2795D01*
D02*
X10982Y2573D02*
X10982Y1497D01*
D02*
X10982Y1497D02*
X10902Y1417D01*
D02*
X10832Y2717D02*
X10982Y2573D01*
D02*
X11082Y1497D02*
X11082Y2747D01*
D02*
X11082Y2747D02*
X10834Y2969D01*
D02*
X11162Y1417D02*
X11082Y1497D01*
D02*
X11782Y2547D02*
X11618Y2717D01*
D02*
X11782Y1497D02*
X11782Y2547D01*
D02*
X11702Y1417D02*
X11782Y1497D01*
D02*
X11882Y2699D02*
X11618Y2967D01*
D02*
X11882Y1497D02*
X11882Y2699D01*
D02*
X11962Y1417D02*
X11882Y1497D01*
D02*
X12682Y1497D02*
X12682Y2699D01*
D02*
X12682Y2699D02*
X12408Y2967D01*
D02*
X12762Y1417D02*
X12682Y1497D01*
D02*
X12582Y2547D02*
X12408Y2717D01*
D02*
X12582Y1497D02*
X12582Y2547D01*
D02*
X12502Y1417D02*
X12582Y1497D01*
D02*
X13430Y2473D02*
X13196Y2716D01*
D02*
X13432Y1497D02*
X13430Y2473D01*
D02*
X13352Y1417D02*
X13432Y1497D01*
D02*
X13508Y2647D02*
X13196Y2967D01*
D02*
X13532Y1497D02*
X13508Y2647D01*
D02*
X13612Y1417D02*
X13532Y1497D01*
D02*
X2950Y2197D02*
X2861Y2197D01*
G54D39*
X995Y1434D02*
X1068Y1434D01*
X995Y1433D02*
X1068Y1433D01*
X995Y1432D02*
X1068Y1432D01*
X995Y1431D02*
X1068Y1431D01*
X995Y1430D02*
X1068Y1430D01*
X995Y1429D02*
X1068Y1429D01*
X995Y1428D02*
X1068Y1428D01*
X995Y1427D02*
X1068Y1427D01*
X995Y1426D02*
X1068Y1426D01*
X995Y1425D02*
X1068Y1425D01*
X995Y1424D02*
X1068Y1424D01*
X995Y1423D02*
X1068Y1423D01*
X995Y1422D02*
X1068Y1422D01*
X995Y1421D02*
X1068Y1421D01*
X995Y1420D02*
X1068Y1420D01*
X995Y1419D02*
X1068Y1419D01*
X995Y1418D02*
X1068Y1418D01*
X995Y1417D02*
X1030Y1417D01*
X1032Y1417D02*
X1068Y1417D01*
X995Y1416D02*
X1025Y1416D01*
X1038Y1416D02*
X1068Y1416D01*
X995Y1415D02*
X1022Y1415D01*
X1040Y1415D02*
X1068Y1415D01*
X995Y1414D02*
X1020Y1414D01*
X1042Y1414D02*
X1068Y1414D01*
X995Y1413D02*
X1019Y1413D01*
X1044Y1413D02*
X1068Y1413D01*
X995Y1412D02*
X1018Y1412D01*
X1045Y1412D02*
X1068Y1412D01*
X995Y1411D02*
X1017Y1411D01*
X1046Y1411D02*
X1068Y1411D01*
X995Y1410D02*
X1016Y1410D01*
X1047Y1410D02*
X1068Y1410D01*
X995Y1409D02*
X1015Y1409D01*
X1048Y1409D02*
X1068Y1409D01*
X995Y1408D02*
X1014Y1408D01*
X1048Y1408D02*
X1068Y1408D01*
X995Y1407D02*
X1014Y1407D01*
X1049Y1407D02*
X1068Y1407D01*
X995Y1406D02*
X1013Y1406D01*
X1049Y1406D02*
X1068Y1406D01*
X995Y1405D02*
X1013Y1405D01*
X1050Y1405D02*
X1068Y1405D01*
X995Y1404D02*
X1012Y1404D01*
X1050Y1404D02*
X1068Y1404D01*
X995Y1403D02*
X1012Y1403D01*
X1051Y1403D02*
X1068Y1403D01*
X995Y1402D02*
X1012Y1402D01*
X1051Y1402D02*
X1068Y1402D01*
X995Y1401D02*
X1012Y1401D01*
X1051Y1401D02*
X1068Y1401D01*
X995Y1400D02*
X1011Y1400D01*
X1051Y1400D02*
X1068Y1400D01*
X995Y1399D02*
X1011Y1399D01*
X1051Y1399D02*
X1068Y1399D01*
X995Y1398D02*
X1011Y1398D01*
X1051Y1398D02*
X1068Y1398D01*
X995Y1397D02*
X1011Y1397D01*
X1052Y1397D02*
X1068Y1397D01*
X995Y1396D02*
X1011Y1396D01*
X1051Y1396D02*
X1068Y1396D01*
X995Y1395D02*
X1011Y1395D01*
X1051Y1395D02*
X1068Y1395D01*
X995Y1394D02*
X1012Y1394D01*
X1051Y1394D02*
X1068Y1394D01*
X995Y1393D02*
X1012Y1393D01*
X1051Y1393D02*
X1068Y1393D01*
X995Y1392D02*
X1012Y1392D01*
X1051Y1392D02*
X1068Y1392D01*
X995Y1391D02*
X1012Y1391D01*
X1050Y1391D02*
X1068Y1391D01*
X995Y1390D02*
X1013Y1390D01*
X1050Y1390D02*
X1068Y1390D01*
X995Y1389D02*
X1013Y1389D01*
X1050Y1389D02*
X1068Y1389D01*
X995Y1388D02*
X1014Y1388D01*
X1049Y1388D02*
X1068Y1388D01*
X995Y1387D02*
X1014Y1387D01*
X1049Y1387D02*
X1068Y1387D01*
X995Y1386D02*
X1015Y1386D01*
X1048Y1386D02*
X1068Y1386D01*
X995Y1385D02*
X1016Y1385D01*
X1047Y1385D02*
X1068Y1385D01*
X995Y1384D02*
X1016Y1384D01*
X1046Y1384D02*
X1068Y1384D01*
X995Y1383D02*
X1017Y1383D01*
X1045Y1383D02*
X1068Y1383D01*
X995Y1382D02*
X1019Y1382D01*
X1044Y1382D02*
X1068Y1382D01*
X995Y1381D02*
X1020Y1381D01*
X1043Y1381D02*
X1068Y1381D01*
X995Y1380D02*
X1022Y1380D01*
X1041Y1380D02*
X1068Y1380D01*
X995Y1379D02*
X1024Y1379D01*
X1039Y1379D02*
X1068Y1379D01*
X995Y1378D02*
X1028Y1378D01*
X1035Y1378D02*
X1068Y1378D01*
X995Y1377D02*
X1068Y1377D01*
X995Y1376D02*
X1068Y1376D01*
X995Y1375D02*
X1068Y1375D01*
X995Y1374D02*
X1068Y1374D01*
X995Y1373D02*
X1068Y1373D01*
X995Y1372D02*
X1068Y1372D01*
X995Y1371D02*
X1068Y1371D01*
X995Y1370D02*
X1068Y1370D01*
X995Y1369D02*
X1068Y1369D01*
X995Y1368D02*
X1068Y1368D01*
X995Y1367D02*
X1068Y1367D01*
X995Y1366D02*
X1068Y1366D01*
X995Y1365D02*
X1068Y1365D01*
X995Y1364D02*
X1068Y1364D01*
X995Y1363D02*
X1068Y1363D01*
X995Y1362D02*
X1068Y1362D01*
X995Y1361D02*
X1068Y1361D01*
D02*
G04 End of Copper0*
M02*