G04 MADE WITH FRITZING*
G04 WWW.FRITZING.ORG*
G04 DOUBLE SIDED*
G04 HOLES PLATED*
G04 CONTOUR ON CENTER OF CONTOUR VECTOR*
%ASAXBY*%
%FSLAX23Y23*%
%MOIN*%
%OFA0B0*%
%SFA1.0B1.0*%
%ADD10C,0.008000*%
%ADD11C,0.010000*%
%ADD12R,0.001000X0.001000*%
%LNSILK1*%
G90*
G70*
G54D10*
X313Y1058D02*
X463Y1058D01*
D02*
X313Y585D02*
X463Y585D01*
D02*
X628Y585D02*
X782Y585D01*
D02*
X782Y585D02*
X782Y1058D01*
D02*
X782Y1058D02*
X628Y1058D01*
G54D11*
D02*
X952Y1021D02*
X952Y621D01*
D02*
X952Y621D02*
X1052Y621D01*
D02*
X1052Y621D02*
X1052Y1021D01*
D02*
X1052Y1021D02*
X952Y1021D01*
G54D12*
X0Y1575D02*
X1376Y1575D01*
X0Y1574D02*
X1376Y1574D01*
X0Y1573D02*
X1376Y1573D01*
X0Y1572D02*
X1376Y1572D01*
X0Y1571D02*
X1376Y1571D01*
X0Y1570D02*
X1376Y1570D01*
X0Y1569D02*
X1376Y1569D01*
X0Y1568D02*
X1376Y1568D01*
X0Y1567D02*
X7Y1567D01*
X1369Y1567D02*
X1376Y1567D01*
X0Y1566D02*
X7Y1566D01*
X1369Y1566D02*
X1376Y1566D01*
X0Y1565D02*
X7Y1565D01*
X1369Y1565D02*
X1376Y1565D01*
X0Y1564D02*
X7Y1564D01*
X1369Y1564D02*
X1376Y1564D01*
X0Y1563D02*
X7Y1563D01*
X1369Y1563D02*
X1376Y1563D01*
X0Y1562D02*
X7Y1562D01*
X1369Y1562D02*
X1376Y1562D01*
X0Y1561D02*
X7Y1561D01*
X1369Y1561D02*
X1376Y1561D01*
X0Y1560D02*
X7Y1560D01*
X1369Y1560D02*
X1376Y1560D01*
X0Y1559D02*
X7Y1559D01*
X1369Y1559D02*
X1376Y1559D01*
X0Y1558D02*
X7Y1558D01*
X1369Y1558D02*
X1376Y1558D01*
X0Y1557D02*
X7Y1557D01*
X1369Y1557D02*
X1376Y1557D01*
X0Y1556D02*
X7Y1556D01*
X1369Y1556D02*
X1376Y1556D01*
X0Y1555D02*
X7Y1555D01*
X1369Y1555D02*
X1376Y1555D01*
X0Y1554D02*
X7Y1554D01*
X1369Y1554D02*
X1376Y1554D01*
X0Y1553D02*
X7Y1553D01*
X1369Y1553D02*
X1376Y1553D01*
X0Y1552D02*
X7Y1552D01*
X1369Y1552D02*
X1376Y1552D01*
X0Y1551D02*
X7Y1551D01*
X1369Y1551D02*
X1376Y1551D01*
X0Y1550D02*
X7Y1550D01*
X1369Y1550D02*
X1376Y1550D01*
X0Y1549D02*
X7Y1549D01*
X1369Y1549D02*
X1376Y1549D01*
X0Y1548D02*
X7Y1548D01*
X1369Y1548D02*
X1376Y1548D01*
X0Y1547D02*
X7Y1547D01*
X1369Y1547D02*
X1376Y1547D01*
X0Y1546D02*
X7Y1546D01*
X1369Y1546D02*
X1376Y1546D01*
X0Y1545D02*
X7Y1545D01*
X1369Y1545D02*
X1376Y1545D01*
X0Y1544D02*
X7Y1544D01*
X1369Y1544D02*
X1376Y1544D01*
X0Y1543D02*
X7Y1543D01*
X1369Y1543D02*
X1376Y1543D01*
X0Y1542D02*
X7Y1542D01*
X1369Y1542D02*
X1376Y1542D01*
X0Y1541D02*
X7Y1541D01*
X1369Y1541D02*
X1376Y1541D01*
X0Y1540D02*
X7Y1540D01*
X1369Y1540D02*
X1376Y1540D01*
X0Y1539D02*
X7Y1539D01*
X1369Y1539D02*
X1376Y1539D01*
X0Y1538D02*
X7Y1538D01*
X1369Y1538D02*
X1376Y1538D01*
X0Y1537D02*
X7Y1537D01*
X1369Y1537D02*
X1376Y1537D01*
X0Y1536D02*
X7Y1536D01*
X1369Y1536D02*
X1376Y1536D01*
X0Y1535D02*
X7Y1535D01*
X1369Y1535D02*
X1376Y1535D01*
X0Y1534D02*
X7Y1534D01*
X1369Y1534D02*
X1376Y1534D01*
X0Y1533D02*
X7Y1533D01*
X1369Y1533D02*
X1376Y1533D01*
X0Y1532D02*
X7Y1532D01*
X1369Y1532D02*
X1376Y1532D01*
X0Y1531D02*
X7Y1531D01*
X1369Y1531D02*
X1376Y1531D01*
X0Y1530D02*
X7Y1530D01*
X1369Y1530D02*
X1376Y1530D01*
X0Y1529D02*
X7Y1529D01*
X1369Y1529D02*
X1376Y1529D01*
X0Y1528D02*
X7Y1528D01*
X1369Y1528D02*
X1376Y1528D01*
X0Y1527D02*
X7Y1527D01*
X1369Y1527D02*
X1376Y1527D01*
X0Y1526D02*
X7Y1526D01*
X1369Y1526D02*
X1376Y1526D01*
X0Y1525D02*
X7Y1525D01*
X1369Y1525D02*
X1376Y1525D01*
X0Y1524D02*
X7Y1524D01*
X1369Y1524D02*
X1376Y1524D01*
X0Y1523D02*
X7Y1523D01*
X1369Y1523D02*
X1376Y1523D01*
X0Y1522D02*
X7Y1522D01*
X1369Y1522D02*
X1376Y1522D01*
X0Y1521D02*
X7Y1521D01*
X1369Y1521D02*
X1376Y1521D01*
X0Y1520D02*
X7Y1520D01*
X1369Y1520D02*
X1376Y1520D01*
X0Y1519D02*
X7Y1519D01*
X1369Y1519D02*
X1376Y1519D01*
X0Y1518D02*
X7Y1518D01*
X1369Y1518D02*
X1376Y1518D01*
X0Y1517D02*
X7Y1517D01*
X1369Y1517D02*
X1376Y1517D01*
X0Y1516D02*
X7Y1516D01*
X1369Y1516D02*
X1376Y1516D01*
X0Y1515D02*
X7Y1515D01*
X1369Y1515D02*
X1376Y1515D01*
X0Y1514D02*
X7Y1514D01*
X1369Y1514D02*
X1376Y1514D01*
X0Y1513D02*
X7Y1513D01*
X1369Y1513D02*
X1376Y1513D01*
X0Y1512D02*
X7Y1512D01*
X1369Y1512D02*
X1376Y1512D01*
X0Y1511D02*
X7Y1511D01*
X1369Y1511D02*
X1376Y1511D01*
X0Y1510D02*
X7Y1510D01*
X1369Y1510D02*
X1376Y1510D01*
X0Y1509D02*
X7Y1509D01*
X1369Y1509D02*
X1376Y1509D01*
X0Y1508D02*
X7Y1508D01*
X1369Y1508D02*
X1376Y1508D01*
X0Y1507D02*
X7Y1507D01*
X1369Y1507D02*
X1376Y1507D01*
X0Y1506D02*
X7Y1506D01*
X1369Y1506D02*
X1376Y1506D01*
X0Y1505D02*
X7Y1505D01*
X1369Y1505D02*
X1376Y1505D01*
X0Y1504D02*
X7Y1504D01*
X1369Y1504D02*
X1376Y1504D01*
X0Y1503D02*
X7Y1503D01*
X1369Y1503D02*
X1376Y1503D01*
X0Y1502D02*
X7Y1502D01*
X1369Y1502D02*
X1376Y1502D01*
X0Y1501D02*
X7Y1501D01*
X1369Y1501D02*
X1376Y1501D01*
X0Y1500D02*
X7Y1500D01*
X1369Y1500D02*
X1376Y1500D01*
X0Y1499D02*
X7Y1499D01*
X1369Y1499D02*
X1376Y1499D01*
X0Y1498D02*
X7Y1498D01*
X1369Y1498D02*
X1376Y1498D01*
X0Y1497D02*
X7Y1497D01*
X1369Y1497D02*
X1376Y1497D01*
X0Y1496D02*
X7Y1496D01*
X1369Y1496D02*
X1376Y1496D01*
X0Y1495D02*
X7Y1495D01*
X1369Y1495D02*
X1376Y1495D01*
X0Y1494D02*
X7Y1494D01*
X1369Y1494D02*
X1376Y1494D01*
X0Y1493D02*
X7Y1493D01*
X1369Y1493D02*
X1376Y1493D01*
X0Y1492D02*
X7Y1492D01*
X1369Y1492D02*
X1376Y1492D01*
X0Y1491D02*
X7Y1491D01*
X1369Y1491D02*
X1376Y1491D01*
X0Y1490D02*
X7Y1490D01*
X1369Y1490D02*
X1376Y1490D01*
X0Y1489D02*
X7Y1489D01*
X1369Y1489D02*
X1376Y1489D01*
X0Y1488D02*
X7Y1488D01*
X1369Y1488D02*
X1376Y1488D01*
X0Y1487D02*
X7Y1487D01*
X1369Y1487D02*
X1376Y1487D01*
X0Y1486D02*
X7Y1486D01*
X1369Y1486D02*
X1376Y1486D01*
X0Y1485D02*
X7Y1485D01*
X1369Y1485D02*
X1376Y1485D01*
X0Y1484D02*
X7Y1484D01*
X1369Y1484D02*
X1376Y1484D01*
X0Y1483D02*
X7Y1483D01*
X1369Y1483D02*
X1376Y1483D01*
X0Y1482D02*
X7Y1482D01*
X1369Y1482D02*
X1376Y1482D01*
X0Y1481D02*
X7Y1481D01*
X1369Y1481D02*
X1376Y1481D01*
X0Y1480D02*
X7Y1480D01*
X1369Y1480D02*
X1376Y1480D01*
X0Y1479D02*
X7Y1479D01*
X1369Y1479D02*
X1376Y1479D01*
X0Y1478D02*
X7Y1478D01*
X1369Y1478D02*
X1376Y1478D01*
X0Y1477D02*
X7Y1477D01*
X1369Y1477D02*
X1376Y1477D01*
X0Y1476D02*
X7Y1476D01*
X1369Y1476D02*
X1376Y1476D01*
X0Y1475D02*
X7Y1475D01*
X1369Y1475D02*
X1376Y1475D01*
X0Y1474D02*
X7Y1474D01*
X1369Y1474D02*
X1376Y1474D01*
X0Y1473D02*
X7Y1473D01*
X1369Y1473D02*
X1376Y1473D01*
X0Y1472D02*
X7Y1472D01*
X1369Y1472D02*
X1376Y1472D01*
X0Y1471D02*
X7Y1471D01*
X1369Y1471D02*
X1376Y1471D01*
X0Y1470D02*
X7Y1470D01*
X1369Y1470D02*
X1376Y1470D01*
X0Y1469D02*
X7Y1469D01*
X1369Y1469D02*
X1376Y1469D01*
X0Y1468D02*
X7Y1468D01*
X1369Y1468D02*
X1376Y1468D01*
X0Y1467D02*
X7Y1467D01*
X1369Y1467D02*
X1376Y1467D01*
X0Y1466D02*
X7Y1466D01*
X1369Y1466D02*
X1376Y1466D01*
X0Y1465D02*
X7Y1465D01*
X1369Y1465D02*
X1376Y1465D01*
X0Y1464D02*
X7Y1464D01*
X1369Y1464D02*
X1376Y1464D01*
X0Y1463D02*
X7Y1463D01*
X1369Y1463D02*
X1376Y1463D01*
X0Y1462D02*
X7Y1462D01*
X1369Y1462D02*
X1376Y1462D01*
X0Y1461D02*
X7Y1461D01*
X1369Y1461D02*
X1376Y1461D01*
X0Y1460D02*
X7Y1460D01*
X1369Y1460D02*
X1376Y1460D01*
X0Y1459D02*
X7Y1459D01*
X1369Y1459D02*
X1376Y1459D01*
X0Y1458D02*
X7Y1458D01*
X1369Y1458D02*
X1376Y1458D01*
X0Y1457D02*
X7Y1457D01*
X1369Y1457D02*
X1376Y1457D01*
X0Y1456D02*
X7Y1456D01*
X1369Y1456D02*
X1376Y1456D01*
X0Y1455D02*
X7Y1455D01*
X1369Y1455D02*
X1376Y1455D01*
X0Y1454D02*
X7Y1454D01*
X1369Y1454D02*
X1376Y1454D01*
X0Y1453D02*
X7Y1453D01*
X1369Y1453D02*
X1376Y1453D01*
X0Y1452D02*
X7Y1452D01*
X1369Y1452D02*
X1376Y1452D01*
X0Y1451D02*
X7Y1451D01*
X1369Y1451D02*
X1376Y1451D01*
X0Y1450D02*
X7Y1450D01*
X1369Y1450D02*
X1376Y1450D01*
X0Y1449D02*
X7Y1449D01*
X1369Y1449D02*
X1376Y1449D01*
X0Y1448D02*
X7Y1448D01*
X1369Y1448D02*
X1376Y1448D01*
X0Y1447D02*
X7Y1447D01*
X1369Y1447D02*
X1376Y1447D01*
X0Y1446D02*
X7Y1446D01*
X1369Y1446D02*
X1376Y1446D01*
X0Y1445D02*
X7Y1445D01*
X1369Y1445D02*
X1376Y1445D01*
X0Y1444D02*
X7Y1444D01*
X1369Y1444D02*
X1376Y1444D01*
X0Y1443D02*
X7Y1443D01*
X1369Y1443D02*
X1376Y1443D01*
X0Y1442D02*
X7Y1442D01*
X1369Y1442D02*
X1376Y1442D01*
X0Y1441D02*
X7Y1441D01*
X1369Y1441D02*
X1376Y1441D01*
X0Y1440D02*
X7Y1440D01*
X1369Y1440D02*
X1376Y1440D01*
X0Y1439D02*
X7Y1439D01*
X1369Y1439D02*
X1376Y1439D01*
X0Y1438D02*
X7Y1438D01*
X1369Y1438D02*
X1376Y1438D01*
X0Y1437D02*
X7Y1437D01*
X1369Y1437D02*
X1376Y1437D01*
X0Y1436D02*
X7Y1436D01*
X1369Y1436D02*
X1376Y1436D01*
X0Y1435D02*
X7Y1435D01*
X1369Y1435D02*
X1376Y1435D01*
X0Y1434D02*
X7Y1434D01*
X1369Y1434D02*
X1376Y1434D01*
X0Y1433D02*
X7Y1433D01*
X1369Y1433D02*
X1376Y1433D01*
X0Y1432D02*
X7Y1432D01*
X1369Y1432D02*
X1376Y1432D01*
X0Y1431D02*
X7Y1431D01*
X1369Y1431D02*
X1376Y1431D01*
X0Y1430D02*
X7Y1430D01*
X1369Y1430D02*
X1376Y1430D01*
X0Y1429D02*
X7Y1429D01*
X1369Y1429D02*
X1376Y1429D01*
X0Y1428D02*
X7Y1428D01*
X1369Y1428D02*
X1376Y1428D01*
X0Y1427D02*
X7Y1427D01*
X1369Y1427D02*
X1376Y1427D01*
X0Y1426D02*
X7Y1426D01*
X1369Y1426D02*
X1376Y1426D01*
X0Y1425D02*
X7Y1425D01*
X1369Y1425D02*
X1376Y1425D01*
X0Y1424D02*
X7Y1424D01*
X1369Y1424D02*
X1376Y1424D01*
X0Y1423D02*
X7Y1423D01*
X1369Y1423D02*
X1376Y1423D01*
X0Y1422D02*
X7Y1422D01*
X1369Y1422D02*
X1376Y1422D01*
X0Y1421D02*
X7Y1421D01*
X1369Y1421D02*
X1376Y1421D01*
X0Y1420D02*
X7Y1420D01*
X1369Y1420D02*
X1376Y1420D01*
X0Y1419D02*
X7Y1419D01*
X1369Y1419D02*
X1376Y1419D01*
X0Y1418D02*
X7Y1418D01*
X1369Y1418D02*
X1376Y1418D01*
X0Y1417D02*
X7Y1417D01*
X1369Y1417D02*
X1376Y1417D01*
X0Y1416D02*
X7Y1416D01*
X1369Y1416D02*
X1376Y1416D01*
X0Y1415D02*
X7Y1415D01*
X1369Y1415D02*
X1376Y1415D01*
X0Y1414D02*
X7Y1414D01*
X1369Y1414D02*
X1376Y1414D01*
X0Y1413D02*
X7Y1413D01*
X1369Y1413D02*
X1376Y1413D01*
X0Y1412D02*
X7Y1412D01*
X1369Y1412D02*
X1376Y1412D01*
X0Y1411D02*
X7Y1411D01*
X1369Y1411D02*
X1376Y1411D01*
X0Y1410D02*
X7Y1410D01*
X1369Y1410D02*
X1376Y1410D01*
X0Y1409D02*
X7Y1409D01*
X1369Y1409D02*
X1376Y1409D01*
X0Y1408D02*
X7Y1408D01*
X1369Y1408D02*
X1376Y1408D01*
X0Y1407D02*
X7Y1407D01*
X1369Y1407D02*
X1376Y1407D01*
X0Y1406D02*
X7Y1406D01*
X1369Y1406D02*
X1376Y1406D01*
X0Y1405D02*
X7Y1405D01*
X1369Y1405D02*
X1376Y1405D01*
X0Y1404D02*
X7Y1404D01*
X1369Y1404D02*
X1376Y1404D01*
X0Y1403D02*
X7Y1403D01*
X1369Y1403D02*
X1376Y1403D01*
X0Y1402D02*
X7Y1402D01*
X1369Y1402D02*
X1376Y1402D01*
X0Y1401D02*
X7Y1401D01*
X1369Y1401D02*
X1376Y1401D01*
X0Y1400D02*
X7Y1400D01*
X1369Y1400D02*
X1376Y1400D01*
X0Y1399D02*
X7Y1399D01*
X1369Y1399D02*
X1376Y1399D01*
X0Y1398D02*
X7Y1398D01*
X1369Y1398D02*
X1376Y1398D01*
X0Y1397D02*
X7Y1397D01*
X1369Y1397D02*
X1376Y1397D01*
X0Y1396D02*
X7Y1396D01*
X1369Y1396D02*
X1376Y1396D01*
X0Y1395D02*
X7Y1395D01*
X1369Y1395D02*
X1376Y1395D01*
X0Y1394D02*
X7Y1394D01*
X1369Y1394D02*
X1376Y1394D01*
X0Y1393D02*
X7Y1393D01*
X1369Y1393D02*
X1376Y1393D01*
X0Y1392D02*
X7Y1392D01*
X1369Y1392D02*
X1376Y1392D01*
X0Y1391D02*
X7Y1391D01*
X1369Y1391D02*
X1376Y1391D01*
X0Y1390D02*
X7Y1390D01*
X1369Y1390D02*
X1376Y1390D01*
X0Y1389D02*
X7Y1389D01*
X1369Y1389D02*
X1376Y1389D01*
X0Y1388D02*
X7Y1388D01*
X1369Y1388D02*
X1376Y1388D01*
X0Y1387D02*
X7Y1387D01*
X1369Y1387D02*
X1376Y1387D01*
X0Y1386D02*
X7Y1386D01*
X1369Y1386D02*
X1376Y1386D01*
X0Y1385D02*
X7Y1385D01*
X1369Y1385D02*
X1376Y1385D01*
X0Y1384D02*
X7Y1384D01*
X1369Y1384D02*
X1376Y1384D01*
X0Y1383D02*
X7Y1383D01*
X1369Y1383D02*
X1376Y1383D01*
X0Y1382D02*
X7Y1382D01*
X1369Y1382D02*
X1376Y1382D01*
X0Y1381D02*
X7Y1381D01*
X1369Y1381D02*
X1376Y1381D01*
X0Y1380D02*
X7Y1380D01*
X1369Y1380D02*
X1376Y1380D01*
X0Y1379D02*
X7Y1379D01*
X1369Y1379D02*
X1376Y1379D01*
X0Y1378D02*
X7Y1378D01*
X1369Y1378D02*
X1376Y1378D01*
X0Y1377D02*
X7Y1377D01*
X1369Y1377D02*
X1376Y1377D01*
X0Y1376D02*
X7Y1376D01*
X1369Y1376D02*
X1376Y1376D01*
X0Y1375D02*
X7Y1375D01*
X1369Y1375D02*
X1376Y1375D01*
X0Y1374D02*
X7Y1374D01*
X1369Y1374D02*
X1376Y1374D01*
X0Y1373D02*
X7Y1373D01*
X1369Y1373D02*
X1376Y1373D01*
X0Y1372D02*
X7Y1372D01*
X1369Y1372D02*
X1376Y1372D01*
X0Y1371D02*
X7Y1371D01*
X1369Y1371D02*
X1376Y1371D01*
X0Y1370D02*
X7Y1370D01*
X1369Y1370D02*
X1376Y1370D01*
X0Y1369D02*
X7Y1369D01*
X1369Y1369D02*
X1376Y1369D01*
X0Y1368D02*
X7Y1368D01*
X1369Y1368D02*
X1376Y1368D01*
X0Y1367D02*
X7Y1367D01*
X1369Y1367D02*
X1376Y1367D01*
X0Y1366D02*
X7Y1366D01*
X1369Y1366D02*
X1376Y1366D01*
X0Y1365D02*
X7Y1365D01*
X1369Y1365D02*
X1376Y1365D01*
X0Y1364D02*
X7Y1364D01*
X1369Y1364D02*
X1376Y1364D01*
X0Y1363D02*
X7Y1363D01*
X1369Y1363D02*
X1376Y1363D01*
X0Y1362D02*
X7Y1362D01*
X1369Y1362D02*
X1376Y1362D01*
X0Y1361D02*
X7Y1361D01*
X1369Y1361D02*
X1376Y1361D01*
X0Y1360D02*
X7Y1360D01*
X1369Y1360D02*
X1376Y1360D01*
X0Y1359D02*
X7Y1359D01*
X1369Y1359D02*
X1376Y1359D01*
X0Y1358D02*
X7Y1358D01*
X1369Y1358D02*
X1376Y1358D01*
X0Y1357D02*
X7Y1357D01*
X1369Y1357D02*
X1376Y1357D01*
X0Y1356D02*
X7Y1356D01*
X1369Y1356D02*
X1376Y1356D01*
X0Y1355D02*
X7Y1355D01*
X1369Y1355D02*
X1376Y1355D01*
X0Y1354D02*
X7Y1354D01*
X1369Y1354D02*
X1376Y1354D01*
X0Y1353D02*
X7Y1353D01*
X1369Y1353D02*
X1376Y1353D01*
X0Y1352D02*
X7Y1352D01*
X1369Y1352D02*
X1376Y1352D01*
X0Y1351D02*
X7Y1351D01*
X1369Y1351D02*
X1376Y1351D01*
X0Y1350D02*
X7Y1350D01*
X1369Y1350D02*
X1376Y1350D01*
X0Y1349D02*
X7Y1349D01*
X1369Y1349D02*
X1376Y1349D01*
X0Y1348D02*
X7Y1348D01*
X1369Y1348D02*
X1376Y1348D01*
X0Y1347D02*
X7Y1347D01*
X1369Y1347D02*
X1376Y1347D01*
X0Y1346D02*
X7Y1346D01*
X1369Y1346D02*
X1376Y1346D01*
X0Y1345D02*
X7Y1345D01*
X1369Y1345D02*
X1376Y1345D01*
X0Y1344D02*
X7Y1344D01*
X1369Y1344D02*
X1376Y1344D01*
X0Y1343D02*
X7Y1343D01*
X1369Y1343D02*
X1376Y1343D01*
X0Y1342D02*
X7Y1342D01*
X1369Y1342D02*
X1376Y1342D01*
X0Y1341D02*
X7Y1341D01*
X1369Y1341D02*
X1376Y1341D01*
X0Y1340D02*
X7Y1340D01*
X1369Y1340D02*
X1376Y1340D01*
X0Y1339D02*
X7Y1339D01*
X1369Y1339D02*
X1376Y1339D01*
X0Y1338D02*
X7Y1338D01*
X1369Y1338D02*
X1376Y1338D01*
X0Y1337D02*
X7Y1337D01*
X1369Y1337D02*
X1376Y1337D01*
X0Y1336D02*
X7Y1336D01*
X1369Y1336D02*
X1376Y1336D01*
X0Y1335D02*
X7Y1335D01*
X1369Y1335D02*
X1376Y1335D01*
X0Y1334D02*
X7Y1334D01*
X1369Y1334D02*
X1376Y1334D01*
X0Y1333D02*
X7Y1333D01*
X1369Y1333D02*
X1376Y1333D01*
X0Y1332D02*
X7Y1332D01*
X1369Y1332D02*
X1376Y1332D01*
X0Y1331D02*
X7Y1331D01*
X1369Y1331D02*
X1376Y1331D01*
X0Y1330D02*
X7Y1330D01*
X1369Y1330D02*
X1376Y1330D01*
X0Y1329D02*
X7Y1329D01*
X1369Y1329D02*
X1376Y1329D01*
X0Y1328D02*
X7Y1328D01*
X1369Y1328D02*
X1376Y1328D01*
X0Y1327D02*
X7Y1327D01*
X1369Y1327D02*
X1376Y1327D01*
X0Y1326D02*
X7Y1326D01*
X1369Y1326D02*
X1376Y1326D01*
X0Y1325D02*
X7Y1325D01*
X1369Y1325D02*
X1376Y1325D01*
X0Y1324D02*
X7Y1324D01*
X1369Y1324D02*
X1376Y1324D01*
X0Y1323D02*
X7Y1323D01*
X1369Y1323D02*
X1376Y1323D01*
X0Y1322D02*
X7Y1322D01*
X1369Y1322D02*
X1376Y1322D01*
X0Y1321D02*
X7Y1321D01*
X1369Y1321D02*
X1376Y1321D01*
X0Y1320D02*
X7Y1320D01*
X1369Y1320D02*
X1376Y1320D01*
X0Y1319D02*
X7Y1319D01*
X1369Y1319D02*
X1376Y1319D01*
X0Y1318D02*
X7Y1318D01*
X1369Y1318D02*
X1376Y1318D01*
X0Y1317D02*
X7Y1317D01*
X1369Y1317D02*
X1376Y1317D01*
X0Y1316D02*
X7Y1316D01*
X1369Y1316D02*
X1376Y1316D01*
X0Y1315D02*
X7Y1315D01*
X1369Y1315D02*
X1376Y1315D01*
X0Y1314D02*
X7Y1314D01*
X1369Y1314D02*
X1376Y1314D01*
X0Y1313D02*
X7Y1313D01*
X1369Y1313D02*
X1376Y1313D01*
X0Y1312D02*
X7Y1312D01*
X1369Y1312D02*
X1376Y1312D01*
X0Y1311D02*
X7Y1311D01*
X1369Y1311D02*
X1376Y1311D01*
X0Y1310D02*
X7Y1310D01*
X1369Y1310D02*
X1376Y1310D01*
X0Y1309D02*
X7Y1309D01*
X1369Y1309D02*
X1376Y1309D01*
X0Y1308D02*
X7Y1308D01*
X1369Y1308D02*
X1376Y1308D01*
X0Y1307D02*
X7Y1307D01*
X1369Y1307D02*
X1376Y1307D01*
X0Y1306D02*
X7Y1306D01*
X1369Y1306D02*
X1376Y1306D01*
X0Y1305D02*
X7Y1305D01*
X1369Y1305D02*
X1376Y1305D01*
X0Y1304D02*
X7Y1304D01*
X1369Y1304D02*
X1376Y1304D01*
X0Y1303D02*
X7Y1303D01*
X1369Y1303D02*
X1376Y1303D01*
X0Y1302D02*
X7Y1302D01*
X1369Y1302D02*
X1376Y1302D01*
X0Y1301D02*
X7Y1301D01*
X1369Y1301D02*
X1376Y1301D01*
X0Y1300D02*
X7Y1300D01*
X1369Y1300D02*
X1376Y1300D01*
X0Y1299D02*
X7Y1299D01*
X1369Y1299D02*
X1376Y1299D01*
X0Y1298D02*
X7Y1298D01*
X1369Y1298D02*
X1376Y1298D01*
X0Y1297D02*
X7Y1297D01*
X1369Y1297D02*
X1376Y1297D01*
X0Y1296D02*
X7Y1296D01*
X1369Y1296D02*
X1376Y1296D01*
X0Y1295D02*
X7Y1295D01*
X1369Y1295D02*
X1376Y1295D01*
X0Y1294D02*
X7Y1294D01*
X1369Y1294D02*
X1376Y1294D01*
X0Y1293D02*
X7Y1293D01*
X1369Y1293D02*
X1376Y1293D01*
X0Y1292D02*
X7Y1292D01*
X1369Y1292D02*
X1376Y1292D01*
X0Y1291D02*
X7Y1291D01*
X1369Y1291D02*
X1376Y1291D01*
X0Y1290D02*
X7Y1290D01*
X1369Y1290D02*
X1376Y1290D01*
X0Y1289D02*
X7Y1289D01*
X1369Y1289D02*
X1376Y1289D01*
X0Y1288D02*
X7Y1288D01*
X1369Y1288D02*
X1376Y1288D01*
X0Y1287D02*
X7Y1287D01*
X1369Y1287D02*
X1376Y1287D01*
X0Y1286D02*
X7Y1286D01*
X1369Y1286D02*
X1376Y1286D01*
X0Y1285D02*
X7Y1285D01*
X1369Y1285D02*
X1376Y1285D01*
X0Y1284D02*
X7Y1284D01*
X1369Y1284D02*
X1376Y1284D01*
X0Y1283D02*
X7Y1283D01*
X1369Y1283D02*
X1376Y1283D01*
X0Y1282D02*
X7Y1282D01*
X1369Y1282D02*
X1376Y1282D01*
X0Y1281D02*
X7Y1281D01*
X1369Y1281D02*
X1376Y1281D01*
X0Y1280D02*
X7Y1280D01*
X1369Y1280D02*
X1376Y1280D01*
X0Y1279D02*
X7Y1279D01*
X1369Y1279D02*
X1376Y1279D01*
X0Y1278D02*
X7Y1278D01*
X1369Y1278D02*
X1376Y1278D01*
X0Y1277D02*
X7Y1277D01*
X1369Y1277D02*
X1376Y1277D01*
X0Y1276D02*
X7Y1276D01*
X1369Y1276D02*
X1376Y1276D01*
X0Y1275D02*
X7Y1275D01*
X1369Y1275D02*
X1376Y1275D01*
X0Y1274D02*
X7Y1274D01*
X1369Y1274D02*
X1376Y1274D01*
X0Y1273D02*
X7Y1273D01*
X1369Y1273D02*
X1376Y1273D01*
X0Y1272D02*
X7Y1272D01*
X1369Y1272D02*
X1376Y1272D01*
X0Y1271D02*
X7Y1271D01*
X1369Y1271D02*
X1376Y1271D01*
X0Y1270D02*
X7Y1270D01*
X1369Y1270D02*
X1376Y1270D01*
X0Y1269D02*
X7Y1269D01*
X1369Y1269D02*
X1376Y1269D01*
X0Y1268D02*
X7Y1268D01*
X1369Y1268D02*
X1376Y1268D01*
X0Y1267D02*
X7Y1267D01*
X1369Y1267D02*
X1376Y1267D01*
X0Y1266D02*
X7Y1266D01*
X1369Y1266D02*
X1376Y1266D01*
X0Y1265D02*
X7Y1265D01*
X1369Y1265D02*
X1376Y1265D01*
X0Y1264D02*
X7Y1264D01*
X1369Y1264D02*
X1376Y1264D01*
X0Y1263D02*
X7Y1263D01*
X1369Y1263D02*
X1376Y1263D01*
X0Y1262D02*
X7Y1262D01*
X1369Y1262D02*
X1376Y1262D01*
X0Y1261D02*
X7Y1261D01*
X1369Y1261D02*
X1376Y1261D01*
X0Y1260D02*
X7Y1260D01*
X1369Y1260D02*
X1376Y1260D01*
X0Y1259D02*
X7Y1259D01*
X1369Y1259D02*
X1376Y1259D01*
X0Y1258D02*
X7Y1258D01*
X1369Y1258D02*
X1376Y1258D01*
X0Y1257D02*
X7Y1257D01*
X1369Y1257D02*
X1376Y1257D01*
X0Y1256D02*
X7Y1256D01*
X1369Y1256D02*
X1376Y1256D01*
X0Y1255D02*
X7Y1255D01*
X1369Y1255D02*
X1376Y1255D01*
X0Y1254D02*
X7Y1254D01*
X1369Y1254D02*
X1376Y1254D01*
X0Y1253D02*
X7Y1253D01*
X1369Y1253D02*
X1376Y1253D01*
X0Y1252D02*
X7Y1252D01*
X1369Y1252D02*
X1376Y1252D01*
X0Y1251D02*
X7Y1251D01*
X1369Y1251D02*
X1376Y1251D01*
X0Y1250D02*
X7Y1250D01*
X1369Y1250D02*
X1376Y1250D01*
X0Y1249D02*
X7Y1249D01*
X1369Y1249D02*
X1376Y1249D01*
X0Y1248D02*
X7Y1248D01*
X1369Y1248D02*
X1376Y1248D01*
X0Y1247D02*
X7Y1247D01*
X1369Y1247D02*
X1376Y1247D01*
X0Y1246D02*
X7Y1246D01*
X1369Y1246D02*
X1376Y1246D01*
X0Y1245D02*
X7Y1245D01*
X1369Y1245D02*
X1376Y1245D01*
X0Y1244D02*
X7Y1244D01*
X1369Y1244D02*
X1376Y1244D01*
X0Y1243D02*
X7Y1243D01*
X1369Y1243D02*
X1376Y1243D01*
X0Y1242D02*
X7Y1242D01*
X1369Y1242D02*
X1376Y1242D01*
X0Y1241D02*
X7Y1241D01*
X1369Y1241D02*
X1376Y1241D01*
X0Y1240D02*
X7Y1240D01*
X1369Y1240D02*
X1376Y1240D01*
X0Y1239D02*
X7Y1239D01*
X1369Y1239D02*
X1376Y1239D01*
X0Y1238D02*
X7Y1238D01*
X1369Y1238D02*
X1376Y1238D01*
X0Y1237D02*
X7Y1237D01*
X1369Y1237D02*
X1376Y1237D01*
X0Y1236D02*
X7Y1236D01*
X1369Y1236D02*
X1376Y1236D01*
X0Y1235D02*
X7Y1235D01*
X1369Y1235D02*
X1376Y1235D01*
X0Y1234D02*
X7Y1234D01*
X1369Y1234D02*
X1376Y1234D01*
X0Y1233D02*
X7Y1233D01*
X1369Y1233D02*
X1376Y1233D01*
X0Y1232D02*
X7Y1232D01*
X1369Y1232D02*
X1376Y1232D01*
X0Y1231D02*
X7Y1231D01*
X1369Y1231D02*
X1376Y1231D01*
X0Y1230D02*
X7Y1230D01*
X1369Y1230D02*
X1376Y1230D01*
X0Y1229D02*
X7Y1229D01*
X1369Y1229D02*
X1376Y1229D01*
X0Y1228D02*
X7Y1228D01*
X1369Y1228D02*
X1376Y1228D01*
X0Y1227D02*
X7Y1227D01*
X1369Y1227D02*
X1376Y1227D01*
X0Y1226D02*
X7Y1226D01*
X1369Y1226D02*
X1376Y1226D01*
X0Y1225D02*
X7Y1225D01*
X1369Y1225D02*
X1376Y1225D01*
X0Y1224D02*
X7Y1224D01*
X1369Y1224D02*
X1376Y1224D01*
X0Y1223D02*
X7Y1223D01*
X1369Y1223D02*
X1376Y1223D01*
X0Y1222D02*
X7Y1222D01*
X1369Y1222D02*
X1376Y1222D01*
X0Y1221D02*
X7Y1221D01*
X1369Y1221D02*
X1376Y1221D01*
X0Y1220D02*
X7Y1220D01*
X1369Y1220D02*
X1376Y1220D01*
X0Y1219D02*
X7Y1219D01*
X1369Y1219D02*
X1376Y1219D01*
X0Y1218D02*
X7Y1218D01*
X1369Y1218D02*
X1376Y1218D01*
X0Y1217D02*
X7Y1217D01*
X1369Y1217D02*
X1376Y1217D01*
X0Y1216D02*
X7Y1216D01*
X1369Y1216D02*
X1376Y1216D01*
X0Y1215D02*
X7Y1215D01*
X1369Y1215D02*
X1376Y1215D01*
X0Y1214D02*
X7Y1214D01*
X1369Y1214D02*
X1376Y1214D01*
X0Y1213D02*
X7Y1213D01*
X1369Y1213D02*
X1376Y1213D01*
X0Y1212D02*
X7Y1212D01*
X1369Y1212D02*
X1376Y1212D01*
X0Y1211D02*
X7Y1211D01*
X1369Y1211D02*
X1376Y1211D01*
X0Y1210D02*
X7Y1210D01*
X1369Y1210D02*
X1376Y1210D01*
X0Y1209D02*
X7Y1209D01*
X1369Y1209D02*
X1376Y1209D01*
X0Y1208D02*
X7Y1208D01*
X1369Y1208D02*
X1376Y1208D01*
X0Y1207D02*
X7Y1207D01*
X1369Y1207D02*
X1376Y1207D01*
X0Y1206D02*
X7Y1206D01*
X1369Y1206D02*
X1376Y1206D01*
X0Y1205D02*
X7Y1205D01*
X1369Y1205D02*
X1376Y1205D01*
X0Y1204D02*
X7Y1204D01*
X1369Y1204D02*
X1376Y1204D01*
X0Y1203D02*
X7Y1203D01*
X1369Y1203D02*
X1376Y1203D01*
X0Y1202D02*
X7Y1202D01*
X1369Y1202D02*
X1376Y1202D01*
X0Y1201D02*
X7Y1201D01*
X1369Y1201D02*
X1376Y1201D01*
X0Y1200D02*
X7Y1200D01*
X1369Y1200D02*
X1376Y1200D01*
X0Y1199D02*
X7Y1199D01*
X1369Y1199D02*
X1376Y1199D01*
X0Y1198D02*
X7Y1198D01*
X1369Y1198D02*
X1376Y1198D01*
X0Y1197D02*
X7Y1197D01*
X1369Y1197D02*
X1376Y1197D01*
X0Y1196D02*
X7Y1196D01*
X1369Y1196D02*
X1376Y1196D01*
X0Y1195D02*
X7Y1195D01*
X1369Y1195D02*
X1376Y1195D01*
X0Y1194D02*
X7Y1194D01*
X1369Y1194D02*
X1376Y1194D01*
X0Y1193D02*
X7Y1193D01*
X1369Y1193D02*
X1376Y1193D01*
X0Y1192D02*
X7Y1192D01*
X1369Y1192D02*
X1376Y1192D01*
X0Y1191D02*
X7Y1191D01*
X1369Y1191D02*
X1376Y1191D01*
X0Y1190D02*
X7Y1190D01*
X1369Y1190D02*
X1376Y1190D01*
X0Y1189D02*
X7Y1189D01*
X1369Y1189D02*
X1376Y1189D01*
X0Y1188D02*
X7Y1188D01*
X1369Y1188D02*
X1376Y1188D01*
X0Y1187D02*
X7Y1187D01*
X1369Y1187D02*
X1376Y1187D01*
X0Y1186D02*
X7Y1186D01*
X1369Y1186D02*
X1376Y1186D01*
X0Y1185D02*
X7Y1185D01*
X1369Y1185D02*
X1376Y1185D01*
X0Y1184D02*
X7Y1184D01*
X1369Y1184D02*
X1376Y1184D01*
X0Y1183D02*
X7Y1183D01*
X1369Y1183D02*
X1376Y1183D01*
X0Y1182D02*
X7Y1182D01*
X1369Y1182D02*
X1376Y1182D01*
X0Y1181D02*
X7Y1181D01*
X1369Y1181D02*
X1376Y1181D01*
X0Y1180D02*
X7Y1180D01*
X1369Y1180D02*
X1376Y1180D01*
X0Y1179D02*
X7Y1179D01*
X1369Y1179D02*
X1376Y1179D01*
X0Y1178D02*
X7Y1178D01*
X1369Y1178D02*
X1376Y1178D01*
X0Y1177D02*
X7Y1177D01*
X1369Y1177D02*
X1376Y1177D01*
X0Y1176D02*
X7Y1176D01*
X1369Y1176D02*
X1376Y1176D01*
X0Y1175D02*
X7Y1175D01*
X1369Y1175D02*
X1376Y1175D01*
X0Y1174D02*
X7Y1174D01*
X1369Y1174D02*
X1376Y1174D01*
X0Y1173D02*
X7Y1173D01*
X1369Y1173D02*
X1376Y1173D01*
X0Y1172D02*
X7Y1172D01*
X1369Y1172D02*
X1376Y1172D01*
X0Y1171D02*
X7Y1171D01*
X1369Y1171D02*
X1376Y1171D01*
X0Y1170D02*
X7Y1170D01*
X616Y1170D02*
X618Y1170D01*
X643Y1170D02*
X645Y1170D01*
X666Y1170D02*
X692Y1170D01*
X1369Y1170D02*
X1376Y1170D01*
X0Y1169D02*
X7Y1169D01*
X614Y1169D02*
X619Y1169D01*
X642Y1169D02*
X646Y1169D01*
X664Y1169D02*
X694Y1169D01*
X1369Y1169D02*
X1376Y1169D01*
X0Y1168D02*
X7Y1168D01*
X614Y1168D02*
X619Y1168D01*
X641Y1168D02*
X647Y1168D01*
X664Y1168D02*
X695Y1168D01*
X1369Y1168D02*
X1376Y1168D01*
X0Y1167D02*
X7Y1167D01*
X614Y1167D02*
X620Y1167D01*
X641Y1167D02*
X647Y1167D01*
X664Y1167D02*
X696Y1167D01*
X1369Y1167D02*
X1376Y1167D01*
X0Y1166D02*
X7Y1166D01*
X614Y1166D02*
X621Y1166D01*
X640Y1166D02*
X647Y1166D01*
X664Y1166D02*
X697Y1166D01*
X1369Y1166D02*
X1376Y1166D01*
X0Y1165D02*
X7Y1165D01*
X614Y1165D02*
X621Y1165D01*
X639Y1165D02*
X647Y1165D01*
X664Y1165D02*
X697Y1165D01*
X1369Y1165D02*
X1376Y1165D01*
X0Y1164D02*
X7Y1164D01*
X615Y1164D02*
X622Y1164D01*
X639Y1164D02*
X646Y1164D01*
X665Y1164D02*
X697Y1164D01*
X1369Y1164D02*
X1376Y1164D01*
X0Y1163D02*
X7Y1163D01*
X615Y1163D02*
X622Y1163D01*
X638Y1163D02*
X645Y1163D01*
X691Y1163D02*
X697Y1163D01*
X1369Y1163D02*
X1376Y1163D01*
X0Y1162D02*
X7Y1162D01*
X616Y1162D02*
X623Y1162D01*
X638Y1162D02*
X645Y1162D01*
X691Y1162D02*
X697Y1162D01*
X1369Y1162D02*
X1376Y1162D01*
X0Y1161D02*
X7Y1161D01*
X616Y1161D02*
X624Y1161D01*
X637Y1161D02*
X644Y1161D01*
X691Y1161D02*
X697Y1161D01*
X1369Y1161D02*
X1376Y1161D01*
X0Y1160D02*
X7Y1160D01*
X617Y1160D02*
X624Y1160D01*
X636Y1160D02*
X644Y1160D01*
X691Y1160D02*
X697Y1160D01*
X1369Y1160D02*
X1376Y1160D01*
X0Y1159D02*
X7Y1159D01*
X617Y1159D02*
X625Y1159D01*
X636Y1159D02*
X643Y1159D01*
X691Y1159D02*
X697Y1159D01*
X1369Y1159D02*
X1376Y1159D01*
X0Y1158D02*
X7Y1158D01*
X618Y1158D02*
X625Y1158D01*
X635Y1158D02*
X642Y1158D01*
X691Y1158D02*
X697Y1158D01*
X1369Y1158D02*
X1376Y1158D01*
X0Y1157D02*
X7Y1157D01*
X619Y1157D02*
X626Y1157D01*
X635Y1157D02*
X642Y1157D01*
X691Y1157D02*
X697Y1157D01*
X1369Y1157D02*
X1376Y1157D01*
X0Y1156D02*
X7Y1156D01*
X619Y1156D02*
X626Y1156D01*
X634Y1156D02*
X641Y1156D01*
X691Y1156D02*
X697Y1156D01*
X1369Y1156D02*
X1376Y1156D01*
X0Y1155D02*
X7Y1155D01*
X620Y1155D02*
X627Y1155D01*
X634Y1155D02*
X641Y1155D01*
X691Y1155D02*
X697Y1155D01*
X1369Y1155D02*
X1376Y1155D01*
X0Y1154D02*
X7Y1154D01*
X620Y1154D02*
X628Y1154D01*
X633Y1154D02*
X640Y1154D01*
X691Y1154D02*
X697Y1154D01*
X1369Y1154D02*
X1376Y1154D01*
X0Y1153D02*
X7Y1153D01*
X621Y1153D02*
X628Y1153D01*
X632Y1153D02*
X640Y1153D01*
X691Y1153D02*
X697Y1153D01*
X1369Y1153D02*
X1376Y1153D01*
X0Y1152D02*
X7Y1152D01*
X622Y1152D02*
X629Y1152D01*
X632Y1152D02*
X639Y1152D01*
X691Y1152D02*
X697Y1152D01*
X1369Y1152D02*
X1376Y1152D01*
X0Y1151D02*
X7Y1151D01*
X622Y1151D02*
X629Y1151D01*
X631Y1151D02*
X638Y1151D01*
X691Y1151D02*
X697Y1151D01*
X1369Y1151D02*
X1376Y1151D01*
X0Y1150D02*
X7Y1150D01*
X623Y1150D02*
X638Y1150D01*
X691Y1150D02*
X697Y1150D01*
X1369Y1150D02*
X1376Y1150D01*
X0Y1149D02*
X7Y1149D01*
X623Y1149D02*
X637Y1149D01*
X691Y1149D02*
X697Y1149D01*
X1369Y1149D02*
X1376Y1149D01*
X0Y1148D02*
X7Y1148D01*
X624Y1148D02*
X637Y1148D01*
X691Y1148D02*
X697Y1148D01*
X1369Y1148D02*
X1376Y1148D01*
X0Y1147D02*
X7Y1147D01*
X625Y1147D02*
X636Y1147D01*
X691Y1147D02*
X697Y1147D01*
X1369Y1147D02*
X1376Y1147D01*
X0Y1146D02*
X7Y1146D01*
X625Y1146D02*
X635Y1146D01*
X668Y1146D02*
X697Y1146D01*
X1369Y1146D02*
X1376Y1146D01*
X0Y1145D02*
X7Y1145D01*
X626Y1145D02*
X635Y1145D01*
X666Y1145D02*
X697Y1145D01*
X1369Y1145D02*
X1376Y1145D01*
X0Y1144D02*
X7Y1144D01*
X626Y1144D02*
X634Y1144D01*
X665Y1144D02*
X697Y1144D01*
X1369Y1144D02*
X1376Y1144D01*
X0Y1143D02*
X7Y1143D01*
X627Y1143D02*
X634Y1143D01*
X664Y1143D02*
X696Y1143D01*
X1369Y1143D02*
X1376Y1143D01*
X0Y1142D02*
X7Y1142D01*
X626Y1142D02*
X635Y1142D01*
X664Y1142D02*
X695Y1142D01*
X1369Y1142D02*
X1376Y1142D01*
X0Y1141D02*
X7Y1141D01*
X625Y1141D02*
X635Y1141D01*
X664Y1141D02*
X694Y1141D01*
X1369Y1141D02*
X1376Y1141D01*
X0Y1140D02*
X7Y1140D01*
X625Y1140D02*
X636Y1140D01*
X664Y1140D02*
X692Y1140D01*
X1369Y1140D02*
X1376Y1140D01*
X0Y1139D02*
X7Y1139D01*
X624Y1139D02*
X636Y1139D01*
X664Y1139D02*
X670Y1139D01*
X1369Y1139D02*
X1376Y1139D01*
X0Y1138D02*
X7Y1138D01*
X624Y1138D02*
X637Y1138D01*
X664Y1138D02*
X670Y1138D01*
X1369Y1138D02*
X1376Y1138D01*
X0Y1137D02*
X7Y1137D01*
X623Y1137D02*
X638Y1137D01*
X664Y1137D02*
X670Y1137D01*
X1369Y1137D02*
X1376Y1137D01*
X0Y1136D02*
X7Y1136D01*
X622Y1136D02*
X638Y1136D01*
X664Y1136D02*
X670Y1136D01*
X1369Y1136D02*
X1376Y1136D01*
X0Y1135D02*
X7Y1135D01*
X622Y1135D02*
X629Y1135D01*
X632Y1135D02*
X639Y1135D01*
X664Y1135D02*
X670Y1135D01*
X1369Y1135D02*
X1376Y1135D01*
X0Y1134D02*
X7Y1134D01*
X621Y1134D02*
X628Y1134D01*
X632Y1134D02*
X639Y1134D01*
X664Y1134D02*
X670Y1134D01*
X1369Y1134D02*
X1376Y1134D01*
X0Y1133D02*
X7Y1133D01*
X621Y1133D02*
X628Y1133D01*
X633Y1133D02*
X640Y1133D01*
X664Y1133D02*
X670Y1133D01*
X1369Y1133D02*
X1376Y1133D01*
X0Y1132D02*
X7Y1132D01*
X620Y1132D02*
X627Y1132D01*
X633Y1132D02*
X640Y1132D01*
X664Y1132D02*
X670Y1132D01*
X1369Y1132D02*
X1376Y1132D01*
X0Y1131D02*
X7Y1131D01*
X619Y1131D02*
X627Y1131D01*
X634Y1131D02*
X641Y1131D01*
X664Y1131D02*
X670Y1131D01*
X1369Y1131D02*
X1376Y1131D01*
X0Y1130D02*
X7Y1130D01*
X619Y1130D02*
X626Y1130D01*
X634Y1130D02*
X642Y1130D01*
X664Y1130D02*
X670Y1130D01*
X1369Y1130D02*
X1376Y1130D01*
X0Y1129D02*
X7Y1129D01*
X618Y1129D02*
X626Y1129D01*
X635Y1129D02*
X642Y1129D01*
X664Y1129D02*
X670Y1129D01*
X1369Y1129D02*
X1376Y1129D01*
X0Y1128D02*
X7Y1128D01*
X618Y1128D02*
X625Y1128D01*
X636Y1128D02*
X643Y1128D01*
X664Y1128D02*
X670Y1128D01*
X1369Y1128D02*
X1376Y1128D01*
X0Y1127D02*
X7Y1127D01*
X617Y1127D02*
X624Y1127D01*
X636Y1127D02*
X643Y1127D01*
X664Y1127D02*
X670Y1127D01*
X1369Y1127D02*
X1376Y1127D01*
X0Y1126D02*
X7Y1126D01*
X617Y1126D02*
X624Y1126D01*
X637Y1126D02*
X644Y1126D01*
X664Y1126D02*
X670Y1126D01*
X1369Y1126D02*
X1376Y1126D01*
X0Y1125D02*
X7Y1125D01*
X616Y1125D02*
X623Y1125D01*
X637Y1125D02*
X645Y1125D01*
X664Y1125D02*
X670Y1125D01*
X1369Y1125D02*
X1376Y1125D01*
X0Y1124D02*
X7Y1124D01*
X615Y1124D02*
X623Y1124D01*
X638Y1124D02*
X645Y1124D01*
X664Y1124D02*
X670Y1124D01*
X1369Y1124D02*
X1376Y1124D01*
X0Y1123D02*
X7Y1123D01*
X615Y1123D02*
X622Y1123D01*
X639Y1123D02*
X646Y1123D01*
X664Y1123D02*
X695Y1123D01*
X1369Y1123D02*
X1376Y1123D01*
X0Y1122D02*
X7Y1122D01*
X614Y1122D02*
X621Y1122D01*
X639Y1122D02*
X646Y1122D01*
X664Y1122D02*
X696Y1122D01*
X1369Y1122D02*
X1376Y1122D01*
X0Y1121D02*
X7Y1121D01*
X614Y1121D02*
X621Y1121D01*
X640Y1121D02*
X647Y1121D01*
X664Y1121D02*
X697Y1121D01*
X1369Y1121D02*
X1376Y1121D01*
X0Y1120D02*
X7Y1120D01*
X614Y1120D02*
X620Y1120D01*
X640Y1120D02*
X647Y1120D01*
X664Y1120D02*
X697Y1120D01*
X1369Y1120D02*
X1376Y1120D01*
X0Y1119D02*
X7Y1119D01*
X614Y1119D02*
X620Y1119D01*
X641Y1119D02*
X647Y1119D01*
X664Y1119D02*
X697Y1119D01*
X1369Y1119D02*
X1376Y1119D01*
X0Y1118D02*
X7Y1118D01*
X614Y1118D02*
X619Y1118D01*
X642Y1118D02*
X647Y1118D01*
X664Y1118D02*
X697Y1118D01*
X1369Y1118D02*
X1376Y1118D01*
X0Y1117D02*
X7Y1117D01*
X615Y1117D02*
X618Y1117D01*
X642Y1117D02*
X646Y1117D01*
X664Y1117D02*
X696Y1117D01*
X1369Y1117D02*
X1376Y1117D01*
X0Y1116D02*
X7Y1116D01*
X1369Y1116D02*
X1376Y1116D01*
X0Y1115D02*
X7Y1115D01*
X1369Y1115D02*
X1376Y1115D01*
X0Y1114D02*
X7Y1114D01*
X990Y1114D02*
X992Y1114D01*
X1016Y1114D02*
X1034Y1114D01*
X1369Y1114D02*
X1376Y1114D01*
X0Y1113D02*
X7Y1113D01*
X989Y1113D02*
X993Y1113D01*
X1015Y1113D02*
X1034Y1113D01*
X1369Y1113D02*
X1376Y1113D01*
X0Y1112D02*
X7Y1112D01*
X988Y1112D02*
X994Y1112D01*
X1014Y1112D02*
X1034Y1112D01*
X1369Y1112D02*
X1376Y1112D01*
X0Y1111D02*
X7Y1111D01*
X988Y1111D02*
X994Y1111D01*
X1014Y1111D02*
X1034Y1111D01*
X1369Y1111D02*
X1376Y1111D01*
X0Y1110D02*
X7Y1110D01*
X988Y1110D02*
X994Y1110D01*
X1014Y1110D02*
X1034Y1110D01*
X1369Y1110D02*
X1376Y1110D01*
X0Y1109D02*
X7Y1109D01*
X988Y1109D02*
X994Y1109D01*
X1015Y1109D02*
X1034Y1109D01*
X1369Y1109D02*
X1376Y1109D01*
X0Y1108D02*
X7Y1108D01*
X988Y1108D02*
X994Y1108D01*
X1016Y1108D02*
X1034Y1108D01*
X1369Y1108D02*
X1376Y1108D01*
X0Y1107D02*
X7Y1107D01*
X988Y1107D02*
X994Y1107D01*
X1028Y1107D02*
X1034Y1107D01*
X1369Y1107D02*
X1376Y1107D01*
X0Y1106D02*
X7Y1106D01*
X988Y1106D02*
X994Y1106D01*
X1028Y1106D02*
X1034Y1106D01*
X1369Y1106D02*
X1376Y1106D01*
X0Y1105D02*
X7Y1105D01*
X988Y1105D02*
X994Y1105D01*
X1028Y1105D02*
X1034Y1105D01*
X1369Y1105D02*
X1376Y1105D01*
X0Y1104D02*
X7Y1104D01*
X988Y1104D02*
X994Y1104D01*
X1028Y1104D02*
X1034Y1104D01*
X1369Y1104D02*
X1376Y1104D01*
X0Y1103D02*
X7Y1103D01*
X988Y1103D02*
X994Y1103D01*
X1028Y1103D02*
X1034Y1103D01*
X1369Y1103D02*
X1376Y1103D01*
X0Y1102D02*
X7Y1102D01*
X988Y1102D02*
X994Y1102D01*
X1028Y1102D02*
X1034Y1102D01*
X1369Y1102D02*
X1376Y1102D01*
X0Y1101D02*
X7Y1101D01*
X988Y1101D02*
X994Y1101D01*
X1028Y1101D02*
X1034Y1101D01*
X1369Y1101D02*
X1376Y1101D01*
X0Y1100D02*
X7Y1100D01*
X988Y1100D02*
X994Y1100D01*
X1028Y1100D02*
X1034Y1100D01*
X1369Y1100D02*
X1376Y1100D01*
X0Y1099D02*
X7Y1099D01*
X988Y1099D02*
X994Y1099D01*
X1028Y1099D02*
X1034Y1099D01*
X1369Y1099D02*
X1376Y1099D01*
X0Y1098D02*
X7Y1098D01*
X988Y1098D02*
X994Y1098D01*
X1028Y1098D02*
X1034Y1098D01*
X1369Y1098D02*
X1376Y1098D01*
X0Y1097D02*
X7Y1097D01*
X988Y1097D02*
X994Y1097D01*
X1028Y1097D02*
X1034Y1097D01*
X1369Y1097D02*
X1376Y1097D01*
X0Y1096D02*
X7Y1096D01*
X988Y1096D02*
X994Y1096D01*
X1028Y1096D02*
X1034Y1096D01*
X1369Y1096D02*
X1376Y1096D01*
X0Y1095D02*
X7Y1095D01*
X988Y1095D02*
X994Y1095D01*
X1028Y1095D02*
X1034Y1095D01*
X1369Y1095D02*
X1376Y1095D01*
X0Y1094D02*
X7Y1094D01*
X988Y1094D02*
X994Y1094D01*
X1028Y1094D02*
X1034Y1094D01*
X1369Y1094D02*
X1376Y1094D01*
X0Y1093D02*
X7Y1093D01*
X988Y1093D02*
X994Y1093D01*
X1028Y1093D02*
X1034Y1093D01*
X1369Y1093D02*
X1376Y1093D01*
X0Y1092D02*
X7Y1092D01*
X988Y1092D02*
X994Y1092D01*
X1028Y1092D02*
X1034Y1092D01*
X1369Y1092D02*
X1376Y1092D01*
X0Y1091D02*
X7Y1091D01*
X988Y1091D02*
X994Y1091D01*
X1028Y1091D02*
X1034Y1091D01*
X1369Y1091D02*
X1376Y1091D01*
X0Y1090D02*
X7Y1090D01*
X988Y1090D02*
X994Y1090D01*
X1028Y1090D02*
X1034Y1090D01*
X1369Y1090D02*
X1376Y1090D01*
X0Y1089D02*
X7Y1089D01*
X988Y1089D02*
X994Y1089D01*
X1028Y1089D02*
X1034Y1089D01*
X1369Y1089D02*
X1376Y1089D01*
X0Y1088D02*
X7Y1088D01*
X988Y1088D02*
X994Y1088D01*
X1028Y1088D02*
X1034Y1088D01*
X1369Y1088D02*
X1376Y1088D01*
X0Y1087D02*
X7Y1087D01*
X988Y1087D02*
X994Y1087D01*
X1028Y1087D02*
X1034Y1087D01*
X1369Y1087D02*
X1376Y1087D01*
X0Y1086D02*
X7Y1086D01*
X988Y1086D02*
X994Y1086D01*
X1028Y1086D02*
X1034Y1086D01*
X1369Y1086D02*
X1376Y1086D01*
X0Y1085D02*
X7Y1085D01*
X970Y1085D02*
X970Y1085D01*
X988Y1085D02*
X994Y1085D01*
X1028Y1085D02*
X1034Y1085D01*
X1044Y1085D02*
X1045Y1085D01*
X1369Y1085D02*
X1376Y1085D01*
X0Y1084D02*
X7Y1084D01*
X968Y1084D02*
X972Y1084D01*
X988Y1084D02*
X994Y1084D01*
X1028Y1084D02*
X1034Y1084D01*
X1043Y1084D02*
X1046Y1084D01*
X1369Y1084D02*
X1376Y1084D01*
X0Y1083D02*
X7Y1083D01*
X968Y1083D02*
X973Y1083D01*
X988Y1083D02*
X994Y1083D01*
X1028Y1083D02*
X1034Y1083D01*
X1042Y1083D02*
X1047Y1083D01*
X1369Y1083D02*
X1376Y1083D01*
X0Y1082D02*
X7Y1082D01*
X967Y1082D02*
X973Y1082D01*
X988Y1082D02*
X994Y1082D01*
X1028Y1082D02*
X1034Y1082D01*
X1042Y1082D02*
X1047Y1082D01*
X1369Y1082D02*
X1376Y1082D01*
X0Y1081D02*
X7Y1081D01*
X967Y1081D02*
X973Y1081D01*
X988Y1081D02*
X994Y1081D01*
X1028Y1081D02*
X1034Y1081D01*
X1041Y1081D02*
X1048Y1081D01*
X1369Y1081D02*
X1376Y1081D01*
X0Y1080D02*
X7Y1080D01*
X967Y1080D02*
X973Y1080D01*
X988Y1080D02*
X994Y1080D01*
X1028Y1080D02*
X1034Y1080D01*
X1041Y1080D02*
X1048Y1080D01*
X1369Y1080D02*
X1376Y1080D01*
X0Y1079D02*
X7Y1079D01*
X967Y1079D02*
X973Y1079D01*
X988Y1079D02*
X994Y1079D01*
X1028Y1079D02*
X1034Y1079D01*
X1041Y1079D02*
X1048Y1079D01*
X1369Y1079D02*
X1376Y1079D01*
X0Y1078D02*
X7Y1078D01*
X967Y1078D02*
X973Y1078D01*
X988Y1078D02*
X994Y1078D01*
X1028Y1078D02*
X1034Y1078D01*
X1041Y1078D02*
X1048Y1078D01*
X1369Y1078D02*
X1376Y1078D01*
X0Y1077D02*
X7Y1077D01*
X967Y1077D02*
X973Y1077D01*
X988Y1077D02*
X994Y1077D01*
X1028Y1077D02*
X1034Y1077D01*
X1041Y1077D02*
X1048Y1077D01*
X1369Y1077D02*
X1376Y1077D01*
X0Y1076D02*
X7Y1076D01*
X967Y1076D02*
X973Y1076D01*
X988Y1076D02*
X994Y1076D01*
X1028Y1076D02*
X1034Y1076D01*
X1041Y1076D02*
X1048Y1076D01*
X1369Y1076D02*
X1376Y1076D01*
X0Y1075D02*
X7Y1075D01*
X967Y1075D02*
X973Y1075D01*
X988Y1075D02*
X994Y1075D01*
X1028Y1075D02*
X1034Y1075D01*
X1041Y1075D02*
X1048Y1075D01*
X1369Y1075D02*
X1376Y1075D01*
X0Y1074D02*
X7Y1074D01*
X967Y1074D02*
X973Y1074D01*
X988Y1074D02*
X994Y1074D01*
X1028Y1074D02*
X1034Y1074D01*
X1041Y1074D02*
X1048Y1074D01*
X1369Y1074D02*
X1376Y1074D01*
X0Y1073D02*
X7Y1073D01*
X967Y1073D02*
X973Y1073D01*
X988Y1073D02*
X994Y1073D01*
X1028Y1073D02*
X1034Y1073D01*
X1041Y1073D02*
X1048Y1073D01*
X1369Y1073D02*
X1376Y1073D01*
X0Y1072D02*
X7Y1072D01*
X967Y1072D02*
X973Y1072D01*
X988Y1072D02*
X994Y1072D01*
X1028Y1072D02*
X1034Y1072D01*
X1041Y1072D02*
X1048Y1072D01*
X1369Y1072D02*
X1376Y1072D01*
X0Y1071D02*
X7Y1071D01*
X967Y1071D02*
X973Y1071D01*
X988Y1071D02*
X994Y1071D01*
X1028Y1071D02*
X1034Y1071D01*
X1041Y1071D02*
X1048Y1071D01*
X1369Y1071D02*
X1376Y1071D01*
X0Y1070D02*
X7Y1070D01*
X967Y1070D02*
X973Y1070D01*
X988Y1070D02*
X994Y1070D01*
X1028Y1070D02*
X1034Y1070D01*
X1041Y1070D02*
X1048Y1070D01*
X1369Y1070D02*
X1376Y1070D01*
X0Y1069D02*
X7Y1069D01*
X967Y1069D02*
X974Y1069D01*
X987Y1069D02*
X994Y1069D01*
X1028Y1069D02*
X1034Y1069D01*
X1041Y1069D02*
X1048Y1069D01*
X1369Y1069D02*
X1376Y1069D01*
X0Y1068D02*
X7Y1068D01*
X968Y1068D02*
X975Y1068D01*
X986Y1068D02*
X993Y1068D01*
X1028Y1068D02*
X1034Y1068D01*
X1041Y1068D02*
X1048Y1068D01*
X1369Y1068D02*
X1376Y1068D01*
X0Y1067D02*
X7Y1067D01*
X968Y1067D02*
X993Y1067D01*
X1016Y1067D02*
X1048Y1067D01*
X1369Y1067D02*
X1376Y1067D01*
X0Y1066D02*
X7Y1066D01*
X968Y1066D02*
X993Y1066D01*
X1015Y1066D02*
X1048Y1066D01*
X1369Y1066D02*
X1376Y1066D01*
X0Y1065D02*
X7Y1065D01*
X969Y1065D02*
X992Y1065D01*
X1014Y1065D02*
X1048Y1065D01*
X1369Y1065D02*
X1376Y1065D01*
X0Y1064D02*
X7Y1064D01*
X970Y1064D02*
X991Y1064D01*
X1014Y1064D02*
X1047Y1064D01*
X1369Y1064D02*
X1376Y1064D01*
X0Y1063D02*
X7Y1063D01*
X971Y1063D02*
X990Y1063D01*
X1014Y1063D02*
X1047Y1063D01*
X1369Y1063D02*
X1376Y1063D01*
X0Y1062D02*
X7Y1062D01*
X972Y1062D02*
X989Y1062D01*
X1015Y1062D02*
X1047Y1062D01*
X1369Y1062D02*
X1376Y1062D01*
X0Y1061D02*
X7Y1061D01*
X974Y1061D02*
X987Y1061D01*
X1016Y1061D02*
X1046Y1061D01*
X1369Y1061D02*
X1376Y1061D01*
X0Y1060D02*
X7Y1060D01*
X1369Y1060D02*
X1376Y1060D01*
X0Y1059D02*
X7Y1059D01*
X1369Y1059D02*
X1376Y1059D01*
X0Y1058D02*
X7Y1058D01*
X1369Y1058D02*
X1376Y1058D01*
X0Y1057D02*
X7Y1057D01*
X1369Y1057D02*
X1376Y1057D01*
X0Y1056D02*
X7Y1056D01*
X1369Y1056D02*
X1376Y1056D01*
X0Y1055D02*
X7Y1055D01*
X1369Y1055D02*
X1376Y1055D01*
X0Y1054D02*
X7Y1054D01*
X1369Y1054D02*
X1376Y1054D01*
X0Y1053D02*
X7Y1053D01*
X1369Y1053D02*
X1376Y1053D01*
X0Y1052D02*
X7Y1052D01*
X1369Y1052D02*
X1376Y1052D01*
X0Y1051D02*
X7Y1051D01*
X1369Y1051D02*
X1376Y1051D01*
X0Y1050D02*
X7Y1050D01*
X1369Y1050D02*
X1376Y1050D01*
X0Y1049D02*
X7Y1049D01*
X1369Y1049D02*
X1376Y1049D01*
X0Y1048D02*
X7Y1048D01*
X1369Y1048D02*
X1376Y1048D01*
X0Y1047D02*
X7Y1047D01*
X1369Y1047D02*
X1376Y1047D01*
X0Y1046D02*
X7Y1046D01*
X1369Y1046D02*
X1376Y1046D01*
X0Y1045D02*
X7Y1045D01*
X1369Y1045D02*
X1376Y1045D01*
X0Y1044D02*
X7Y1044D01*
X1369Y1044D02*
X1376Y1044D01*
X0Y1043D02*
X7Y1043D01*
X1369Y1043D02*
X1376Y1043D01*
X0Y1042D02*
X7Y1042D01*
X1369Y1042D02*
X1376Y1042D01*
X0Y1041D02*
X7Y1041D01*
X1369Y1041D02*
X1376Y1041D01*
X0Y1040D02*
X7Y1040D01*
X1369Y1040D02*
X1376Y1040D01*
X0Y1039D02*
X7Y1039D01*
X1369Y1039D02*
X1376Y1039D01*
X0Y1038D02*
X7Y1038D01*
X1369Y1038D02*
X1376Y1038D01*
X0Y1037D02*
X7Y1037D01*
X1369Y1037D02*
X1376Y1037D01*
X0Y1036D02*
X7Y1036D01*
X1369Y1036D02*
X1376Y1036D01*
X0Y1035D02*
X7Y1035D01*
X1369Y1035D02*
X1376Y1035D01*
X0Y1034D02*
X7Y1034D01*
X1369Y1034D02*
X1376Y1034D01*
X0Y1033D02*
X7Y1033D01*
X1369Y1033D02*
X1376Y1033D01*
X0Y1032D02*
X7Y1032D01*
X1369Y1032D02*
X1376Y1032D01*
X0Y1031D02*
X7Y1031D01*
X1369Y1031D02*
X1376Y1031D01*
X0Y1030D02*
X7Y1030D01*
X1369Y1030D02*
X1376Y1030D01*
X0Y1029D02*
X7Y1029D01*
X1369Y1029D02*
X1376Y1029D01*
X0Y1028D02*
X7Y1028D01*
X1369Y1028D02*
X1376Y1028D01*
X0Y1027D02*
X7Y1027D01*
X1369Y1027D02*
X1376Y1027D01*
X0Y1026D02*
X7Y1026D01*
X1369Y1026D02*
X1376Y1026D01*
X0Y1025D02*
X7Y1025D01*
X1369Y1025D02*
X1376Y1025D01*
X0Y1024D02*
X7Y1024D01*
X1369Y1024D02*
X1376Y1024D01*
X0Y1023D02*
X7Y1023D01*
X984Y1023D02*
X984Y1023D01*
X1369Y1023D02*
X1376Y1023D01*
X0Y1022D02*
X7Y1022D01*
X983Y1022D02*
X985Y1022D01*
X1369Y1022D02*
X1376Y1022D01*
X0Y1021D02*
X7Y1021D01*
X982Y1021D02*
X986Y1021D01*
X1369Y1021D02*
X1376Y1021D01*
X0Y1020D02*
X7Y1020D01*
X981Y1020D02*
X987Y1020D01*
X1369Y1020D02*
X1376Y1020D01*
X0Y1019D02*
X7Y1019D01*
X980Y1019D02*
X986Y1019D01*
X1369Y1019D02*
X1376Y1019D01*
X0Y1018D02*
X7Y1018D01*
X979Y1018D02*
X985Y1018D01*
X1369Y1018D02*
X1376Y1018D01*
X0Y1017D02*
X7Y1017D01*
X978Y1017D02*
X984Y1017D01*
X1369Y1017D02*
X1376Y1017D01*
X0Y1016D02*
X7Y1016D01*
X977Y1016D02*
X983Y1016D01*
X1369Y1016D02*
X1376Y1016D01*
X0Y1015D02*
X7Y1015D01*
X976Y1015D02*
X982Y1015D01*
X1369Y1015D02*
X1376Y1015D01*
X0Y1014D02*
X7Y1014D01*
X975Y1014D02*
X981Y1014D01*
X1369Y1014D02*
X1376Y1014D01*
X0Y1013D02*
X7Y1013D01*
X974Y1013D02*
X980Y1013D01*
X1369Y1013D02*
X1376Y1013D01*
X0Y1012D02*
X7Y1012D01*
X973Y1012D02*
X979Y1012D01*
X1369Y1012D02*
X1376Y1012D01*
X0Y1011D02*
X7Y1011D01*
X972Y1011D02*
X978Y1011D01*
X1369Y1011D02*
X1376Y1011D01*
X0Y1010D02*
X7Y1010D01*
X971Y1010D02*
X977Y1010D01*
X1369Y1010D02*
X1376Y1010D01*
X0Y1009D02*
X7Y1009D01*
X970Y1009D02*
X976Y1009D01*
X1369Y1009D02*
X1376Y1009D01*
X0Y1008D02*
X7Y1008D01*
X969Y1008D02*
X975Y1008D01*
X1369Y1008D02*
X1376Y1008D01*
X0Y1007D02*
X7Y1007D01*
X968Y1007D02*
X974Y1007D01*
X1369Y1007D02*
X1376Y1007D01*
X0Y1006D02*
X7Y1006D01*
X835Y1006D02*
X850Y1006D01*
X967Y1006D02*
X973Y1006D01*
X1369Y1006D02*
X1376Y1006D01*
X0Y1005D02*
X7Y1005D01*
X834Y1005D02*
X853Y1005D01*
X966Y1005D02*
X972Y1005D01*
X1369Y1005D02*
X1376Y1005D01*
X0Y1004D02*
X7Y1004D01*
X833Y1004D02*
X854Y1004D01*
X965Y1004D02*
X971Y1004D01*
X1369Y1004D02*
X1376Y1004D01*
X0Y1003D02*
X7Y1003D01*
X833Y1003D02*
X855Y1003D01*
X964Y1003D02*
X969Y1003D01*
X1369Y1003D02*
X1376Y1003D01*
X0Y1002D02*
X7Y1002D01*
X833Y1002D02*
X856Y1002D01*
X963Y1002D02*
X969Y1002D01*
X1369Y1002D02*
X1376Y1002D01*
X0Y1001D02*
X7Y1001D01*
X834Y1001D02*
X856Y1001D01*
X962Y1001D02*
X968Y1001D01*
X1369Y1001D02*
X1376Y1001D01*
X0Y1000D02*
X7Y1000D01*
X835Y1000D02*
X857Y1000D01*
X961Y1000D02*
X967Y1000D01*
X1369Y1000D02*
X1376Y1000D01*
X0Y999D02*
X7Y999D01*
X840Y999D02*
X845Y999D01*
X851Y999D02*
X857Y999D01*
X960Y999D02*
X966Y999D01*
X1369Y999D02*
X1376Y999D01*
X0Y998D02*
X7Y998D01*
X840Y998D02*
X845Y998D01*
X851Y998D02*
X858Y998D01*
X959Y998D02*
X965Y998D01*
X1369Y998D02*
X1376Y998D01*
X0Y997D02*
X7Y997D01*
X840Y997D02*
X845Y997D01*
X852Y997D02*
X858Y997D01*
X897Y997D02*
X897Y997D01*
X958Y997D02*
X964Y997D01*
X1369Y997D02*
X1376Y997D01*
X0Y996D02*
X7Y996D01*
X840Y996D02*
X845Y996D01*
X852Y996D02*
X859Y996D01*
X895Y996D02*
X899Y996D01*
X957Y996D02*
X963Y996D01*
X1369Y996D02*
X1376Y996D01*
X0Y995D02*
X7Y995D01*
X840Y995D02*
X845Y995D01*
X853Y995D02*
X859Y995D01*
X894Y995D02*
X899Y995D01*
X956Y995D02*
X962Y995D01*
X1369Y995D02*
X1376Y995D01*
X0Y994D02*
X7Y994D01*
X840Y994D02*
X845Y994D01*
X853Y994D02*
X860Y994D01*
X894Y994D02*
X900Y994D01*
X955Y994D02*
X961Y994D01*
X1369Y994D02*
X1376Y994D01*
X0Y993D02*
X7Y993D01*
X840Y993D02*
X845Y993D01*
X854Y993D02*
X860Y993D01*
X894Y993D02*
X900Y993D01*
X954Y993D02*
X960Y993D01*
X1369Y993D02*
X1376Y993D01*
X0Y992D02*
X7Y992D01*
X840Y992D02*
X845Y992D01*
X854Y992D02*
X861Y992D01*
X894Y992D02*
X900Y992D01*
X953Y992D02*
X959Y992D01*
X1369Y992D02*
X1376Y992D01*
X0Y991D02*
X7Y991D01*
X840Y991D02*
X845Y991D01*
X855Y991D02*
X861Y991D01*
X894Y991D02*
X900Y991D01*
X952Y991D02*
X958Y991D01*
X1369Y991D02*
X1376Y991D01*
X0Y990D02*
X7Y990D01*
X840Y990D02*
X845Y990D01*
X856Y990D02*
X862Y990D01*
X894Y990D02*
X900Y990D01*
X951Y990D02*
X957Y990D01*
X1369Y990D02*
X1376Y990D01*
X0Y989D02*
X7Y989D01*
X840Y989D02*
X845Y989D01*
X856Y989D02*
X862Y989D01*
X894Y989D02*
X900Y989D01*
X950Y989D02*
X956Y989D01*
X1369Y989D02*
X1376Y989D01*
X0Y988D02*
X7Y988D01*
X840Y988D02*
X845Y988D01*
X857Y988D02*
X863Y988D01*
X894Y988D02*
X900Y988D01*
X950Y988D02*
X955Y988D01*
X1369Y988D02*
X1376Y988D01*
X0Y987D02*
X7Y987D01*
X840Y987D02*
X845Y987D01*
X857Y987D02*
X863Y987D01*
X894Y987D02*
X900Y987D01*
X951Y987D02*
X954Y987D01*
X1369Y987D02*
X1376Y987D01*
X0Y986D02*
X7Y986D01*
X840Y986D02*
X845Y986D01*
X858Y986D02*
X864Y986D01*
X894Y986D02*
X900Y986D01*
X952Y986D02*
X953Y986D01*
X1369Y986D02*
X1376Y986D01*
X0Y985D02*
X7Y985D01*
X840Y985D02*
X845Y985D01*
X858Y985D02*
X864Y985D01*
X894Y985D02*
X900Y985D01*
X1369Y985D02*
X1376Y985D01*
X0Y984D02*
X7Y984D01*
X840Y984D02*
X845Y984D01*
X858Y984D02*
X864Y984D01*
X884Y984D02*
X909Y984D01*
X1369Y984D02*
X1376Y984D01*
X0Y983D02*
X7Y983D01*
X840Y983D02*
X845Y983D01*
X859Y983D02*
X865Y983D01*
X882Y983D02*
X912Y983D01*
X1369Y983D02*
X1376Y983D01*
X0Y982D02*
X7Y982D01*
X840Y982D02*
X845Y982D01*
X859Y982D02*
X865Y982D01*
X881Y982D02*
X912Y982D01*
X1369Y982D02*
X1376Y982D01*
X0Y981D02*
X7Y981D01*
X840Y981D02*
X845Y981D01*
X859Y981D02*
X865Y981D01*
X881Y981D02*
X913Y981D01*
X1369Y981D02*
X1376Y981D01*
X0Y980D02*
X7Y980D01*
X840Y980D02*
X845Y980D01*
X859Y980D02*
X865Y980D01*
X881Y980D02*
X913Y980D01*
X1369Y980D02*
X1376Y980D01*
X0Y979D02*
X7Y979D01*
X840Y979D02*
X845Y979D01*
X859Y979D02*
X865Y979D01*
X881Y979D02*
X912Y979D01*
X1369Y979D02*
X1376Y979D01*
X0Y978D02*
X7Y978D01*
X840Y978D02*
X845Y978D01*
X859Y978D02*
X865Y978D01*
X882Y978D02*
X911Y978D01*
X1369Y978D02*
X1376Y978D01*
X0Y977D02*
X7Y977D01*
X840Y977D02*
X845Y977D01*
X858Y977D02*
X864Y977D01*
X894Y977D02*
X900Y977D01*
X1369Y977D02*
X1376Y977D01*
X0Y976D02*
X7Y976D01*
X840Y976D02*
X845Y976D01*
X858Y976D02*
X864Y976D01*
X894Y976D02*
X900Y976D01*
X1369Y976D02*
X1376Y976D01*
X0Y975D02*
X7Y975D01*
X840Y975D02*
X845Y975D01*
X857Y975D02*
X864Y975D01*
X894Y975D02*
X900Y975D01*
X1369Y975D02*
X1376Y975D01*
X0Y974D02*
X7Y974D01*
X840Y974D02*
X845Y974D01*
X857Y974D02*
X863Y974D01*
X894Y974D02*
X900Y974D01*
X1369Y974D02*
X1376Y974D01*
X0Y973D02*
X7Y973D01*
X840Y973D02*
X845Y973D01*
X856Y973D02*
X863Y973D01*
X894Y973D02*
X900Y973D01*
X1369Y973D02*
X1376Y973D01*
X0Y972D02*
X7Y972D01*
X840Y972D02*
X845Y972D01*
X856Y972D02*
X862Y972D01*
X894Y972D02*
X900Y972D01*
X1369Y972D02*
X1376Y972D01*
X0Y971D02*
X7Y971D01*
X840Y971D02*
X845Y971D01*
X855Y971D02*
X862Y971D01*
X894Y971D02*
X900Y971D01*
X1369Y971D02*
X1376Y971D01*
X0Y970D02*
X7Y970D01*
X840Y970D02*
X845Y970D01*
X855Y970D02*
X861Y970D01*
X894Y970D02*
X900Y970D01*
X1369Y970D02*
X1376Y970D01*
X0Y969D02*
X7Y969D01*
X840Y969D02*
X845Y969D01*
X854Y969D02*
X861Y969D01*
X894Y969D02*
X900Y969D01*
X1369Y969D02*
X1376Y969D01*
X0Y968D02*
X7Y968D01*
X840Y968D02*
X845Y968D01*
X854Y968D02*
X860Y968D01*
X894Y968D02*
X900Y968D01*
X1369Y968D02*
X1376Y968D01*
X0Y967D02*
X7Y967D01*
X840Y967D02*
X845Y967D01*
X853Y967D02*
X860Y967D01*
X894Y967D02*
X899Y967D01*
X1369Y967D02*
X1376Y967D01*
X0Y966D02*
X7Y966D01*
X840Y966D02*
X845Y966D01*
X853Y966D02*
X859Y966D01*
X894Y966D02*
X899Y966D01*
X1369Y966D02*
X1376Y966D01*
X0Y965D02*
X7Y965D01*
X840Y965D02*
X845Y965D01*
X852Y965D02*
X859Y965D01*
X895Y965D02*
X898Y965D01*
X1369Y965D02*
X1376Y965D01*
X0Y964D02*
X7Y964D01*
X840Y964D02*
X845Y964D01*
X852Y964D02*
X858Y964D01*
X1369Y964D02*
X1376Y964D01*
X0Y963D02*
X7Y963D01*
X840Y963D02*
X845Y963D01*
X851Y963D02*
X858Y963D01*
X1369Y963D02*
X1376Y963D01*
X0Y962D02*
X7Y962D01*
X840Y962D02*
X845Y962D01*
X850Y962D02*
X857Y962D01*
X1369Y962D02*
X1376Y962D01*
X0Y961D02*
X7Y961D01*
X835Y961D02*
X857Y961D01*
X1369Y961D02*
X1376Y961D01*
X0Y960D02*
X7Y960D01*
X834Y960D02*
X856Y960D01*
X1369Y960D02*
X1376Y960D01*
X0Y959D02*
X7Y959D01*
X833Y959D02*
X856Y959D01*
X1369Y959D02*
X1376Y959D01*
X0Y958D02*
X7Y958D01*
X833Y958D02*
X855Y958D01*
X1369Y958D02*
X1376Y958D01*
X0Y957D02*
X7Y957D01*
X833Y957D02*
X854Y957D01*
X1369Y957D02*
X1376Y957D01*
X0Y956D02*
X7Y956D01*
X834Y956D02*
X852Y956D01*
X1369Y956D02*
X1376Y956D01*
X0Y955D02*
X7Y955D01*
X835Y955D02*
X849Y955D01*
X1369Y955D02*
X1376Y955D01*
X0Y954D02*
X7Y954D01*
X1369Y954D02*
X1376Y954D01*
X0Y953D02*
X7Y953D01*
X1369Y953D02*
X1376Y953D01*
X0Y952D02*
X7Y952D01*
X1369Y952D02*
X1376Y952D01*
X0Y951D02*
X7Y951D01*
X1369Y951D02*
X1376Y951D01*
X0Y950D02*
X7Y950D01*
X1369Y950D02*
X1376Y950D01*
X0Y949D02*
X7Y949D01*
X1369Y949D02*
X1376Y949D01*
X0Y948D02*
X7Y948D01*
X1369Y948D02*
X1376Y948D01*
X0Y947D02*
X7Y947D01*
X1369Y947D02*
X1376Y947D01*
X0Y946D02*
X7Y946D01*
X1369Y946D02*
X1376Y946D01*
X0Y945D02*
X7Y945D01*
X1369Y945D02*
X1376Y945D01*
X0Y944D02*
X7Y944D01*
X1369Y944D02*
X1376Y944D01*
X0Y943D02*
X7Y943D01*
X1369Y943D02*
X1376Y943D01*
X0Y942D02*
X7Y942D01*
X1369Y942D02*
X1376Y942D01*
X0Y941D02*
X7Y941D01*
X1369Y941D02*
X1376Y941D01*
X0Y940D02*
X7Y940D01*
X1369Y940D02*
X1376Y940D01*
X0Y939D02*
X7Y939D01*
X1369Y939D02*
X1376Y939D01*
X0Y938D02*
X7Y938D01*
X1369Y938D02*
X1376Y938D01*
X0Y937D02*
X7Y937D01*
X1369Y937D02*
X1376Y937D01*
X0Y936D02*
X7Y936D01*
X1369Y936D02*
X1376Y936D01*
X0Y935D02*
X7Y935D01*
X1369Y935D02*
X1376Y935D01*
X0Y934D02*
X7Y934D01*
X1369Y934D02*
X1376Y934D01*
X0Y933D02*
X7Y933D01*
X1369Y933D02*
X1376Y933D01*
X0Y932D02*
X7Y932D01*
X1369Y932D02*
X1376Y932D01*
X0Y931D02*
X7Y931D01*
X1369Y931D02*
X1376Y931D01*
X0Y930D02*
X7Y930D01*
X1369Y930D02*
X1376Y930D01*
X0Y929D02*
X7Y929D01*
X1369Y929D02*
X1376Y929D01*
X0Y928D02*
X7Y928D01*
X1369Y928D02*
X1376Y928D01*
X0Y927D02*
X7Y927D01*
X1369Y927D02*
X1376Y927D01*
X0Y926D02*
X7Y926D01*
X1369Y926D02*
X1376Y926D01*
X0Y925D02*
X7Y925D01*
X1369Y925D02*
X1376Y925D01*
X0Y924D02*
X7Y924D01*
X1369Y924D02*
X1376Y924D01*
X0Y923D02*
X7Y923D01*
X1369Y923D02*
X1376Y923D01*
X0Y922D02*
X7Y922D01*
X1369Y922D02*
X1376Y922D01*
X0Y921D02*
X7Y921D01*
X1369Y921D02*
X1376Y921D01*
X0Y920D02*
X7Y920D01*
X1369Y920D02*
X1376Y920D01*
X0Y919D02*
X7Y919D01*
X1369Y919D02*
X1376Y919D01*
X0Y918D02*
X7Y918D01*
X1369Y918D02*
X1376Y918D01*
X0Y917D02*
X7Y917D01*
X1369Y917D02*
X1376Y917D01*
X0Y916D02*
X7Y916D01*
X1369Y916D02*
X1376Y916D01*
X0Y915D02*
X7Y915D01*
X1369Y915D02*
X1376Y915D01*
X0Y914D02*
X7Y914D01*
X1369Y914D02*
X1376Y914D01*
X0Y913D02*
X7Y913D01*
X1369Y913D02*
X1376Y913D01*
X0Y912D02*
X7Y912D01*
X1369Y912D02*
X1376Y912D01*
X0Y911D02*
X7Y911D01*
X1369Y911D02*
X1376Y911D01*
X0Y910D02*
X7Y910D01*
X1369Y910D02*
X1376Y910D01*
X0Y909D02*
X7Y909D01*
X1369Y909D02*
X1376Y909D01*
X0Y908D02*
X7Y908D01*
X1369Y908D02*
X1376Y908D01*
X0Y907D02*
X7Y907D01*
X1369Y907D02*
X1376Y907D01*
X0Y906D02*
X7Y906D01*
X1369Y906D02*
X1376Y906D01*
X0Y905D02*
X7Y905D01*
X1369Y905D02*
X1376Y905D01*
X0Y904D02*
X7Y904D01*
X1369Y904D02*
X1376Y904D01*
X0Y903D02*
X7Y903D01*
X837Y903D02*
X850Y903D01*
X1369Y903D02*
X1376Y903D01*
X0Y902D02*
X7Y902D01*
X835Y902D02*
X854Y902D01*
X1369Y902D02*
X1376Y902D01*
X0Y901D02*
X7Y901D01*
X835Y901D02*
X855Y901D01*
X1369Y901D02*
X1376Y901D01*
X0Y900D02*
X7Y900D01*
X835Y900D02*
X856Y900D01*
X1369Y900D02*
X1376Y900D01*
X0Y899D02*
X7Y899D01*
X835Y899D02*
X857Y899D01*
X1369Y899D02*
X1376Y899D01*
X0Y898D02*
X7Y898D01*
X835Y898D02*
X858Y898D01*
X1369Y898D02*
X1376Y898D01*
X0Y897D02*
X7Y897D01*
X836Y897D02*
X858Y897D01*
X1369Y897D02*
X1376Y897D01*
X0Y896D02*
X7Y896D01*
X841Y896D02*
X847Y896D01*
X852Y896D02*
X859Y896D01*
X1369Y896D02*
X1376Y896D01*
X0Y895D02*
X7Y895D01*
X841Y895D02*
X847Y895D01*
X853Y895D02*
X859Y895D01*
X1369Y895D02*
X1376Y895D01*
X0Y894D02*
X7Y894D01*
X841Y894D02*
X847Y894D01*
X853Y894D02*
X860Y894D01*
X1369Y894D02*
X1376Y894D01*
X0Y893D02*
X7Y893D01*
X841Y893D02*
X847Y893D01*
X854Y893D02*
X860Y893D01*
X1369Y893D02*
X1376Y893D01*
X0Y892D02*
X7Y892D01*
X841Y892D02*
X847Y892D01*
X854Y892D02*
X861Y892D01*
X1369Y892D02*
X1376Y892D01*
X0Y891D02*
X7Y891D01*
X841Y891D02*
X847Y891D01*
X855Y891D02*
X861Y891D01*
X1369Y891D02*
X1376Y891D01*
X0Y890D02*
X7Y890D01*
X841Y890D02*
X847Y890D01*
X855Y890D02*
X862Y890D01*
X1369Y890D02*
X1376Y890D01*
X0Y889D02*
X7Y889D01*
X841Y889D02*
X847Y889D01*
X856Y889D02*
X862Y889D01*
X1369Y889D02*
X1376Y889D01*
X0Y888D02*
X7Y888D01*
X841Y888D02*
X847Y888D01*
X856Y888D02*
X863Y888D01*
X1369Y888D02*
X1376Y888D01*
X0Y887D02*
X7Y887D01*
X841Y887D02*
X847Y887D01*
X857Y887D02*
X863Y887D01*
X1369Y887D02*
X1376Y887D01*
X0Y886D02*
X7Y886D01*
X841Y886D02*
X847Y886D01*
X857Y886D02*
X864Y886D01*
X1369Y886D02*
X1376Y886D01*
X0Y885D02*
X7Y885D01*
X841Y885D02*
X847Y885D01*
X858Y885D02*
X864Y885D01*
X1369Y885D02*
X1376Y885D01*
X0Y884D02*
X7Y884D01*
X841Y884D02*
X847Y884D01*
X858Y884D02*
X865Y884D01*
X1369Y884D02*
X1376Y884D01*
X0Y883D02*
X7Y883D01*
X841Y883D02*
X847Y883D01*
X859Y883D02*
X865Y883D01*
X1369Y883D02*
X1376Y883D01*
X0Y882D02*
X7Y882D01*
X841Y882D02*
X847Y882D01*
X859Y882D02*
X866Y882D01*
X1369Y882D02*
X1376Y882D01*
X0Y881D02*
X7Y881D01*
X841Y881D02*
X847Y881D01*
X860Y881D02*
X866Y881D01*
X1369Y881D02*
X1376Y881D01*
X0Y880D02*
X7Y880D01*
X841Y880D02*
X847Y880D01*
X860Y880D02*
X866Y880D01*
X884Y880D02*
X913Y880D01*
X1369Y880D02*
X1376Y880D01*
X0Y879D02*
X7Y879D01*
X841Y879D02*
X847Y879D01*
X861Y879D02*
X866Y879D01*
X883Y879D02*
X914Y879D01*
X1369Y879D02*
X1376Y879D01*
X0Y878D02*
X7Y878D01*
X841Y878D02*
X847Y878D01*
X861Y878D02*
X866Y878D01*
X882Y878D02*
X914Y878D01*
X1369Y878D02*
X1376Y878D01*
X0Y877D02*
X7Y877D01*
X841Y877D02*
X847Y877D01*
X861Y877D02*
X866Y877D01*
X882Y877D02*
X914Y877D01*
X1369Y877D02*
X1376Y877D01*
X0Y876D02*
X7Y876D01*
X841Y876D02*
X847Y876D01*
X861Y876D02*
X866Y876D01*
X882Y876D02*
X914Y876D01*
X1369Y876D02*
X1376Y876D01*
X0Y875D02*
X7Y875D01*
X841Y875D02*
X847Y875D01*
X860Y875D02*
X866Y875D01*
X882Y875D02*
X914Y875D01*
X1369Y875D02*
X1376Y875D01*
X0Y874D02*
X7Y874D01*
X841Y874D02*
X847Y874D01*
X860Y874D02*
X866Y874D01*
X882Y874D02*
X914Y874D01*
X1369Y874D02*
X1376Y874D01*
X0Y873D02*
X7Y873D01*
X841Y873D02*
X847Y873D01*
X860Y873D02*
X866Y873D01*
X883Y873D02*
X914Y873D01*
X1369Y873D02*
X1376Y873D01*
X0Y872D02*
X7Y872D01*
X841Y872D02*
X847Y872D01*
X859Y872D02*
X865Y872D01*
X884Y872D02*
X913Y872D01*
X1369Y872D02*
X1376Y872D01*
X0Y871D02*
X7Y871D01*
X841Y871D02*
X847Y871D01*
X859Y871D02*
X865Y871D01*
X1369Y871D02*
X1376Y871D01*
X0Y870D02*
X7Y870D01*
X841Y870D02*
X847Y870D01*
X858Y870D02*
X865Y870D01*
X1369Y870D02*
X1376Y870D01*
X0Y869D02*
X7Y869D01*
X841Y869D02*
X847Y869D01*
X858Y869D02*
X864Y869D01*
X1369Y869D02*
X1376Y869D01*
X0Y868D02*
X7Y868D01*
X841Y868D02*
X847Y868D01*
X857Y868D02*
X864Y868D01*
X1369Y868D02*
X1376Y868D01*
X0Y867D02*
X7Y867D01*
X841Y867D02*
X847Y867D01*
X857Y867D02*
X863Y867D01*
X1369Y867D02*
X1376Y867D01*
X0Y866D02*
X7Y866D01*
X841Y866D02*
X847Y866D01*
X856Y866D02*
X863Y866D01*
X1369Y866D02*
X1376Y866D01*
X0Y865D02*
X7Y865D01*
X841Y865D02*
X847Y865D01*
X856Y865D02*
X862Y865D01*
X1369Y865D02*
X1376Y865D01*
X0Y864D02*
X7Y864D01*
X841Y864D02*
X847Y864D01*
X855Y864D02*
X862Y864D01*
X1369Y864D02*
X1376Y864D01*
X0Y863D02*
X7Y863D01*
X841Y863D02*
X847Y863D01*
X855Y863D02*
X861Y863D01*
X1369Y863D02*
X1376Y863D01*
X0Y862D02*
X7Y862D01*
X841Y862D02*
X847Y862D01*
X854Y862D02*
X861Y862D01*
X1369Y862D02*
X1376Y862D01*
X0Y861D02*
X7Y861D01*
X841Y861D02*
X847Y861D01*
X853Y861D02*
X860Y861D01*
X1369Y861D02*
X1376Y861D01*
X0Y860D02*
X7Y860D01*
X841Y860D02*
X847Y860D01*
X853Y860D02*
X860Y860D01*
X1369Y860D02*
X1376Y860D01*
X0Y859D02*
X7Y859D01*
X841Y859D02*
X847Y859D01*
X852Y859D02*
X859Y859D01*
X1369Y859D02*
X1376Y859D01*
X0Y858D02*
X7Y858D01*
X837Y858D02*
X859Y858D01*
X1369Y858D02*
X1376Y858D01*
X0Y857D02*
X7Y857D01*
X835Y857D02*
X858Y857D01*
X1369Y857D02*
X1376Y857D01*
X0Y856D02*
X7Y856D01*
X835Y856D02*
X857Y856D01*
X1369Y856D02*
X1376Y856D01*
X0Y855D02*
X7Y855D01*
X835Y855D02*
X857Y855D01*
X1369Y855D02*
X1376Y855D01*
X0Y854D02*
X7Y854D01*
X835Y854D02*
X856Y854D01*
X1369Y854D02*
X1376Y854D01*
X0Y853D02*
X7Y853D01*
X835Y853D02*
X854Y853D01*
X1369Y853D02*
X1376Y853D01*
X0Y852D02*
X7Y852D01*
X836Y852D02*
X852Y852D01*
X1369Y852D02*
X1376Y852D01*
X0Y851D02*
X7Y851D01*
X1369Y851D02*
X1376Y851D01*
X0Y850D02*
X7Y850D01*
X1369Y850D02*
X1376Y850D01*
X0Y849D02*
X7Y849D01*
X1369Y849D02*
X1376Y849D01*
X0Y848D02*
X7Y848D01*
X1369Y848D02*
X1376Y848D01*
X0Y847D02*
X7Y847D01*
X1369Y847D02*
X1376Y847D01*
X0Y846D02*
X7Y846D01*
X1369Y846D02*
X1376Y846D01*
X0Y845D02*
X7Y845D01*
X1369Y845D02*
X1376Y845D01*
X0Y844D02*
X7Y844D01*
X1369Y844D02*
X1376Y844D01*
X0Y843D02*
X7Y843D01*
X1369Y843D02*
X1376Y843D01*
X0Y842D02*
X7Y842D01*
X1369Y842D02*
X1376Y842D01*
X0Y841D02*
X7Y841D01*
X1369Y841D02*
X1376Y841D01*
X0Y840D02*
X7Y840D01*
X1369Y840D02*
X1376Y840D01*
X0Y839D02*
X7Y839D01*
X1369Y839D02*
X1376Y839D01*
X0Y838D02*
X7Y838D01*
X1369Y838D02*
X1376Y838D01*
X0Y837D02*
X7Y837D01*
X1369Y837D02*
X1376Y837D01*
X0Y836D02*
X7Y836D01*
X1369Y836D02*
X1376Y836D01*
X0Y835D02*
X7Y835D01*
X1369Y835D02*
X1376Y835D01*
X0Y834D02*
X7Y834D01*
X1369Y834D02*
X1376Y834D01*
X0Y833D02*
X7Y833D01*
X1369Y833D02*
X1376Y833D01*
X0Y832D02*
X7Y832D01*
X1369Y832D02*
X1376Y832D01*
X0Y831D02*
X7Y831D01*
X1369Y831D02*
X1376Y831D01*
X0Y830D02*
X7Y830D01*
X1369Y830D02*
X1376Y830D01*
X0Y829D02*
X7Y829D01*
X1369Y829D02*
X1376Y829D01*
X0Y828D02*
X7Y828D01*
X1369Y828D02*
X1376Y828D01*
X0Y827D02*
X7Y827D01*
X1369Y827D02*
X1376Y827D01*
X0Y826D02*
X7Y826D01*
X1369Y826D02*
X1376Y826D01*
X0Y825D02*
X7Y825D01*
X1369Y825D02*
X1376Y825D01*
X0Y824D02*
X7Y824D01*
X1369Y824D02*
X1376Y824D01*
X0Y823D02*
X7Y823D01*
X1369Y823D02*
X1376Y823D01*
X0Y822D02*
X7Y822D01*
X1369Y822D02*
X1376Y822D01*
X0Y821D02*
X7Y821D01*
X1369Y821D02*
X1376Y821D01*
X0Y820D02*
X7Y820D01*
X1369Y820D02*
X1376Y820D01*
X0Y819D02*
X7Y819D01*
X1369Y819D02*
X1376Y819D01*
X0Y818D02*
X7Y818D01*
X1369Y818D02*
X1376Y818D01*
X0Y817D02*
X7Y817D01*
X1369Y817D02*
X1376Y817D01*
X0Y816D02*
X7Y816D01*
X1369Y816D02*
X1376Y816D01*
X0Y815D02*
X7Y815D01*
X1369Y815D02*
X1376Y815D01*
X0Y814D02*
X7Y814D01*
X1369Y814D02*
X1376Y814D01*
X0Y813D02*
X7Y813D01*
X1369Y813D02*
X1376Y813D01*
X0Y812D02*
X7Y812D01*
X1369Y812D02*
X1376Y812D01*
X0Y811D02*
X7Y811D01*
X1369Y811D02*
X1376Y811D01*
X0Y810D02*
X7Y810D01*
X1369Y810D02*
X1376Y810D01*
X0Y809D02*
X7Y809D01*
X1369Y809D02*
X1376Y809D01*
X0Y808D02*
X7Y808D01*
X1369Y808D02*
X1376Y808D01*
X0Y807D02*
X7Y807D01*
X1369Y807D02*
X1376Y807D01*
X0Y806D02*
X7Y806D01*
X1369Y806D02*
X1376Y806D01*
X0Y805D02*
X7Y805D01*
X1369Y805D02*
X1376Y805D01*
X0Y804D02*
X7Y804D01*
X1369Y804D02*
X1376Y804D01*
X0Y803D02*
X7Y803D01*
X1369Y803D02*
X1376Y803D01*
X0Y802D02*
X7Y802D01*
X1369Y802D02*
X1376Y802D01*
X0Y801D02*
X7Y801D01*
X1369Y801D02*
X1376Y801D01*
X0Y800D02*
X7Y800D01*
X1369Y800D02*
X1376Y800D01*
X0Y799D02*
X7Y799D01*
X1369Y799D02*
X1376Y799D01*
X0Y798D02*
X7Y798D01*
X1369Y798D02*
X1376Y798D01*
X0Y797D02*
X7Y797D01*
X1369Y797D02*
X1376Y797D01*
X0Y796D02*
X7Y796D01*
X1369Y796D02*
X1376Y796D01*
X0Y795D02*
X7Y795D01*
X1369Y795D02*
X1376Y795D01*
X0Y794D02*
X7Y794D01*
X819Y794D02*
X819Y794D01*
X836Y794D02*
X851Y794D01*
X901Y794D02*
X901Y794D01*
X923Y794D02*
X937Y794D01*
X1369Y794D02*
X1376Y794D01*
X0Y793D02*
X7Y793D01*
X795Y793D02*
X798Y793D01*
X817Y793D02*
X821Y793D01*
X835Y793D02*
X856Y793D01*
X877Y793D02*
X880Y793D01*
X899Y793D02*
X903Y793D01*
X920Y793D02*
X940Y793D01*
X1369Y793D02*
X1376Y793D01*
X0Y792D02*
X7Y792D01*
X794Y792D02*
X799Y792D01*
X817Y792D02*
X821Y792D01*
X835Y792D02*
X857Y792D01*
X876Y792D02*
X881Y792D01*
X899Y792D02*
X903Y792D01*
X919Y792D02*
X942Y792D01*
X1369Y792D02*
X1376Y792D01*
X0Y791D02*
X7Y791D01*
X794Y791D02*
X799Y791D01*
X817Y791D02*
X821Y791D01*
X835Y791D02*
X859Y791D01*
X876Y791D02*
X881Y791D01*
X899Y791D02*
X903Y791D01*
X918Y791D02*
X943Y791D01*
X1369Y791D02*
X1376Y791D01*
X0Y790D02*
X7Y790D01*
X794Y790D02*
X799Y790D01*
X817Y790D02*
X821Y790D01*
X835Y790D02*
X860Y790D01*
X876Y790D02*
X881Y790D01*
X899Y790D02*
X903Y790D01*
X918Y790D02*
X943Y790D01*
X1369Y790D02*
X1376Y790D01*
X0Y789D02*
X7Y789D01*
X794Y789D02*
X799Y789D01*
X817Y789D02*
X821Y789D01*
X835Y789D02*
X860Y789D01*
X876Y789D02*
X881Y789D01*
X899Y789D02*
X903Y789D01*
X917Y789D02*
X944Y789D01*
X1369Y789D02*
X1376Y789D01*
X0Y788D02*
X7Y788D01*
X794Y788D02*
X799Y788D01*
X817Y788D02*
X821Y788D01*
X835Y788D02*
X840Y788D01*
X854Y788D02*
X861Y788D01*
X876Y788D02*
X881Y788D01*
X899Y788D02*
X903Y788D01*
X917Y788D02*
X922Y788D01*
X939Y788D02*
X944Y788D01*
X1369Y788D02*
X1376Y788D01*
X0Y787D02*
X7Y787D01*
X794Y787D02*
X799Y787D01*
X817Y787D02*
X821Y787D01*
X835Y787D02*
X840Y787D01*
X855Y787D02*
X861Y787D01*
X876Y787D02*
X881Y787D01*
X899Y787D02*
X903Y787D01*
X917Y787D02*
X922Y787D01*
X940Y787D02*
X944Y787D01*
X1369Y787D02*
X1376Y787D01*
X0Y786D02*
X7Y786D01*
X794Y786D02*
X799Y786D01*
X817Y786D02*
X821Y786D01*
X835Y786D02*
X840Y786D01*
X856Y786D02*
X862Y786D01*
X876Y786D02*
X881Y786D01*
X899Y786D02*
X903Y786D01*
X917Y786D02*
X923Y786D01*
X940Y786D02*
X944Y786D01*
X1369Y786D02*
X1376Y786D01*
X0Y785D02*
X7Y785D01*
X794Y785D02*
X799Y785D01*
X817Y785D02*
X821Y785D01*
X835Y785D02*
X840Y785D01*
X857Y785D02*
X862Y785D01*
X876Y785D02*
X881Y785D01*
X899Y785D02*
X903Y785D01*
X918Y785D02*
X924Y785D01*
X940Y785D02*
X944Y785D01*
X1369Y785D02*
X1376Y785D01*
X0Y784D02*
X7Y784D01*
X794Y784D02*
X799Y784D01*
X817Y784D02*
X821Y784D01*
X835Y784D02*
X840Y784D01*
X857Y784D02*
X862Y784D01*
X876Y784D02*
X881Y784D01*
X899Y784D02*
X903Y784D01*
X918Y784D02*
X924Y784D01*
X941Y784D02*
X943Y784D01*
X1369Y784D02*
X1376Y784D01*
X0Y783D02*
X7Y783D01*
X794Y783D02*
X799Y783D01*
X817Y783D02*
X821Y783D01*
X835Y783D02*
X840Y783D01*
X858Y783D02*
X862Y783D01*
X876Y783D02*
X881Y783D01*
X899Y783D02*
X903Y783D01*
X919Y783D02*
X925Y783D01*
X1369Y783D02*
X1376Y783D01*
X0Y782D02*
X7Y782D01*
X794Y782D02*
X799Y782D01*
X817Y782D02*
X821Y782D01*
X835Y782D02*
X840Y782D01*
X858Y782D02*
X862Y782D01*
X876Y782D02*
X881Y782D01*
X899Y782D02*
X903Y782D01*
X920Y782D02*
X926Y782D01*
X1369Y782D02*
X1376Y782D01*
X0Y781D02*
X7Y781D01*
X794Y781D02*
X799Y781D01*
X816Y781D02*
X821Y781D01*
X835Y781D02*
X840Y781D01*
X858Y781D02*
X862Y781D01*
X876Y781D02*
X881Y781D01*
X899Y781D02*
X903Y781D01*
X920Y781D02*
X927Y781D01*
X1369Y781D02*
X1376Y781D01*
X0Y780D02*
X7Y780D01*
X794Y780D02*
X800Y780D01*
X816Y780D02*
X821Y780D01*
X835Y780D02*
X840Y780D01*
X858Y780D02*
X862Y780D01*
X876Y780D02*
X881Y780D01*
X899Y780D02*
X903Y780D01*
X921Y780D02*
X928Y780D01*
X1369Y780D02*
X1376Y780D01*
X0Y779D02*
X7Y779D01*
X795Y779D02*
X800Y779D01*
X815Y779D02*
X821Y779D01*
X835Y779D02*
X840Y779D01*
X857Y779D02*
X862Y779D01*
X876Y779D02*
X881Y779D01*
X899Y779D02*
X903Y779D01*
X922Y779D02*
X928Y779D01*
X1369Y779D02*
X1376Y779D01*
X0Y778D02*
X7Y778D01*
X795Y778D02*
X800Y778D01*
X815Y778D02*
X820Y778D01*
X835Y778D02*
X840Y778D01*
X857Y778D02*
X862Y778D01*
X876Y778D02*
X881Y778D01*
X899Y778D02*
X903Y778D01*
X923Y778D02*
X929Y778D01*
X1369Y778D02*
X1376Y778D01*
X0Y777D02*
X7Y777D01*
X796Y777D02*
X801Y777D01*
X815Y777D02*
X820Y777D01*
X835Y777D02*
X840Y777D01*
X856Y777D02*
X862Y777D01*
X876Y777D02*
X881Y777D01*
X899Y777D02*
X903Y777D01*
X924Y777D02*
X930Y777D01*
X1369Y777D02*
X1376Y777D01*
X0Y776D02*
X7Y776D01*
X796Y776D02*
X801Y776D01*
X814Y776D02*
X819Y776D01*
X835Y776D02*
X840Y776D01*
X855Y776D02*
X861Y776D01*
X876Y776D02*
X881Y776D01*
X899Y776D02*
X903Y776D01*
X924Y776D02*
X931Y776D01*
X1369Y776D02*
X1376Y776D01*
X0Y775D02*
X7Y775D01*
X796Y775D02*
X802Y775D01*
X814Y775D02*
X819Y775D01*
X835Y775D02*
X840Y775D01*
X853Y775D02*
X861Y775D01*
X876Y775D02*
X881Y775D01*
X899Y775D02*
X903Y775D01*
X925Y775D02*
X931Y775D01*
X1369Y775D02*
X1376Y775D01*
X0Y774D02*
X7Y774D01*
X797Y774D02*
X802Y774D01*
X813Y774D02*
X819Y774D01*
X835Y774D02*
X860Y774D01*
X876Y774D02*
X881Y774D01*
X899Y774D02*
X903Y774D01*
X926Y774D02*
X932Y774D01*
X1369Y774D02*
X1376Y774D01*
X0Y773D02*
X7Y773D01*
X797Y773D02*
X802Y773D01*
X813Y773D02*
X818Y773D01*
X835Y773D02*
X859Y773D01*
X876Y773D02*
X881Y773D01*
X899Y773D02*
X903Y773D01*
X927Y773D02*
X933Y773D01*
X1369Y773D02*
X1376Y773D01*
X0Y772D02*
X7Y772D01*
X798Y772D02*
X803Y772D01*
X813Y772D02*
X818Y772D01*
X835Y772D02*
X859Y772D01*
X876Y772D02*
X881Y772D01*
X899Y772D02*
X903Y772D01*
X927Y772D02*
X934Y772D01*
X1369Y772D02*
X1376Y772D01*
X0Y771D02*
X7Y771D01*
X798Y771D02*
X803Y771D01*
X812Y771D02*
X817Y771D01*
X835Y771D02*
X859Y771D01*
X876Y771D02*
X881Y771D01*
X899Y771D02*
X903Y771D01*
X928Y771D02*
X935Y771D01*
X1369Y771D02*
X1376Y771D01*
X0Y770D02*
X7Y770D01*
X798Y770D02*
X804Y770D01*
X812Y770D02*
X817Y770D01*
X835Y770D02*
X860Y770D01*
X876Y770D02*
X881Y770D01*
X899Y770D02*
X903Y770D01*
X929Y770D02*
X935Y770D01*
X1369Y770D02*
X1376Y770D01*
X0Y769D02*
X7Y769D01*
X799Y769D02*
X804Y769D01*
X812Y769D02*
X817Y769D01*
X835Y769D02*
X840Y769D01*
X853Y769D02*
X861Y769D01*
X876Y769D02*
X881Y769D01*
X899Y769D02*
X903Y769D01*
X930Y769D02*
X936Y769D01*
X1369Y769D02*
X1376Y769D01*
X0Y768D02*
X7Y768D01*
X799Y768D02*
X804Y768D01*
X811Y768D02*
X816Y768D01*
X835Y768D02*
X840Y768D01*
X855Y768D02*
X861Y768D01*
X876Y768D02*
X881Y768D01*
X899Y768D02*
X903Y768D01*
X931Y768D02*
X937Y768D01*
X1369Y768D02*
X1376Y768D01*
X0Y767D02*
X7Y767D01*
X800Y767D02*
X805Y767D01*
X811Y767D02*
X816Y767D01*
X835Y767D02*
X840Y767D01*
X856Y767D02*
X862Y767D01*
X876Y767D02*
X881Y767D01*
X899Y767D02*
X903Y767D01*
X931Y767D02*
X938Y767D01*
X1369Y767D02*
X1376Y767D01*
X0Y766D02*
X7Y766D01*
X800Y766D02*
X805Y766D01*
X810Y766D02*
X816Y766D01*
X835Y766D02*
X840Y766D01*
X857Y766D02*
X862Y766D01*
X876Y766D02*
X881Y766D01*
X899Y766D02*
X903Y766D01*
X932Y766D02*
X938Y766D01*
X1369Y766D02*
X1376Y766D01*
X0Y765D02*
X7Y765D01*
X800Y765D02*
X806Y765D01*
X810Y765D02*
X815Y765D01*
X835Y765D02*
X840Y765D01*
X857Y765D02*
X862Y765D01*
X876Y765D02*
X881Y765D01*
X899Y765D02*
X903Y765D01*
X933Y765D02*
X939Y765D01*
X1369Y765D02*
X1376Y765D01*
X0Y764D02*
X7Y764D01*
X801Y764D02*
X806Y764D01*
X810Y764D02*
X815Y764D01*
X835Y764D02*
X840Y764D01*
X858Y764D02*
X862Y764D01*
X876Y764D02*
X881Y764D01*
X899Y764D02*
X903Y764D01*
X934Y764D02*
X940Y764D01*
X1369Y764D02*
X1376Y764D01*
X0Y763D02*
X7Y763D01*
X801Y763D02*
X806Y763D01*
X809Y763D02*
X814Y763D01*
X835Y763D02*
X840Y763D01*
X858Y763D02*
X862Y763D01*
X876Y763D02*
X881Y763D01*
X899Y763D02*
X903Y763D01*
X934Y763D02*
X941Y763D01*
X1369Y763D02*
X1376Y763D01*
X0Y762D02*
X7Y762D01*
X801Y762D02*
X807Y762D01*
X809Y762D02*
X814Y762D01*
X835Y762D02*
X840Y762D01*
X858Y762D02*
X862Y762D01*
X876Y762D02*
X881Y762D01*
X899Y762D02*
X903Y762D01*
X935Y762D02*
X942Y762D01*
X1369Y762D02*
X1376Y762D01*
X0Y761D02*
X7Y761D01*
X802Y761D02*
X814Y761D01*
X835Y761D02*
X840Y761D01*
X858Y761D02*
X862Y761D01*
X876Y761D02*
X881Y761D01*
X899Y761D02*
X903Y761D01*
X936Y761D02*
X942Y761D01*
X1369Y761D02*
X1376Y761D01*
X0Y760D02*
X7Y760D01*
X802Y760D02*
X813Y760D01*
X835Y760D02*
X840Y760D01*
X857Y760D02*
X862Y760D01*
X876Y760D02*
X881Y760D01*
X899Y760D02*
X903Y760D01*
X919Y760D02*
X920Y760D01*
X937Y760D02*
X943Y760D01*
X1369Y760D02*
X1376Y760D01*
X0Y759D02*
X7Y759D01*
X803Y759D02*
X813Y759D01*
X835Y759D02*
X840Y759D01*
X857Y759D02*
X862Y759D01*
X876Y759D02*
X881Y759D01*
X899Y759D02*
X903Y759D01*
X918Y759D02*
X921Y759D01*
X938Y759D02*
X944Y759D01*
X1369Y759D02*
X1376Y759D01*
X0Y758D02*
X7Y758D01*
X803Y758D02*
X812Y758D01*
X835Y758D02*
X840Y758D01*
X856Y758D02*
X862Y758D01*
X876Y758D02*
X881Y758D01*
X899Y758D02*
X903Y758D01*
X917Y758D02*
X922Y758D01*
X938Y758D02*
X944Y758D01*
X1369Y758D02*
X1376Y758D01*
X0Y757D02*
X7Y757D01*
X803Y757D02*
X812Y757D01*
X835Y757D02*
X840Y757D01*
X856Y757D02*
X862Y757D01*
X876Y757D02*
X881Y757D01*
X898Y757D02*
X903Y757D01*
X917Y757D02*
X922Y757D01*
X939Y757D02*
X944Y757D01*
X1369Y757D02*
X1376Y757D01*
X0Y756D02*
X7Y756D01*
X804Y756D02*
X812Y756D01*
X835Y756D02*
X840Y756D01*
X854Y756D02*
X861Y756D01*
X876Y756D02*
X882Y756D01*
X897Y756D02*
X903Y756D01*
X917Y756D02*
X923Y756D01*
X939Y756D02*
X944Y756D01*
X1369Y756D02*
X1376Y756D01*
X0Y755D02*
X7Y755D01*
X804Y755D02*
X811Y755D01*
X835Y755D02*
X860Y755D01*
X877Y755D02*
X903Y755D01*
X918Y755D02*
X944Y755D01*
X1369Y755D02*
X1376Y755D01*
X0Y754D02*
X7Y754D01*
X805Y754D02*
X811Y754D01*
X835Y754D02*
X860Y754D01*
X877Y754D02*
X902Y754D01*
X918Y754D02*
X944Y754D01*
X1369Y754D02*
X1376Y754D01*
X0Y753D02*
X7Y753D01*
X805Y753D02*
X810Y753D01*
X835Y753D02*
X859Y753D01*
X878Y753D02*
X901Y753D01*
X919Y753D02*
X943Y753D01*
X1369Y753D02*
X1376Y753D01*
X0Y752D02*
X7Y752D01*
X805Y752D02*
X810Y752D01*
X835Y752D02*
X858Y752D01*
X879Y752D02*
X900Y752D01*
X920Y752D02*
X943Y752D01*
X1369Y752D02*
X1376Y752D01*
X0Y751D02*
X7Y751D01*
X806Y751D02*
X809Y751D01*
X835Y751D02*
X856Y751D01*
X880Y751D02*
X899Y751D01*
X921Y751D02*
X941Y751D01*
X1369Y751D02*
X1376Y751D01*
X0Y750D02*
X7Y750D01*
X807Y750D02*
X808Y750D01*
X835Y750D02*
X853Y750D01*
X883Y750D02*
X897Y750D01*
X923Y750D02*
X940Y750D01*
X1369Y750D02*
X1376Y750D01*
X0Y749D02*
X7Y749D01*
X1369Y749D02*
X1376Y749D01*
X0Y748D02*
X7Y748D01*
X1369Y748D02*
X1376Y748D01*
X0Y747D02*
X7Y747D01*
X1369Y747D02*
X1376Y747D01*
X0Y746D02*
X7Y746D01*
X1369Y746D02*
X1376Y746D01*
X0Y745D02*
X7Y745D01*
X1369Y745D02*
X1376Y745D01*
X0Y744D02*
X7Y744D01*
X1369Y744D02*
X1376Y744D01*
X0Y743D02*
X7Y743D01*
X1369Y743D02*
X1376Y743D01*
X0Y742D02*
X7Y742D01*
X1369Y742D02*
X1376Y742D01*
X0Y741D02*
X7Y741D01*
X1369Y741D02*
X1376Y741D01*
X0Y740D02*
X7Y740D01*
X1369Y740D02*
X1376Y740D01*
X0Y739D02*
X7Y739D01*
X1369Y739D02*
X1376Y739D01*
X0Y738D02*
X7Y738D01*
X1369Y738D02*
X1376Y738D01*
X0Y737D02*
X7Y737D01*
X1369Y737D02*
X1376Y737D01*
X0Y736D02*
X7Y736D01*
X1369Y736D02*
X1376Y736D01*
X0Y735D02*
X7Y735D01*
X1369Y735D02*
X1376Y735D01*
X0Y734D02*
X7Y734D01*
X1369Y734D02*
X1376Y734D01*
X0Y733D02*
X7Y733D01*
X1369Y733D02*
X1376Y733D01*
X0Y732D02*
X7Y732D01*
X1369Y732D02*
X1376Y732D01*
X0Y731D02*
X7Y731D01*
X1369Y731D02*
X1376Y731D01*
X0Y730D02*
X7Y730D01*
X1369Y730D02*
X1376Y730D01*
X0Y729D02*
X7Y729D01*
X1369Y729D02*
X1376Y729D01*
X0Y728D02*
X7Y728D01*
X1369Y728D02*
X1376Y728D01*
X0Y727D02*
X7Y727D01*
X1369Y727D02*
X1376Y727D01*
X0Y726D02*
X7Y726D01*
X1369Y726D02*
X1376Y726D01*
X0Y725D02*
X7Y725D01*
X1369Y725D02*
X1376Y725D01*
X0Y724D02*
X7Y724D01*
X1369Y724D02*
X1376Y724D01*
X0Y723D02*
X7Y723D01*
X1369Y723D02*
X1376Y723D01*
X0Y722D02*
X7Y722D01*
X1369Y722D02*
X1376Y722D01*
X0Y721D02*
X7Y721D01*
X1369Y721D02*
X1376Y721D01*
X0Y720D02*
X7Y720D01*
X1369Y720D02*
X1376Y720D01*
X0Y719D02*
X7Y719D01*
X1369Y719D02*
X1376Y719D01*
X0Y718D02*
X7Y718D01*
X1369Y718D02*
X1376Y718D01*
X0Y717D02*
X7Y717D01*
X1369Y717D02*
X1376Y717D01*
X0Y716D02*
X7Y716D01*
X1369Y716D02*
X1376Y716D01*
X0Y715D02*
X7Y715D01*
X1369Y715D02*
X1376Y715D01*
X0Y714D02*
X7Y714D01*
X1369Y714D02*
X1376Y714D01*
X0Y713D02*
X7Y713D01*
X1369Y713D02*
X1376Y713D01*
X0Y712D02*
X7Y712D01*
X1369Y712D02*
X1376Y712D01*
X0Y711D02*
X7Y711D01*
X1369Y711D02*
X1376Y711D01*
X0Y710D02*
X7Y710D01*
X1369Y710D02*
X1376Y710D01*
X0Y709D02*
X7Y709D01*
X1369Y709D02*
X1376Y709D01*
X0Y708D02*
X7Y708D01*
X1369Y708D02*
X1376Y708D01*
X0Y707D02*
X7Y707D01*
X1369Y707D02*
X1376Y707D01*
X0Y706D02*
X7Y706D01*
X1369Y706D02*
X1376Y706D01*
X0Y705D02*
X7Y705D01*
X1369Y705D02*
X1376Y705D01*
X0Y704D02*
X7Y704D01*
X1369Y704D02*
X1376Y704D01*
X0Y703D02*
X7Y703D01*
X1369Y703D02*
X1376Y703D01*
X0Y702D02*
X7Y702D01*
X1369Y702D02*
X1376Y702D01*
X0Y701D02*
X7Y701D01*
X1369Y701D02*
X1376Y701D01*
X0Y700D02*
X7Y700D01*
X1369Y700D02*
X1376Y700D01*
X0Y699D02*
X7Y699D01*
X1369Y699D02*
X1376Y699D01*
X0Y698D02*
X7Y698D01*
X1369Y698D02*
X1376Y698D01*
X0Y697D02*
X7Y697D01*
X1369Y697D02*
X1376Y697D01*
X0Y696D02*
X7Y696D01*
X1369Y696D02*
X1376Y696D01*
X0Y695D02*
X7Y695D01*
X820Y695D02*
X834Y695D01*
X852Y695D02*
X860Y695D01*
X879Y695D02*
X882Y695D01*
X901Y695D02*
X917Y695D01*
X1369Y695D02*
X1376Y695D01*
X0Y694D02*
X7Y694D01*
X818Y694D02*
X835Y694D01*
X852Y694D02*
X860Y694D01*
X878Y694D02*
X883Y694D01*
X900Y694D02*
X919Y694D01*
X1369Y694D02*
X1376Y694D01*
X0Y693D02*
X7Y693D01*
X817Y693D02*
X836Y693D01*
X852Y693D02*
X861Y693D01*
X878Y693D02*
X883Y693D01*
X900Y693D02*
X921Y693D01*
X1369Y693D02*
X1376Y693D01*
X0Y692D02*
X7Y692D01*
X816Y692D02*
X836Y692D01*
X852Y692D02*
X861Y692D01*
X878Y692D02*
X884Y692D01*
X900Y692D02*
X922Y692D01*
X1369Y692D02*
X1376Y692D01*
X0Y691D02*
X7Y691D01*
X815Y691D02*
X835Y691D01*
X852Y691D02*
X861Y691D01*
X878Y691D02*
X884Y691D01*
X900Y691D02*
X922Y691D01*
X1369Y691D02*
X1376Y691D01*
X0Y690D02*
X7Y690D01*
X814Y690D02*
X835Y690D01*
X852Y690D02*
X862Y690D01*
X878Y690D02*
X884Y690D01*
X900Y690D02*
X923Y690D01*
X1369Y690D02*
X1376Y690D01*
X0Y689D02*
X7Y689D01*
X813Y689D02*
X833Y689D01*
X852Y689D02*
X862Y689D01*
X878Y689D02*
X884Y689D01*
X903Y689D02*
X924Y689D01*
X1369Y689D02*
X1376Y689D01*
X0Y688D02*
X7Y688D01*
X813Y688D02*
X820Y688D01*
X852Y688D02*
X863Y688D01*
X878Y688D02*
X884Y688D01*
X906Y688D02*
X912Y688D01*
X917Y688D02*
X924Y688D01*
X1369Y688D02*
X1376Y688D01*
X0Y687D02*
X7Y687D01*
X812Y687D02*
X819Y687D01*
X852Y687D02*
X863Y687D01*
X878Y687D02*
X884Y687D01*
X906Y687D02*
X912Y687D01*
X918Y687D02*
X925Y687D01*
X1369Y687D02*
X1376Y687D01*
X0Y686D02*
X7Y686D01*
X811Y686D02*
X819Y686D01*
X852Y686D02*
X864Y686D01*
X878Y686D02*
X884Y686D01*
X906Y686D02*
X912Y686D01*
X919Y686D02*
X925Y686D01*
X1369Y686D02*
X1376Y686D01*
X0Y685D02*
X7Y685D01*
X810Y685D02*
X818Y685D01*
X852Y685D02*
X864Y685D01*
X878Y685D02*
X884Y685D01*
X906Y685D02*
X912Y685D01*
X919Y685D02*
X926Y685D01*
X1369Y685D02*
X1376Y685D01*
X0Y684D02*
X7Y684D01*
X810Y684D02*
X817Y684D01*
X852Y684D02*
X865Y684D01*
X878Y684D02*
X884Y684D01*
X906Y684D02*
X912Y684D01*
X920Y684D02*
X926Y684D01*
X1369Y684D02*
X1376Y684D01*
X0Y683D02*
X7Y683D01*
X809Y683D02*
X816Y683D01*
X852Y683D02*
X865Y683D01*
X878Y683D02*
X884Y683D01*
X906Y683D02*
X912Y683D01*
X920Y683D02*
X927Y683D01*
X1369Y683D02*
X1376Y683D01*
X0Y682D02*
X7Y682D01*
X808Y682D02*
X815Y682D01*
X852Y682D02*
X857Y682D01*
X859Y682D02*
X865Y682D01*
X878Y682D02*
X884Y682D01*
X906Y682D02*
X912Y682D01*
X921Y682D02*
X927Y682D01*
X1369Y682D02*
X1376Y682D01*
X0Y681D02*
X7Y681D01*
X807Y681D02*
X815Y681D01*
X852Y681D02*
X857Y681D01*
X860Y681D02*
X866Y681D01*
X878Y681D02*
X884Y681D01*
X906Y681D02*
X912Y681D01*
X921Y681D02*
X928Y681D01*
X1369Y681D02*
X1376Y681D01*
X0Y680D02*
X7Y680D01*
X806Y680D02*
X814Y680D01*
X852Y680D02*
X857Y680D01*
X860Y680D02*
X866Y680D01*
X878Y680D02*
X884Y680D01*
X906Y680D02*
X912Y680D01*
X922Y680D02*
X928Y680D01*
X1369Y680D02*
X1376Y680D01*
X0Y679D02*
X7Y679D01*
X806Y679D02*
X813Y679D01*
X852Y679D02*
X857Y679D01*
X860Y679D02*
X867Y679D01*
X878Y679D02*
X884Y679D01*
X906Y679D02*
X912Y679D01*
X922Y679D02*
X929Y679D01*
X1369Y679D02*
X1376Y679D01*
X0Y678D02*
X7Y678D01*
X805Y678D02*
X812Y678D01*
X852Y678D02*
X857Y678D01*
X861Y678D02*
X867Y678D01*
X878Y678D02*
X884Y678D01*
X906Y678D02*
X912Y678D01*
X923Y678D02*
X929Y678D01*
X1369Y678D02*
X1376Y678D01*
X0Y677D02*
X7Y677D01*
X805Y677D02*
X812Y677D01*
X852Y677D02*
X857Y677D01*
X861Y677D02*
X868Y677D01*
X878Y677D02*
X884Y677D01*
X906Y677D02*
X912Y677D01*
X923Y677D02*
X930Y677D01*
X1369Y677D02*
X1376Y677D01*
X0Y676D02*
X7Y676D01*
X804Y676D02*
X811Y676D01*
X852Y676D02*
X857Y676D01*
X862Y676D02*
X868Y676D01*
X878Y676D02*
X884Y676D01*
X906Y676D02*
X912Y676D01*
X924Y676D02*
X930Y676D01*
X1369Y676D02*
X1376Y676D01*
X0Y675D02*
X7Y675D01*
X804Y675D02*
X810Y675D01*
X852Y675D02*
X857Y675D01*
X862Y675D02*
X869Y675D01*
X878Y675D02*
X884Y675D01*
X906Y675D02*
X912Y675D01*
X924Y675D02*
X930Y675D01*
X1369Y675D02*
X1376Y675D01*
X0Y674D02*
X7Y674D01*
X804Y674D02*
X810Y674D01*
X852Y674D02*
X857Y674D01*
X863Y674D02*
X869Y674D01*
X878Y674D02*
X884Y674D01*
X906Y674D02*
X912Y674D01*
X925Y674D02*
X931Y674D01*
X1369Y674D02*
X1376Y674D01*
X0Y673D02*
X7Y673D01*
X804Y673D02*
X810Y673D01*
X852Y673D02*
X857Y673D01*
X863Y673D02*
X869Y673D01*
X878Y673D02*
X884Y673D01*
X906Y673D02*
X912Y673D01*
X925Y673D02*
X931Y673D01*
X1369Y673D02*
X1376Y673D01*
X0Y672D02*
X7Y672D01*
X804Y672D02*
X810Y672D01*
X852Y672D02*
X857Y672D01*
X863Y672D02*
X870Y672D01*
X878Y672D02*
X884Y672D01*
X906Y672D02*
X912Y672D01*
X925Y672D02*
X931Y672D01*
X1369Y672D02*
X1376Y672D01*
X0Y671D02*
X7Y671D01*
X804Y671D02*
X809Y671D01*
X852Y671D02*
X857Y671D01*
X864Y671D02*
X870Y671D01*
X878Y671D02*
X884Y671D01*
X906Y671D02*
X912Y671D01*
X926Y671D02*
X931Y671D01*
X1369Y671D02*
X1376Y671D01*
X0Y670D02*
X7Y670D01*
X804Y670D02*
X809Y670D01*
X852Y670D02*
X857Y670D01*
X864Y670D02*
X871Y670D01*
X878Y670D02*
X884Y670D01*
X906Y670D02*
X912Y670D01*
X926Y670D02*
X931Y670D01*
X1369Y670D02*
X1376Y670D01*
X0Y669D02*
X7Y669D01*
X804Y669D02*
X809Y669D01*
X852Y669D02*
X857Y669D01*
X865Y669D02*
X871Y669D01*
X878Y669D02*
X884Y669D01*
X906Y669D02*
X912Y669D01*
X926Y669D02*
X931Y669D01*
X1369Y669D02*
X1376Y669D01*
X0Y668D02*
X7Y668D01*
X804Y668D02*
X809Y668D01*
X852Y668D02*
X857Y668D01*
X865Y668D02*
X872Y668D01*
X878Y668D02*
X884Y668D01*
X906Y668D02*
X912Y668D01*
X925Y668D02*
X931Y668D01*
X1369Y668D02*
X1376Y668D01*
X0Y667D02*
X7Y667D01*
X804Y667D02*
X809Y667D01*
X822Y667D02*
X836Y667D01*
X852Y667D02*
X857Y667D01*
X866Y667D02*
X872Y667D01*
X878Y667D02*
X884Y667D01*
X906Y667D02*
X912Y667D01*
X925Y667D02*
X931Y667D01*
X1369Y667D02*
X1376Y667D01*
X0Y666D02*
X7Y666D01*
X804Y666D02*
X809Y666D01*
X821Y666D02*
X836Y666D01*
X852Y666D02*
X857Y666D01*
X866Y666D02*
X872Y666D01*
X878Y666D02*
X884Y666D01*
X906Y666D02*
X912Y666D01*
X925Y666D02*
X931Y666D01*
X1369Y666D02*
X1376Y666D01*
X0Y665D02*
X7Y665D01*
X804Y665D02*
X809Y665D01*
X820Y665D02*
X836Y665D01*
X852Y665D02*
X857Y665D01*
X867Y665D02*
X873Y665D01*
X878Y665D02*
X884Y665D01*
X906Y665D02*
X912Y665D01*
X924Y665D02*
X931Y665D01*
X1369Y665D02*
X1376Y665D01*
X0Y664D02*
X7Y664D01*
X804Y664D02*
X809Y664D01*
X820Y664D02*
X836Y664D01*
X852Y664D02*
X857Y664D01*
X867Y664D02*
X873Y664D01*
X878Y664D02*
X884Y664D01*
X906Y664D02*
X912Y664D01*
X924Y664D02*
X930Y664D01*
X1369Y664D02*
X1376Y664D01*
X0Y663D02*
X7Y663D01*
X804Y663D02*
X809Y663D01*
X820Y663D02*
X836Y663D01*
X852Y663D02*
X857Y663D01*
X867Y663D02*
X874Y663D01*
X878Y663D02*
X884Y663D01*
X906Y663D02*
X912Y663D01*
X923Y663D02*
X930Y663D01*
X1369Y663D02*
X1376Y663D01*
X0Y662D02*
X7Y662D01*
X804Y662D02*
X809Y662D01*
X821Y662D02*
X836Y662D01*
X852Y662D02*
X857Y662D01*
X868Y662D02*
X874Y662D01*
X878Y662D02*
X884Y662D01*
X906Y662D02*
X912Y662D01*
X923Y662D02*
X929Y662D01*
X1369Y662D02*
X1376Y662D01*
X0Y661D02*
X7Y661D01*
X804Y661D02*
X809Y661D01*
X823Y661D02*
X836Y661D01*
X852Y661D02*
X857Y661D01*
X868Y661D02*
X875Y661D01*
X878Y661D02*
X884Y661D01*
X906Y661D02*
X912Y661D01*
X922Y661D02*
X929Y661D01*
X1369Y661D02*
X1376Y661D01*
X0Y660D02*
X7Y660D01*
X804Y660D02*
X809Y660D01*
X830Y660D02*
X836Y660D01*
X852Y660D02*
X857Y660D01*
X869Y660D02*
X875Y660D01*
X878Y660D02*
X884Y660D01*
X906Y660D02*
X912Y660D01*
X922Y660D02*
X928Y660D01*
X1369Y660D02*
X1376Y660D01*
X0Y659D02*
X7Y659D01*
X804Y659D02*
X809Y659D01*
X830Y659D02*
X836Y659D01*
X852Y659D02*
X857Y659D01*
X869Y659D02*
X876Y659D01*
X878Y659D02*
X884Y659D01*
X906Y659D02*
X912Y659D01*
X921Y659D02*
X928Y659D01*
X1369Y659D02*
X1376Y659D01*
X0Y658D02*
X7Y658D01*
X804Y658D02*
X809Y658D01*
X830Y658D02*
X836Y658D01*
X852Y658D02*
X857Y658D01*
X870Y658D02*
X876Y658D01*
X878Y658D02*
X884Y658D01*
X906Y658D02*
X912Y658D01*
X921Y658D02*
X927Y658D01*
X1369Y658D02*
X1376Y658D01*
X0Y657D02*
X7Y657D01*
X804Y657D02*
X809Y657D01*
X830Y657D02*
X836Y657D01*
X852Y657D02*
X857Y657D01*
X870Y657D02*
X876Y657D01*
X878Y657D02*
X884Y657D01*
X906Y657D02*
X912Y657D01*
X920Y657D02*
X927Y657D01*
X1369Y657D02*
X1376Y657D01*
X0Y656D02*
X7Y656D01*
X804Y656D02*
X809Y656D01*
X830Y656D02*
X836Y656D01*
X852Y656D02*
X857Y656D01*
X870Y656D02*
X884Y656D01*
X906Y656D02*
X912Y656D01*
X920Y656D02*
X926Y656D01*
X1369Y656D02*
X1376Y656D01*
X0Y655D02*
X7Y655D01*
X804Y655D02*
X809Y655D01*
X830Y655D02*
X836Y655D01*
X852Y655D02*
X857Y655D01*
X871Y655D02*
X884Y655D01*
X906Y655D02*
X912Y655D01*
X919Y655D02*
X926Y655D01*
X1369Y655D02*
X1376Y655D01*
X0Y654D02*
X7Y654D01*
X804Y654D02*
X810Y654D01*
X830Y654D02*
X836Y654D01*
X852Y654D02*
X857Y654D01*
X871Y654D02*
X884Y654D01*
X906Y654D02*
X912Y654D01*
X919Y654D02*
X925Y654D01*
X1369Y654D02*
X1376Y654D01*
X0Y653D02*
X7Y653D01*
X804Y653D02*
X810Y653D01*
X830Y653D02*
X836Y653D01*
X852Y653D02*
X857Y653D01*
X872Y653D02*
X884Y653D01*
X906Y653D02*
X912Y653D01*
X918Y653D02*
X925Y653D01*
X1369Y653D02*
X1376Y653D01*
X0Y652D02*
X7Y652D01*
X804Y652D02*
X810Y652D01*
X829Y652D02*
X836Y652D01*
X852Y652D02*
X857Y652D01*
X872Y652D02*
X884Y652D01*
X906Y652D02*
X912Y652D01*
X918Y652D02*
X924Y652D01*
X1369Y652D02*
X1376Y652D01*
X0Y651D02*
X7Y651D01*
X804Y651D02*
X812Y651D01*
X828Y651D02*
X835Y651D01*
X852Y651D02*
X857Y651D01*
X873Y651D02*
X884Y651D01*
X906Y651D02*
X912Y651D01*
X916Y651D02*
X924Y651D01*
X1369Y651D02*
X1376Y651D01*
X0Y650D02*
X7Y650D01*
X805Y650D02*
X835Y650D01*
X852Y650D02*
X857Y650D01*
X873Y650D02*
X884Y650D01*
X901Y650D02*
X923Y650D01*
X1369Y650D02*
X1376Y650D01*
X0Y649D02*
X7Y649D01*
X805Y649D02*
X834Y649D01*
X852Y649D02*
X857Y649D01*
X874Y649D02*
X884Y649D01*
X900Y649D02*
X923Y649D01*
X1369Y649D02*
X1376Y649D01*
X0Y648D02*
X7Y648D01*
X806Y648D02*
X834Y648D01*
X852Y648D02*
X857Y648D01*
X874Y648D02*
X884Y648D01*
X900Y648D02*
X922Y648D01*
X1369Y648D02*
X1376Y648D01*
X0Y647D02*
X7Y647D01*
X807Y647D02*
X833Y647D01*
X852Y647D02*
X857Y647D01*
X874Y647D02*
X884Y647D01*
X900Y647D02*
X921Y647D01*
X1369Y647D02*
X1376Y647D01*
X0Y646D02*
X7Y646D01*
X808Y646D02*
X832Y646D01*
X852Y646D02*
X857Y646D01*
X875Y646D02*
X884Y646D01*
X900Y646D02*
X920Y646D01*
X1369Y646D02*
X1376Y646D01*
X0Y645D02*
X7Y645D01*
X809Y645D02*
X830Y645D01*
X853Y645D02*
X856Y645D01*
X875Y645D02*
X884Y645D01*
X901Y645D02*
X918Y645D01*
X1369Y645D02*
X1376Y645D01*
X0Y644D02*
X7Y644D01*
X1369Y644D02*
X1376Y644D01*
X0Y643D02*
X7Y643D01*
X1369Y643D02*
X1376Y643D01*
X0Y642D02*
X7Y642D01*
X1369Y642D02*
X1376Y642D01*
X0Y641D02*
X7Y641D01*
X1369Y641D02*
X1376Y641D01*
X0Y640D02*
X7Y640D01*
X1369Y640D02*
X1376Y640D01*
X0Y639D02*
X7Y639D01*
X1369Y639D02*
X1376Y639D01*
X0Y638D02*
X7Y638D01*
X1369Y638D02*
X1376Y638D01*
X0Y637D02*
X7Y637D01*
X1369Y637D02*
X1376Y637D01*
X0Y636D02*
X7Y636D01*
X1369Y636D02*
X1376Y636D01*
X0Y635D02*
X7Y635D01*
X1369Y635D02*
X1376Y635D01*
X0Y634D02*
X7Y634D01*
X1369Y634D02*
X1376Y634D01*
X0Y633D02*
X7Y633D01*
X1369Y633D02*
X1376Y633D01*
X0Y632D02*
X7Y632D01*
X1369Y632D02*
X1376Y632D01*
X0Y631D02*
X7Y631D01*
X1369Y631D02*
X1376Y631D01*
X0Y630D02*
X7Y630D01*
X1369Y630D02*
X1376Y630D01*
X0Y629D02*
X7Y629D01*
X1369Y629D02*
X1376Y629D01*
X0Y628D02*
X7Y628D01*
X1369Y628D02*
X1376Y628D01*
X0Y627D02*
X7Y627D01*
X1369Y627D02*
X1376Y627D01*
X0Y626D02*
X7Y626D01*
X1369Y626D02*
X1376Y626D01*
X0Y625D02*
X7Y625D01*
X1369Y625D02*
X1376Y625D01*
X0Y624D02*
X7Y624D01*
X1369Y624D02*
X1376Y624D01*
X0Y623D02*
X7Y623D01*
X1369Y623D02*
X1376Y623D01*
X0Y622D02*
X7Y622D01*
X1369Y622D02*
X1376Y622D01*
X0Y621D02*
X7Y621D01*
X1369Y621D02*
X1376Y621D01*
X0Y620D02*
X7Y620D01*
X1369Y620D02*
X1376Y620D01*
X0Y619D02*
X7Y619D01*
X1369Y619D02*
X1376Y619D01*
X0Y618D02*
X7Y618D01*
X1369Y618D02*
X1376Y618D01*
X0Y617D02*
X7Y617D01*
X1369Y617D02*
X1376Y617D01*
X0Y616D02*
X7Y616D01*
X1369Y616D02*
X1376Y616D01*
X0Y615D02*
X7Y615D01*
X1369Y615D02*
X1376Y615D01*
X0Y614D02*
X7Y614D01*
X1369Y614D02*
X1376Y614D01*
X0Y613D02*
X7Y613D01*
X1369Y613D02*
X1376Y613D01*
X0Y612D02*
X7Y612D01*
X1369Y612D02*
X1376Y612D01*
X0Y611D02*
X7Y611D01*
X1369Y611D02*
X1376Y611D01*
X0Y610D02*
X7Y610D01*
X1369Y610D02*
X1376Y610D01*
X0Y609D02*
X7Y609D01*
X1369Y609D02*
X1376Y609D01*
X0Y608D02*
X7Y608D01*
X1369Y608D02*
X1376Y608D01*
X0Y607D02*
X7Y607D01*
X1369Y607D02*
X1376Y607D01*
X0Y606D02*
X7Y606D01*
X1369Y606D02*
X1376Y606D01*
X0Y605D02*
X7Y605D01*
X1369Y605D02*
X1376Y605D01*
X0Y604D02*
X7Y604D01*
X1369Y604D02*
X1376Y604D01*
X0Y603D02*
X7Y603D01*
X1369Y603D02*
X1376Y603D01*
X0Y602D02*
X7Y602D01*
X1369Y602D02*
X1376Y602D01*
X0Y601D02*
X7Y601D01*
X1369Y601D02*
X1376Y601D01*
X0Y600D02*
X7Y600D01*
X1369Y600D02*
X1376Y600D01*
X0Y599D02*
X7Y599D01*
X1369Y599D02*
X1376Y599D01*
X0Y598D02*
X7Y598D01*
X1369Y598D02*
X1376Y598D01*
X0Y597D02*
X7Y597D01*
X1369Y597D02*
X1376Y597D01*
X0Y596D02*
X7Y596D01*
X1369Y596D02*
X1376Y596D01*
X0Y595D02*
X7Y595D01*
X1369Y595D02*
X1376Y595D01*
X0Y594D02*
X7Y594D01*
X1369Y594D02*
X1376Y594D01*
X0Y593D02*
X7Y593D01*
X1369Y593D02*
X1376Y593D01*
X0Y592D02*
X7Y592D01*
X1369Y592D02*
X1376Y592D01*
X0Y591D02*
X7Y591D01*
X1369Y591D02*
X1376Y591D01*
X0Y590D02*
X7Y590D01*
X1369Y590D02*
X1376Y590D01*
X0Y589D02*
X7Y589D01*
X1369Y589D02*
X1376Y589D01*
X0Y588D02*
X7Y588D01*
X1369Y588D02*
X1376Y588D01*
X0Y587D02*
X7Y587D01*
X1369Y587D02*
X1376Y587D01*
X0Y586D02*
X7Y586D01*
X1369Y586D02*
X1376Y586D01*
X0Y585D02*
X7Y585D01*
X1369Y585D02*
X1376Y585D01*
X0Y584D02*
X7Y584D01*
X1369Y584D02*
X1376Y584D01*
X0Y583D02*
X7Y583D01*
X1369Y583D02*
X1376Y583D01*
X0Y582D02*
X7Y582D01*
X1369Y582D02*
X1376Y582D01*
X0Y581D02*
X7Y581D01*
X1369Y581D02*
X1376Y581D01*
X0Y580D02*
X7Y580D01*
X1369Y580D02*
X1376Y580D01*
X0Y579D02*
X7Y579D01*
X1369Y579D02*
X1376Y579D01*
X0Y578D02*
X7Y578D01*
X1369Y578D02*
X1376Y578D01*
X0Y577D02*
X7Y577D01*
X1369Y577D02*
X1376Y577D01*
X0Y576D02*
X7Y576D01*
X1369Y576D02*
X1376Y576D01*
X0Y575D02*
X7Y575D01*
X1369Y575D02*
X1376Y575D01*
X0Y574D02*
X7Y574D01*
X1369Y574D02*
X1376Y574D01*
X0Y573D02*
X7Y573D01*
X1369Y573D02*
X1376Y573D01*
X0Y572D02*
X7Y572D01*
X1369Y572D02*
X1376Y572D01*
X0Y571D02*
X7Y571D01*
X1369Y571D02*
X1376Y571D01*
X0Y570D02*
X7Y570D01*
X1369Y570D02*
X1376Y570D01*
X0Y569D02*
X7Y569D01*
X1369Y569D02*
X1376Y569D01*
X0Y568D02*
X7Y568D01*
X1369Y568D02*
X1376Y568D01*
X0Y567D02*
X7Y567D01*
X1369Y567D02*
X1376Y567D01*
X0Y566D02*
X7Y566D01*
X1369Y566D02*
X1376Y566D01*
X0Y565D02*
X7Y565D01*
X1369Y565D02*
X1376Y565D01*
X0Y564D02*
X7Y564D01*
X1369Y564D02*
X1376Y564D01*
X0Y563D02*
X7Y563D01*
X1369Y563D02*
X1376Y563D01*
X0Y562D02*
X7Y562D01*
X1369Y562D02*
X1376Y562D01*
X0Y561D02*
X7Y561D01*
X1369Y561D02*
X1376Y561D01*
X0Y560D02*
X7Y560D01*
X1369Y560D02*
X1376Y560D01*
X0Y559D02*
X7Y559D01*
X1369Y559D02*
X1376Y559D01*
X0Y558D02*
X7Y558D01*
X1369Y558D02*
X1376Y558D01*
X0Y557D02*
X7Y557D01*
X1369Y557D02*
X1376Y557D01*
X0Y556D02*
X7Y556D01*
X1369Y556D02*
X1376Y556D01*
X0Y555D02*
X7Y555D01*
X1369Y555D02*
X1376Y555D01*
X0Y554D02*
X7Y554D01*
X1369Y554D02*
X1376Y554D01*
X0Y553D02*
X7Y553D01*
X1369Y553D02*
X1376Y553D01*
X0Y552D02*
X7Y552D01*
X1369Y552D02*
X1376Y552D01*
X0Y551D02*
X7Y551D01*
X1369Y551D02*
X1376Y551D01*
X0Y550D02*
X7Y550D01*
X1369Y550D02*
X1376Y550D01*
X0Y549D02*
X7Y549D01*
X1369Y549D02*
X1376Y549D01*
X0Y548D02*
X7Y548D01*
X1369Y548D02*
X1376Y548D01*
X0Y547D02*
X7Y547D01*
X1369Y547D02*
X1376Y547D01*
X0Y546D02*
X7Y546D01*
X1369Y546D02*
X1376Y546D01*
X0Y545D02*
X7Y545D01*
X1369Y545D02*
X1376Y545D01*
X0Y544D02*
X7Y544D01*
X1369Y544D02*
X1376Y544D01*
X0Y543D02*
X7Y543D01*
X1369Y543D02*
X1376Y543D01*
X0Y542D02*
X7Y542D01*
X1369Y542D02*
X1376Y542D01*
X0Y541D02*
X7Y541D01*
X1369Y541D02*
X1376Y541D01*
X0Y540D02*
X7Y540D01*
X1369Y540D02*
X1376Y540D01*
X0Y539D02*
X7Y539D01*
X1369Y539D02*
X1376Y539D01*
X0Y538D02*
X7Y538D01*
X1369Y538D02*
X1376Y538D01*
X0Y537D02*
X7Y537D01*
X1369Y537D02*
X1376Y537D01*
X0Y536D02*
X7Y536D01*
X1369Y536D02*
X1376Y536D01*
X0Y535D02*
X7Y535D01*
X1369Y535D02*
X1376Y535D01*
X0Y534D02*
X7Y534D01*
X1369Y534D02*
X1376Y534D01*
X0Y533D02*
X7Y533D01*
X1369Y533D02*
X1376Y533D01*
X0Y532D02*
X7Y532D01*
X1369Y532D02*
X1376Y532D01*
X0Y531D02*
X7Y531D01*
X1369Y531D02*
X1376Y531D01*
X0Y530D02*
X7Y530D01*
X1369Y530D02*
X1376Y530D01*
X0Y529D02*
X7Y529D01*
X1369Y529D02*
X1376Y529D01*
X0Y528D02*
X7Y528D01*
X1369Y528D02*
X1376Y528D01*
X0Y527D02*
X7Y527D01*
X1369Y527D02*
X1376Y527D01*
X0Y526D02*
X7Y526D01*
X1369Y526D02*
X1376Y526D01*
X0Y525D02*
X7Y525D01*
X1369Y525D02*
X1376Y525D01*
X0Y524D02*
X7Y524D01*
X1369Y524D02*
X1376Y524D01*
X0Y523D02*
X7Y523D01*
X1369Y523D02*
X1376Y523D01*
X0Y522D02*
X7Y522D01*
X1369Y522D02*
X1376Y522D01*
X0Y521D02*
X7Y521D01*
X1369Y521D02*
X1376Y521D01*
X0Y520D02*
X7Y520D01*
X1369Y520D02*
X1376Y520D01*
X0Y519D02*
X7Y519D01*
X1369Y519D02*
X1376Y519D01*
X0Y518D02*
X7Y518D01*
X1369Y518D02*
X1376Y518D01*
X0Y517D02*
X7Y517D01*
X1369Y517D02*
X1376Y517D01*
X0Y516D02*
X7Y516D01*
X1369Y516D02*
X1376Y516D01*
X0Y515D02*
X7Y515D01*
X1369Y515D02*
X1376Y515D01*
X0Y514D02*
X7Y514D01*
X1369Y514D02*
X1376Y514D01*
X0Y513D02*
X7Y513D01*
X1369Y513D02*
X1376Y513D01*
X0Y512D02*
X7Y512D01*
X1369Y512D02*
X1376Y512D01*
X0Y511D02*
X7Y511D01*
X1369Y511D02*
X1376Y511D01*
X0Y510D02*
X7Y510D01*
X1369Y510D02*
X1376Y510D01*
X0Y509D02*
X7Y509D01*
X1369Y509D02*
X1376Y509D01*
X0Y508D02*
X7Y508D01*
X1369Y508D02*
X1376Y508D01*
X0Y507D02*
X7Y507D01*
X1369Y507D02*
X1376Y507D01*
X0Y506D02*
X7Y506D01*
X1369Y506D02*
X1376Y506D01*
X0Y505D02*
X7Y505D01*
X1369Y505D02*
X1376Y505D01*
X0Y504D02*
X7Y504D01*
X1369Y504D02*
X1376Y504D01*
X0Y503D02*
X7Y503D01*
X1369Y503D02*
X1376Y503D01*
X0Y502D02*
X7Y502D01*
X1369Y502D02*
X1376Y502D01*
X0Y501D02*
X7Y501D01*
X1369Y501D02*
X1376Y501D01*
X0Y500D02*
X7Y500D01*
X1369Y500D02*
X1376Y500D01*
X0Y499D02*
X7Y499D01*
X1369Y499D02*
X1376Y499D01*
X0Y498D02*
X7Y498D01*
X1369Y498D02*
X1376Y498D01*
X0Y497D02*
X7Y497D01*
X1369Y497D02*
X1376Y497D01*
X0Y496D02*
X7Y496D01*
X1369Y496D02*
X1376Y496D01*
X0Y495D02*
X7Y495D01*
X1369Y495D02*
X1376Y495D01*
X0Y494D02*
X7Y494D01*
X1369Y494D02*
X1376Y494D01*
X0Y493D02*
X7Y493D01*
X1369Y493D02*
X1376Y493D01*
X0Y492D02*
X7Y492D01*
X1369Y492D02*
X1376Y492D01*
X0Y491D02*
X7Y491D01*
X1369Y491D02*
X1376Y491D01*
X0Y490D02*
X7Y490D01*
X1369Y490D02*
X1376Y490D01*
X0Y489D02*
X7Y489D01*
X1369Y489D02*
X1376Y489D01*
X0Y488D02*
X7Y488D01*
X1369Y488D02*
X1376Y488D01*
X0Y487D02*
X7Y487D01*
X1369Y487D02*
X1376Y487D01*
X0Y486D02*
X7Y486D01*
X1369Y486D02*
X1376Y486D01*
X0Y485D02*
X7Y485D01*
X1369Y485D02*
X1376Y485D01*
X0Y484D02*
X7Y484D01*
X1369Y484D02*
X1376Y484D01*
X0Y483D02*
X7Y483D01*
X1369Y483D02*
X1376Y483D01*
X0Y482D02*
X7Y482D01*
X1369Y482D02*
X1376Y482D01*
X0Y481D02*
X7Y481D01*
X1369Y481D02*
X1376Y481D01*
X0Y480D02*
X7Y480D01*
X1369Y480D02*
X1376Y480D01*
X0Y479D02*
X7Y479D01*
X1369Y479D02*
X1376Y479D01*
X0Y478D02*
X7Y478D01*
X1369Y478D02*
X1376Y478D01*
X0Y477D02*
X7Y477D01*
X1369Y477D02*
X1376Y477D01*
X0Y476D02*
X7Y476D01*
X1369Y476D02*
X1376Y476D01*
X0Y475D02*
X7Y475D01*
X1369Y475D02*
X1376Y475D01*
X0Y474D02*
X7Y474D01*
X1369Y474D02*
X1376Y474D01*
X0Y473D02*
X7Y473D01*
X1369Y473D02*
X1376Y473D01*
X0Y472D02*
X7Y472D01*
X1369Y472D02*
X1376Y472D01*
X0Y471D02*
X7Y471D01*
X1369Y471D02*
X1376Y471D01*
X0Y470D02*
X7Y470D01*
X1369Y470D02*
X1376Y470D01*
X0Y469D02*
X7Y469D01*
X1369Y469D02*
X1376Y469D01*
X0Y468D02*
X7Y468D01*
X1369Y468D02*
X1376Y468D01*
X0Y467D02*
X7Y467D01*
X1369Y467D02*
X1376Y467D01*
X0Y466D02*
X7Y466D01*
X1369Y466D02*
X1376Y466D01*
X0Y465D02*
X7Y465D01*
X1369Y465D02*
X1376Y465D01*
X0Y464D02*
X7Y464D01*
X1369Y464D02*
X1376Y464D01*
X0Y463D02*
X7Y463D01*
X1369Y463D02*
X1376Y463D01*
X0Y462D02*
X7Y462D01*
X1369Y462D02*
X1376Y462D01*
X0Y461D02*
X7Y461D01*
X1369Y461D02*
X1376Y461D01*
X0Y460D02*
X7Y460D01*
X1369Y460D02*
X1376Y460D01*
X0Y459D02*
X7Y459D01*
X1369Y459D02*
X1376Y459D01*
X0Y458D02*
X7Y458D01*
X1369Y458D02*
X1376Y458D01*
X0Y457D02*
X7Y457D01*
X1369Y457D02*
X1376Y457D01*
X0Y456D02*
X7Y456D01*
X1369Y456D02*
X1376Y456D01*
X0Y455D02*
X7Y455D01*
X1369Y455D02*
X1376Y455D01*
X0Y454D02*
X7Y454D01*
X1369Y454D02*
X1376Y454D01*
X0Y453D02*
X7Y453D01*
X1369Y453D02*
X1376Y453D01*
X0Y452D02*
X7Y452D01*
X1369Y452D02*
X1376Y452D01*
X0Y451D02*
X7Y451D01*
X1369Y451D02*
X1376Y451D01*
X0Y450D02*
X7Y450D01*
X1369Y450D02*
X1376Y450D01*
X0Y449D02*
X7Y449D01*
X1369Y449D02*
X1376Y449D01*
X0Y448D02*
X7Y448D01*
X1369Y448D02*
X1376Y448D01*
X0Y447D02*
X7Y447D01*
X1369Y447D02*
X1376Y447D01*
X0Y446D02*
X7Y446D01*
X1369Y446D02*
X1376Y446D01*
X0Y445D02*
X7Y445D01*
X1369Y445D02*
X1376Y445D01*
X0Y444D02*
X7Y444D01*
X1369Y444D02*
X1376Y444D01*
X0Y443D02*
X7Y443D01*
X1369Y443D02*
X1376Y443D01*
X0Y442D02*
X7Y442D01*
X1369Y442D02*
X1376Y442D01*
X0Y441D02*
X7Y441D01*
X1369Y441D02*
X1376Y441D01*
X0Y440D02*
X7Y440D01*
X1369Y440D02*
X1376Y440D01*
X0Y439D02*
X7Y439D01*
X1369Y439D02*
X1376Y439D01*
X0Y438D02*
X7Y438D01*
X1369Y438D02*
X1376Y438D01*
X0Y437D02*
X7Y437D01*
X1369Y437D02*
X1376Y437D01*
X0Y436D02*
X7Y436D01*
X1369Y436D02*
X1376Y436D01*
X0Y435D02*
X7Y435D01*
X1369Y435D02*
X1376Y435D01*
X0Y434D02*
X7Y434D01*
X1369Y434D02*
X1376Y434D01*
X0Y433D02*
X7Y433D01*
X1369Y433D02*
X1376Y433D01*
X0Y432D02*
X7Y432D01*
X1369Y432D02*
X1376Y432D01*
X0Y431D02*
X7Y431D01*
X1369Y431D02*
X1376Y431D01*
X0Y430D02*
X7Y430D01*
X1369Y430D02*
X1376Y430D01*
X0Y429D02*
X7Y429D01*
X1369Y429D02*
X1376Y429D01*
X0Y428D02*
X7Y428D01*
X1369Y428D02*
X1376Y428D01*
X0Y427D02*
X7Y427D01*
X1369Y427D02*
X1376Y427D01*
X0Y426D02*
X7Y426D01*
X1369Y426D02*
X1376Y426D01*
X0Y425D02*
X7Y425D01*
X1369Y425D02*
X1376Y425D01*
X0Y424D02*
X7Y424D01*
X1369Y424D02*
X1376Y424D01*
X0Y423D02*
X7Y423D01*
X1369Y423D02*
X1376Y423D01*
X0Y422D02*
X7Y422D01*
X1369Y422D02*
X1376Y422D01*
X0Y421D02*
X7Y421D01*
X1369Y421D02*
X1376Y421D01*
X0Y420D02*
X7Y420D01*
X1369Y420D02*
X1376Y420D01*
X0Y419D02*
X7Y419D01*
X1369Y419D02*
X1376Y419D01*
X0Y418D02*
X7Y418D01*
X1369Y418D02*
X1376Y418D01*
X0Y417D02*
X7Y417D01*
X1369Y417D02*
X1376Y417D01*
X0Y416D02*
X7Y416D01*
X1369Y416D02*
X1376Y416D01*
X0Y415D02*
X7Y415D01*
X1369Y415D02*
X1376Y415D01*
X0Y414D02*
X7Y414D01*
X1369Y414D02*
X1376Y414D01*
X0Y413D02*
X7Y413D01*
X1369Y413D02*
X1376Y413D01*
X0Y412D02*
X7Y412D01*
X1369Y412D02*
X1376Y412D01*
X0Y411D02*
X7Y411D01*
X1369Y411D02*
X1376Y411D01*
X0Y410D02*
X7Y410D01*
X1369Y410D02*
X1376Y410D01*
X0Y409D02*
X7Y409D01*
X1369Y409D02*
X1376Y409D01*
X0Y408D02*
X7Y408D01*
X1369Y408D02*
X1376Y408D01*
X0Y407D02*
X7Y407D01*
X1369Y407D02*
X1376Y407D01*
X0Y406D02*
X7Y406D01*
X1369Y406D02*
X1376Y406D01*
X0Y405D02*
X7Y405D01*
X1369Y405D02*
X1376Y405D01*
X0Y404D02*
X7Y404D01*
X1369Y404D02*
X1376Y404D01*
X0Y403D02*
X7Y403D01*
X1369Y403D02*
X1376Y403D01*
X0Y402D02*
X7Y402D01*
X1369Y402D02*
X1376Y402D01*
X0Y401D02*
X7Y401D01*
X1369Y401D02*
X1376Y401D01*
X0Y400D02*
X7Y400D01*
X1369Y400D02*
X1376Y400D01*
X0Y399D02*
X7Y399D01*
X1369Y399D02*
X1376Y399D01*
X0Y398D02*
X7Y398D01*
X1369Y398D02*
X1376Y398D01*
X0Y397D02*
X7Y397D01*
X1369Y397D02*
X1376Y397D01*
X0Y396D02*
X7Y396D01*
X1369Y396D02*
X1376Y396D01*
X0Y395D02*
X7Y395D01*
X1369Y395D02*
X1376Y395D01*
X0Y394D02*
X7Y394D01*
X1369Y394D02*
X1376Y394D01*
X0Y393D02*
X7Y393D01*
X1369Y393D02*
X1376Y393D01*
X0Y392D02*
X7Y392D01*
X1369Y392D02*
X1376Y392D01*
X0Y391D02*
X7Y391D01*
X1369Y391D02*
X1376Y391D01*
X0Y390D02*
X7Y390D01*
X1369Y390D02*
X1376Y390D01*
X0Y389D02*
X7Y389D01*
X1369Y389D02*
X1376Y389D01*
X0Y388D02*
X7Y388D01*
X1369Y388D02*
X1376Y388D01*
X0Y387D02*
X7Y387D01*
X1369Y387D02*
X1376Y387D01*
X0Y386D02*
X7Y386D01*
X1369Y386D02*
X1376Y386D01*
X0Y385D02*
X7Y385D01*
X1369Y385D02*
X1376Y385D01*
X0Y384D02*
X7Y384D01*
X1369Y384D02*
X1376Y384D01*
X0Y383D02*
X7Y383D01*
X1369Y383D02*
X1376Y383D01*
X0Y382D02*
X7Y382D01*
X1369Y382D02*
X1376Y382D01*
X0Y381D02*
X7Y381D01*
X1369Y381D02*
X1376Y381D01*
X0Y380D02*
X7Y380D01*
X1369Y380D02*
X1376Y380D01*
X0Y379D02*
X7Y379D01*
X1369Y379D02*
X1376Y379D01*
X0Y378D02*
X7Y378D01*
X1369Y378D02*
X1376Y378D01*
X0Y377D02*
X7Y377D01*
X1369Y377D02*
X1376Y377D01*
X0Y376D02*
X7Y376D01*
X1369Y376D02*
X1376Y376D01*
X0Y375D02*
X7Y375D01*
X1369Y375D02*
X1376Y375D01*
X0Y374D02*
X7Y374D01*
X1369Y374D02*
X1376Y374D01*
X0Y373D02*
X7Y373D01*
X1369Y373D02*
X1376Y373D01*
X0Y372D02*
X7Y372D01*
X1369Y372D02*
X1376Y372D01*
X0Y371D02*
X7Y371D01*
X1369Y371D02*
X1376Y371D01*
X0Y370D02*
X7Y370D01*
X1369Y370D02*
X1376Y370D01*
X0Y369D02*
X7Y369D01*
X1369Y369D02*
X1376Y369D01*
X0Y368D02*
X7Y368D01*
X1369Y368D02*
X1376Y368D01*
X0Y367D02*
X7Y367D01*
X1369Y367D02*
X1376Y367D01*
X0Y366D02*
X7Y366D01*
X1369Y366D02*
X1376Y366D01*
X0Y365D02*
X7Y365D01*
X1369Y365D02*
X1376Y365D01*
X0Y364D02*
X7Y364D01*
X1369Y364D02*
X1376Y364D01*
X0Y363D02*
X7Y363D01*
X1369Y363D02*
X1376Y363D01*
X0Y362D02*
X7Y362D01*
X1369Y362D02*
X1376Y362D01*
X0Y361D02*
X7Y361D01*
X1369Y361D02*
X1376Y361D01*
X0Y360D02*
X7Y360D01*
X1369Y360D02*
X1376Y360D01*
X0Y359D02*
X7Y359D01*
X1369Y359D02*
X1376Y359D01*
X0Y358D02*
X7Y358D01*
X1369Y358D02*
X1376Y358D01*
X0Y357D02*
X7Y357D01*
X1369Y357D02*
X1376Y357D01*
X0Y356D02*
X7Y356D01*
X1369Y356D02*
X1376Y356D01*
X0Y355D02*
X7Y355D01*
X1369Y355D02*
X1376Y355D01*
X0Y354D02*
X7Y354D01*
X1369Y354D02*
X1376Y354D01*
X0Y353D02*
X7Y353D01*
X1369Y353D02*
X1376Y353D01*
X0Y352D02*
X7Y352D01*
X1369Y352D02*
X1376Y352D01*
X0Y351D02*
X7Y351D01*
X1369Y351D02*
X1376Y351D01*
X0Y350D02*
X7Y350D01*
X1369Y350D02*
X1376Y350D01*
X0Y349D02*
X7Y349D01*
X1369Y349D02*
X1376Y349D01*
X0Y348D02*
X7Y348D01*
X1369Y348D02*
X1376Y348D01*
X0Y347D02*
X7Y347D01*
X1369Y347D02*
X1376Y347D01*
X0Y346D02*
X7Y346D01*
X1369Y346D02*
X1376Y346D01*
X0Y345D02*
X7Y345D01*
X1369Y345D02*
X1376Y345D01*
X0Y344D02*
X7Y344D01*
X1369Y344D02*
X1376Y344D01*
X0Y343D02*
X7Y343D01*
X1369Y343D02*
X1376Y343D01*
X0Y342D02*
X7Y342D01*
X1369Y342D02*
X1376Y342D01*
X0Y341D02*
X7Y341D01*
X1369Y341D02*
X1376Y341D01*
X0Y340D02*
X7Y340D01*
X1369Y340D02*
X1376Y340D01*
X0Y339D02*
X7Y339D01*
X1369Y339D02*
X1376Y339D01*
X0Y338D02*
X7Y338D01*
X1369Y338D02*
X1376Y338D01*
X0Y337D02*
X7Y337D01*
X1369Y337D02*
X1376Y337D01*
X0Y336D02*
X7Y336D01*
X1369Y336D02*
X1376Y336D01*
X0Y335D02*
X7Y335D01*
X1369Y335D02*
X1376Y335D01*
X0Y334D02*
X7Y334D01*
X1369Y334D02*
X1376Y334D01*
X0Y333D02*
X7Y333D01*
X1369Y333D02*
X1376Y333D01*
X0Y332D02*
X7Y332D01*
X1369Y332D02*
X1376Y332D01*
X0Y331D02*
X7Y331D01*
X1369Y331D02*
X1376Y331D01*
X0Y330D02*
X7Y330D01*
X1369Y330D02*
X1376Y330D01*
X0Y329D02*
X7Y329D01*
X1369Y329D02*
X1376Y329D01*
X0Y328D02*
X7Y328D01*
X1369Y328D02*
X1376Y328D01*
X0Y327D02*
X7Y327D01*
X1369Y327D02*
X1376Y327D01*
X0Y326D02*
X7Y326D01*
X1369Y326D02*
X1376Y326D01*
X0Y325D02*
X7Y325D01*
X1369Y325D02*
X1376Y325D01*
X0Y324D02*
X7Y324D01*
X1369Y324D02*
X1376Y324D01*
X0Y323D02*
X7Y323D01*
X1369Y323D02*
X1376Y323D01*
X0Y322D02*
X7Y322D01*
X1369Y322D02*
X1376Y322D01*
X0Y321D02*
X7Y321D01*
X1369Y321D02*
X1376Y321D01*
X0Y320D02*
X7Y320D01*
X1369Y320D02*
X1376Y320D01*
X0Y319D02*
X7Y319D01*
X1369Y319D02*
X1376Y319D01*
X0Y318D02*
X7Y318D01*
X1369Y318D02*
X1376Y318D01*
X0Y317D02*
X7Y317D01*
X1369Y317D02*
X1376Y317D01*
X0Y316D02*
X7Y316D01*
X1369Y316D02*
X1376Y316D01*
X0Y315D02*
X7Y315D01*
X1369Y315D02*
X1376Y315D01*
X0Y314D02*
X7Y314D01*
X1369Y314D02*
X1376Y314D01*
X0Y313D02*
X7Y313D01*
X1369Y313D02*
X1376Y313D01*
X0Y312D02*
X7Y312D01*
X1369Y312D02*
X1376Y312D01*
X0Y311D02*
X7Y311D01*
X1369Y311D02*
X1376Y311D01*
X0Y310D02*
X7Y310D01*
X1369Y310D02*
X1376Y310D01*
X0Y309D02*
X7Y309D01*
X1369Y309D02*
X1376Y309D01*
X0Y308D02*
X7Y308D01*
X1369Y308D02*
X1376Y308D01*
X0Y307D02*
X7Y307D01*
X1369Y307D02*
X1376Y307D01*
X0Y306D02*
X7Y306D01*
X1369Y306D02*
X1376Y306D01*
X0Y305D02*
X7Y305D01*
X1369Y305D02*
X1376Y305D01*
X0Y304D02*
X7Y304D01*
X1369Y304D02*
X1376Y304D01*
X0Y303D02*
X7Y303D01*
X1369Y303D02*
X1376Y303D01*
X0Y302D02*
X7Y302D01*
X1369Y302D02*
X1376Y302D01*
X0Y301D02*
X7Y301D01*
X1369Y301D02*
X1376Y301D01*
X0Y300D02*
X7Y300D01*
X1369Y300D02*
X1376Y300D01*
X0Y299D02*
X7Y299D01*
X1369Y299D02*
X1376Y299D01*
X0Y298D02*
X7Y298D01*
X1369Y298D02*
X1376Y298D01*
X0Y297D02*
X7Y297D01*
X1369Y297D02*
X1376Y297D01*
X0Y296D02*
X7Y296D01*
X1369Y296D02*
X1376Y296D01*
X0Y295D02*
X7Y295D01*
X1369Y295D02*
X1376Y295D01*
X0Y294D02*
X7Y294D01*
X1369Y294D02*
X1376Y294D01*
X0Y293D02*
X7Y293D01*
X1369Y293D02*
X1376Y293D01*
X0Y292D02*
X7Y292D01*
X1369Y292D02*
X1376Y292D01*
X0Y291D02*
X7Y291D01*
X1369Y291D02*
X1376Y291D01*
X0Y290D02*
X7Y290D01*
X1369Y290D02*
X1376Y290D01*
X0Y289D02*
X7Y289D01*
X1369Y289D02*
X1376Y289D01*
X0Y288D02*
X7Y288D01*
X1369Y288D02*
X1376Y288D01*
X0Y287D02*
X7Y287D01*
X1369Y287D02*
X1376Y287D01*
X0Y286D02*
X7Y286D01*
X1369Y286D02*
X1376Y286D01*
X0Y285D02*
X7Y285D01*
X1369Y285D02*
X1376Y285D01*
X0Y284D02*
X7Y284D01*
X1369Y284D02*
X1376Y284D01*
X0Y283D02*
X7Y283D01*
X1369Y283D02*
X1376Y283D01*
X0Y282D02*
X7Y282D01*
X1369Y282D02*
X1376Y282D01*
X0Y281D02*
X7Y281D01*
X1369Y281D02*
X1376Y281D01*
X0Y280D02*
X7Y280D01*
X1369Y280D02*
X1376Y280D01*
X0Y279D02*
X7Y279D01*
X1369Y279D02*
X1376Y279D01*
X0Y278D02*
X7Y278D01*
X1369Y278D02*
X1376Y278D01*
X0Y277D02*
X7Y277D01*
X1369Y277D02*
X1376Y277D01*
X0Y276D02*
X7Y276D01*
X1369Y276D02*
X1376Y276D01*
X0Y275D02*
X7Y275D01*
X1369Y275D02*
X1376Y275D01*
X0Y274D02*
X7Y274D01*
X1369Y274D02*
X1376Y274D01*
X0Y273D02*
X7Y273D01*
X1369Y273D02*
X1376Y273D01*
X0Y272D02*
X7Y272D01*
X1369Y272D02*
X1376Y272D01*
X0Y271D02*
X7Y271D01*
X1369Y271D02*
X1376Y271D01*
X0Y270D02*
X7Y270D01*
X1369Y270D02*
X1376Y270D01*
X0Y269D02*
X7Y269D01*
X1369Y269D02*
X1376Y269D01*
X0Y268D02*
X7Y268D01*
X1369Y268D02*
X1376Y268D01*
X0Y267D02*
X7Y267D01*
X1369Y267D02*
X1376Y267D01*
X0Y266D02*
X7Y266D01*
X1369Y266D02*
X1376Y266D01*
X0Y265D02*
X7Y265D01*
X1369Y265D02*
X1376Y265D01*
X0Y264D02*
X7Y264D01*
X1369Y264D02*
X1376Y264D01*
X0Y263D02*
X7Y263D01*
X1369Y263D02*
X1376Y263D01*
X0Y262D02*
X7Y262D01*
X1369Y262D02*
X1376Y262D01*
X0Y261D02*
X7Y261D01*
X1369Y261D02*
X1376Y261D01*
X0Y260D02*
X7Y260D01*
X1369Y260D02*
X1376Y260D01*
X0Y259D02*
X7Y259D01*
X1369Y259D02*
X1376Y259D01*
X0Y258D02*
X7Y258D01*
X1369Y258D02*
X1376Y258D01*
X0Y257D02*
X7Y257D01*
X1369Y257D02*
X1376Y257D01*
X0Y256D02*
X7Y256D01*
X1369Y256D02*
X1376Y256D01*
X0Y255D02*
X7Y255D01*
X1369Y255D02*
X1376Y255D01*
X0Y254D02*
X7Y254D01*
X1369Y254D02*
X1376Y254D01*
X0Y253D02*
X7Y253D01*
X1369Y253D02*
X1376Y253D01*
X0Y252D02*
X7Y252D01*
X1369Y252D02*
X1376Y252D01*
X0Y251D02*
X7Y251D01*
X1369Y251D02*
X1376Y251D01*
X0Y250D02*
X7Y250D01*
X1369Y250D02*
X1376Y250D01*
X0Y249D02*
X7Y249D01*
X1369Y249D02*
X1376Y249D01*
X0Y248D02*
X7Y248D01*
X1369Y248D02*
X1376Y248D01*
X0Y247D02*
X7Y247D01*
X1369Y247D02*
X1376Y247D01*
X0Y246D02*
X7Y246D01*
X1369Y246D02*
X1376Y246D01*
X0Y245D02*
X7Y245D01*
X1369Y245D02*
X1376Y245D01*
X0Y244D02*
X7Y244D01*
X1369Y244D02*
X1376Y244D01*
X0Y243D02*
X7Y243D01*
X1369Y243D02*
X1376Y243D01*
X0Y242D02*
X7Y242D01*
X1369Y242D02*
X1376Y242D01*
X0Y241D02*
X7Y241D01*
X1369Y241D02*
X1376Y241D01*
X0Y240D02*
X7Y240D01*
X1369Y240D02*
X1376Y240D01*
X0Y239D02*
X7Y239D01*
X1369Y239D02*
X1376Y239D01*
X0Y238D02*
X7Y238D01*
X1369Y238D02*
X1376Y238D01*
X0Y237D02*
X7Y237D01*
X1369Y237D02*
X1376Y237D01*
X0Y236D02*
X7Y236D01*
X1369Y236D02*
X1376Y236D01*
X0Y235D02*
X7Y235D01*
X1369Y235D02*
X1376Y235D01*
X0Y234D02*
X7Y234D01*
X1369Y234D02*
X1376Y234D01*
X0Y233D02*
X7Y233D01*
X1369Y233D02*
X1376Y233D01*
X0Y232D02*
X7Y232D01*
X1369Y232D02*
X1376Y232D01*
X0Y231D02*
X7Y231D01*
X1369Y231D02*
X1376Y231D01*
X0Y230D02*
X7Y230D01*
X1369Y230D02*
X1376Y230D01*
X0Y229D02*
X7Y229D01*
X1369Y229D02*
X1376Y229D01*
X0Y228D02*
X7Y228D01*
X1369Y228D02*
X1376Y228D01*
X0Y227D02*
X7Y227D01*
X1369Y227D02*
X1376Y227D01*
X0Y226D02*
X7Y226D01*
X1369Y226D02*
X1376Y226D01*
X0Y225D02*
X7Y225D01*
X1369Y225D02*
X1376Y225D01*
X0Y224D02*
X7Y224D01*
X1369Y224D02*
X1376Y224D01*
X0Y223D02*
X7Y223D01*
X1369Y223D02*
X1376Y223D01*
X0Y222D02*
X7Y222D01*
X1369Y222D02*
X1376Y222D01*
X0Y221D02*
X7Y221D01*
X1369Y221D02*
X1376Y221D01*
X0Y220D02*
X7Y220D01*
X1369Y220D02*
X1376Y220D01*
X0Y219D02*
X7Y219D01*
X1369Y219D02*
X1376Y219D01*
X0Y218D02*
X7Y218D01*
X1369Y218D02*
X1376Y218D01*
X0Y217D02*
X7Y217D01*
X1369Y217D02*
X1376Y217D01*
X0Y216D02*
X7Y216D01*
X1369Y216D02*
X1376Y216D01*
X0Y215D02*
X7Y215D01*
X1369Y215D02*
X1376Y215D01*
X0Y214D02*
X7Y214D01*
X1369Y214D02*
X1376Y214D01*
X0Y213D02*
X7Y213D01*
X1369Y213D02*
X1376Y213D01*
X0Y212D02*
X7Y212D01*
X1369Y212D02*
X1376Y212D01*
X0Y211D02*
X7Y211D01*
X1369Y211D02*
X1376Y211D01*
X0Y210D02*
X7Y210D01*
X1369Y210D02*
X1376Y210D01*
X0Y209D02*
X7Y209D01*
X1369Y209D02*
X1376Y209D01*
X0Y208D02*
X7Y208D01*
X1369Y208D02*
X1376Y208D01*
X0Y207D02*
X7Y207D01*
X1369Y207D02*
X1376Y207D01*
X0Y206D02*
X7Y206D01*
X1369Y206D02*
X1376Y206D01*
X0Y205D02*
X7Y205D01*
X1369Y205D02*
X1376Y205D01*
X0Y204D02*
X7Y204D01*
X1369Y204D02*
X1376Y204D01*
X0Y203D02*
X7Y203D01*
X1369Y203D02*
X1376Y203D01*
X0Y202D02*
X7Y202D01*
X1369Y202D02*
X1376Y202D01*
X0Y201D02*
X7Y201D01*
X1369Y201D02*
X1376Y201D01*
X0Y200D02*
X7Y200D01*
X1369Y200D02*
X1376Y200D01*
X0Y199D02*
X7Y199D01*
X1369Y199D02*
X1376Y199D01*
X0Y198D02*
X7Y198D01*
X1369Y198D02*
X1376Y198D01*
X0Y197D02*
X7Y197D01*
X1369Y197D02*
X1376Y197D01*
X0Y196D02*
X7Y196D01*
X1369Y196D02*
X1376Y196D01*
X0Y195D02*
X7Y195D01*
X1369Y195D02*
X1376Y195D01*
X0Y194D02*
X7Y194D01*
X1369Y194D02*
X1376Y194D01*
X0Y193D02*
X7Y193D01*
X1369Y193D02*
X1376Y193D01*
X0Y192D02*
X7Y192D01*
X1369Y192D02*
X1376Y192D01*
X0Y191D02*
X7Y191D01*
X1369Y191D02*
X1376Y191D01*
X0Y190D02*
X7Y190D01*
X1369Y190D02*
X1376Y190D01*
X0Y189D02*
X7Y189D01*
X1369Y189D02*
X1376Y189D01*
X0Y188D02*
X7Y188D01*
X1369Y188D02*
X1376Y188D01*
X0Y187D02*
X7Y187D01*
X1369Y187D02*
X1376Y187D01*
X0Y186D02*
X7Y186D01*
X1369Y186D02*
X1376Y186D01*
X0Y185D02*
X7Y185D01*
X1369Y185D02*
X1376Y185D01*
X0Y184D02*
X7Y184D01*
X1369Y184D02*
X1376Y184D01*
X0Y183D02*
X7Y183D01*
X1369Y183D02*
X1376Y183D01*
X0Y182D02*
X7Y182D01*
X1369Y182D02*
X1376Y182D01*
X0Y181D02*
X7Y181D01*
X1369Y181D02*
X1376Y181D01*
X0Y180D02*
X7Y180D01*
X1369Y180D02*
X1376Y180D01*
X0Y179D02*
X7Y179D01*
X1369Y179D02*
X1376Y179D01*
X0Y178D02*
X7Y178D01*
X1369Y178D02*
X1376Y178D01*
X0Y177D02*
X7Y177D01*
X1369Y177D02*
X1376Y177D01*
X0Y176D02*
X7Y176D01*
X1369Y176D02*
X1376Y176D01*
X0Y175D02*
X7Y175D01*
X1369Y175D02*
X1376Y175D01*
X0Y174D02*
X7Y174D01*
X1369Y174D02*
X1376Y174D01*
X0Y173D02*
X7Y173D01*
X1369Y173D02*
X1376Y173D01*
X0Y172D02*
X7Y172D01*
X1369Y172D02*
X1376Y172D01*
X0Y171D02*
X7Y171D01*
X1369Y171D02*
X1376Y171D01*
X0Y170D02*
X7Y170D01*
X1369Y170D02*
X1376Y170D01*
X0Y169D02*
X7Y169D01*
X1369Y169D02*
X1376Y169D01*
X0Y168D02*
X7Y168D01*
X1369Y168D02*
X1376Y168D01*
X0Y167D02*
X7Y167D01*
X1369Y167D02*
X1376Y167D01*
X0Y166D02*
X7Y166D01*
X1369Y166D02*
X1376Y166D01*
X0Y165D02*
X7Y165D01*
X1369Y165D02*
X1376Y165D01*
X0Y164D02*
X7Y164D01*
X1369Y164D02*
X1376Y164D01*
X0Y163D02*
X7Y163D01*
X1369Y163D02*
X1376Y163D01*
X0Y162D02*
X7Y162D01*
X1369Y162D02*
X1376Y162D01*
X0Y161D02*
X7Y161D01*
X1369Y161D02*
X1376Y161D01*
X0Y160D02*
X7Y160D01*
X1369Y160D02*
X1376Y160D01*
X0Y159D02*
X7Y159D01*
X1369Y159D02*
X1376Y159D01*
X0Y158D02*
X7Y158D01*
X1369Y158D02*
X1376Y158D01*
X0Y157D02*
X7Y157D01*
X1369Y157D02*
X1376Y157D01*
X0Y156D02*
X7Y156D01*
X1369Y156D02*
X1376Y156D01*
X0Y155D02*
X7Y155D01*
X1369Y155D02*
X1376Y155D01*
X0Y154D02*
X7Y154D01*
X1369Y154D02*
X1376Y154D01*
X0Y153D02*
X7Y153D01*
X1369Y153D02*
X1376Y153D01*
X0Y152D02*
X7Y152D01*
X1369Y152D02*
X1376Y152D01*
X0Y151D02*
X7Y151D01*
X1369Y151D02*
X1376Y151D01*
X0Y150D02*
X7Y150D01*
X1369Y150D02*
X1376Y150D01*
X0Y149D02*
X7Y149D01*
X1369Y149D02*
X1376Y149D01*
X0Y148D02*
X7Y148D01*
X1369Y148D02*
X1376Y148D01*
X0Y147D02*
X7Y147D01*
X1369Y147D02*
X1376Y147D01*
X0Y146D02*
X7Y146D01*
X1369Y146D02*
X1376Y146D01*
X0Y145D02*
X7Y145D01*
X1369Y145D02*
X1376Y145D01*
X0Y144D02*
X7Y144D01*
X1369Y144D02*
X1376Y144D01*
X0Y143D02*
X7Y143D01*
X1369Y143D02*
X1376Y143D01*
X0Y142D02*
X7Y142D01*
X1369Y142D02*
X1376Y142D01*
X0Y141D02*
X7Y141D01*
X1369Y141D02*
X1376Y141D01*
X0Y140D02*
X7Y140D01*
X1369Y140D02*
X1376Y140D01*
X0Y139D02*
X7Y139D01*
X1369Y139D02*
X1376Y139D01*
X0Y138D02*
X7Y138D01*
X1369Y138D02*
X1376Y138D01*
X0Y137D02*
X7Y137D01*
X1369Y137D02*
X1376Y137D01*
X0Y136D02*
X7Y136D01*
X1369Y136D02*
X1376Y136D01*
X0Y135D02*
X7Y135D01*
X1369Y135D02*
X1376Y135D01*
X0Y134D02*
X7Y134D01*
X1369Y134D02*
X1376Y134D01*
X0Y133D02*
X7Y133D01*
X1369Y133D02*
X1376Y133D01*
X0Y132D02*
X7Y132D01*
X1369Y132D02*
X1376Y132D01*
X0Y131D02*
X7Y131D01*
X1369Y131D02*
X1376Y131D01*
X0Y130D02*
X7Y130D01*
X1369Y130D02*
X1376Y130D01*
X0Y129D02*
X7Y129D01*
X1369Y129D02*
X1376Y129D01*
X0Y128D02*
X7Y128D01*
X1369Y128D02*
X1376Y128D01*
X0Y127D02*
X7Y127D01*
X1369Y127D02*
X1376Y127D01*
X0Y126D02*
X7Y126D01*
X1369Y126D02*
X1376Y126D01*
X0Y125D02*
X7Y125D01*
X1369Y125D02*
X1376Y125D01*
X0Y124D02*
X7Y124D01*
X1369Y124D02*
X1376Y124D01*
X0Y123D02*
X7Y123D01*
X1369Y123D02*
X1376Y123D01*
X0Y122D02*
X7Y122D01*
X1369Y122D02*
X1376Y122D01*
X0Y121D02*
X7Y121D01*
X1369Y121D02*
X1376Y121D01*
X0Y120D02*
X7Y120D01*
X1369Y120D02*
X1376Y120D01*
X0Y119D02*
X7Y119D01*
X1369Y119D02*
X1376Y119D01*
X0Y118D02*
X7Y118D01*
X1369Y118D02*
X1376Y118D01*
X0Y117D02*
X7Y117D01*
X1369Y117D02*
X1376Y117D01*
X0Y116D02*
X7Y116D01*
X1369Y116D02*
X1376Y116D01*
X0Y115D02*
X7Y115D01*
X1369Y115D02*
X1376Y115D01*
X0Y114D02*
X7Y114D01*
X1369Y114D02*
X1376Y114D01*
X0Y113D02*
X7Y113D01*
X1369Y113D02*
X1376Y113D01*
X0Y112D02*
X7Y112D01*
X1369Y112D02*
X1376Y112D01*
X0Y111D02*
X7Y111D01*
X1369Y111D02*
X1376Y111D01*
X0Y110D02*
X7Y110D01*
X1369Y110D02*
X1376Y110D01*
X0Y109D02*
X7Y109D01*
X1369Y109D02*
X1376Y109D01*
X0Y108D02*
X7Y108D01*
X1369Y108D02*
X1376Y108D01*
X0Y107D02*
X7Y107D01*
X1369Y107D02*
X1376Y107D01*
X0Y106D02*
X7Y106D01*
X1369Y106D02*
X1376Y106D01*
X0Y105D02*
X7Y105D01*
X1369Y105D02*
X1376Y105D01*
X0Y104D02*
X7Y104D01*
X1369Y104D02*
X1376Y104D01*
X0Y103D02*
X7Y103D01*
X1369Y103D02*
X1376Y103D01*
X0Y102D02*
X7Y102D01*
X1369Y102D02*
X1376Y102D01*
X0Y101D02*
X7Y101D01*
X1369Y101D02*
X1376Y101D01*
X0Y100D02*
X7Y100D01*
X1369Y100D02*
X1376Y100D01*
X0Y99D02*
X7Y99D01*
X1369Y99D02*
X1376Y99D01*
X0Y98D02*
X7Y98D01*
X1369Y98D02*
X1376Y98D01*
X0Y97D02*
X7Y97D01*
X1369Y97D02*
X1376Y97D01*
X0Y96D02*
X7Y96D01*
X1369Y96D02*
X1376Y96D01*
X0Y95D02*
X7Y95D01*
X1369Y95D02*
X1376Y95D01*
X0Y94D02*
X7Y94D01*
X1369Y94D02*
X1376Y94D01*
X0Y93D02*
X7Y93D01*
X1369Y93D02*
X1376Y93D01*
X0Y92D02*
X7Y92D01*
X1369Y92D02*
X1376Y92D01*
X0Y91D02*
X7Y91D01*
X1369Y91D02*
X1376Y91D01*
X0Y90D02*
X7Y90D01*
X1369Y90D02*
X1376Y90D01*
X0Y89D02*
X7Y89D01*
X1369Y89D02*
X1376Y89D01*
X0Y88D02*
X7Y88D01*
X1369Y88D02*
X1376Y88D01*
X0Y87D02*
X7Y87D01*
X1369Y87D02*
X1376Y87D01*
X0Y86D02*
X7Y86D01*
X1369Y86D02*
X1376Y86D01*
X0Y85D02*
X7Y85D01*
X1369Y85D02*
X1376Y85D01*
X0Y84D02*
X7Y84D01*
X1369Y84D02*
X1376Y84D01*
X0Y83D02*
X7Y83D01*
X1369Y83D02*
X1376Y83D01*
X0Y82D02*
X7Y82D01*
X1369Y82D02*
X1376Y82D01*
X0Y81D02*
X7Y81D01*
X1369Y81D02*
X1376Y81D01*
X0Y80D02*
X7Y80D01*
X1369Y80D02*
X1376Y80D01*
X0Y79D02*
X7Y79D01*
X1369Y79D02*
X1376Y79D01*
X0Y78D02*
X7Y78D01*
X1369Y78D02*
X1376Y78D01*
X0Y77D02*
X7Y77D01*
X1369Y77D02*
X1376Y77D01*
X0Y76D02*
X7Y76D01*
X1369Y76D02*
X1376Y76D01*
X0Y75D02*
X7Y75D01*
X1369Y75D02*
X1376Y75D01*
X0Y74D02*
X7Y74D01*
X1369Y74D02*
X1376Y74D01*
X0Y73D02*
X7Y73D01*
X1369Y73D02*
X1376Y73D01*
X0Y72D02*
X7Y72D01*
X1369Y72D02*
X1376Y72D01*
X0Y71D02*
X7Y71D01*
X1369Y71D02*
X1376Y71D01*
X0Y70D02*
X7Y70D01*
X1369Y70D02*
X1376Y70D01*
X0Y69D02*
X7Y69D01*
X1369Y69D02*
X1376Y69D01*
X0Y68D02*
X7Y68D01*
X1369Y68D02*
X1376Y68D01*
X0Y67D02*
X7Y67D01*
X1369Y67D02*
X1376Y67D01*
X0Y66D02*
X7Y66D01*
X1369Y66D02*
X1376Y66D01*
X0Y65D02*
X7Y65D01*
X1369Y65D02*
X1376Y65D01*
X0Y64D02*
X7Y64D01*
X1369Y64D02*
X1376Y64D01*
X0Y63D02*
X7Y63D01*
X1369Y63D02*
X1376Y63D01*
X0Y62D02*
X7Y62D01*
X1369Y62D02*
X1376Y62D01*
X0Y61D02*
X7Y61D01*
X1369Y61D02*
X1376Y61D01*
X0Y60D02*
X7Y60D01*
X1369Y60D02*
X1376Y60D01*
X0Y59D02*
X7Y59D01*
X1369Y59D02*
X1376Y59D01*
X0Y58D02*
X7Y58D01*
X1369Y58D02*
X1376Y58D01*
X0Y57D02*
X7Y57D01*
X1369Y57D02*
X1376Y57D01*
X0Y56D02*
X7Y56D01*
X1369Y56D02*
X1376Y56D01*
X0Y55D02*
X7Y55D01*
X1369Y55D02*
X1376Y55D01*
X0Y54D02*
X7Y54D01*
X1369Y54D02*
X1376Y54D01*
X0Y53D02*
X7Y53D01*
X1369Y53D02*
X1376Y53D01*
X0Y52D02*
X7Y52D01*
X1369Y52D02*
X1376Y52D01*
X0Y51D02*
X7Y51D01*
X1369Y51D02*
X1376Y51D01*
X0Y50D02*
X7Y50D01*
X1369Y50D02*
X1376Y50D01*
X0Y49D02*
X7Y49D01*
X1369Y49D02*
X1376Y49D01*
X0Y48D02*
X7Y48D01*
X1369Y48D02*
X1376Y48D01*
X0Y47D02*
X7Y47D01*
X1369Y47D02*
X1376Y47D01*
X0Y46D02*
X7Y46D01*
X1369Y46D02*
X1376Y46D01*
X0Y45D02*
X7Y45D01*
X1369Y45D02*
X1376Y45D01*
X0Y44D02*
X7Y44D01*
X1369Y44D02*
X1376Y44D01*
X0Y43D02*
X7Y43D01*
X1369Y43D02*
X1376Y43D01*
X0Y42D02*
X7Y42D01*
X1369Y42D02*
X1376Y42D01*
X0Y41D02*
X7Y41D01*
X1369Y41D02*
X1376Y41D01*
X0Y40D02*
X7Y40D01*
X1369Y40D02*
X1376Y40D01*
X0Y39D02*
X7Y39D01*
X1369Y39D02*
X1376Y39D01*
X0Y38D02*
X7Y38D01*
X1369Y38D02*
X1376Y38D01*
X0Y37D02*
X7Y37D01*
X1369Y37D02*
X1376Y37D01*
X0Y36D02*
X7Y36D01*
X1369Y36D02*
X1376Y36D01*
X0Y35D02*
X7Y35D01*
X1369Y35D02*
X1376Y35D01*
X0Y34D02*
X7Y34D01*
X1369Y34D02*
X1376Y34D01*
X0Y33D02*
X7Y33D01*
X1369Y33D02*
X1376Y33D01*
X0Y32D02*
X7Y32D01*
X1369Y32D02*
X1376Y32D01*
X0Y31D02*
X7Y31D01*
X1369Y31D02*
X1376Y31D01*
X0Y30D02*
X7Y30D01*
X1369Y30D02*
X1376Y30D01*
X0Y29D02*
X7Y29D01*
X1369Y29D02*
X1376Y29D01*
X0Y28D02*
X7Y28D01*
X1369Y28D02*
X1376Y28D01*
X0Y27D02*
X7Y27D01*
X1369Y27D02*
X1376Y27D01*
X0Y26D02*
X7Y26D01*
X1369Y26D02*
X1376Y26D01*
X0Y25D02*
X7Y25D01*
X1369Y25D02*
X1376Y25D01*
X0Y24D02*
X7Y24D01*
X1369Y24D02*
X1376Y24D01*
X0Y23D02*
X7Y23D01*
X1369Y23D02*
X1376Y23D01*
X0Y22D02*
X7Y22D01*
X1369Y22D02*
X1376Y22D01*
X0Y21D02*
X7Y21D01*
X1369Y21D02*
X1376Y21D01*
X0Y20D02*
X7Y20D01*
X1369Y20D02*
X1376Y20D01*
X0Y19D02*
X7Y19D01*
X1369Y19D02*
X1376Y19D01*
X0Y18D02*
X7Y18D01*
X1369Y18D02*
X1376Y18D01*
X0Y17D02*
X7Y17D01*
X1369Y17D02*
X1376Y17D01*
X0Y16D02*
X7Y16D01*
X1369Y16D02*
X1376Y16D01*
X0Y15D02*
X7Y15D01*
X1369Y15D02*
X1376Y15D01*
X0Y14D02*
X7Y14D01*
X1369Y14D02*
X1376Y14D01*
X0Y13D02*
X7Y13D01*
X1369Y13D02*
X1376Y13D01*
X0Y12D02*
X7Y12D01*
X1369Y12D02*
X1376Y12D01*
X0Y11D02*
X7Y11D01*
X1369Y11D02*
X1376Y11D01*
X0Y10D02*
X7Y10D01*
X1369Y10D02*
X1376Y10D01*
X0Y9D02*
X1376Y9D01*
X0Y8D02*
X1376Y8D01*
X0Y7D02*
X1376Y7D01*
X0Y6D02*
X1376Y6D01*
X0Y5D02*
X1376Y5D01*
X0Y4D02*
X1376Y4D01*
X0Y3D02*
X1376Y3D01*
X0Y2D02*
X1376Y2D01*
D02*
G04 End of Silk1*
M02*