G04 MADE WITH FRITZING*
G04 WWW.FRITZING.ORG*
G04 DOUBLE SIDED*
G04 HOLES PLATED*
G04 CONTOUR ON CENTER OF CONTOUR VECTOR*
%ASAXBY*%
%FSLAX23Y23*%
%MOIN*%
%OFA0B0*%
%SFA1.0B1.0*%
%ADD10C,0.075000*%
%ADD11C,0.039370*%
%ADD12C,0.070361*%
%ADD13C,0.078000*%
%ADD14C,0.112000*%
%ADD15C,0.074000*%
%ADD16C,0.070000*%
%ADD17C,0.204725*%
%ADD18C,0.082000*%
%ADD19C,0.102362*%
%ADD20C,0.091417*%
%ADD21C,0.045000*%
%ADD22C,0.140000*%
%ADD23C,0.099060*%
%ADD24C,0.087000*%
%ADD25C,0.088000*%
%ADD26C,0.123000*%
%ADD27C,0.062992*%
%ADD28R,2.322830X0.078740*%
%ADD29R,2.066670X0.078740*%
%ADD30R,0.805556X0.078740*%
%ADD31R,0.075000X0.075000*%
%ADD32R,0.355556X0.494444*%
%ADD33R,0.777952X0.244488*%
%ADD34R,0.777778X0.244444*%
%ADD35R,0.082000X0.082000*%
%ADD36R,0.123000X0.123000*%
%ADD37R,0.062992X0.062992*%
%ADD38C,0.024000*%
%ADD39C,0.048000*%
%ADD40C,0.032000*%
%ADD41R,0.001000X0.001000*%
%LNCOPPER0*%
G90*
G70*
G54D10*
X1573Y1690D03*
X1773Y1690D03*
X1573Y1790D03*
X1773Y1390D03*
X1573Y1090D03*
X1223Y240D03*
X1573Y1290D03*
X2173Y240D03*
G54D11*
X2623Y340D03*
G54D10*
X4473Y590D03*
X4473Y290D03*
X4373Y590D03*
X4373Y290D03*
X4273Y590D03*
X4273Y290D03*
X4173Y590D03*
X4173Y290D03*
X4073Y590D03*
X4073Y290D03*
X3973Y590D03*
X3973Y290D03*
X3873Y590D03*
X3873Y290D03*
X3773Y590D03*
X3773Y290D03*
X2023Y2090D03*
X2423Y2090D03*
G54D12*
X873Y2190D03*
X873Y2090D03*
X873Y1990D03*
X873Y1890D03*
X873Y1790D03*
X873Y1690D03*
X873Y1590D03*
X873Y1490D03*
X873Y1390D03*
X873Y1290D03*
X873Y1190D03*
X873Y1090D03*
X1473Y2190D03*
X1473Y2090D03*
X1473Y1990D03*
X1473Y1890D03*
X1473Y1790D03*
X1473Y1690D03*
X1473Y1590D03*
X1473Y1490D03*
X1473Y1390D03*
X1473Y1290D03*
X1473Y1190D03*
X1473Y1090D03*
G54D13*
X4475Y1590D03*
X4375Y1590D03*
X4275Y1590D03*
X4175Y1590D03*
X4075Y1590D03*
X3975Y1590D03*
X3875Y1590D03*
X3775Y1590D03*
X3675Y1590D03*
X3575Y1590D03*
X3475Y1590D03*
X3375Y1590D03*
X3275Y1590D03*
X3175Y1590D03*
X4675Y1590D03*
X4575Y1590D03*
G54D10*
X2173Y1190D03*
X1873Y1190D03*
X2173Y1290D03*
X1873Y1290D03*
X2173Y1390D03*
X1873Y1390D03*
X2173Y1490D03*
X1873Y1490D03*
X2173Y1590D03*
X1873Y1590D03*
X2173Y1690D03*
X1873Y1690D03*
X2173Y1790D03*
X1873Y1790D03*
X2173Y1890D03*
X1873Y1890D03*
X2523Y1890D03*
X2823Y1890D03*
X2523Y1790D03*
X2823Y1790D03*
X2523Y1690D03*
X2823Y1690D03*
X2523Y1590D03*
X2823Y1590D03*
X2523Y1490D03*
X2823Y1490D03*
X2523Y1390D03*
X2823Y1390D03*
X2523Y1290D03*
X2823Y1290D03*
X2523Y1190D03*
X2823Y1190D03*
X6623Y940D03*
X6623Y440D03*
G54D14*
X373Y3640D03*
X579Y3640D03*
X785Y3640D03*
X991Y3640D03*
G54D15*
X573Y2840D03*
X573Y2940D03*
X573Y3040D03*
G54D16*
X1473Y2640D03*
X1673Y2640D03*
X973Y2940D03*
X973Y2740D03*
G54D17*
X3523Y4340D03*
G54D18*
X3023Y3390D03*
X3023Y3688D03*
G54D19*
X4860Y4343D03*
X4860Y4093D03*
X4860Y3843D03*
X5321Y4343D03*
X5321Y4093D03*
X5321Y3843D03*
X4833Y4215D03*
X4833Y3965D03*
X4833Y3715D03*
X5348Y4215D03*
X5348Y3965D03*
X5348Y3715D03*
G54D20*
X3773Y4340D03*
X4413Y4340D03*
X3773Y4090D03*
X4413Y4090D03*
X3773Y3840D03*
X4413Y3840D03*
G54D21*
X5173Y2990D03*
X4873Y3390D03*
X4873Y3190D03*
X4873Y2990D03*
X4873Y2690D03*
X5173Y2690D03*
X5173Y3190D03*
X5173Y3390D03*
X5173Y2090D03*
X4873Y2490D03*
X4873Y2290D03*
X4873Y2090D03*
X4873Y1790D03*
X5173Y1790D03*
X5173Y2290D03*
X5173Y2490D03*
X4223Y2990D03*
X3923Y3390D03*
X3923Y3190D03*
X3923Y2990D03*
X3923Y2690D03*
X4223Y2690D03*
X4223Y3190D03*
X4223Y3390D03*
G54D10*
X1723Y3740D03*
X1723Y3340D03*
G54D18*
X1873Y3340D03*
X2171Y3340D03*
G54D10*
X2823Y3290D03*
X2823Y2790D03*
X2473Y2690D03*
X2473Y3090D03*
X2523Y3740D03*
X2523Y3340D03*
G54D22*
X770Y3973D03*
X770Y4213D03*
X580Y4093D03*
G54D10*
X1873Y2990D03*
X2173Y2990D03*
X1873Y2890D03*
X2173Y2890D03*
X1873Y2790D03*
X2173Y2790D03*
X1873Y2690D03*
X2173Y2690D03*
G54D23*
X3072Y4017D03*
X2973Y3915D03*
X2777Y4017D03*
X2580Y3915D03*
X2481Y4017D03*
X2973Y4422D03*
X2580Y4422D03*
X2247Y4017D03*
X2148Y3915D03*
X1952Y4017D03*
X1755Y3915D03*
X1656Y4017D03*
X2148Y4422D03*
X1755Y4422D03*
G54D10*
X3581Y3490D03*
X3581Y3990D03*
X4581Y3490D03*
X4581Y3990D03*
X3823Y2340D03*
X3823Y2240D03*
X3823Y2140D03*
X2673Y2240D03*
X3073Y2240D03*
G54D18*
X4223Y2390D03*
X3925Y2390D03*
G54D17*
X173Y4340D03*
X173Y190D03*
X7673Y190D03*
X7673Y1340D03*
X7673Y4340D03*
G54D19*
X5651Y4343D03*
X5651Y4093D03*
X5651Y3843D03*
X6112Y4343D03*
X6112Y4093D03*
X6112Y3843D03*
X5623Y4215D03*
X5623Y3965D03*
X5623Y3715D03*
X6139Y4215D03*
X6139Y3965D03*
X6139Y3715D03*
G54D20*
X6534Y4340D03*
X7173Y4340D03*
X6534Y4090D03*
X7173Y4090D03*
X6534Y3840D03*
X7173Y3840D03*
G54D21*
X6073Y2990D03*
X5773Y3390D03*
X5773Y3190D03*
X5773Y2990D03*
X5773Y2690D03*
X6073Y2690D03*
X6073Y3190D03*
X6073Y3390D03*
X6073Y2090D03*
X5773Y2490D03*
X5773Y2290D03*
X5773Y2090D03*
X5773Y1790D03*
X6073Y1790D03*
X6073Y2290D03*
X6073Y2490D03*
G54D17*
X3523Y340D03*
G54D10*
X2998Y240D03*
X2821Y240D03*
G54D24*
X3048Y339D03*
X2772Y339D03*
G54D25*
X1498Y190D03*
X1695Y190D03*
X1892Y190D03*
G54D26*
X1374Y321D03*
X2016Y321D03*
G54D10*
X623Y240D03*
X446Y240D03*
G54D24*
X673Y339D03*
X397Y339D03*
G54D10*
X1123Y190D03*
X1123Y690D03*
X2273Y190D03*
X2273Y690D03*
X3523Y690D03*
X3023Y690D03*
X923Y190D03*
X923Y690D03*
X6498Y240D03*
X6321Y240D03*
G54D24*
X6548Y339D03*
X6272Y339D03*
G54D10*
X7073Y240D03*
X6896Y240D03*
G54D24*
X7123Y339D03*
X6847Y339D03*
G54D27*
X6447Y515D03*
X6348Y515D03*
X7022Y515D03*
X6923Y515D03*
G54D10*
X6773Y940D03*
X6773Y540D03*
X6223Y940D03*
X6223Y540D03*
X7165Y940D03*
X7165Y440D03*
X5373Y240D03*
X5196Y240D03*
G54D24*
X5423Y339D03*
X5147Y339D03*
G54D27*
X5322Y515D03*
X5223Y515D03*
G54D10*
X4973Y940D03*
X4973Y540D03*
X5673Y440D03*
X5673Y940D03*
G54D28*
X6286Y340D03*
G54D29*
X2323Y340D03*
G54D30*
X673Y340D03*
G54D31*
X4473Y590D03*
G54D32*
X473Y4240D03*
G54D33*
X1944Y4388D03*
G54D34*
X2768Y4388D03*
G54D31*
X2173Y1190D03*
X2523Y1890D03*
G54D35*
X3023Y3389D03*
X1872Y3340D03*
G54D31*
X1873Y2990D03*
G54D35*
X4224Y2390D03*
G54D36*
X1374Y321D03*
X2016Y321D03*
G54D37*
X6447Y515D03*
X7022Y515D03*
X5322Y515D03*
G54D38*
X2173Y90D02*
X2253Y170D01*
D02*
X1773Y90D02*
X2173Y90D01*
D02*
X1717Y162D02*
X1773Y90D01*
G54D39*
D02*
X698Y374D02*
X900Y658D01*
D02*
X6251Y374D02*
X5702Y912D01*
G54D38*
D02*
X2323Y340D02*
X2605Y340D01*
G54D39*
D02*
X4572Y1638D02*
X4075Y2138D01*
D02*
X4075Y2138D02*
X3863Y2140D01*
D02*
X4572Y1631D02*
X4572Y1638D01*
G54D38*
D02*
X6428Y534D02*
X5923Y1040D01*
D02*
X5923Y1040D02*
X2373Y1040D01*
D02*
X2373Y1040D02*
X2223Y1190D01*
D02*
X2223Y1190D02*
X2202Y1190D01*
D02*
X7022Y542D02*
X7023Y840D01*
D02*
X7023Y840D02*
X6773Y1090D01*
D02*
X6773Y1090D02*
X2423Y1090D01*
D02*
X2423Y1090D02*
X2223Y1290D01*
D02*
X2223Y1290D02*
X2202Y1290D01*
G54D40*
D02*
X5754Y1771D02*
X5272Y1290D01*
D02*
X5272Y1290D02*
X2858Y1290D01*
D02*
X4623Y1390D02*
X2858Y1390D01*
D02*
X4875Y1642D02*
X4623Y1390D01*
D02*
X4874Y1763D02*
X4875Y1642D01*
G54D39*
D02*
X1123Y730D02*
X1123Y1840D01*
D02*
X1123Y1840D02*
X1373Y2090D01*
D02*
X1373Y2090D02*
X1433Y2090D01*
D02*
X5273Y2590D02*
X5197Y2667D01*
D02*
X5273Y1890D02*
X5273Y2590D01*
D02*
X5197Y1813D02*
X5273Y1890D01*
D02*
X1175Y2942D02*
X1011Y2940D01*
D02*
X1447Y2667D02*
X1175Y2942D01*
G54D38*
D02*
X7053Y220D02*
X6923Y90D01*
D02*
X4173Y240D02*
X4173Y261D01*
D02*
X4323Y90D02*
X4173Y240D01*
D02*
X6923Y90D02*
X4323Y90D01*
D02*
X4273Y240D02*
X4273Y261D01*
D02*
X4373Y140D02*
X4273Y240D01*
D02*
X6373Y140D02*
X4373Y140D01*
D02*
X6476Y222D02*
X6373Y140D01*
D02*
X3123Y140D02*
X3873Y140D01*
D02*
X3873Y140D02*
X3973Y240D01*
D02*
X3021Y222D02*
X3123Y140D01*
D02*
X3973Y240D02*
X3973Y261D01*
D02*
X1473Y990D02*
X1373Y1090D01*
D02*
X1373Y1090D02*
X1373Y1340D01*
D02*
X4823Y990D02*
X1473Y990D01*
D02*
X1423Y1390D02*
X1445Y1390D01*
D02*
X1373Y1340D02*
X1423Y1390D01*
D02*
X5302Y534D02*
X4823Y990D01*
D02*
X1152Y190D02*
X1463Y190D01*
D02*
X3573Y4140D02*
X3580Y4019D01*
D02*
X3745Y4312D02*
X3573Y4140D01*
D02*
X4573Y4190D02*
X4580Y4019D01*
D02*
X4442Y4313D02*
X4573Y4190D01*
D02*
X4473Y640D02*
X4473Y619D01*
D02*
X1273Y990D02*
X1373Y890D01*
D02*
X1423Y1590D02*
X1273Y1440D01*
D02*
X1273Y1440D02*
X1273Y990D01*
D02*
X1373Y890D02*
X4223Y890D01*
D02*
X4223Y890D02*
X4473Y640D01*
D02*
X1445Y1590D02*
X1423Y1590D01*
D02*
X1223Y940D02*
X1323Y840D01*
D02*
X1423Y1690D02*
X1223Y1490D01*
D02*
X1223Y1490D02*
X1223Y940D01*
D02*
X1323Y840D02*
X4173Y840D01*
D02*
X4173Y840D02*
X4373Y640D01*
D02*
X4373Y640D02*
X4373Y619D01*
D02*
X1445Y1690D02*
X1423Y1690D01*
D02*
X3723Y790D02*
X3873Y640D01*
D02*
X3873Y640D02*
X3873Y619D01*
D02*
X1273Y790D02*
X3723Y790D01*
D02*
X1173Y890D02*
X1273Y790D01*
D02*
X1173Y1540D02*
X1173Y890D01*
D02*
X1423Y1790D02*
X1173Y1540D01*
D02*
X1445Y1790D02*
X1423Y1790D01*
D02*
X5073Y390D02*
X5123Y440D01*
D02*
X5123Y440D02*
X5645Y440D01*
D02*
X4923Y390D02*
X5073Y390D01*
D02*
X4375Y938D02*
X4923Y390D01*
D02*
X1423Y940D02*
X4375Y938D01*
D02*
X1323Y1040D02*
X1423Y940D01*
D02*
X1323Y1390D02*
X1323Y1040D01*
D02*
X1423Y1490D02*
X1323Y1390D01*
D02*
X1445Y1490D02*
X1423Y1490D01*
G54D39*
D02*
X672Y2742D02*
X936Y2740D01*
D02*
X603Y2810D02*
X672Y2742D01*
D02*
X1373Y2090D02*
X1433Y2090D01*
D02*
X1375Y2542D02*
X1373Y2090D01*
D02*
X1447Y2614D02*
X1375Y2542D01*
D02*
X1523Y1890D02*
X1514Y1890D01*
D02*
X1672Y2038D02*
X1523Y1890D01*
D02*
X1673Y2603D02*
X1672Y2038D01*
D02*
X2673Y2140D02*
X2200Y2661D01*
D02*
X3784Y2140D02*
X2673Y2140D01*
D02*
X2173Y1930D02*
X2173Y2650D01*
D02*
X2023Y1590D02*
X1923Y1490D01*
D02*
X2023Y1790D02*
X2023Y1590D01*
D02*
X1923Y1490D02*
X1913Y1490D01*
D02*
X2123Y1890D02*
X2023Y1790D01*
D02*
X2134Y1890D02*
X2123Y1890D01*
D02*
X2323Y1340D02*
X2323Y1790D01*
D02*
X2323Y1790D02*
X2223Y1890D01*
D02*
X2223Y1890D02*
X2213Y1890D01*
D02*
X2473Y1190D02*
X2323Y1340D01*
D02*
X2484Y1190D02*
X2473Y1190D01*
D02*
X5475Y1190D02*
X6050Y1767D01*
D02*
X2863Y1190D02*
X5475Y1190D01*
G54D38*
D02*
X1823Y2890D02*
X1845Y2890D01*
D02*
X1723Y2990D02*
X1823Y2890D01*
D02*
X1723Y3311D02*
X1723Y2990D01*
D02*
X3102Y2240D02*
X3795Y2240D01*
D02*
X3573Y3340D02*
X3908Y3005D01*
D02*
X3580Y3462D02*
X3573Y3340D01*
D02*
X4573Y3340D02*
X4580Y3462D01*
D02*
X4239Y3005D02*
X4573Y3340D01*
G54D39*
D02*
X973Y3990D02*
X818Y4160D01*
D02*
X973Y3890D02*
X973Y3990D01*
D02*
X823Y3739D02*
X973Y3890D01*
D02*
X804Y3687D02*
X823Y3739D01*
D02*
X575Y3739D02*
X724Y3918D01*
D02*
X577Y3690D02*
X575Y3739D01*
D02*
X615Y2940D02*
X936Y2940D01*
D02*
X6097Y1813D02*
X6173Y1890D01*
D02*
X6173Y1890D02*
X6173Y2590D01*
D02*
X473Y2840D02*
X532Y2840D01*
D02*
X373Y2940D02*
X473Y2840D01*
D02*
X373Y3590D02*
X373Y2940D01*
D02*
X6173Y2590D02*
X6097Y2667D01*
D02*
X827Y2942D02*
X615Y2940D01*
D02*
X975Y3090D02*
X827Y2942D01*
D02*
X990Y3590D02*
X975Y3090D01*
G54D38*
D02*
X2173Y3240D02*
X2172Y3308D01*
D02*
X2023Y3090D02*
X2173Y3240D01*
D02*
X2023Y2890D02*
X2023Y3090D01*
D02*
X1923Y2790D02*
X2023Y2890D01*
D02*
X1902Y2790D02*
X1923Y2790D01*
G54D40*
D02*
X2439Y2690D02*
X2208Y2690D01*
D02*
X2873Y2690D02*
X2508Y2690D01*
D02*
X3223Y3040D02*
X2873Y2690D01*
D02*
X3223Y4090D02*
X3223Y3040D01*
D02*
X2875Y4190D02*
X3123Y4190D01*
D02*
X2773Y4090D02*
X2875Y4190D01*
D02*
X3123Y4190D02*
X3223Y4090D01*
D02*
X2775Y4063D02*
X2773Y4090D01*
G54D38*
D02*
X2273Y2890D02*
X2453Y3070D01*
D02*
X2202Y2890D02*
X2273Y2890D01*
D02*
X2202Y2790D02*
X2795Y2790D01*
D02*
X3023Y2990D02*
X3023Y3358D01*
D02*
X2844Y2810D02*
X3023Y2990D01*
D02*
X3023Y3864D02*
X3002Y3886D01*
D02*
X3023Y3720D02*
X3023Y3864D01*
G54D39*
D02*
X4773Y1890D02*
X4773Y2590D01*
D02*
X4773Y2590D02*
X4850Y2667D01*
D02*
X4850Y1813D02*
X4773Y1890D01*
G54D38*
D02*
X1723Y3864D02*
X1734Y3880D01*
D02*
X1723Y3769D02*
X1723Y3864D01*
D02*
X2175Y3864D02*
X2167Y3879D01*
D02*
X2172Y3372D02*
X2175Y3864D01*
D02*
X2523Y3864D02*
X2550Y3888D01*
D02*
X2523Y3769D02*
X2523Y3864D01*
G54D40*
D02*
X2499Y3316D02*
X2198Y3014D01*
D02*
X2573Y3290D02*
X2789Y3290D01*
D02*
X2548Y3316D02*
X2573Y3290D01*
G54D38*
D02*
X4975Y3790D02*
X4973Y2590D01*
D02*
X4973Y2590D02*
X4889Y2505D01*
D02*
X4923Y3841D02*
X4975Y3790D01*
D02*
X4903Y3842D02*
X4923Y3841D01*
D02*
X5075Y3939D02*
X5073Y2590D01*
D02*
X5073Y2590D02*
X5158Y2505D01*
D02*
X4923Y4090D02*
X5075Y3939D01*
D02*
X4903Y4091D02*
X4923Y4090D01*
D02*
X1841Y3340D02*
X1752Y3340D01*
G54D39*
D02*
X5673Y1890D02*
X5673Y2590D01*
D02*
X5673Y2590D02*
X5750Y2667D01*
D02*
X5750Y1813D02*
X5673Y1890D01*
G54D38*
D02*
X5723Y3839D02*
X5694Y3841D01*
D02*
X5875Y3690D02*
X5723Y3839D01*
D02*
X5873Y2590D02*
X5875Y3690D01*
D02*
X5789Y2505D02*
X5873Y2590D01*
D02*
X5723Y4090D02*
X5694Y4091D01*
D02*
X5975Y3839D02*
X5723Y4090D01*
D02*
X5973Y2590D02*
X5975Y3839D01*
D02*
X6058Y2505D02*
X5973Y2590D01*
D02*
X673Y190D02*
X895Y190D01*
D02*
X644Y220D02*
X673Y190D01*
D02*
X6275Y490D02*
X6244Y520D01*
D02*
X6323Y490D02*
X6275Y490D01*
D02*
X6330Y496D02*
X6323Y490D01*
D02*
X6823Y490D02*
X6794Y520D01*
D02*
X6873Y490D02*
X6823Y490D01*
D02*
X6899Y503D02*
X6873Y490D01*
D02*
X5023Y490D02*
X4994Y520D01*
D02*
X5173Y490D02*
X5023Y490D01*
D02*
X5199Y503D02*
X5173Y490D01*
G54D41*
X536Y2977D02*
X609Y2977D01*
X536Y2976D02*
X609Y2976D01*
X536Y2975D02*
X609Y2975D01*
X536Y2974D02*
X609Y2974D01*
X536Y2973D02*
X609Y2973D01*
X536Y2972D02*
X609Y2972D01*
X536Y2971D02*
X609Y2971D01*
X536Y2970D02*
X609Y2970D01*
X536Y2969D02*
X609Y2969D01*
X536Y2968D02*
X609Y2968D01*
X536Y2967D02*
X609Y2967D01*
X536Y2966D02*
X609Y2966D01*
X536Y2965D02*
X609Y2965D01*
X536Y2964D02*
X609Y2964D01*
X536Y2963D02*
X609Y2963D01*
X536Y2962D02*
X609Y2962D01*
X536Y2961D02*
X609Y2961D01*
X536Y2960D02*
X570Y2960D01*
X576Y2960D02*
X609Y2960D01*
X536Y2959D02*
X566Y2959D01*
X580Y2959D02*
X609Y2959D01*
X536Y2958D02*
X563Y2958D01*
X582Y2958D02*
X609Y2958D01*
X536Y2957D02*
X562Y2957D01*
X584Y2957D02*
X609Y2957D01*
X536Y2956D02*
X560Y2956D01*
X586Y2956D02*
X609Y2956D01*
X536Y2955D02*
X559Y2955D01*
X587Y2955D02*
X609Y2955D01*
X536Y2954D02*
X558Y2954D01*
X588Y2954D02*
X609Y2954D01*
X536Y2953D02*
X557Y2953D01*
X589Y2953D02*
X609Y2953D01*
X536Y2952D02*
X556Y2952D01*
X589Y2952D02*
X609Y2952D01*
X536Y2951D02*
X556Y2951D01*
X590Y2951D02*
X609Y2951D01*
X536Y2950D02*
X555Y2950D01*
X591Y2950D02*
X609Y2950D01*
X536Y2949D02*
X555Y2949D01*
X591Y2949D02*
X609Y2949D01*
X536Y2948D02*
X554Y2948D01*
X592Y2948D02*
X609Y2948D01*
X536Y2947D02*
X554Y2947D01*
X592Y2947D02*
X609Y2947D01*
X536Y2946D02*
X554Y2946D01*
X592Y2946D02*
X609Y2946D01*
X536Y2945D02*
X553Y2945D01*
X593Y2945D02*
X609Y2945D01*
X536Y2944D02*
X553Y2944D01*
X593Y2944D02*
X609Y2944D01*
X536Y2943D02*
X553Y2943D01*
X593Y2943D02*
X609Y2943D01*
X536Y2942D02*
X553Y2942D01*
X593Y2942D02*
X609Y2942D01*
X536Y2941D02*
X553Y2941D01*
X593Y2941D02*
X609Y2941D01*
X536Y2940D02*
X553Y2940D01*
X593Y2940D02*
X609Y2940D01*
X536Y2939D02*
X553Y2939D01*
X593Y2939D02*
X609Y2939D01*
X536Y2938D02*
X553Y2938D01*
X593Y2938D02*
X609Y2938D01*
X536Y2937D02*
X553Y2937D01*
X593Y2937D02*
X609Y2937D01*
X536Y2936D02*
X553Y2936D01*
X593Y2936D02*
X609Y2936D01*
X536Y2935D02*
X554Y2935D01*
X592Y2935D02*
X609Y2935D01*
X536Y2934D02*
X554Y2934D01*
X592Y2934D02*
X609Y2934D01*
X536Y2933D02*
X554Y2933D01*
X592Y2933D02*
X609Y2933D01*
X536Y2932D02*
X555Y2932D01*
X591Y2932D02*
X609Y2932D01*
X536Y2931D02*
X555Y2931D01*
X591Y2931D02*
X609Y2931D01*
X536Y2930D02*
X556Y2930D01*
X590Y2930D02*
X609Y2930D01*
X536Y2929D02*
X557Y2929D01*
X589Y2929D02*
X609Y2929D01*
X536Y2928D02*
X557Y2928D01*
X588Y2928D02*
X609Y2928D01*
X536Y2927D02*
X558Y2927D01*
X588Y2927D02*
X609Y2927D01*
X536Y2926D02*
X559Y2926D01*
X587Y2926D02*
X609Y2926D01*
X536Y2925D02*
X561Y2925D01*
X585Y2925D02*
X609Y2925D01*
X536Y2924D02*
X562Y2924D01*
X584Y2924D02*
X609Y2924D01*
X536Y2923D02*
X564Y2923D01*
X582Y2923D02*
X609Y2923D01*
X536Y2922D02*
X566Y2922D01*
X580Y2922D02*
X609Y2922D01*
X536Y2921D02*
X571Y2921D01*
X575Y2921D02*
X609Y2921D01*
X536Y2920D02*
X609Y2920D01*
X536Y2919D02*
X609Y2919D01*
X536Y2918D02*
X609Y2918D01*
X536Y2917D02*
X609Y2917D01*
X536Y2916D02*
X609Y2916D01*
X536Y2915D02*
X609Y2915D01*
X536Y2914D02*
X609Y2914D01*
X536Y2913D02*
X609Y2913D01*
X536Y2912D02*
X609Y2912D01*
X536Y2911D02*
X609Y2911D01*
X536Y2910D02*
X609Y2910D01*
X536Y2909D02*
X609Y2909D01*
X536Y2908D02*
X609Y2908D01*
X536Y2907D02*
X609Y2907D01*
X536Y2906D02*
X609Y2906D01*
X536Y2905D02*
X609Y2905D01*
X536Y2904D02*
X609Y2904D01*
D02*
G04 End of Copper0*
M02*