; NON-PLATED HOLES START AT T1
; THROUGH (PLATED) HOLES START AT T100
M48
INCH
T100C0.035639
T101C0.058083
T102C0.021000
T103C0.035000
T104C0.062992
T105C0.031497
T106C0.048000
T107C0.039370
T108C0.047000
T109C0.042000
T110C0.038000
T111C0.056000
T112C0.125984
T113C0.083000
T114C0.059060
T115C0.015748
T116C0.100000
T117C0.030000
%
T100
X008734Y011900
X014734Y016900
X014734Y020900
X008734Y018900
X008734Y013900
X014734Y018900
X008734Y014900
X014734Y021900
X014734Y015900
X014734Y017900
X014734Y019900
X014734Y013900
X008734Y021900
X014734Y012900
X008734Y010900
X008734Y016900
X014734Y010900
X008734Y019900
X008734Y015900
X008734Y012900
X008734Y017900
X008734Y020900
X014734Y011900
X014734Y014900
T101
X071734Y043400
X071734Y038400
X065344Y038400
X065344Y043400
X044125Y043400
X037734Y040900
X037734Y043400
X065344Y040900
X071734Y040900
X044125Y038400
X044125Y040900
X037734Y038400
T102
X048734Y022900
X048734Y026900
X060734Y024900
X060734Y022900
X048734Y029900
X048734Y020900
X060734Y033900
X051734Y017900
X039234Y033900
X039234Y031900
X060734Y026900
X057734Y029900
X048734Y031900
X060734Y020900
X057734Y031900
X051734Y024900
X060734Y029900
X057734Y017900
X042234Y026900
X057734Y033900
X048734Y024900
X051734Y033900
X039234Y029900
X039234Y026900
X048734Y033900
X057734Y024900
X048734Y017900
X042234Y031900
X057734Y022900
X060734Y017900
X051734Y031900
X057734Y020900
X051734Y029900
X051734Y022900
X057734Y026900
X042234Y029900
X051734Y026900
X060734Y031900
X051734Y020900
X042234Y033900
T103
X017734Y016900
X025234Y017900
X056734Y009400
X038234Y023400
X021734Y029900
X051964Y002400
X028234Y012900
X043734Y005900
X067734Y005400
X018734Y013900
X028234Y032900
X028234Y013900
X029984Y002400
X039734Y005900
X025234Y016900
X053734Y002400
X043734Y002900
X067734Y009400
X021734Y011900
X068964Y002400
X028234Y016900
X042734Y002900
X044734Y002900
X030734Y022400
X028234Y014900
X012234Y002400
X011234Y001900
X021734Y026900
X035814Y034900
X025234Y015900
X040734Y005900
X044734Y005900
X018734Y016900
X041734Y002900
X037734Y005900
X021734Y016900
X015734Y010900
X071654Y009400
X025234Y037400
X037734Y002900
X028214Y002400
X062234Y009400
X026734Y022400
X039734Y002900
X056734Y004400
X009234Y006900
X022734Y006900
X021734Y014900
X049734Y009400
X018734Y028900
X018734Y026900
X028234Y011900
X035234Y006900
X018734Y011900
X041734Y005900
X024234Y020900
X017734Y013900
X018734Y014900
X066234Y009400
X042734Y005900
X021734Y012900
X009234Y001900
X025234Y013900
X024734Y030900
X015734Y017900
X006234Y002400
X025234Y011900
X021734Y002400
X049734Y005400
X028234Y018900
X015734Y016900
X017234Y037400
X021734Y015900
X015734Y012900
X025234Y012900
X063214Y002400
X021734Y018900
X025234Y018900
X071654Y004400
X028234Y027900
X045814Y034900
X040734Y002900
X021734Y027900
X011234Y006900
X025234Y033400
X018734Y015900
X030234Y006900
X028234Y017900
X066234Y004400
X038234Y022400
X018734Y018900
X045814Y039900
X038734Y002900
X021734Y017900
X028234Y015900
X062234Y005400
X070734Y002400
X018734Y017900
X018734Y012900
X022734Y001900
X021734Y028900
X038234Y021400
X064984Y002400
X025234Y014900
X004464Y002400
X021734Y013900
X018734Y029900
X024734Y026900
X038734Y005900
X017234Y033400
X020234Y020900
X018734Y027900
X035814Y039900
T104
X056234Y037150
X048603Y040930
X048327Y042150
X056234Y039650
X061116Y038430
X053209Y038430
X053209Y043430
X061392Y039650
X053209Y040930
X056510Y040930
X061116Y043430
X053484Y039650
X061392Y037150
X048327Y039650
X048603Y043430
X061116Y040930
X053484Y037150
X056234Y042150
X056510Y043430
X056510Y038430
X048327Y037150
X053484Y042150
X048603Y038430
X061392Y042150
T105
X070219Y005150
X064469Y005150
X052234Y005150
X063484Y005150
X053219Y005150
X069234Y005150
T106
X018924Y001900
X014984Y001900
X016954Y001900
T107
X005734Y030400
X005734Y028400
X005734Y029400
T108
X062720Y003385
X027720Y003385
X030479Y003385
X065479Y003385
X054229Y003385
X068470Y003385
X071229Y003385
X003970Y003385
X006729Y003385
X051470Y003385
T109
X030234Y033900
X042234Y023900
X018734Y033400
X039254Y023900
X021714Y033400
X030234Y036880
T110
X040753Y015900
X039753Y015900
X034753Y015900
X043753Y015900
X033753Y015900
X036753Y015900
X045753Y015900
X032753Y015900
X042753Y015900
X041753Y015900
X037753Y015900
X038753Y015900
X044753Y015900
X046753Y015900
X031753Y015900
X035753Y015900
T111
X005794Y036400
X007854Y036400
X003734Y036400
X009914Y036400
T112
X035234Y043400
X035234Y003400
X001734Y001900
X076734Y001900
X076734Y013400
X076734Y043400
X001734Y043400
T113
X020164Y003210
X013744Y003210
T114
X022469Y040165
X021484Y044222
X027766Y040165
X030719Y040165
X017547Y039150
X025797Y039150
X021484Y039150
X025797Y044222
X024813Y040165
X019516Y040165
X029734Y039150
X016563Y040165
X017547Y044222
X029734Y044222
T115
X026234Y003400
T116
X007697Y039733
X005797Y040933
X007697Y042133
T117
X016734Y026400
X009734Y029400
X014734Y026400
X009734Y027400
T00
M30
