G04 MADE WITH FRITZING*
G04 WWW.FRITZING.ORG*
G04 DOUBLE SIDED*
G04 HOLES PLATED*
G04 CONTOUR ON CENTER OF CONTOUR VECTOR*
%ASAXBY*%
%FSLAX23Y23*%
%MOIN*%
%OFA0B0*%
%SFA1.0B1.0*%
%ADD10C,0.078000*%
%ADD11C,0.039370*%
%ADD12C,0.075000*%
%ADD13C,0.204725*%
%ADD14C,0.087000*%
%ADD15C,0.088000*%
%ADD16C,0.123000*%
%ADD17C,0.062992*%
%ADD18C,0.070361*%
%ADD19R,0.313889X0.225000*%
%ADD20R,0.013780X0.055118*%
%ADD21R,0.075000X0.075000*%
%ADD22R,0.123000X0.123000*%
%ADD23R,0.062992X0.062992*%
%ADD24C,0.048000*%
%ADD25C,0.024000*%
%ADD26C,0.016000*%
%ADD27C,0.032000*%
%ADD28C,0.020000*%
%ADD29R,0.001000X0.001000*%
%LNCOPPER1*%
G90*
G70*
G54D10*
X5230Y1891D03*
X14230Y441D03*
X14130Y441D03*
X14030Y441D03*
X13930Y441D03*
G54D11*
X304Y316D03*
X779Y316D03*
X9555Y1666D03*
X9105Y1591D03*
X5730Y1491D03*
X5655Y1441D03*
X6630Y1316D03*
X4830Y1316D03*
X2980Y1541D03*
X8655Y316D03*
X7930Y316D03*
X13455Y316D03*
X1305Y316D03*
X3130Y316D03*
X2155Y316D03*
X2680Y316D03*
X5930Y1641D03*
X6555Y1391D03*
X4905Y1391D03*
X5855Y1591D03*
G54D12*
X2630Y1241D03*
X2630Y941D03*
X2530Y1241D03*
X2530Y941D03*
X2430Y1241D03*
X2430Y941D03*
X2330Y1241D03*
X2330Y941D03*
X2230Y1241D03*
X2230Y941D03*
X2130Y1241D03*
X2130Y941D03*
X2030Y1241D03*
X2030Y941D03*
X1930Y1241D03*
X1930Y941D03*
X9030Y1391D03*
X9030Y1091D03*
X8930Y1391D03*
X8930Y1091D03*
X8830Y1391D03*
X8830Y1091D03*
X8730Y1391D03*
X8730Y1091D03*
X8630Y1391D03*
X8630Y1091D03*
X8530Y1391D03*
X8530Y1091D03*
X8430Y1391D03*
X8430Y1091D03*
X8330Y1391D03*
X8330Y1091D03*
G54D10*
X2630Y1891D03*
X6530Y941D03*
X6430Y941D03*
X6330Y941D03*
X6230Y941D03*
X6130Y941D03*
X6030Y941D03*
X5930Y941D03*
X5830Y941D03*
X5730Y941D03*
X5630Y941D03*
X5530Y941D03*
X5430Y941D03*
X5330Y941D03*
X5230Y941D03*
X5130Y941D03*
X5030Y941D03*
G54D13*
X14586Y166D03*
X14586Y1931D03*
X10380Y1930D03*
X7617Y166D03*
X3523Y166D03*
X163Y166D03*
X163Y1931D03*
X7619Y1933D03*
X3522Y1932D03*
G54D10*
X10130Y1991D03*
X10030Y1991D03*
X9930Y1991D03*
X9830Y1991D03*
X9730Y1991D03*
X9630Y1991D03*
X9530Y1991D03*
X9430Y1991D03*
X9330Y1991D03*
X4230Y1891D03*
X4330Y1891D03*
X4430Y1891D03*
X4530Y1891D03*
X5030Y1891D03*
X4930Y1891D03*
X4830Y1891D03*
G54D11*
X10610Y1711D03*
X10730Y1841D03*
X13580Y941D03*
G54D12*
X2991Y220D03*
X2814Y220D03*
G54D14*
X3041Y318D03*
X2765Y318D03*
G54D15*
X1530Y191D03*
X1727Y191D03*
X1924Y191D03*
G54D16*
X1406Y322D03*
X2048Y322D03*
G54D12*
X11653Y220D03*
X11476Y220D03*
G54D14*
X11702Y318D03*
X11426Y318D03*
G54D12*
X11102Y220D03*
X10925Y220D03*
G54D14*
X11151Y318D03*
X10875Y318D03*
G54D12*
X10550Y220D03*
X10373Y220D03*
G54D14*
X10600Y318D03*
X10324Y318D03*
G54D12*
X9999Y220D03*
X9822Y220D03*
G54D14*
X10049Y318D03*
X9773Y318D03*
G54D12*
X9448Y220D03*
X9271Y220D03*
G54D14*
X9497Y318D03*
X9222Y318D03*
G54D12*
X8306Y220D03*
X8129Y220D03*
G54D14*
X8356Y318D03*
X8080Y318D03*
G54D12*
X629Y220D03*
X452Y220D03*
G54D14*
X679Y318D03*
X403Y318D03*
G54D12*
X12204Y220D03*
X12027Y220D03*
G54D14*
X12253Y318D03*
X11977Y318D03*
G54D12*
X12755Y220D03*
X12578Y220D03*
G54D14*
X12805Y318D03*
X12529Y318D03*
G54D12*
X13306Y220D03*
X13129Y220D03*
G54D14*
X13356Y318D03*
X13080Y318D03*
G54D12*
X1730Y1791D03*
X1730Y1391D03*
G54D17*
X9389Y481D03*
X9291Y481D03*
X9940Y481D03*
X9842Y481D03*
X10491Y481D03*
X10393Y481D03*
X11043Y481D03*
X10944Y481D03*
X11594Y481D03*
X11495Y481D03*
X12145Y481D03*
X12047Y481D03*
X12696Y481D03*
X12598Y481D03*
X13247Y481D03*
X13149Y481D03*
X8267Y481D03*
X8168Y481D03*
G54D12*
X8055Y941D03*
X8055Y541D03*
X13030Y941D03*
X13030Y541D03*
X12480Y941D03*
X12480Y541D03*
X11930Y941D03*
X11930Y541D03*
X11380Y941D03*
X11380Y541D03*
X10830Y941D03*
X10830Y541D03*
X10280Y941D03*
X10280Y541D03*
X9730Y941D03*
X9730Y541D03*
X9030Y941D03*
X9030Y541D03*
X13380Y441D03*
X13380Y941D03*
X12830Y441D03*
X12830Y941D03*
X12280Y441D03*
X12280Y941D03*
X11730Y441D03*
X11730Y941D03*
X11180Y441D03*
X11180Y941D03*
X10630Y441D03*
X10630Y941D03*
X10080Y441D03*
X10080Y941D03*
X9530Y441D03*
X9530Y941D03*
X8430Y441D03*
X8430Y941D03*
X1130Y241D03*
X1130Y741D03*
X2280Y241D03*
X2280Y741D03*
X3180Y241D03*
X3180Y741D03*
X955Y241D03*
X955Y741D03*
X9930Y1791D03*
X9930Y1491D03*
X9830Y1791D03*
X9830Y1491D03*
X9730Y1791D03*
X9730Y1491D03*
X9630Y1791D03*
X9630Y1491D03*
X9530Y1791D03*
X9530Y1491D03*
X9430Y1791D03*
X9430Y1491D03*
X9330Y1791D03*
X9330Y1491D03*
X9230Y1791D03*
X9230Y1491D03*
X11180Y1491D03*
X11180Y1791D03*
X11280Y1491D03*
X11280Y1791D03*
X11380Y1491D03*
X11380Y1791D03*
X11480Y1491D03*
X11480Y1791D03*
X11580Y1491D03*
X11580Y1791D03*
X11680Y1491D03*
X11680Y1791D03*
X11780Y1491D03*
X11780Y1791D03*
X11880Y1491D03*
X11880Y1791D03*
G54D18*
X5430Y1141D03*
X5530Y1141D03*
X5630Y1141D03*
X5730Y1141D03*
X5830Y1141D03*
X5930Y1141D03*
X6030Y1141D03*
X6130Y1141D03*
X6230Y1141D03*
X6330Y1141D03*
X6430Y1141D03*
X6530Y1141D03*
X5430Y1741D03*
X5530Y1741D03*
X5630Y1741D03*
X5730Y1741D03*
X5830Y1741D03*
X5930Y1741D03*
X6030Y1741D03*
X6130Y1741D03*
X6230Y1741D03*
X6330Y1741D03*
X6430Y1741D03*
X6530Y1741D03*
G54D19*
X13830Y116D03*
G54D20*
X14046Y141D03*
X14149Y141D03*
X14072Y141D03*
X14098Y141D03*
X14123Y141D03*
G54D21*
X2630Y1241D03*
X9030Y1391D03*
G54D22*
X1406Y322D03*
X2048Y322D03*
G54D23*
X9389Y481D03*
X9940Y481D03*
X10491Y481D03*
X11043Y481D03*
X11594Y481D03*
X12145Y481D03*
X12696Y481D03*
X13247Y481D03*
X8267Y481D03*
G54D21*
X11180Y1491D03*
G54D24*
X2330Y981D02*
X2330Y1201D01*
D02*
X8930Y941D02*
X8930Y1051D01*
D02*
X8990Y941D02*
X8930Y941D01*
G54D25*
D02*
X5380Y1091D02*
X5409Y1120D01*
D02*
X4930Y1091D02*
X5380Y1091D01*
D02*
X4757Y1263D02*
X4930Y1091D01*
D02*
X4755Y1366D02*
X4757Y1263D01*
D02*
X5231Y1842D02*
X4755Y1366D01*
D02*
X5230Y1861D02*
X5231Y1842D01*
G54D26*
D02*
X14130Y366D02*
X14098Y244D01*
D02*
X14230Y366D02*
X14149Y244D01*
D02*
X14030Y366D02*
X14073Y244D01*
D02*
X13930Y366D02*
X14046Y244D01*
D02*
X14149Y244D02*
X14149Y163D01*
D02*
X14046Y244D02*
X14046Y163D01*
D02*
X14073Y244D02*
X14072Y163D01*
D02*
X14098Y244D02*
X14098Y163D01*
D02*
X14130Y416D02*
X14130Y366D01*
D02*
X14030Y416D02*
X14030Y366D01*
D02*
X13930Y416D02*
X13930Y366D01*
D02*
X14230Y416D02*
X14230Y366D01*
G54D25*
D02*
X13230Y291D02*
X13285Y239D01*
D02*
X13230Y341D02*
X13230Y291D01*
D02*
X13356Y425D02*
X13230Y341D01*
G54D24*
D02*
X1831Y2043D02*
X531Y691D01*
D02*
X13580Y440D02*
X13580Y911D01*
D02*
X13476Y337D02*
X13580Y440D01*
D02*
X780Y566D02*
X926Y713D01*
D02*
X780Y346D02*
X780Y566D01*
D02*
X4231Y1843D02*
X4128Y1739D01*
D02*
X4128Y1739D02*
X3380Y1739D01*
D02*
X3380Y1739D02*
X3080Y2039D01*
D02*
X3080Y2039D02*
X1831Y2043D01*
D02*
X531Y313D02*
X478Y250D01*
D02*
X531Y691D02*
X531Y313D01*
D02*
X4231Y1850D02*
X4231Y1843D01*
G54D25*
D02*
X1780Y191D02*
X1762Y191D01*
D02*
X1880Y91D02*
X1780Y191D01*
D02*
X2131Y91D02*
X1880Y91D01*
D02*
X2259Y221D02*
X2131Y91D01*
G54D24*
D02*
X2180Y743D02*
X2031Y891D01*
D02*
X2031Y891D02*
X2031Y901D01*
D02*
X2240Y742D02*
X2180Y743D01*
G54D25*
D02*
X8930Y1416D02*
X8930Y1419D01*
D02*
X9091Y1577D02*
X8930Y1416D01*
D02*
X8655Y1666D02*
X8430Y1441D01*
D02*
X8430Y1441D02*
X8430Y1419D01*
D02*
X9536Y1666D02*
X8655Y1666D01*
D02*
X2966Y1554D02*
X2651Y1870D01*
D02*
X6611Y1316D02*
X4848Y1316D01*
D02*
X6030Y1441D02*
X6309Y1720D01*
D02*
X5673Y1441D02*
X6030Y1441D01*
D02*
X5980Y1491D02*
X6209Y1720D01*
D02*
X5748Y1491D02*
X5980Y1491D01*
D02*
X1831Y1891D02*
X1750Y1811D01*
D02*
X2599Y1891D02*
X1831Y1891D01*
D02*
X3380Y816D02*
X3380Y441D01*
D02*
X2431Y991D02*
X2480Y1039D01*
D02*
X3380Y441D02*
X3200Y261D01*
D02*
X3155Y1041D02*
X3380Y816D01*
D02*
X2480Y1039D02*
X3155Y1041D01*
D02*
X2431Y969D02*
X2431Y991D01*
G54D24*
D02*
X2659Y338D02*
X2307Y712D01*
D02*
X1305Y539D02*
X1156Y711D01*
D02*
X1305Y346D02*
X1305Y539D01*
D02*
X8655Y691D02*
X8655Y346D01*
D02*
X8456Y911D02*
X8655Y691D01*
D02*
X5480Y2091D02*
X4880Y2091D01*
D02*
X5531Y2043D02*
X5480Y2091D01*
D02*
X4531Y1739D02*
X4431Y1743D01*
D02*
X4880Y2091D02*
X4531Y1739D01*
D02*
X4431Y1743D02*
X4331Y1839D01*
D02*
X4331Y1839D02*
X4331Y1850D01*
D02*
X5530Y1781D02*
X5531Y2043D01*
D02*
X3880Y1391D02*
X1769Y1391D01*
D02*
X4328Y1839D02*
X3880Y1391D01*
D02*
X4328Y1850D02*
X4328Y1839D01*
D02*
X2169Y1241D02*
X2190Y1241D01*
D02*
X2269Y1241D02*
X2290Y1241D01*
D02*
X2369Y1241D02*
X2390Y1241D01*
G54D25*
D02*
X4930Y1367D02*
X4918Y1378D01*
D02*
X6530Y1367D02*
X4930Y1367D01*
D02*
X6541Y1378D02*
X6530Y1367D01*
D02*
X5943Y1654D02*
X6009Y1720D01*
G54D24*
D02*
X2842Y248D02*
X3280Y691D01*
D02*
X1931Y1291D02*
X1931Y1281D01*
D02*
X2031Y1391D02*
X2131Y1291D01*
D02*
X2131Y1291D02*
X2131Y1281D01*
D02*
X1769Y1391D02*
X2031Y1391D01*
D02*
X1831Y1391D02*
X1931Y1291D01*
D02*
X1769Y1391D02*
X1831Y1391D01*
D02*
X2380Y743D02*
X2531Y891D01*
D02*
X2531Y891D02*
X2531Y901D01*
D02*
X2319Y742D02*
X2380Y743D01*
D02*
X3130Y941D02*
X2669Y941D01*
D02*
X3280Y791D02*
X3130Y941D01*
D02*
X3280Y691D02*
X3280Y791D01*
G54D25*
D02*
X5980Y1591D02*
X6109Y1720D01*
D02*
X5873Y1591D02*
X5980Y1591D01*
G54D24*
D02*
X8055Y1115D02*
X8301Y1363D01*
D02*
X8055Y981D02*
X8055Y1115D01*
G54D27*
D02*
X9328Y291D02*
X9328Y339D01*
D02*
X9328Y339D02*
X9180Y465D01*
D02*
X9180Y465D02*
X9180Y940D01*
D02*
X9180Y940D02*
X9054Y1067D01*
D02*
X9292Y246D02*
X9328Y291D01*
D02*
X8004Y440D02*
X7504Y942D01*
D02*
X8180Y366D02*
X8004Y440D01*
D02*
X8180Y291D02*
X8180Y366D01*
D02*
X7504Y942D02*
X6565Y941D01*
D02*
X8149Y248D02*
X8180Y291D01*
G54D24*
D02*
X12869Y941D02*
X12990Y941D01*
D02*
X11769Y941D02*
X11890Y941D01*
D02*
X8094Y941D02*
X8390Y941D01*
D02*
X8469Y941D02*
X8990Y941D01*
G54D25*
D02*
X12734Y239D02*
X12680Y291D01*
G54D24*
D02*
X12319Y941D02*
X12440Y941D01*
G54D25*
D02*
X12680Y291D02*
X12680Y341D01*
D02*
X12680Y341D02*
X12806Y425D01*
D02*
X10480Y291D02*
X10530Y240D01*
D02*
X10480Y341D02*
X10480Y291D01*
D02*
X10606Y425D02*
X10480Y341D01*
D02*
X11030Y291D02*
X11081Y240D01*
D02*
X11030Y341D02*
X11030Y291D01*
D02*
X11156Y425D02*
X11030Y341D01*
D02*
X11580Y291D02*
X11632Y240D01*
D02*
X11580Y341D02*
X11580Y291D01*
D02*
X11706Y425D02*
X11580Y341D01*
D02*
X12130Y291D02*
X12183Y240D01*
D02*
X12130Y341D02*
X12130Y291D01*
D02*
X12256Y425D02*
X12130Y341D01*
D02*
X9380Y291D02*
X9380Y341D01*
D02*
X9380Y341D02*
X9506Y425D01*
D02*
X9428Y240D02*
X9380Y291D01*
D02*
X9930Y291D02*
X9979Y240D01*
D02*
X9930Y341D02*
X9930Y291D01*
D02*
X10056Y425D02*
X9930Y341D01*
G54D24*
D02*
X4455Y2016D02*
X4530Y1941D01*
D02*
X4530Y1941D02*
X4530Y1932D01*
D02*
X4305Y2016D02*
X4455Y2016D01*
D02*
X4230Y1941D02*
X4305Y2016D01*
D02*
X4230Y1932D02*
X4230Y1941D01*
G54D25*
D02*
X5531Y1091D02*
X5531Y1112D01*
D02*
X4880Y1041D02*
X5480Y1043D01*
D02*
X5480Y1043D02*
X5531Y1091D01*
D02*
X4680Y1241D02*
X4880Y1041D01*
D02*
X4680Y1591D02*
X4680Y1241D01*
D02*
X4930Y1841D02*
X4680Y1591D01*
D02*
X4930Y1861D02*
X4930Y1841D01*
G54D27*
D02*
X6430Y841D02*
X6330Y841D01*
D02*
X6330Y841D02*
X6255Y916D01*
D02*
X6504Y916D02*
X6430Y841D01*
G54D25*
D02*
X5843Y968D02*
X5917Y1115D01*
D02*
X10705Y2017D02*
X10080Y1341D01*
D02*
X10680Y1891D02*
X11280Y1891D01*
D02*
X11454Y2017D02*
X10705Y2017D01*
D02*
X10080Y1341D02*
X9580Y1341D01*
D02*
X9580Y1341D02*
X9450Y1471D01*
D02*
X10130Y1291D02*
X10680Y1891D01*
D02*
X9430Y1291D02*
X10130Y1291D01*
D02*
X9250Y1471D02*
X9430Y1291D01*
D02*
X11280Y1891D02*
X11359Y1811D01*
D02*
X11659Y1811D02*
X11454Y2017D01*
G54D24*
D02*
X5580Y2091D02*
X5528Y2039D01*
D02*
X5528Y2039D02*
X5529Y1781D01*
D02*
X6880Y2091D02*
X5580Y2091D01*
D02*
X8026Y969D02*
X6880Y2091D01*
G54D27*
D02*
X9430Y1591D02*
X9354Y1515D01*
D02*
X9905Y1515D02*
X9830Y1591D01*
D02*
X9830Y1591D02*
X9430Y1591D01*
G54D25*
D02*
X10717Y1827D02*
X10622Y1725D01*
G54D27*
D02*
X10020Y1391D02*
X9720Y1391D01*
D02*
X10120Y1491D02*
X10020Y1391D01*
D02*
X9720Y1391D02*
X9652Y1465D01*
D02*
X10129Y1955D02*
X10120Y1491D01*
G54D24*
D02*
X10131Y2040D02*
X10130Y2032D01*
D02*
X10080Y2091D02*
X10131Y2040D01*
D02*
X9280Y2091D02*
X10080Y2091D01*
D02*
X9231Y2040D02*
X9280Y2091D01*
D02*
X9230Y1831D02*
X9231Y2040D01*
D02*
X9231Y2040D02*
X9230Y1831D01*
D02*
X9180Y2091D02*
X9231Y2040D01*
D02*
X6880Y2091D02*
X9180Y2091D01*
D02*
X8026Y969D02*
X6880Y2091D01*
G54D25*
D02*
X6730Y2013D02*
X6055Y2016D01*
D02*
X5830Y1791D02*
X5830Y1770D01*
D02*
X6055Y2016D02*
X5830Y1791D01*
D02*
X8248Y500D02*
X6730Y2013D01*
G54D24*
D02*
X1731Y891D02*
X1730Y1351D01*
D02*
X1880Y739D02*
X1731Y891D01*
D02*
X1169Y741D02*
X1580Y739D01*
D02*
X1731Y891D02*
X1730Y1351D01*
D02*
X1580Y739D02*
X1731Y891D01*
D02*
X2319Y741D02*
X3140Y741D01*
D02*
X994Y741D02*
X1090Y741D01*
D02*
X2240Y741D02*
X1880Y739D01*
G54D25*
D02*
X9380Y941D02*
X9680Y1241D01*
D02*
X10980Y1141D02*
X10707Y1141D01*
D02*
X10707Y1141D02*
X10480Y913D01*
D02*
X11280Y1441D02*
X10980Y1141D01*
D02*
X11280Y1462D02*
X11280Y1441D01*
D02*
X10480Y913D02*
X10491Y508D01*
D02*
X10930Y1191D02*
X10207Y1191D01*
D02*
X10207Y1191D02*
X9930Y913D01*
D02*
X11180Y1441D02*
X10930Y1191D01*
D02*
X11180Y1462D02*
X11180Y1441D01*
D02*
X9930Y913D02*
X9939Y508D01*
D02*
X9388Y508D02*
X9380Y941D01*
D02*
X11280Y1741D02*
X11280Y1762D01*
D02*
X10780Y1241D02*
X11280Y1741D01*
D02*
X9680Y1241D02*
X10780Y1241D01*
D02*
X11380Y1441D02*
X11380Y1462D01*
D02*
X11030Y1091D02*
X11380Y1441D01*
D02*
X11480Y1441D02*
X11480Y1462D01*
D02*
X11593Y508D02*
X11580Y1341D01*
D02*
X11580Y1341D02*
X11480Y1441D01*
D02*
X11042Y508D02*
X11030Y1091D01*
D02*
X11830Y1391D02*
X12730Y1391D01*
D02*
X12730Y1391D02*
X13257Y863D01*
D02*
X11780Y1441D02*
X11830Y1391D01*
D02*
X12257Y1341D02*
X12680Y913D01*
D02*
X11780Y1341D02*
X12257Y1341D01*
D02*
X11680Y1441D02*
X11780Y1341D01*
D02*
X11880Y1141D02*
X12157Y863D01*
D02*
X11580Y1441D02*
X11880Y1141D01*
D02*
X11680Y1462D02*
X11680Y1441D01*
D02*
X12680Y913D02*
X12695Y508D01*
D02*
X11780Y1462D02*
X11780Y1441D01*
D02*
X13257Y863D02*
X13248Y508D01*
D02*
X11580Y1462D02*
X11580Y1441D01*
D02*
X12157Y863D02*
X12146Y508D01*
G54D24*
D02*
X13055Y1491D02*
X11919Y1491D01*
D02*
X13559Y963D02*
X13055Y1491D01*
G54D25*
D02*
X8255Y366D02*
X8403Y430D01*
D02*
X8255Y291D02*
X8255Y366D01*
D02*
X8290Y243D02*
X8255Y291D01*
D02*
X1180Y191D02*
X1150Y221D01*
D02*
X1494Y191D02*
X1180Y191D01*
G54D27*
D02*
X11780Y1591D02*
X11855Y1515D01*
D02*
X11504Y1767D02*
X11680Y1591D01*
D02*
X11680Y1591D02*
X11780Y1591D01*
G54D28*
X9957Y1763D02*
X9902Y1763D01*
X9902Y1818D01*
X9957Y1818D01*
X9957Y1763D01*
D02*
G54D29*
X415Y2026D02*
X427Y2026D01*
X456Y2026D02*
X468Y2026D01*
X499Y2026D02*
X544Y2026D01*
X580Y2026D02*
X601Y2026D01*
X660Y2026D02*
X705Y2026D01*
X736Y2026D02*
X774Y2026D01*
X1062Y2026D02*
X1062Y2026D01*
X1138Y2026D02*
X1150Y2026D01*
X1179Y2026D02*
X1191Y2026D01*
X414Y2025D02*
X428Y2025D01*
X455Y2025D02*
X469Y2025D01*
X497Y2025D02*
X546Y2025D01*
X577Y2025D02*
X606Y2025D01*
X658Y2025D02*
X707Y2025D01*
X736Y2025D02*
X779Y2025D01*
X1059Y2025D02*
X1065Y2025D01*
X1137Y2025D02*
X1151Y2025D01*
X1178Y2025D02*
X1192Y2025D01*
X414Y2024D02*
X429Y2024D01*
X454Y2024D02*
X469Y2024D01*
X496Y2024D02*
X548Y2024D01*
X576Y2024D02*
X608Y2024D01*
X657Y2024D02*
X708Y2024D01*
X736Y2024D02*
X781Y2024D01*
X1058Y2024D02*
X1066Y2024D01*
X1137Y2024D02*
X1152Y2024D01*
X1177Y2024D02*
X1192Y2024D01*
X414Y2023D02*
X429Y2023D01*
X453Y2023D02*
X469Y2023D01*
X495Y2023D02*
X548Y2023D01*
X576Y2023D02*
X610Y2023D01*
X656Y2023D02*
X709Y2023D01*
X736Y2023D02*
X783Y2023D01*
X1058Y2023D02*
X1066Y2023D01*
X1137Y2023D02*
X1152Y2023D01*
X1176Y2023D02*
X1192Y2023D01*
X414Y2022D02*
X430Y2022D01*
X453Y2022D02*
X469Y2022D01*
X495Y2022D02*
X549Y2022D01*
X575Y2022D02*
X611Y2022D01*
X656Y2022D02*
X709Y2022D01*
X736Y2022D02*
X784Y2022D01*
X1057Y2022D02*
X1067Y2022D01*
X1137Y2022D02*
X1153Y2022D01*
X1176Y2022D02*
X1192Y2022D01*
X414Y2021D02*
X431Y2021D01*
X452Y2021D02*
X469Y2021D01*
X495Y2021D02*
X549Y2021D01*
X575Y2021D02*
X612Y2021D01*
X655Y2021D02*
X710Y2021D01*
X736Y2021D02*
X785Y2021D01*
X911Y2021D02*
X914Y2021D01*
X1057Y2021D02*
X1067Y2021D01*
X1137Y2021D02*
X1154Y2021D01*
X1175Y2021D02*
X1192Y2021D01*
X1312Y2021D02*
X1316Y2021D01*
X414Y2020D02*
X432Y2020D01*
X451Y2020D02*
X469Y2020D01*
X495Y2020D02*
X549Y2020D01*
X575Y2020D02*
X613Y2020D01*
X655Y2020D02*
X710Y2020D01*
X736Y2020D02*
X786Y2020D01*
X909Y2020D02*
X915Y2020D01*
X1057Y2020D02*
X1067Y2020D01*
X1137Y2020D02*
X1155Y2020D01*
X1174Y2020D02*
X1192Y2020D01*
X1311Y2020D02*
X1317Y2020D01*
X414Y2019D02*
X432Y2019D01*
X451Y2019D02*
X469Y2019D01*
X495Y2019D02*
X549Y2019D01*
X575Y2019D02*
X614Y2019D01*
X656Y2019D02*
X709Y2019D01*
X736Y2019D02*
X787Y2019D01*
X908Y2019D02*
X916Y2019D01*
X1057Y2019D02*
X1067Y2019D01*
X1137Y2019D02*
X1155Y2019D01*
X1174Y2019D02*
X1192Y2019D01*
X1310Y2019D02*
X1318Y2019D01*
X414Y2018D02*
X433Y2018D01*
X450Y2018D02*
X469Y2018D01*
X495Y2018D02*
X548Y2018D01*
X576Y2018D02*
X614Y2018D01*
X656Y2018D02*
X709Y2018D01*
X736Y2018D02*
X787Y2018D01*
X908Y2018D02*
X917Y2018D01*
X1057Y2018D02*
X1067Y2018D01*
X1137Y2018D02*
X1156Y2018D01*
X1173Y2018D02*
X1192Y2018D01*
X1309Y2018D02*
X1319Y2018D01*
X414Y2017D02*
X434Y2017D01*
X449Y2017D02*
X469Y2017D01*
X496Y2017D02*
X548Y2017D01*
X576Y2017D02*
X615Y2017D01*
X657Y2017D02*
X708Y2017D01*
X736Y2017D02*
X788Y2017D01*
X908Y2017D02*
X917Y2017D01*
X1057Y2017D02*
X1067Y2017D01*
X1137Y2017D02*
X1157Y2017D01*
X1172Y2017D02*
X1192Y2017D01*
X1309Y2017D02*
X1319Y2017D01*
X414Y2016D02*
X434Y2016D01*
X449Y2016D02*
X469Y2016D01*
X497Y2016D02*
X547Y2016D01*
X577Y2016D02*
X616Y2016D01*
X658Y2016D02*
X707Y2016D01*
X736Y2016D02*
X789Y2016D01*
X907Y2016D02*
X917Y2016D01*
X1057Y2016D02*
X1067Y2016D01*
X1137Y2016D02*
X1157Y2016D01*
X1171Y2016D02*
X1192Y2016D01*
X1309Y2016D02*
X1319Y2016D01*
X414Y2015D02*
X435Y2015D01*
X448Y2015D02*
X469Y2015D01*
X499Y2015D02*
X545Y2015D01*
X579Y2015D02*
X616Y2015D01*
X660Y2015D02*
X705Y2015D01*
X736Y2015D02*
X789Y2015D01*
X907Y2015D02*
X918Y2015D01*
X1057Y2015D02*
X1067Y2015D01*
X1137Y2015D02*
X1158Y2015D01*
X1171Y2015D02*
X1192Y2015D01*
X1309Y2015D02*
X1319Y2015D01*
X414Y2014D02*
X436Y2014D01*
X447Y2014D02*
X469Y2014D01*
X517Y2014D02*
X527Y2014D01*
X586Y2014D02*
X596Y2014D01*
X604Y2014D02*
X617Y2014D01*
X677Y2014D02*
X688Y2014D01*
X736Y2014D02*
X746Y2014D01*
X777Y2014D02*
X789Y2014D01*
X907Y2014D02*
X918Y2014D01*
X1057Y2014D02*
X1067Y2014D01*
X1137Y2014D02*
X1159Y2014D01*
X1170Y2014D02*
X1192Y2014D01*
X1309Y2014D02*
X1319Y2014D01*
X414Y2013D02*
X437Y2013D01*
X446Y2013D02*
X469Y2013D01*
X517Y2013D02*
X527Y2013D01*
X586Y2013D02*
X596Y2013D01*
X605Y2013D02*
X617Y2013D01*
X677Y2013D02*
X688Y2013D01*
X736Y2013D02*
X746Y2013D01*
X778Y2013D02*
X790Y2013D01*
X907Y2013D02*
X918Y2013D01*
X1057Y2013D02*
X1067Y2013D01*
X1137Y2013D02*
X1159Y2013D01*
X1169Y2013D02*
X1192Y2013D01*
X1309Y2013D02*
X1319Y2013D01*
X414Y2012D02*
X437Y2012D01*
X446Y2012D02*
X469Y2012D01*
X517Y2012D02*
X527Y2012D01*
X586Y2012D02*
X596Y2012D01*
X606Y2012D02*
X618Y2012D01*
X677Y2012D02*
X688Y2012D01*
X736Y2012D02*
X746Y2012D01*
X779Y2012D02*
X790Y2012D01*
X907Y2012D02*
X918Y2012D01*
X1057Y2012D02*
X1067Y2012D01*
X1137Y2012D02*
X1160Y2012D01*
X1169Y2012D02*
X1192Y2012D01*
X1309Y2012D02*
X1319Y2012D01*
X414Y2011D02*
X438Y2011D01*
X445Y2011D02*
X469Y2011D01*
X517Y2011D02*
X527Y2011D01*
X586Y2011D02*
X596Y2011D01*
X606Y2011D02*
X618Y2011D01*
X677Y2011D02*
X688Y2011D01*
X736Y2011D02*
X746Y2011D01*
X779Y2011D02*
X790Y2011D01*
X907Y2011D02*
X918Y2011D01*
X1057Y2011D02*
X1067Y2011D01*
X1137Y2011D02*
X1161Y2011D01*
X1168Y2011D02*
X1192Y2011D01*
X1309Y2011D02*
X1319Y2011D01*
X414Y2010D02*
X439Y2010D01*
X444Y2010D02*
X469Y2010D01*
X517Y2010D02*
X527Y2010D01*
X586Y2010D02*
X596Y2010D01*
X607Y2010D02*
X619Y2010D01*
X677Y2010D02*
X688Y2010D01*
X736Y2010D02*
X746Y2010D01*
X780Y2010D02*
X790Y2010D01*
X907Y2010D02*
X918Y2010D01*
X1057Y2010D02*
X1067Y2010D01*
X1137Y2010D02*
X1162Y2010D01*
X1167Y2010D02*
X1192Y2010D01*
X1309Y2010D02*
X1319Y2010D01*
X414Y2009D02*
X425Y2009D01*
X427Y2009D02*
X439Y2009D01*
X444Y2009D02*
X456Y2009D01*
X458Y2009D02*
X469Y2009D01*
X517Y2009D02*
X527Y2009D01*
X586Y2009D02*
X596Y2009D01*
X607Y2009D02*
X619Y2009D01*
X677Y2009D02*
X688Y2009D01*
X736Y2009D02*
X746Y2009D01*
X780Y2009D02*
X790Y2009D01*
X907Y2009D02*
X918Y2009D01*
X1057Y2009D02*
X1067Y2009D01*
X1137Y2009D02*
X1147Y2009D01*
X1149Y2009D02*
X1162Y2009D01*
X1167Y2009D02*
X1179Y2009D01*
X1181Y2009D02*
X1192Y2009D01*
X1309Y2009D02*
X1319Y2009D01*
X414Y2008D02*
X425Y2008D01*
X427Y2008D02*
X440Y2008D01*
X443Y2008D02*
X456Y2008D01*
X458Y2008D02*
X469Y2008D01*
X517Y2008D02*
X527Y2008D01*
X586Y2008D02*
X596Y2008D01*
X608Y2008D02*
X620Y2008D01*
X677Y2008D02*
X688Y2008D01*
X736Y2008D02*
X746Y2008D01*
X780Y2008D02*
X790Y2008D01*
X907Y2008D02*
X918Y2008D01*
X1057Y2008D02*
X1067Y2008D01*
X1137Y2008D02*
X1147Y2008D01*
X1150Y2008D02*
X1163Y2008D01*
X1166Y2008D02*
X1179Y2008D01*
X1181Y2008D02*
X1192Y2008D01*
X1309Y2008D02*
X1319Y2008D01*
X414Y2007D02*
X425Y2007D01*
X428Y2007D02*
X455Y2007D01*
X458Y2007D02*
X469Y2007D01*
X517Y2007D02*
X527Y2007D01*
X586Y2007D02*
X596Y2007D01*
X608Y2007D02*
X620Y2007D01*
X677Y2007D02*
X688Y2007D01*
X736Y2007D02*
X746Y2007D01*
X780Y2007D02*
X790Y2007D01*
X907Y2007D02*
X918Y2007D01*
X1057Y2007D02*
X1067Y2007D01*
X1137Y2007D02*
X1147Y2007D01*
X1151Y2007D02*
X1178Y2007D01*
X1181Y2007D02*
X1192Y2007D01*
X1309Y2007D02*
X1319Y2007D01*
X414Y2006D02*
X425Y2006D01*
X429Y2006D02*
X454Y2006D01*
X458Y2006D02*
X469Y2006D01*
X517Y2006D02*
X527Y2006D01*
X586Y2006D02*
X596Y2006D01*
X609Y2006D02*
X621Y2006D01*
X677Y2006D02*
X688Y2006D01*
X736Y2006D02*
X746Y2006D01*
X780Y2006D02*
X790Y2006D01*
X907Y2006D02*
X918Y2006D01*
X1057Y2006D02*
X1067Y2006D01*
X1137Y2006D02*
X1147Y2006D01*
X1152Y2006D02*
X1177Y2006D01*
X1181Y2006D02*
X1192Y2006D01*
X1309Y2006D02*
X1319Y2006D01*
X414Y2005D02*
X425Y2005D01*
X429Y2005D02*
X453Y2005D01*
X458Y2005D02*
X469Y2005D01*
X517Y2005D02*
X527Y2005D01*
X586Y2005D02*
X596Y2005D01*
X610Y2005D02*
X621Y2005D01*
X677Y2005D02*
X688Y2005D01*
X736Y2005D02*
X746Y2005D01*
X780Y2005D02*
X790Y2005D01*
X907Y2005D02*
X918Y2005D01*
X1057Y2005D02*
X1067Y2005D01*
X1137Y2005D02*
X1147Y2005D01*
X1152Y2005D02*
X1176Y2005D01*
X1181Y2005D02*
X1192Y2005D01*
X1309Y2005D02*
X1319Y2005D01*
X414Y2004D02*
X425Y2004D01*
X430Y2004D02*
X453Y2004D01*
X458Y2004D02*
X469Y2004D01*
X517Y2004D02*
X527Y2004D01*
X586Y2004D02*
X596Y2004D01*
X610Y2004D02*
X622Y2004D01*
X677Y2004D02*
X688Y2004D01*
X736Y2004D02*
X746Y2004D01*
X780Y2004D02*
X790Y2004D01*
X907Y2004D02*
X918Y2004D01*
X1057Y2004D02*
X1067Y2004D01*
X1137Y2004D02*
X1147Y2004D01*
X1153Y2004D02*
X1176Y2004D01*
X1181Y2004D02*
X1192Y2004D01*
X1309Y2004D02*
X1319Y2004D01*
X414Y2003D02*
X425Y2003D01*
X431Y2003D02*
X452Y2003D01*
X458Y2003D02*
X469Y2003D01*
X517Y2003D02*
X527Y2003D01*
X586Y2003D02*
X596Y2003D01*
X611Y2003D02*
X622Y2003D01*
X677Y2003D02*
X688Y2003D01*
X736Y2003D02*
X746Y2003D01*
X780Y2003D02*
X790Y2003D01*
X907Y2003D02*
X918Y2003D01*
X1057Y2003D02*
X1067Y2003D01*
X1137Y2003D02*
X1147Y2003D01*
X1154Y2003D02*
X1175Y2003D01*
X1181Y2003D02*
X1192Y2003D01*
X1309Y2003D02*
X1319Y2003D01*
X414Y2002D02*
X425Y2002D01*
X431Y2002D02*
X451Y2002D01*
X458Y2002D02*
X469Y2002D01*
X517Y2002D02*
X527Y2002D01*
X586Y2002D02*
X596Y2002D01*
X611Y2002D02*
X623Y2002D01*
X677Y2002D02*
X688Y2002D01*
X736Y2002D02*
X746Y2002D01*
X780Y2002D02*
X790Y2002D01*
X830Y2002D02*
X856Y2002D01*
X900Y2002D02*
X942Y2002D01*
X999Y2002D02*
X1028Y2002D01*
X1057Y2002D02*
X1067Y2002D01*
X1084Y2002D02*
X1097Y2002D01*
X1137Y2002D02*
X1147Y2002D01*
X1154Y2002D02*
X1174Y2002D01*
X1181Y2002D02*
X1192Y2002D01*
X1232Y2002D02*
X1258Y2002D01*
X1301Y2002D02*
X1343Y2002D01*
X1395Y2002D02*
X1416Y2002D01*
X414Y2001D02*
X425Y2001D01*
X432Y2001D02*
X451Y2001D01*
X458Y2001D02*
X469Y2001D01*
X517Y2001D02*
X527Y2001D01*
X586Y2001D02*
X596Y2001D01*
X612Y2001D02*
X623Y2001D01*
X677Y2001D02*
X688Y2001D01*
X736Y2001D02*
X746Y2001D01*
X780Y2001D02*
X790Y2001D01*
X829Y2001D02*
X859Y2001D01*
X898Y2001D02*
X943Y2001D01*
X996Y2001D02*
X1029Y2001D01*
X1057Y2001D02*
X1067Y2001D01*
X1081Y2001D02*
X1100Y2001D01*
X1137Y2001D02*
X1147Y2001D01*
X1155Y2001D02*
X1174Y2001D01*
X1181Y2001D02*
X1192Y2001D01*
X1230Y2001D02*
X1261Y2001D01*
X1300Y2001D02*
X1345Y2001D01*
X1392Y2001D02*
X1419Y2001D01*
X414Y2000D02*
X425Y2000D01*
X433Y2000D02*
X450Y2000D01*
X458Y2000D02*
X469Y2000D01*
X517Y2000D02*
X527Y2000D01*
X586Y2000D02*
X596Y2000D01*
X612Y2000D02*
X624Y2000D01*
X677Y2000D02*
X688Y2000D01*
X736Y2000D02*
X746Y2000D01*
X780Y2000D02*
X790Y2000D01*
X828Y2000D02*
X861Y2000D01*
X897Y2000D02*
X944Y2000D01*
X994Y2000D02*
X1030Y2000D01*
X1057Y2000D02*
X1067Y2000D01*
X1079Y2000D02*
X1102Y2000D01*
X1137Y2000D02*
X1147Y2000D01*
X1156Y2000D02*
X1173Y2000D01*
X1181Y2000D02*
X1192Y2000D01*
X1230Y2000D02*
X1263Y2000D01*
X1299Y2000D02*
X1346Y2000D01*
X1390Y2000D02*
X1421Y2000D01*
X414Y1999D02*
X425Y1999D01*
X434Y1999D02*
X449Y1999D01*
X458Y1999D02*
X469Y1999D01*
X517Y1999D02*
X527Y1999D01*
X586Y1999D02*
X596Y1999D01*
X613Y1999D02*
X624Y1999D01*
X677Y1999D02*
X688Y1999D01*
X736Y1999D02*
X746Y1999D01*
X780Y1999D02*
X790Y1999D01*
X827Y1999D02*
X862Y1999D01*
X897Y1999D02*
X944Y1999D01*
X992Y1999D02*
X1030Y1999D01*
X1057Y1999D02*
X1067Y1999D01*
X1077Y1999D02*
X1103Y1999D01*
X1137Y1999D02*
X1147Y1999D01*
X1157Y1999D02*
X1172Y1999D01*
X1181Y1999D02*
X1192Y1999D01*
X1229Y1999D02*
X1264Y1999D01*
X1298Y1999D02*
X1346Y1999D01*
X1389Y1999D02*
X1422Y1999D01*
X414Y1998D02*
X425Y1998D01*
X434Y1998D02*
X449Y1998D01*
X458Y1998D02*
X469Y1998D01*
X517Y1998D02*
X527Y1998D01*
X586Y1998D02*
X596Y1998D01*
X613Y1998D02*
X625Y1998D01*
X677Y1998D02*
X688Y1998D01*
X736Y1998D02*
X746Y1998D01*
X780Y1998D02*
X790Y1998D01*
X827Y1998D02*
X864Y1998D01*
X896Y1998D02*
X945Y1998D01*
X991Y1998D02*
X1031Y1998D01*
X1057Y1998D02*
X1067Y1998D01*
X1076Y1998D02*
X1105Y1998D01*
X1137Y1998D02*
X1147Y1998D01*
X1157Y1998D02*
X1172Y1998D01*
X1181Y1998D02*
X1192Y1998D01*
X1229Y1998D02*
X1265Y1998D01*
X1298Y1998D02*
X1346Y1998D01*
X1388Y1998D02*
X1423Y1998D01*
X414Y1997D02*
X425Y1997D01*
X435Y1997D02*
X448Y1997D01*
X458Y1997D02*
X469Y1997D01*
X517Y1997D02*
X527Y1997D01*
X586Y1997D02*
X596Y1997D01*
X614Y1997D02*
X625Y1997D01*
X677Y1997D02*
X688Y1997D01*
X736Y1997D02*
X746Y1997D01*
X780Y1997D02*
X790Y1997D01*
X827Y1997D02*
X864Y1997D01*
X896Y1997D02*
X945Y1997D01*
X990Y1997D02*
X1031Y1997D01*
X1057Y1997D02*
X1067Y1997D01*
X1074Y1997D02*
X1105Y1997D01*
X1137Y1997D02*
X1147Y1997D01*
X1158Y1997D02*
X1171Y1997D01*
X1181Y1997D02*
X1192Y1997D01*
X1229Y1997D02*
X1266Y1997D01*
X1298Y1997D02*
X1347Y1997D01*
X1386Y1997D02*
X1424Y1997D01*
X414Y1996D02*
X425Y1996D01*
X436Y1996D02*
X447Y1996D01*
X458Y1996D02*
X469Y1996D01*
X517Y1996D02*
X527Y1996D01*
X586Y1996D02*
X596Y1996D01*
X614Y1996D02*
X626Y1996D01*
X677Y1996D02*
X688Y1996D01*
X736Y1996D02*
X746Y1996D01*
X780Y1996D02*
X790Y1996D01*
X827Y1996D02*
X865Y1996D01*
X896Y1996D02*
X945Y1996D01*
X989Y1996D02*
X1031Y1996D01*
X1057Y1996D02*
X1067Y1996D01*
X1073Y1996D02*
X1106Y1996D01*
X1137Y1996D02*
X1147Y1996D01*
X1159Y1996D02*
X1170Y1996D01*
X1181Y1996D02*
X1192Y1996D01*
X1229Y1996D02*
X1267Y1996D01*
X1298Y1996D02*
X1346Y1996D01*
X1385Y1996D02*
X1426Y1996D01*
X414Y1995D02*
X425Y1995D01*
X436Y1995D02*
X447Y1995D01*
X458Y1995D02*
X469Y1995D01*
X517Y1995D02*
X527Y1995D01*
X586Y1995D02*
X596Y1995D01*
X615Y1995D02*
X626Y1995D01*
X677Y1995D02*
X688Y1995D01*
X736Y1995D02*
X746Y1995D01*
X780Y1995D02*
X790Y1995D01*
X827Y1995D02*
X866Y1995D01*
X897Y1995D02*
X945Y1995D01*
X988Y1995D02*
X1031Y1995D01*
X1057Y1995D02*
X1067Y1995D01*
X1071Y1995D02*
X1107Y1995D01*
X1137Y1995D02*
X1147Y1995D01*
X1159Y1995D02*
X1170Y1995D01*
X1181Y1995D02*
X1192Y1995D01*
X1229Y1995D02*
X1268Y1995D01*
X1298Y1995D02*
X1346Y1995D01*
X1384Y1995D02*
X1427Y1995D01*
X414Y1994D02*
X425Y1994D01*
X436Y1994D02*
X447Y1994D01*
X458Y1994D02*
X469Y1994D01*
X517Y1994D02*
X527Y1994D01*
X586Y1994D02*
X596Y1994D01*
X615Y1994D02*
X627Y1994D01*
X677Y1994D02*
X688Y1994D01*
X736Y1994D02*
X746Y1994D01*
X780Y1994D02*
X790Y1994D01*
X828Y1994D02*
X867Y1994D01*
X897Y1994D02*
X944Y1994D01*
X986Y1994D02*
X1030Y1994D01*
X1057Y1994D02*
X1067Y1994D01*
X1070Y1994D02*
X1108Y1994D01*
X1137Y1994D02*
X1147Y1994D01*
X1159Y1994D02*
X1169Y1994D01*
X1181Y1994D02*
X1192Y1994D01*
X1229Y1994D02*
X1268Y1994D01*
X1299Y1994D02*
X1346Y1994D01*
X1383Y1994D02*
X1428Y1994D01*
X414Y1993D02*
X425Y1993D01*
X436Y1993D02*
X447Y1993D01*
X458Y1993D02*
X469Y1993D01*
X517Y1993D02*
X527Y1993D01*
X586Y1993D02*
X596Y1993D01*
X616Y1993D02*
X627Y1993D01*
X677Y1993D02*
X688Y1993D01*
X736Y1993D02*
X746Y1993D01*
X780Y1993D02*
X790Y1993D01*
X829Y1993D02*
X867Y1993D01*
X898Y1993D02*
X943Y1993D01*
X985Y1993D02*
X1029Y1993D01*
X1057Y1993D02*
X1108Y1993D01*
X1137Y1993D02*
X1147Y1993D01*
X1159Y1993D02*
X1169Y1993D01*
X1181Y1993D02*
X1192Y1993D01*
X1230Y1993D02*
X1269Y1993D01*
X1299Y1993D02*
X1345Y1993D01*
X1382Y1993D02*
X1429Y1993D01*
X414Y1992D02*
X425Y1992D01*
X436Y1992D02*
X447Y1992D01*
X458Y1992D02*
X469Y1992D01*
X517Y1992D02*
X527Y1992D01*
X586Y1992D02*
X596Y1992D01*
X616Y1992D02*
X627Y1992D01*
X677Y1992D02*
X688Y1992D01*
X736Y1992D02*
X746Y1992D01*
X780Y1992D02*
X790Y1992D01*
X830Y1992D02*
X868Y1992D01*
X899Y1992D02*
X942Y1992D01*
X984Y1992D02*
X1028Y1992D01*
X1057Y1992D02*
X1109Y1992D01*
X1137Y1992D02*
X1147Y1992D01*
X1159Y1992D02*
X1169Y1992D01*
X1181Y1992D02*
X1192Y1992D01*
X1232Y1992D02*
X1269Y1992D01*
X1301Y1992D02*
X1344Y1992D01*
X1381Y1992D02*
X1429Y1992D01*
X414Y1991D02*
X425Y1991D01*
X436Y1991D02*
X446Y1991D01*
X458Y1991D02*
X469Y1991D01*
X517Y1991D02*
X527Y1991D01*
X586Y1991D02*
X596Y1991D01*
X617Y1991D02*
X628Y1991D01*
X677Y1991D02*
X688Y1991D01*
X736Y1991D02*
X746Y1991D01*
X780Y1991D02*
X790Y1991D01*
X855Y1991D02*
X868Y1991D01*
X907Y1991D02*
X918Y1991D01*
X983Y1991D02*
X1000Y1991D01*
X1057Y1991D02*
X1085Y1991D01*
X1096Y1991D02*
X1109Y1991D01*
X1137Y1991D02*
X1147Y1991D01*
X1159Y1991D02*
X1169Y1991D01*
X1181Y1991D02*
X1192Y1991D01*
X1257Y1991D02*
X1270Y1991D01*
X1309Y1991D02*
X1319Y1991D01*
X1381Y1991D02*
X1396Y1991D01*
X1415Y1991D02*
X1430Y1991D01*
X414Y1990D02*
X425Y1990D01*
X437Y1990D02*
X446Y1990D01*
X458Y1990D02*
X469Y1990D01*
X517Y1990D02*
X527Y1990D01*
X586Y1990D02*
X596Y1990D01*
X617Y1990D02*
X628Y1990D01*
X677Y1990D02*
X688Y1990D01*
X736Y1990D02*
X746Y1990D01*
X780Y1990D02*
X790Y1990D01*
X857Y1990D02*
X868Y1990D01*
X907Y1990D02*
X918Y1990D01*
X982Y1990D02*
X998Y1990D01*
X1057Y1990D02*
X1083Y1990D01*
X1097Y1990D02*
X1109Y1990D01*
X1137Y1990D02*
X1147Y1990D01*
X1160Y1990D02*
X1169Y1990D01*
X1181Y1990D02*
X1192Y1990D01*
X1258Y1990D02*
X1270Y1990D01*
X1309Y1990D02*
X1319Y1990D01*
X1380Y1990D02*
X1394Y1990D01*
X1417Y1990D02*
X1431Y1990D01*
X414Y1989D02*
X425Y1989D01*
X437Y1989D02*
X445Y1989D01*
X458Y1989D02*
X469Y1989D01*
X517Y1989D02*
X527Y1989D01*
X586Y1989D02*
X596Y1989D01*
X618Y1989D02*
X628Y1989D01*
X677Y1989D02*
X688Y1989D01*
X736Y1989D02*
X746Y1989D01*
X780Y1989D02*
X790Y1989D01*
X857Y1989D02*
X869Y1989D01*
X907Y1989D02*
X918Y1989D01*
X981Y1989D02*
X997Y1989D01*
X1057Y1989D02*
X1082Y1989D01*
X1098Y1989D02*
X1110Y1989D01*
X1137Y1989D02*
X1147Y1989D01*
X1160Y1989D02*
X1168Y1989D01*
X1181Y1989D02*
X1192Y1989D01*
X1259Y1989D02*
X1270Y1989D01*
X1309Y1989D02*
X1319Y1989D01*
X1380Y1989D02*
X1393Y1989D01*
X1418Y1989D02*
X1431Y1989D01*
X414Y1988D02*
X425Y1988D01*
X438Y1988D02*
X445Y1988D01*
X458Y1988D02*
X469Y1988D01*
X517Y1988D02*
X527Y1988D01*
X586Y1988D02*
X596Y1988D01*
X618Y1988D02*
X629Y1988D01*
X677Y1988D02*
X688Y1988D01*
X736Y1988D02*
X746Y1988D01*
X780Y1988D02*
X790Y1988D01*
X858Y1988D02*
X869Y1988D01*
X907Y1988D02*
X918Y1988D01*
X980Y1988D02*
X996Y1988D01*
X1057Y1988D02*
X1080Y1988D01*
X1099Y1988D02*
X1110Y1988D01*
X1137Y1988D02*
X1147Y1988D01*
X1161Y1988D02*
X1168Y1988D01*
X1181Y1988D02*
X1192Y1988D01*
X1260Y1988D02*
X1270Y1988D01*
X1309Y1988D02*
X1319Y1988D01*
X1379Y1988D02*
X1392Y1988D01*
X1419Y1988D02*
X1432Y1988D01*
X414Y1987D02*
X425Y1987D01*
X440Y1987D02*
X443Y1987D01*
X458Y1987D02*
X469Y1987D01*
X517Y1987D02*
X527Y1987D01*
X586Y1987D02*
X596Y1987D01*
X618Y1987D02*
X629Y1987D01*
X677Y1987D02*
X688Y1987D01*
X736Y1987D02*
X746Y1987D01*
X779Y1987D02*
X790Y1987D01*
X858Y1987D02*
X869Y1987D01*
X907Y1987D02*
X918Y1987D01*
X979Y1987D02*
X995Y1987D01*
X1057Y1987D02*
X1079Y1987D01*
X1099Y1987D02*
X1110Y1987D01*
X1137Y1987D02*
X1147Y1987D01*
X1163Y1987D02*
X1166Y1987D01*
X1181Y1987D02*
X1192Y1987D01*
X1260Y1987D02*
X1270Y1987D01*
X1309Y1987D02*
X1319Y1987D01*
X1379Y1987D02*
X1391Y1987D01*
X1420Y1987D02*
X1432Y1987D01*
X414Y1986D02*
X425Y1986D01*
X458Y1986D02*
X469Y1986D01*
X517Y1986D02*
X527Y1986D01*
X586Y1986D02*
X596Y1986D01*
X619Y1986D02*
X629Y1986D01*
X677Y1986D02*
X688Y1986D01*
X736Y1986D02*
X746Y1986D01*
X779Y1986D02*
X790Y1986D01*
X858Y1986D02*
X869Y1986D01*
X907Y1986D02*
X918Y1986D01*
X979Y1986D02*
X994Y1986D01*
X1057Y1986D02*
X1077Y1986D01*
X1100Y1986D02*
X1110Y1986D01*
X1137Y1986D02*
X1147Y1986D01*
X1181Y1986D02*
X1192Y1986D01*
X1260Y1986D02*
X1270Y1986D01*
X1309Y1986D02*
X1319Y1986D01*
X1379Y1986D02*
X1390Y1986D01*
X1421Y1986D02*
X1432Y1986D01*
X414Y1985D02*
X425Y1985D01*
X458Y1985D02*
X469Y1985D01*
X517Y1985D02*
X527Y1985D01*
X586Y1985D02*
X596Y1985D01*
X619Y1985D02*
X629Y1985D01*
X677Y1985D02*
X688Y1985D01*
X736Y1985D02*
X746Y1985D01*
X778Y1985D02*
X789Y1985D01*
X859Y1985D02*
X869Y1985D01*
X907Y1985D02*
X918Y1985D01*
X978Y1985D02*
X993Y1985D01*
X1057Y1985D02*
X1075Y1985D01*
X1100Y1985D02*
X1110Y1985D01*
X1137Y1985D02*
X1147Y1985D01*
X1181Y1985D02*
X1192Y1985D01*
X1260Y1985D02*
X1271Y1985D01*
X1309Y1985D02*
X1319Y1985D01*
X1378Y1985D02*
X1389Y1985D01*
X1422Y1985D02*
X1432Y1985D01*
X414Y1984D02*
X425Y1984D01*
X458Y1984D02*
X469Y1984D01*
X517Y1984D02*
X527Y1984D01*
X586Y1984D02*
X596Y1984D01*
X619Y1984D02*
X629Y1984D01*
X677Y1984D02*
X688Y1984D01*
X736Y1984D02*
X746Y1984D01*
X776Y1984D02*
X789Y1984D01*
X859Y1984D02*
X869Y1984D01*
X907Y1984D02*
X918Y1984D01*
X978Y1984D02*
X991Y1984D01*
X1057Y1984D02*
X1074Y1984D01*
X1100Y1984D02*
X1110Y1984D01*
X1137Y1984D02*
X1147Y1984D01*
X1181Y1984D02*
X1192Y1984D01*
X1260Y1984D02*
X1271Y1984D01*
X1309Y1984D02*
X1319Y1984D01*
X1378Y1984D02*
X1389Y1984D01*
X1422Y1984D02*
X1432Y1984D01*
X414Y1983D02*
X425Y1983D01*
X458Y1983D02*
X469Y1983D01*
X517Y1983D02*
X527Y1983D01*
X586Y1983D02*
X596Y1983D01*
X619Y1983D02*
X629Y1983D01*
X677Y1983D02*
X688Y1983D01*
X736Y1983D02*
X789Y1983D01*
X859Y1983D02*
X869Y1983D01*
X907Y1983D02*
X918Y1983D01*
X978Y1983D02*
X990Y1983D01*
X1057Y1983D02*
X1072Y1983D01*
X1100Y1983D02*
X1110Y1983D01*
X1137Y1983D02*
X1147Y1983D01*
X1181Y1983D02*
X1192Y1983D01*
X1260Y1983D02*
X1271Y1983D01*
X1309Y1983D02*
X1319Y1983D01*
X1378Y1983D02*
X1389Y1983D01*
X1422Y1983D02*
X1433Y1983D01*
X414Y1982D02*
X425Y1982D01*
X458Y1982D02*
X469Y1982D01*
X517Y1982D02*
X527Y1982D01*
X586Y1982D02*
X596Y1982D01*
X619Y1982D02*
X629Y1982D01*
X677Y1982D02*
X688Y1982D01*
X736Y1982D02*
X788Y1982D01*
X859Y1982D02*
X869Y1982D01*
X907Y1982D02*
X918Y1982D01*
X977Y1982D02*
X989Y1982D01*
X1057Y1982D02*
X1071Y1982D01*
X1100Y1982D02*
X1110Y1982D01*
X1137Y1982D02*
X1147Y1982D01*
X1181Y1982D02*
X1192Y1982D01*
X1260Y1982D02*
X1271Y1982D01*
X1309Y1982D02*
X1319Y1982D01*
X1378Y1982D02*
X1388Y1982D01*
X1422Y1982D02*
X1433Y1982D01*
X414Y1981D02*
X425Y1981D01*
X458Y1981D02*
X469Y1981D01*
X517Y1981D02*
X527Y1981D01*
X586Y1981D02*
X596Y1981D01*
X619Y1981D02*
X629Y1981D01*
X677Y1981D02*
X688Y1981D01*
X736Y1981D02*
X788Y1981D01*
X859Y1981D02*
X869Y1981D01*
X907Y1981D02*
X918Y1981D01*
X977Y1981D02*
X988Y1981D01*
X1057Y1981D02*
X1069Y1981D01*
X1100Y1981D02*
X1110Y1981D01*
X1137Y1981D02*
X1147Y1981D01*
X1181Y1981D02*
X1192Y1981D01*
X1260Y1981D02*
X1271Y1981D01*
X1309Y1981D02*
X1319Y1981D01*
X1378Y1981D02*
X1388Y1981D01*
X1422Y1981D02*
X1433Y1981D01*
X414Y1980D02*
X425Y1980D01*
X458Y1980D02*
X469Y1980D01*
X517Y1980D02*
X527Y1980D01*
X586Y1980D02*
X596Y1980D01*
X619Y1980D02*
X629Y1980D01*
X677Y1980D02*
X688Y1980D01*
X736Y1980D02*
X787Y1980D01*
X859Y1980D02*
X869Y1980D01*
X907Y1980D02*
X918Y1980D01*
X977Y1980D02*
X987Y1980D01*
X1057Y1980D02*
X1068Y1980D01*
X1100Y1980D02*
X1110Y1980D01*
X1137Y1980D02*
X1147Y1980D01*
X1181Y1980D02*
X1192Y1980D01*
X1260Y1980D02*
X1271Y1980D01*
X1309Y1980D02*
X1319Y1980D01*
X1378Y1980D02*
X1388Y1980D01*
X1422Y1980D02*
X1433Y1980D01*
X414Y1979D02*
X425Y1979D01*
X458Y1979D02*
X469Y1979D01*
X517Y1979D02*
X527Y1979D01*
X586Y1979D02*
X596Y1979D01*
X618Y1979D02*
X629Y1979D01*
X677Y1979D02*
X688Y1979D01*
X736Y1979D02*
X786Y1979D01*
X859Y1979D02*
X869Y1979D01*
X907Y1979D02*
X918Y1979D01*
X977Y1979D02*
X987Y1979D01*
X1057Y1979D02*
X1067Y1979D01*
X1100Y1979D02*
X1110Y1979D01*
X1137Y1979D02*
X1147Y1979D01*
X1181Y1979D02*
X1192Y1979D01*
X1260Y1979D02*
X1271Y1979D01*
X1309Y1979D02*
X1319Y1979D01*
X1378Y1979D02*
X1388Y1979D01*
X1422Y1979D02*
X1433Y1979D01*
X414Y1978D02*
X425Y1978D01*
X458Y1978D02*
X469Y1978D01*
X517Y1978D02*
X527Y1978D01*
X586Y1978D02*
X596Y1978D01*
X618Y1978D02*
X629Y1978D01*
X677Y1978D02*
X688Y1978D01*
X736Y1978D02*
X785Y1978D01*
X827Y1978D02*
X869Y1978D01*
X907Y1978D02*
X918Y1978D01*
X977Y1978D02*
X987Y1978D01*
X1057Y1978D02*
X1067Y1978D01*
X1100Y1978D02*
X1110Y1978D01*
X1137Y1978D02*
X1147Y1978D01*
X1181Y1978D02*
X1192Y1978D01*
X1229Y1978D02*
X1271Y1978D01*
X1309Y1978D02*
X1319Y1978D01*
X1378Y1978D02*
X1388Y1978D01*
X1422Y1978D02*
X1433Y1978D01*
X414Y1977D02*
X425Y1977D01*
X458Y1977D02*
X469Y1977D01*
X517Y1977D02*
X527Y1977D01*
X586Y1977D02*
X596Y1977D01*
X618Y1977D02*
X629Y1977D01*
X677Y1977D02*
X688Y1977D01*
X736Y1977D02*
X784Y1977D01*
X825Y1977D02*
X869Y1977D01*
X907Y1977D02*
X918Y1977D01*
X977Y1977D02*
X987Y1977D01*
X1057Y1977D02*
X1067Y1977D01*
X1100Y1977D02*
X1110Y1977D01*
X1137Y1977D02*
X1147Y1977D01*
X1181Y1977D02*
X1192Y1977D01*
X1226Y1977D02*
X1271Y1977D01*
X1309Y1977D02*
X1319Y1977D01*
X1378Y1977D02*
X1388Y1977D01*
X1422Y1977D02*
X1433Y1977D01*
X414Y1976D02*
X425Y1976D01*
X458Y1976D02*
X469Y1976D01*
X517Y1976D02*
X527Y1976D01*
X586Y1976D02*
X596Y1976D01*
X617Y1976D02*
X628Y1976D01*
X677Y1976D02*
X688Y1976D01*
X736Y1976D02*
X783Y1976D01*
X823Y1976D02*
X869Y1976D01*
X907Y1976D02*
X918Y1976D01*
X977Y1976D02*
X987Y1976D01*
X1057Y1976D02*
X1067Y1976D01*
X1100Y1976D02*
X1110Y1976D01*
X1137Y1976D02*
X1147Y1976D01*
X1181Y1976D02*
X1192Y1976D01*
X1225Y1976D02*
X1271Y1976D01*
X1309Y1976D02*
X1319Y1976D01*
X1378Y1976D02*
X1388Y1976D01*
X1422Y1976D02*
X1433Y1976D01*
X414Y1975D02*
X425Y1975D01*
X458Y1975D02*
X469Y1975D01*
X517Y1975D02*
X527Y1975D01*
X586Y1975D02*
X596Y1975D01*
X617Y1975D02*
X628Y1975D01*
X677Y1975D02*
X688Y1975D01*
X736Y1975D02*
X782Y1975D01*
X822Y1975D02*
X869Y1975D01*
X907Y1975D02*
X918Y1975D01*
X977Y1975D02*
X987Y1975D01*
X1057Y1975D02*
X1067Y1975D01*
X1100Y1975D02*
X1110Y1975D01*
X1137Y1975D02*
X1147Y1975D01*
X1181Y1975D02*
X1192Y1975D01*
X1224Y1975D02*
X1271Y1975D01*
X1309Y1975D02*
X1319Y1975D01*
X1378Y1975D02*
X1388Y1975D01*
X1422Y1975D02*
X1433Y1975D01*
X414Y1974D02*
X425Y1974D01*
X458Y1974D02*
X469Y1974D01*
X517Y1974D02*
X527Y1974D01*
X586Y1974D02*
X596Y1974D01*
X616Y1974D02*
X628Y1974D01*
X677Y1974D02*
X688Y1974D01*
X736Y1974D02*
X780Y1974D01*
X821Y1974D02*
X869Y1974D01*
X907Y1974D02*
X918Y1974D01*
X977Y1974D02*
X987Y1974D01*
X1057Y1974D02*
X1067Y1974D01*
X1100Y1974D02*
X1110Y1974D01*
X1137Y1974D02*
X1147Y1974D01*
X1181Y1974D02*
X1192Y1974D01*
X1222Y1974D02*
X1271Y1974D01*
X1309Y1974D02*
X1319Y1974D01*
X1378Y1974D02*
X1433Y1974D01*
X414Y1973D02*
X425Y1973D01*
X458Y1973D02*
X469Y1973D01*
X517Y1973D02*
X527Y1973D01*
X586Y1973D02*
X596Y1973D01*
X616Y1973D02*
X627Y1973D01*
X677Y1973D02*
X688Y1973D01*
X736Y1973D02*
X777Y1973D01*
X820Y1973D02*
X869Y1973D01*
X907Y1973D02*
X918Y1973D01*
X977Y1973D02*
X987Y1973D01*
X1057Y1973D02*
X1067Y1973D01*
X1100Y1973D02*
X1110Y1973D01*
X1137Y1973D02*
X1147Y1973D01*
X1181Y1973D02*
X1192Y1973D01*
X1222Y1973D02*
X1271Y1973D01*
X1309Y1973D02*
X1319Y1973D01*
X1378Y1973D02*
X1433Y1973D01*
X414Y1972D02*
X425Y1972D01*
X458Y1972D02*
X469Y1972D01*
X517Y1972D02*
X527Y1972D01*
X586Y1972D02*
X596Y1972D01*
X615Y1972D02*
X627Y1972D01*
X677Y1972D02*
X688Y1972D01*
X736Y1972D02*
X746Y1972D01*
X819Y1972D02*
X869Y1972D01*
X907Y1972D02*
X918Y1972D01*
X977Y1972D02*
X987Y1972D01*
X1057Y1972D02*
X1067Y1972D01*
X1100Y1972D02*
X1110Y1972D01*
X1137Y1972D02*
X1147Y1972D01*
X1181Y1972D02*
X1192Y1972D01*
X1221Y1972D02*
X1271Y1972D01*
X1309Y1972D02*
X1319Y1972D01*
X1378Y1972D02*
X1433Y1972D01*
X414Y1971D02*
X425Y1971D01*
X458Y1971D02*
X469Y1971D01*
X517Y1971D02*
X527Y1971D01*
X586Y1971D02*
X596Y1971D01*
X615Y1971D02*
X626Y1971D01*
X677Y1971D02*
X688Y1971D01*
X736Y1971D02*
X746Y1971D01*
X818Y1971D02*
X869Y1971D01*
X907Y1971D02*
X918Y1971D01*
X977Y1971D02*
X987Y1971D01*
X1057Y1971D02*
X1067Y1971D01*
X1100Y1971D02*
X1110Y1971D01*
X1137Y1971D02*
X1147Y1971D01*
X1181Y1971D02*
X1192Y1971D01*
X1220Y1971D02*
X1271Y1971D01*
X1309Y1971D02*
X1319Y1971D01*
X1378Y1971D02*
X1433Y1971D01*
X414Y1970D02*
X425Y1970D01*
X458Y1970D02*
X469Y1970D01*
X517Y1970D02*
X527Y1970D01*
X586Y1970D02*
X596Y1970D01*
X614Y1970D02*
X626Y1970D01*
X677Y1970D02*
X688Y1970D01*
X736Y1970D02*
X746Y1970D01*
X818Y1970D02*
X869Y1970D01*
X907Y1970D02*
X918Y1970D01*
X977Y1970D02*
X987Y1970D01*
X1057Y1970D02*
X1067Y1970D01*
X1100Y1970D02*
X1110Y1970D01*
X1137Y1970D02*
X1147Y1970D01*
X1181Y1970D02*
X1192Y1970D01*
X1220Y1970D02*
X1271Y1970D01*
X1309Y1970D02*
X1319Y1970D01*
X1378Y1970D02*
X1433Y1970D01*
X414Y1969D02*
X425Y1969D01*
X458Y1969D02*
X469Y1969D01*
X517Y1969D02*
X527Y1969D01*
X586Y1969D02*
X596Y1969D01*
X614Y1969D02*
X625Y1969D01*
X677Y1969D02*
X688Y1969D01*
X736Y1969D02*
X746Y1969D01*
X817Y1969D02*
X869Y1969D01*
X907Y1969D02*
X918Y1969D01*
X977Y1969D02*
X987Y1969D01*
X1057Y1969D02*
X1067Y1969D01*
X1100Y1969D02*
X1110Y1969D01*
X1137Y1969D02*
X1147Y1969D01*
X1181Y1969D02*
X1192Y1969D01*
X1219Y1969D02*
X1271Y1969D01*
X1309Y1969D02*
X1319Y1969D01*
X1378Y1969D02*
X1433Y1969D01*
X414Y1968D02*
X425Y1968D01*
X458Y1968D02*
X469Y1968D01*
X517Y1968D02*
X527Y1968D01*
X586Y1968D02*
X596Y1968D01*
X613Y1968D02*
X625Y1968D01*
X677Y1968D02*
X688Y1968D01*
X736Y1968D02*
X746Y1968D01*
X817Y1968D02*
X869Y1968D01*
X907Y1968D02*
X918Y1968D01*
X977Y1968D02*
X987Y1968D01*
X1057Y1968D02*
X1067Y1968D01*
X1100Y1968D02*
X1110Y1968D01*
X1137Y1968D02*
X1147Y1968D01*
X1181Y1968D02*
X1192Y1968D01*
X1219Y1968D02*
X1271Y1968D01*
X1309Y1968D02*
X1319Y1968D01*
X1378Y1968D02*
X1433Y1968D01*
X414Y1967D02*
X425Y1967D01*
X458Y1967D02*
X469Y1967D01*
X517Y1967D02*
X527Y1967D01*
X586Y1967D02*
X596Y1967D01*
X613Y1967D02*
X624Y1967D01*
X677Y1967D02*
X688Y1967D01*
X736Y1967D02*
X746Y1967D01*
X817Y1967D02*
X829Y1967D01*
X856Y1967D02*
X870Y1967D01*
X907Y1967D02*
X918Y1967D01*
X977Y1967D02*
X987Y1967D01*
X1057Y1967D02*
X1067Y1967D01*
X1100Y1967D02*
X1110Y1967D01*
X1137Y1967D02*
X1147Y1967D01*
X1181Y1967D02*
X1192Y1967D01*
X1218Y1967D02*
X1231Y1967D01*
X1258Y1967D02*
X1271Y1967D01*
X1309Y1967D02*
X1319Y1967D01*
X1378Y1967D02*
X1432Y1967D01*
X414Y1966D02*
X425Y1966D01*
X458Y1966D02*
X469Y1966D01*
X517Y1966D02*
X527Y1966D01*
X586Y1966D02*
X596Y1966D01*
X612Y1966D02*
X624Y1966D01*
X677Y1966D02*
X688Y1966D01*
X736Y1966D02*
X746Y1966D01*
X816Y1966D02*
X828Y1966D01*
X858Y1966D02*
X870Y1966D01*
X907Y1966D02*
X918Y1966D01*
X977Y1966D02*
X987Y1966D01*
X1057Y1966D02*
X1067Y1966D01*
X1100Y1966D02*
X1110Y1966D01*
X1137Y1966D02*
X1147Y1966D01*
X1181Y1966D02*
X1192Y1966D01*
X1218Y1966D02*
X1229Y1966D01*
X1259Y1966D02*
X1271Y1966D01*
X1309Y1966D02*
X1319Y1966D01*
X1378Y1966D02*
X1432Y1966D01*
X414Y1965D02*
X425Y1965D01*
X458Y1965D02*
X469Y1965D01*
X517Y1965D02*
X527Y1965D01*
X586Y1965D02*
X596Y1965D01*
X612Y1965D02*
X623Y1965D01*
X677Y1965D02*
X688Y1965D01*
X736Y1965D02*
X746Y1965D01*
X816Y1965D02*
X827Y1965D01*
X859Y1965D02*
X870Y1965D01*
X907Y1965D02*
X918Y1965D01*
X977Y1965D02*
X987Y1965D01*
X1057Y1965D02*
X1067Y1965D01*
X1100Y1965D02*
X1111Y1965D01*
X1137Y1965D02*
X1147Y1965D01*
X1181Y1965D02*
X1192Y1965D01*
X1218Y1965D02*
X1229Y1965D01*
X1260Y1965D02*
X1271Y1965D01*
X1309Y1965D02*
X1319Y1965D01*
X1378Y1965D02*
X1431Y1965D01*
X414Y1964D02*
X425Y1964D01*
X458Y1964D02*
X469Y1964D01*
X517Y1964D02*
X527Y1964D01*
X586Y1964D02*
X596Y1964D01*
X611Y1964D02*
X623Y1964D01*
X677Y1964D02*
X688Y1964D01*
X736Y1964D02*
X746Y1964D01*
X816Y1964D02*
X827Y1964D01*
X859Y1964D02*
X870Y1964D01*
X907Y1964D02*
X918Y1964D01*
X977Y1964D02*
X987Y1964D01*
X1057Y1964D02*
X1067Y1964D01*
X1100Y1964D02*
X1111Y1964D01*
X1137Y1964D02*
X1147Y1964D01*
X1181Y1964D02*
X1192Y1964D01*
X1218Y1964D02*
X1228Y1964D01*
X1261Y1964D02*
X1271Y1964D01*
X1309Y1964D02*
X1319Y1964D01*
X1378Y1964D02*
X1430Y1964D01*
X414Y1963D02*
X425Y1963D01*
X458Y1963D02*
X469Y1963D01*
X517Y1963D02*
X527Y1963D01*
X586Y1963D02*
X596Y1963D01*
X611Y1963D02*
X622Y1963D01*
X677Y1963D02*
X688Y1963D01*
X736Y1963D02*
X746Y1963D01*
X816Y1963D02*
X826Y1963D01*
X859Y1963D02*
X870Y1963D01*
X907Y1963D02*
X918Y1963D01*
X977Y1963D02*
X987Y1963D01*
X1057Y1963D02*
X1067Y1963D01*
X1100Y1963D02*
X1111Y1963D01*
X1137Y1963D02*
X1147Y1963D01*
X1181Y1963D02*
X1192Y1963D01*
X1218Y1963D02*
X1228Y1963D01*
X1261Y1963D02*
X1271Y1963D01*
X1309Y1963D02*
X1319Y1963D01*
X1378Y1963D02*
X1427Y1963D01*
X414Y1962D02*
X425Y1962D01*
X458Y1962D02*
X469Y1962D01*
X517Y1962D02*
X527Y1962D01*
X586Y1962D02*
X596Y1962D01*
X610Y1962D02*
X622Y1962D01*
X677Y1962D02*
X688Y1962D01*
X736Y1962D02*
X746Y1962D01*
X816Y1962D02*
X826Y1962D01*
X859Y1962D02*
X870Y1962D01*
X907Y1962D02*
X918Y1962D01*
X977Y1962D02*
X987Y1962D01*
X1057Y1962D02*
X1067Y1962D01*
X1100Y1962D02*
X1111Y1962D01*
X1137Y1962D02*
X1147Y1962D01*
X1181Y1962D02*
X1192Y1962D01*
X1218Y1962D02*
X1228Y1962D01*
X1261Y1962D02*
X1271Y1962D01*
X1309Y1962D02*
X1319Y1962D01*
X1378Y1962D02*
X1388Y1962D01*
X414Y1961D02*
X425Y1961D01*
X458Y1961D02*
X469Y1961D01*
X517Y1961D02*
X527Y1961D01*
X586Y1961D02*
X596Y1961D01*
X610Y1961D02*
X621Y1961D01*
X677Y1961D02*
X688Y1961D01*
X736Y1961D02*
X746Y1961D01*
X816Y1961D02*
X826Y1961D01*
X859Y1961D02*
X870Y1961D01*
X907Y1961D02*
X918Y1961D01*
X977Y1961D02*
X988Y1961D01*
X1057Y1961D02*
X1067Y1961D01*
X1100Y1961D02*
X1111Y1961D01*
X1137Y1961D02*
X1147Y1961D01*
X1181Y1961D02*
X1192Y1961D01*
X1218Y1961D02*
X1228Y1961D01*
X1261Y1961D02*
X1271Y1961D01*
X1309Y1961D02*
X1319Y1961D01*
X1378Y1961D02*
X1388Y1961D01*
X414Y1960D02*
X425Y1960D01*
X458Y1960D02*
X469Y1960D01*
X517Y1960D02*
X527Y1960D01*
X586Y1960D02*
X596Y1960D01*
X609Y1960D02*
X621Y1960D01*
X677Y1960D02*
X688Y1960D01*
X736Y1960D02*
X746Y1960D01*
X816Y1960D02*
X826Y1960D01*
X859Y1960D02*
X870Y1960D01*
X907Y1960D02*
X918Y1960D01*
X946Y1960D02*
X946Y1960D01*
X977Y1960D02*
X989Y1960D01*
X1057Y1960D02*
X1067Y1960D01*
X1101Y1960D02*
X1111Y1960D01*
X1137Y1960D02*
X1147Y1960D01*
X1181Y1960D02*
X1192Y1960D01*
X1218Y1960D02*
X1228Y1960D01*
X1261Y1960D02*
X1271Y1960D01*
X1309Y1960D02*
X1319Y1960D01*
X1347Y1960D02*
X1347Y1960D01*
X1378Y1960D02*
X1388Y1960D01*
X414Y1959D02*
X425Y1959D01*
X458Y1959D02*
X469Y1959D01*
X517Y1959D02*
X527Y1959D01*
X586Y1959D02*
X596Y1959D01*
X609Y1959D02*
X620Y1959D01*
X677Y1959D02*
X688Y1959D01*
X736Y1959D02*
X746Y1959D01*
X816Y1959D02*
X826Y1959D01*
X859Y1959D02*
X870Y1959D01*
X907Y1959D02*
X918Y1959D01*
X943Y1959D02*
X948Y1959D01*
X977Y1959D02*
X990Y1959D01*
X1057Y1959D02*
X1067Y1959D01*
X1101Y1959D02*
X1111Y1959D01*
X1137Y1959D02*
X1147Y1959D01*
X1181Y1959D02*
X1192Y1959D01*
X1218Y1959D02*
X1228Y1959D01*
X1261Y1959D02*
X1271Y1959D01*
X1309Y1959D02*
X1319Y1959D01*
X1345Y1959D02*
X1350Y1959D01*
X1378Y1959D02*
X1389Y1959D01*
X414Y1958D02*
X425Y1958D01*
X458Y1958D02*
X469Y1958D01*
X517Y1958D02*
X527Y1958D01*
X586Y1958D02*
X596Y1958D01*
X608Y1958D02*
X620Y1958D01*
X677Y1958D02*
X688Y1958D01*
X736Y1958D02*
X746Y1958D01*
X816Y1958D02*
X826Y1958D01*
X859Y1958D02*
X870Y1958D01*
X907Y1958D02*
X918Y1958D01*
X942Y1958D02*
X949Y1958D01*
X978Y1958D02*
X991Y1958D01*
X1057Y1958D02*
X1067Y1958D01*
X1101Y1958D02*
X1111Y1958D01*
X1137Y1958D02*
X1147Y1958D01*
X1181Y1958D02*
X1192Y1958D01*
X1218Y1958D02*
X1228Y1958D01*
X1261Y1958D02*
X1271Y1958D01*
X1309Y1958D02*
X1319Y1958D01*
X1344Y1958D02*
X1351Y1958D01*
X1378Y1958D02*
X1389Y1958D01*
X414Y1957D02*
X425Y1957D01*
X458Y1957D02*
X469Y1957D01*
X517Y1957D02*
X527Y1957D01*
X586Y1957D02*
X596Y1957D01*
X608Y1957D02*
X619Y1957D01*
X677Y1957D02*
X688Y1957D01*
X736Y1957D02*
X746Y1957D01*
X816Y1957D02*
X826Y1957D01*
X858Y1957D02*
X870Y1957D01*
X907Y1957D02*
X918Y1957D01*
X941Y1957D02*
X950Y1957D01*
X978Y1957D02*
X992Y1957D01*
X1057Y1957D02*
X1067Y1957D01*
X1101Y1957D02*
X1111Y1957D01*
X1137Y1957D02*
X1147Y1957D01*
X1181Y1957D02*
X1192Y1957D01*
X1218Y1957D02*
X1228Y1957D01*
X1260Y1957D02*
X1272Y1957D01*
X1309Y1957D02*
X1319Y1957D01*
X1343Y1957D02*
X1352Y1957D01*
X1378Y1957D02*
X1389Y1957D01*
X414Y1956D02*
X425Y1956D01*
X458Y1956D02*
X469Y1956D01*
X517Y1956D02*
X527Y1956D01*
X586Y1956D02*
X596Y1956D01*
X607Y1956D02*
X619Y1956D01*
X677Y1956D02*
X688Y1956D01*
X736Y1956D02*
X746Y1956D01*
X816Y1956D02*
X826Y1956D01*
X857Y1956D02*
X870Y1956D01*
X907Y1956D02*
X918Y1956D01*
X941Y1956D02*
X950Y1956D01*
X979Y1956D02*
X994Y1956D01*
X1057Y1956D02*
X1067Y1956D01*
X1101Y1956D02*
X1111Y1956D01*
X1137Y1956D02*
X1147Y1956D01*
X1181Y1956D02*
X1192Y1956D01*
X1218Y1956D02*
X1228Y1956D01*
X1258Y1956D02*
X1272Y1956D01*
X1309Y1956D02*
X1319Y1956D01*
X1342Y1956D02*
X1352Y1956D01*
X1379Y1956D02*
X1390Y1956D01*
X414Y1955D02*
X425Y1955D01*
X458Y1955D02*
X469Y1955D01*
X517Y1955D02*
X527Y1955D01*
X586Y1955D02*
X596Y1955D01*
X607Y1955D02*
X618Y1955D01*
X677Y1955D02*
X688Y1955D01*
X736Y1955D02*
X746Y1955D01*
X816Y1955D02*
X826Y1955D01*
X855Y1955D02*
X870Y1955D01*
X907Y1955D02*
X918Y1955D01*
X940Y1955D02*
X951Y1955D01*
X979Y1955D02*
X995Y1955D01*
X1057Y1955D02*
X1067Y1955D01*
X1101Y1955D02*
X1111Y1955D01*
X1137Y1955D02*
X1147Y1955D01*
X1181Y1955D02*
X1192Y1955D01*
X1218Y1955D02*
X1228Y1955D01*
X1257Y1955D02*
X1272Y1955D01*
X1309Y1955D02*
X1319Y1955D01*
X1342Y1955D02*
X1352Y1955D01*
X1379Y1955D02*
X1391Y1955D01*
X414Y1954D02*
X425Y1954D01*
X458Y1954D02*
X469Y1954D01*
X517Y1954D02*
X527Y1954D01*
X586Y1954D02*
X596Y1954D01*
X606Y1954D02*
X618Y1954D01*
X677Y1954D02*
X688Y1954D01*
X736Y1954D02*
X746Y1954D01*
X816Y1954D02*
X827Y1954D01*
X853Y1954D02*
X870Y1954D01*
X907Y1954D02*
X918Y1954D01*
X940Y1954D02*
X951Y1954D01*
X980Y1954D02*
X996Y1954D01*
X1057Y1954D02*
X1067Y1954D01*
X1101Y1954D02*
X1111Y1954D01*
X1137Y1954D02*
X1147Y1954D01*
X1181Y1954D02*
X1192Y1954D01*
X1218Y1954D02*
X1228Y1954D01*
X1255Y1954D02*
X1272Y1954D01*
X1309Y1954D02*
X1320Y1954D01*
X1341Y1954D02*
X1352Y1954D01*
X1379Y1954D02*
X1392Y1954D01*
X414Y1953D02*
X425Y1953D01*
X458Y1953D02*
X469Y1953D01*
X517Y1953D02*
X527Y1953D01*
X586Y1953D02*
X596Y1953D01*
X606Y1953D02*
X617Y1953D01*
X677Y1953D02*
X688Y1953D01*
X736Y1953D02*
X746Y1953D01*
X816Y1953D02*
X827Y1953D01*
X852Y1953D02*
X870Y1953D01*
X908Y1953D02*
X919Y1953D01*
X939Y1953D02*
X950Y1953D01*
X981Y1953D02*
X997Y1953D01*
X1057Y1953D02*
X1067Y1953D01*
X1101Y1953D02*
X1111Y1953D01*
X1137Y1953D02*
X1147Y1953D01*
X1181Y1953D02*
X1192Y1953D01*
X1218Y1953D02*
X1229Y1953D01*
X1253Y1953D02*
X1272Y1953D01*
X1309Y1953D02*
X1320Y1953D01*
X1341Y1953D02*
X1352Y1953D01*
X1379Y1953D02*
X1393Y1953D01*
X414Y1952D02*
X425Y1952D01*
X458Y1952D02*
X469Y1952D01*
X517Y1952D02*
X527Y1952D01*
X586Y1952D02*
X596Y1952D01*
X605Y1952D02*
X617Y1952D01*
X677Y1952D02*
X688Y1952D01*
X736Y1952D02*
X746Y1952D01*
X816Y1952D02*
X828Y1952D01*
X850Y1952D02*
X870Y1952D01*
X908Y1952D02*
X919Y1952D01*
X938Y1952D02*
X950Y1952D01*
X982Y1952D02*
X998Y1952D01*
X1057Y1952D02*
X1067Y1952D01*
X1101Y1952D02*
X1111Y1952D01*
X1137Y1952D02*
X1147Y1952D01*
X1181Y1952D02*
X1192Y1952D01*
X1218Y1952D02*
X1230Y1952D01*
X1251Y1952D02*
X1272Y1952D01*
X1309Y1952D02*
X1321Y1952D01*
X1340Y1952D02*
X1352Y1952D01*
X1380Y1952D02*
X1394Y1952D01*
X414Y1951D02*
X425Y1951D01*
X458Y1951D02*
X469Y1951D01*
X517Y1951D02*
X527Y1951D01*
X586Y1951D02*
X596Y1951D01*
X603Y1951D02*
X616Y1951D01*
X677Y1951D02*
X688Y1951D01*
X736Y1951D02*
X746Y1951D01*
X817Y1951D02*
X830Y1951D01*
X848Y1951D02*
X870Y1951D01*
X908Y1951D02*
X921Y1951D01*
X937Y1951D02*
X950Y1951D01*
X983Y1951D02*
X1000Y1951D01*
X1057Y1951D02*
X1067Y1951D01*
X1101Y1951D02*
X1111Y1951D01*
X1137Y1951D02*
X1147Y1951D01*
X1181Y1951D02*
X1192Y1951D01*
X1218Y1951D02*
X1231Y1951D01*
X1250Y1951D02*
X1272Y1951D01*
X1310Y1951D02*
X1323Y1951D01*
X1338Y1951D02*
X1352Y1951D01*
X1381Y1951D02*
X1396Y1951D01*
X414Y1950D02*
X425Y1950D01*
X458Y1950D02*
X469Y1950D01*
X498Y1950D02*
X546Y1950D01*
X578Y1950D02*
X616Y1950D01*
X658Y1950D02*
X706Y1950D01*
X736Y1950D02*
X746Y1950D01*
X817Y1950D02*
X870Y1950D01*
X908Y1950D02*
X949Y1950D01*
X984Y1950D02*
X1028Y1950D01*
X1057Y1950D02*
X1067Y1950D01*
X1101Y1950D02*
X1111Y1950D01*
X1137Y1950D02*
X1147Y1950D01*
X1181Y1950D02*
X1192Y1950D01*
X1219Y1950D02*
X1272Y1950D01*
X1310Y1950D02*
X1351Y1950D01*
X1381Y1950D02*
X1429Y1950D01*
X414Y1949D02*
X425Y1949D01*
X458Y1949D02*
X469Y1949D01*
X496Y1949D02*
X547Y1949D01*
X577Y1949D02*
X615Y1949D01*
X657Y1949D02*
X708Y1949D01*
X736Y1949D02*
X746Y1949D01*
X818Y1949D02*
X870Y1949D01*
X909Y1949D02*
X949Y1949D01*
X985Y1949D02*
X1029Y1949D01*
X1057Y1949D02*
X1067Y1949D01*
X1101Y1949D02*
X1111Y1949D01*
X1137Y1949D02*
X1147Y1949D01*
X1181Y1949D02*
X1192Y1949D01*
X1219Y1949D02*
X1272Y1949D01*
X1311Y1949D02*
X1351Y1949D01*
X1382Y1949D02*
X1431Y1949D01*
X414Y1948D02*
X425Y1948D01*
X458Y1948D02*
X469Y1948D01*
X496Y1948D02*
X548Y1948D01*
X576Y1948D02*
X615Y1948D01*
X656Y1948D02*
X709Y1948D01*
X736Y1948D02*
X746Y1948D01*
X818Y1948D02*
X870Y1948D01*
X909Y1948D02*
X948Y1948D01*
X987Y1948D02*
X1030Y1948D01*
X1057Y1948D02*
X1067Y1948D01*
X1101Y1948D02*
X1111Y1948D01*
X1137Y1948D02*
X1147Y1948D01*
X1181Y1948D02*
X1192Y1948D01*
X1220Y1948D02*
X1272Y1948D01*
X1311Y1948D02*
X1350Y1948D01*
X1383Y1948D02*
X1432Y1948D01*
X414Y1947D02*
X425Y1947D01*
X458Y1947D02*
X469Y1947D01*
X495Y1947D02*
X549Y1947D01*
X575Y1947D02*
X614Y1947D01*
X656Y1947D02*
X709Y1947D01*
X736Y1947D02*
X746Y1947D01*
X819Y1947D02*
X870Y1947D01*
X910Y1947D02*
X948Y1947D01*
X988Y1947D02*
X1031Y1947D01*
X1057Y1947D02*
X1067Y1947D01*
X1101Y1947D02*
X1111Y1947D01*
X1137Y1947D02*
X1147Y1947D01*
X1181Y1947D02*
X1192Y1947D01*
X1220Y1947D02*
X1272Y1947D01*
X1312Y1947D02*
X1349Y1947D01*
X1384Y1947D02*
X1432Y1947D01*
X414Y1946D02*
X425Y1946D01*
X458Y1946D02*
X469Y1946D01*
X495Y1946D02*
X549Y1946D01*
X575Y1946D02*
X614Y1946D01*
X655Y1946D02*
X709Y1946D01*
X736Y1946D02*
X746Y1946D01*
X819Y1946D02*
X870Y1946D01*
X911Y1946D02*
X947Y1946D01*
X989Y1946D02*
X1031Y1946D01*
X1057Y1946D02*
X1067Y1946D01*
X1101Y1946D02*
X1111Y1946D01*
X1137Y1946D02*
X1147Y1946D01*
X1181Y1946D02*
X1192Y1946D01*
X1221Y1946D02*
X1272Y1946D01*
X1312Y1946D02*
X1349Y1946D01*
X1385Y1946D02*
X1432Y1946D01*
X414Y1945D02*
X425Y1945D01*
X458Y1945D02*
X469Y1945D01*
X495Y1945D02*
X549Y1945D01*
X575Y1945D02*
X613Y1945D01*
X655Y1945D02*
X710Y1945D01*
X736Y1945D02*
X746Y1945D01*
X820Y1945D02*
X870Y1945D01*
X912Y1945D02*
X946Y1945D01*
X990Y1945D02*
X1031Y1945D01*
X1057Y1945D02*
X1067Y1945D01*
X1101Y1945D02*
X1111Y1945D01*
X1137Y1945D02*
X1147Y1945D01*
X1181Y1945D02*
X1192Y1945D01*
X1222Y1945D02*
X1272Y1945D01*
X1313Y1945D02*
X1348Y1945D01*
X1386Y1945D02*
X1433Y1945D01*
X415Y1944D02*
X424Y1944D01*
X459Y1944D02*
X469Y1944D01*
X495Y1944D02*
X549Y1944D01*
X575Y1944D02*
X612Y1944D01*
X656Y1944D02*
X710Y1944D01*
X736Y1944D02*
X746Y1944D01*
X821Y1944D02*
X857Y1944D01*
X860Y1944D02*
X870Y1944D01*
X913Y1944D02*
X945Y1944D01*
X991Y1944D02*
X1031Y1944D01*
X1057Y1944D02*
X1067Y1944D01*
X1101Y1944D02*
X1111Y1944D01*
X1137Y1944D02*
X1147Y1944D01*
X1182Y1944D02*
X1191Y1944D01*
X1223Y1944D02*
X1259Y1944D01*
X1262Y1944D02*
X1272Y1944D01*
X1314Y1944D02*
X1347Y1944D01*
X1387Y1944D02*
X1432Y1944D01*
X415Y1943D02*
X424Y1943D01*
X459Y1943D02*
X468Y1943D01*
X495Y1943D02*
X549Y1943D01*
X575Y1943D02*
X611Y1943D01*
X656Y1943D02*
X709Y1943D01*
X736Y1943D02*
X745Y1943D01*
X822Y1943D02*
X856Y1943D01*
X860Y1943D02*
X870Y1943D01*
X914Y1943D02*
X944Y1943D01*
X992Y1943D02*
X1031Y1943D01*
X1057Y1943D02*
X1067Y1943D01*
X1101Y1943D02*
X1111Y1943D01*
X1138Y1943D02*
X1147Y1943D01*
X1182Y1943D02*
X1191Y1943D01*
X1224Y1943D02*
X1257Y1943D01*
X1262Y1943D02*
X1272Y1943D01*
X1315Y1943D02*
X1346Y1943D01*
X1389Y1943D02*
X1432Y1943D01*
X415Y1942D02*
X424Y1942D01*
X459Y1942D02*
X468Y1942D01*
X496Y1942D02*
X548Y1942D01*
X576Y1942D02*
X609Y1942D01*
X656Y1942D02*
X709Y1942D01*
X737Y1942D02*
X745Y1942D01*
X824Y1942D02*
X854Y1942D01*
X861Y1942D02*
X869Y1942D01*
X915Y1942D02*
X943Y1942D01*
X994Y1942D02*
X1030Y1942D01*
X1058Y1942D02*
X1066Y1942D01*
X1102Y1942D02*
X1110Y1942D01*
X1138Y1942D02*
X1146Y1942D01*
X1182Y1942D02*
X1191Y1942D01*
X1225Y1942D02*
X1256Y1942D01*
X1263Y1942D02*
X1271Y1942D01*
X1317Y1942D02*
X1344Y1942D01*
X1390Y1942D02*
X1432Y1942D01*
X416Y1941D02*
X423Y1941D01*
X460Y1941D02*
X467Y1941D01*
X496Y1941D02*
X547Y1941D01*
X577Y1941D02*
X607Y1941D01*
X657Y1941D02*
X708Y1941D01*
X737Y1941D02*
X744Y1941D01*
X826Y1941D02*
X852Y1941D01*
X862Y1941D02*
X868Y1941D01*
X917Y1941D02*
X941Y1941D01*
X996Y1941D02*
X1029Y1941D01*
X1059Y1941D02*
X1065Y1941D01*
X1103Y1941D02*
X1109Y1941D01*
X1139Y1941D02*
X1146Y1941D01*
X1183Y1941D02*
X1190Y1941D01*
X1227Y1941D02*
X1254Y1941D01*
X1263Y1941D02*
X1270Y1941D01*
X1319Y1941D02*
X1342Y1941D01*
X1392Y1941D02*
X1431Y1941D01*
X418Y1940D02*
X421Y1940D01*
X462Y1940D02*
X465Y1940D01*
X498Y1940D02*
X546Y1940D01*
X578Y1940D02*
X605Y1940D01*
X658Y1940D02*
X706Y1940D01*
X739Y1940D02*
X743Y1940D01*
X828Y1940D02*
X850Y1940D01*
X863Y1940D02*
X867Y1940D01*
X920Y1940D02*
X938Y1940D01*
X999Y1940D02*
X1028Y1940D01*
X1060Y1940D02*
X1064Y1940D01*
X1104Y1940D02*
X1108Y1940D01*
X1140Y1940D02*
X1144Y1940D01*
X1185Y1940D02*
X1188Y1940D01*
X1230Y1940D02*
X1252Y1940D01*
X1265Y1940D02*
X1269Y1940D01*
X1321Y1940D02*
X1340Y1940D01*
X1394Y1940D02*
X1429Y1940D01*
X554Y1886D02*
X594Y1886D01*
X630Y1886D02*
X666Y1886D01*
X698Y1886D02*
X725Y1886D01*
X781Y1886D02*
X805Y1886D01*
X915Y1886D02*
X942Y1886D01*
X991Y1886D02*
X1028Y1886D01*
X1132Y1886D02*
X1159Y1886D01*
X1205Y1886D02*
X1248Y1886D01*
X553Y1885D02*
X596Y1885D01*
X628Y1885D02*
X668Y1885D01*
X697Y1885D02*
X725Y1885D01*
X780Y1885D02*
X806Y1885D01*
X914Y1885D02*
X942Y1885D01*
X990Y1885D02*
X1030Y1885D01*
X1131Y1885D02*
X1159Y1885D01*
X1203Y1885D02*
X1250Y1885D01*
X552Y1884D02*
X597Y1884D01*
X627Y1884D02*
X669Y1884D01*
X697Y1884D02*
X725Y1884D01*
X779Y1884D02*
X807Y1884D01*
X914Y1884D02*
X942Y1884D01*
X988Y1884D02*
X1031Y1884D01*
X1130Y1884D02*
X1159Y1884D01*
X1203Y1884D02*
X1250Y1884D01*
X552Y1883D02*
X598Y1883D01*
X626Y1883D02*
X670Y1883D01*
X696Y1883D02*
X725Y1883D01*
X779Y1883D02*
X807Y1883D01*
X913Y1883D02*
X942Y1883D01*
X988Y1883D02*
X1032Y1883D01*
X1130Y1883D02*
X1159Y1883D01*
X1202Y1883D02*
X1251Y1883D01*
X552Y1882D02*
X599Y1882D01*
X625Y1882D02*
X671Y1882D01*
X696Y1882D02*
X725Y1882D01*
X778Y1882D02*
X807Y1882D01*
X913Y1882D02*
X942Y1882D01*
X987Y1882D02*
X1032Y1882D01*
X1130Y1882D02*
X1159Y1882D01*
X1202Y1882D02*
X1251Y1882D01*
X552Y1881D02*
X599Y1881D01*
X625Y1881D02*
X672Y1881D01*
X696Y1881D02*
X725Y1881D01*
X778Y1881D02*
X807Y1881D01*
X913Y1881D02*
X942Y1881D01*
X986Y1881D02*
X1033Y1881D01*
X1130Y1881D02*
X1159Y1881D01*
X1202Y1881D02*
X1251Y1881D01*
X552Y1880D02*
X600Y1880D01*
X624Y1880D02*
X672Y1880D01*
X696Y1880D02*
X725Y1880D01*
X778Y1880D02*
X807Y1880D01*
X913Y1880D02*
X942Y1880D01*
X986Y1880D02*
X1033Y1880D01*
X1130Y1880D02*
X1159Y1880D01*
X1202Y1880D02*
X1251Y1880D01*
X552Y1879D02*
X600Y1879D01*
X624Y1879D02*
X672Y1879D01*
X697Y1879D02*
X725Y1879D01*
X778Y1879D02*
X807Y1879D01*
X914Y1879D02*
X942Y1879D01*
X986Y1879D02*
X1034Y1879D01*
X1131Y1879D02*
X1159Y1879D01*
X1202Y1879D02*
X1251Y1879D01*
X553Y1878D02*
X600Y1878D01*
X624Y1878D02*
X672Y1878D01*
X698Y1878D02*
X725Y1878D01*
X778Y1878D02*
X807Y1878D01*
X915Y1878D02*
X942Y1878D01*
X985Y1878D02*
X1034Y1878D01*
X1132Y1878D02*
X1159Y1878D01*
X1202Y1878D02*
X1251Y1878D01*
X555Y1877D02*
X600Y1877D01*
X624Y1877D02*
X673Y1877D01*
X700Y1877D02*
X725Y1877D01*
X778Y1877D02*
X807Y1877D01*
X917Y1877D02*
X942Y1877D01*
X985Y1877D02*
X1034Y1877D01*
X1134Y1877D02*
X1159Y1877D01*
X1202Y1877D02*
X1251Y1877D01*
X591Y1876D02*
X600Y1876D01*
X624Y1876D02*
X633Y1876D01*
X663Y1876D02*
X673Y1876D01*
X716Y1876D02*
X725Y1876D01*
X778Y1876D02*
X787Y1876D01*
X798Y1876D02*
X807Y1876D01*
X933Y1876D02*
X942Y1876D01*
X985Y1876D02*
X994Y1876D01*
X1025Y1876D02*
X1034Y1876D01*
X1150Y1876D02*
X1159Y1876D01*
X1202Y1876D02*
X1211Y1876D01*
X1242Y1876D02*
X1251Y1876D01*
X591Y1875D02*
X600Y1875D01*
X624Y1875D02*
X633Y1875D01*
X663Y1875D02*
X673Y1875D01*
X716Y1875D02*
X725Y1875D01*
X778Y1875D02*
X787Y1875D01*
X798Y1875D02*
X807Y1875D01*
X933Y1875D02*
X942Y1875D01*
X985Y1875D02*
X994Y1875D01*
X1025Y1875D02*
X1034Y1875D01*
X1150Y1875D02*
X1159Y1875D01*
X1202Y1875D02*
X1211Y1875D01*
X1242Y1875D02*
X1251Y1875D01*
X591Y1874D02*
X600Y1874D01*
X624Y1874D02*
X633Y1874D01*
X663Y1874D02*
X673Y1874D01*
X716Y1874D02*
X725Y1874D01*
X778Y1874D02*
X787Y1874D01*
X798Y1874D02*
X807Y1874D01*
X933Y1874D02*
X942Y1874D01*
X985Y1874D02*
X994Y1874D01*
X1025Y1874D02*
X1034Y1874D01*
X1150Y1874D02*
X1159Y1874D01*
X1202Y1874D02*
X1211Y1874D01*
X1242Y1874D02*
X1251Y1874D01*
X591Y1873D02*
X600Y1873D01*
X624Y1873D02*
X633Y1873D01*
X663Y1873D02*
X673Y1873D01*
X716Y1873D02*
X725Y1873D01*
X778Y1873D02*
X787Y1873D01*
X798Y1873D02*
X807Y1873D01*
X933Y1873D02*
X942Y1873D01*
X985Y1873D02*
X994Y1873D01*
X1025Y1873D02*
X1034Y1873D01*
X1150Y1873D02*
X1159Y1873D01*
X1202Y1873D02*
X1211Y1873D01*
X1242Y1873D02*
X1251Y1873D01*
X591Y1872D02*
X600Y1872D01*
X624Y1872D02*
X633Y1872D01*
X663Y1872D02*
X673Y1872D01*
X716Y1872D02*
X725Y1872D01*
X778Y1872D02*
X787Y1872D01*
X798Y1872D02*
X807Y1872D01*
X933Y1872D02*
X942Y1872D01*
X985Y1872D02*
X994Y1872D01*
X1025Y1872D02*
X1034Y1872D01*
X1150Y1872D02*
X1159Y1872D01*
X1202Y1872D02*
X1211Y1872D01*
X1242Y1872D02*
X1251Y1872D01*
X591Y1871D02*
X600Y1871D01*
X624Y1871D02*
X633Y1871D01*
X663Y1871D02*
X673Y1871D01*
X716Y1871D02*
X725Y1871D01*
X778Y1871D02*
X787Y1871D01*
X798Y1871D02*
X807Y1871D01*
X933Y1871D02*
X942Y1871D01*
X985Y1871D02*
X994Y1871D01*
X1025Y1871D02*
X1034Y1871D01*
X1150Y1871D02*
X1159Y1871D01*
X1202Y1871D02*
X1211Y1871D01*
X1242Y1871D02*
X1251Y1871D01*
X591Y1870D02*
X600Y1870D01*
X624Y1870D02*
X633Y1870D01*
X663Y1870D02*
X673Y1870D01*
X716Y1870D02*
X725Y1870D01*
X778Y1870D02*
X787Y1870D01*
X798Y1870D02*
X807Y1870D01*
X933Y1870D02*
X942Y1870D01*
X985Y1870D02*
X994Y1870D01*
X1025Y1870D02*
X1034Y1870D01*
X1150Y1870D02*
X1159Y1870D01*
X1202Y1870D02*
X1211Y1870D01*
X1242Y1870D02*
X1251Y1870D01*
X591Y1869D02*
X600Y1869D01*
X624Y1869D02*
X633Y1869D01*
X663Y1869D02*
X673Y1869D01*
X716Y1869D02*
X725Y1869D01*
X778Y1869D02*
X787Y1869D01*
X798Y1869D02*
X807Y1869D01*
X933Y1869D02*
X942Y1869D01*
X985Y1869D02*
X994Y1869D01*
X1025Y1869D02*
X1034Y1869D01*
X1150Y1869D02*
X1159Y1869D01*
X1202Y1869D02*
X1211Y1869D01*
X1242Y1869D02*
X1251Y1869D01*
X591Y1868D02*
X600Y1868D01*
X624Y1868D02*
X633Y1868D01*
X663Y1868D02*
X673Y1868D01*
X716Y1868D02*
X725Y1868D01*
X778Y1868D02*
X787Y1868D01*
X798Y1868D02*
X807Y1868D01*
X933Y1868D02*
X942Y1868D01*
X985Y1868D02*
X994Y1868D01*
X1025Y1868D02*
X1034Y1868D01*
X1150Y1868D02*
X1159Y1868D01*
X1202Y1868D02*
X1211Y1868D01*
X1242Y1868D02*
X1251Y1868D01*
X591Y1867D02*
X600Y1867D01*
X624Y1867D02*
X633Y1867D01*
X663Y1867D02*
X673Y1867D01*
X716Y1867D02*
X725Y1867D01*
X778Y1867D02*
X787Y1867D01*
X798Y1867D02*
X807Y1867D01*
X933Y1867D02*
X942Y1867D01*
X985Y1867D02*
X994Y1867D01*
X1025Y1867D02*
X1034Y1867D01*
X1150Y1867D02*
X1159Y1867D01*
X1202Y1867D02*
X1211Y1867D01*
X1242Y1867D02*
X1251Y1867D01*
X591Y1866D02*
X600Y1866D01*
X624Y1866D02*
X633Y1866D01*
X663Y1866D02*
X673Y1866D01*
X716Y1866D02*
X725Y1866D01*
X778Y1866D02*
X787Y1866D01*
X798Y1866D02*
X807Y1866D01*
X933Y1866D02*
X942Y1866D01*
X985Y1866D02*
X994Y1866D01*
X1025Y1866D02*
X1034Y1866D01*
X1150Y1866D02*
X1159Y1866D01*
X1202Y1866D02*
X1211Y1866D01*
X1242Y1866D02*
X1251Y1866D01*
X591Y1865D02*
X600Y1865D01*
X624Y1865D02*
X633Y1865D01*
X663Y1865D02*
X673Y1865D01*
X716Y1865D02*
X725Y1865D01*
X778Y1865D02*
X787Y1865D01*
X798Y1865D02*
X807Y1865D01*
X933Y1865D02*
X942Y1865D01*
X985Y1865D02*
X994Y1865D01*
X1025Y1865D02*
X1034Y1865D01*
X1150Y1865D02*
X1159Y1865D01*
X1202Y1865D02*
X1211Y1865D01*
X1242Y1865D02*
X1251Y1865D01*
X591Y1864D02*
X600Y1864D01*
X624Y1864D02*
X633Y1864D01*
X663Y1864D02*
X673Y1864D01*
X716Y1864D02*
X725Y1864D01*
X778Y1864D02*
X787Y1864D01*
X798Y1864D02*
X807Y1864D01*
X933Y1864D02*
X942Y1864D01*
X985Y1864D02*
X994Y1864D01*
X1025Y1864D02*
X1034Y1864D01*
X1150Y1864D02*
X1159Y1864D01*
X1202Y1864D02*
X1211Y1864D01*
X1242Y1864D02*
X1251Y1864D01*
X591Y1863D02*
X600Y1863D01*
X624Y1863D02*
X633Y1863D01*
X663Y1863D02*
X673Y1863D01*
X716Y1863D02*
X725Y1863D01*
X778Y1863D02*
X787Y1863D01*
X798Y1863D02*
X807Y1863D01*
X933Y1863D02*
X942Y1863D01*
X985Y1863D02*
X994Y1863D01*
X1025Y1863D02*
X1034Y1863D01*
X1150Y1863D02*
X1159Y1863D01*
X1202Y1863D02*
X1211Y1863D01*
X1242Y1863D02*
X1251Y1863D01*
X591Y1862D02*
X600Y1862D01*
X624Y1862D02*
X633Y1862D01*
X663Y1862D02*
X673Y1862D01*
X716Y1862D02*
X725Y1862D01*
X778Y1862D02*
X787Y1862D01*
X798Y1862D02*
X807Y1862D01*
X933Y1862D02*
X942Y1862D01*
X985Y1862D02*
X994Y1862D01*
X1025Y1862D02*
X1034Y1862D01*
X1150Y1862D02*
X1159Y1862D01*
X1202Y1862D02*
X1211Y1862D01*
X1242Y1862D02*
X1251Y1862D01*
X591Y1861D02*
X600Y1861D01*
X624Y1861D02*
X633Y1861D01*
X663Y1861D02*
X673Y1861D01*
X716Y1861D02*
X725Y1861D01*
X778Y1861D02*
X787Y1861D01*
X798Y1861D02*
X807Y1861D01*
X933Y1861D02*
X942Y1861D01*
X985Y1861D02*
X994Y1861D01*
X1025Y1861D02*
X1034Y1861D01*
X1150Y1861D02*
X1159Y1861D01*
X1202Y1861D02*
X1251Y1861D01*
X591Y1860D02*
X600Y1860D01*
X624Y1860D02*
X633Y1860D01*
X663Y1860D02*
X673Y1860D01*
X716Y1860D02*
X725Y1860D01*
X778Y1860D02*
X787Y1860D01*
X798Y1860D02*
X807Y1860D01*
X933Y1860D02*
X942Y1860D01*
X985Y1860D02*
X994Y1860D01*
X1025Y1860D02*
X1034Y1860D01*
X1150Y1860D02*
X1159Y1860D01*
X1202Y1860D02*
X1251Y1860D01*
X591Y1859D02*
X600Y1859D01*
X624Y1859D02*
X633Y1859D01*
X663Y1859D02*
X673Y1859D01*
X716Y1859D02*
X725Y1859D01*
X778Y1859D02*
X787Y1859D01*
X798Y1859D02*
X807Y1859D01*
X933Y1859D02*
X942Y1859D01*
X985Y1859D02*
X994Y1859D01*
X1025Y1859D02*
X1034Y1859D01*
X1150Y1859D02*
X1159Y1859D01*
X1202Y1859D02*
X1251Y1859D01*
X591Y1858D02*
X600Y1858D01*
X624Y1858D02*
X633Y1858D01*
X663Y1858D02*
X673Y1858D01*
X716Y1858D02*
X725Y1858D01*
X778Y1858D02*
X787Y1858D01*
X798Y1858D02*
X807Y1858D01*
X933Y1858D02*
X942Y1858D01*
X985Y1858D02*
X994Y1858D01*
X1025Y1858D02*
X1034Y1858D01*
X1150Y1858D02*
X1159Y1858D01*
X1202Y1858D02*
X1251Y1858D01*
X591Y1857D02*
X600Y1857D01*
X624Y1857D02*
X633Y1857D01*
X663Y1857D02*
X673Y1857D01*
X716Y1857D02*
X725Y1857D01*
X778Y1857D02*
X787Y1857D01*
X798Y1857D02*
X807Y1857D01*
X933Y1857D02*
X942Y1857D01*
X985Y1857D02*
X994Y1857D01*
X1025Y1857D02*
X1034Y1857D01*
X1150Y1857D02*
X1159Y1857D01*
X1202Y1857D02*
X1251Y1857D01*
X591Y1856D02*
X600Y1856D01*
X624Y1856D02*
X633Y1856D01*
X663Y1856D02*
X673Y1856D01*
X716Y1856D02*
X725Y1856D01*
X778Y1856D02*
X787Y1856D01*
X798Y1856D02*
X807Y1856D01*
X933Y1856D02*
X942Y1856D01*
X985Y1856D02*
X994Y1856D01*
X1025Y1856D02*
X1034Y1856D01*
X1150Y1856D02*
X1159Y1856D01*
X1202Y1856D02*
X1251Y1856D01*
X591Y1855D02*
X600Y1855D01*
X624Y1855D02*
X633Y1855D01*
X663Y1855D02*
X673Y1855D01*
X716Y1855D02*
X725Y1855D01*
X778Y1855D02*
X787Y1855D01*
X798Y1855D02*
X807Y1855D01*
X933Y1855D02*
X942Y1855D01*
X985Y1855D02*
X994Y1855D01*
X1025Y1855D02*
X1034Y1855D01*
X1150Y1855D02*
X1159Y1855D01*
X1202Y1855D02*
X1251Y1855D01*
X591Y1854D02*
X600Y1854D01*
X624Y1854D02*
X633Y1854D01*
X663Y1854D02*
X673Y1854D01*
X716Y1854D02*
X725Y1854D01*
X778Y1854D02*
X787Y1854D01*
X798Y1854D02*
X807Y1854D01*
X933Y1854D02*
X942Y1854D01*
X985Y1854D02*
X994Y1854D01*
X1025Y1854D02*
X1034Y1854D01*
X1150Y1854D02*
X1159Y1854D01*
X1203Y1854D02*
X1251Y1854D01*
X591Y1853D02*
X600Y1853D01*
X624Y1853D02*
X633Y1853D01*
X663Y1853D02*
X673Y1853D01*
X716Y1853D02*
X725Y1853D01*
X778Y1853D02*
X788Y1853D01*
X798Y1853D02*
X807Y1853D01*
X933Y1853D02*
X942Y1853D01*
X985Y1853D02*
X994Y1853D01*
X1025Y1853D02*
X1034Y1853D01*
X1150Y1853D02*
X1159Y1853D01*
X1203Y1853D02*
X1251Y1853D01*
X558Y1852D02*
X600Y1852D01*
X624Y1852D02*
X633Y1852D01*
X663Y1852D02*
X673Y1852D01*
X716Y1852D02*
X725Y1852D01*
X774Y1852D02*
X811Y1852D01*
X933Y1852D02*
X942Y1852D01*
X985Y1852D02*
X994Y1852D01*
X1025Y1852D02*
X1034Y1852D01*
X1150Y1852D02*
X1159Y1852D01*
X1205Y1852D02*
X1251Y1852D01*
X556Y1851D02*
X600Y1851D01*
X624Y1851D02*
X633Y1851D01*
X663Y1851D02*
X673Y1851D01*
X716Y1851D02*
X725Y1851D01*
X773Y1851D02*
X813Y1851D01*
X933Y1851D02*
X942Y1851D01*
X985Y1851D02*
X994Y1851D01*
X1025Y1851D02*
X1034Y1851D01*
X1150Y1851D02*
X1159Y1851D01*
X1242Y1851D02*
X1251Y1851D01*
X555Y1850D02*
X600Y1850D01*
X624Y1850D02*
X633Y1850D01*
X663Y1850D02*
X673Y1850D01*
X716Y1850D02*
X725Y1850D01*
X771Y1850D02*
X814Y1850D01*
X933Y1850D02*
X942Y1850D01*
X985Y1850D02*
X994Y1850D01*
X1025Y1850D02*
X1034Y1850D01*
X1150Y1850D02*
X1159Y1850D01*
X1242Y1850D02*
X1251Y1850D01*
X554Y1849D02*
X599Y1849D01*
X624Y1849D02*
X633Y1849D01*
X663Y1849D02*
X673Y1849D01*
X716Y1849D02*
X725Y1849D01*
X771Y1849D02*
X815Y1849D01*
X933Y1849D02*
X942Y1849D01*
X985Y1849D02*
X994Y1849D01*
X1025Y1849D02*
X1034Y1849D01*
X1150Y1849D02*
X1159Y1849D01*
X1242Y1849D02*
X1251Y1849D01*
X553Y1848D02*
X599Y1848D01*
X624Y1848D02*
X633Y1848D01*
X663Y1848D02*
X673Y1848D01*
X716Y1848D02*
X725Y1848D01*
X770Y1848D02*
X816Y1848D01*
X933Y1848D02*
X942Y1848D01*
X985Y1848D02*
X994Y1848D01*
X1025Y1848D02*
X1034Y1848D01*
X1150Y1848D02*
X1159Y1848D01*
X1242Y1848D02*
X1251Y1848D01*
X552Y1847D02*
X598Y1847D01*
X624Y1847D02*
X633Y1847D01*
X663Y1847D02*
X673Y1847D01*
X716Y1847D02*
X725Y1847D01*
X769Y1847D02*
X816Y1847D01*
X933Y1847D02*
X942Y1847D01*
X985Y1847D02*
X994Y1847D01*
X1025Y1847D02*
X1034Y1847D01*
X1150Y1847D02*
X1159Y1847D01*
X1242Y1847D02*
X1251Y1847D01*
X552Y1846D02*
X597Y1846D01*
X624Y1846D02*
X633Y1846D01*
X663Y1846D02*
X673Y1846D01*
X716Y1846D02*
X725Y1846D01*
X769Y1846D02*
X817Y1846D01*
X933Y1846D02*
X942Y1846D01*
X985Y1846D02*
X994Y1846D01*
X1025Y1846D02*
X1034Y1846D01*
X1150Y1846D02*
X1159Y1846D01*
X1242Y1846D02*
X1251Y1846D01*
X552Y1845D02*
X596Y1845D01*
X624Y1845D02*
X633Y1845D01*
X663Y1845D02*
X673Y1845D01*
X716Y1845D02*
X725Y1845D01*
X769Y1845D02*
X817Y1845D01*
X933Y1845D02*
X942Y1845D01*
X985Y1845D02*
X994Y1845D01*
X1025Y1845D02*
X1034Y1845D01*
X1150Y1845D02*
X1159Y1845D01*
X1242Y1845D02*
X1251Y1845D01*
X552Y1844D02*
X595Y1844D01*
X624Y1844D02*
X633Y1844D01*
X663Y1844D02*
X673Y1844D01*
X716Y1844D02*
X725Y1844D01*
X739Y1844D02*
X742Y1844D01*
X768Y1844D02*
X817Y1844D01*
X933Y1844D02*
X942Y1844D01*
X956Y1844D02*
X959Y1844D01*
X985Y1844D02*
X994Y1844D01*
X1025Y1844D02*
X1034Y1844D01*
X1150Y1844D02*
X1159Y1844D01*
X1173Y1844D02*
X1176Y1844D01*
X1242Y1844D02*
X1251Y1844D01*
X552Y1843D02*
X592Y1843D01*
X624Y1843D02*
X633Y1843D01*
X663Y1843D02*
X673Y1843D01*
X716Y1843D02*
X725Y1843D01*
X737Y1843D02*
X743Y1843D01*
X768Y1843D02*
X817Y1843D01*
X933Y1843D02*
X942Y1843D01*
X954Y1843D02*
X960Y1843D01*
X985Y1843D02*
X994Y1843D01*
X1025Y1843D02*
X1034Y1843D01*
X1150Y1843D02*
X1159Y1843D01*
X1171Y1843D02*
X1177Y1843D01*
X1242Y1843D02*
X1251Y1843D01*
X551Y1842D02*
X561Y1842D01*
X624Y1842D02*
X633Y1842D01*
X663Y1842D02*
X673Y1842D01*
X716Y1842D02*
X725Y1842D01*
X737Y1842D02*
X744Y1842D01*
X768Y1842D02*
X777Y1842D01*
X808Y1842D02*
X817Y1842D01*
X933Y1842D02*
X942Y1842D01*
X953Y1842D02*
X961Y1842D01*
X985Y1842D02*
X994Y1842D01*
X1025Y1842D02*
X1034Y1842D01*
X1150Y1842D02*
X1159Y1842D01*
X1170Y1842D02*
X1178Y1842D01*
X1242Y1842D02*
X1251Y1842D01*
X551Y1841D02*
X561Y1841D01*
X624Y1841D02*
X633Y1841D01*
X663Y1841D02*
X673Y1841D01*
X716Y1841D02*
X725Y1841D01*
X736Y1841D02*
X745Y1841D01*
X768Y1841D02*
X777Y1841D01*
X808Y1841D02*
X817Y1841D01*
X933Y1841D02*
X942Y1841D01*
X953Y1841D02*
X961Y1841D01*
X985Y1841D02*
X994Y1841D01*
X1025Y1841D02*
X1034Y1841D01*
X1150Y1841D02*
X1159Y1841D01*
X1170Y1841D02*
X1178Y1841D01*
X1242Y1841D02*
X1251Y1841D01*
X551Y1840D02*
X561Y1840D01*
X624Y1840D02*
X633Y1840D01*
X663Y1840D02*
X673Y1840D01*
X716Y1840D02*
X725Y1840D01*
X736Y1840D02*
X745Y1840D01*
X768Y1840D02*
X777Y1840D01*
X808Y1840D02*
X817Y1840D01*
X860Y1840D02*
X870Y1840D01*
X933Y1840D02*
X942Y1840D01*
X953Y1840D02*
X962Y1840D01*
X985Y1840D02*
X994Y1840D01*
X1025Y1840D02*
X1034Y1840D01*
X1077Y1840D02*
X1087Y1840D01*
X1150Y1840D02*
X1159Y1840D01*
X1170Y1840D02*
X1179Y1840D01*
X1242Y1840D02*
X1251Y1840D01*
X551Y1839D02*
X561Y1839D01*
X624Y1839D02*
X633Y1839D01*
X663Y1839D02*
X673Y1839D01*
X716Y1839D02*
X725Y1839D01*
X736Y1839D02*
X745Y1839D01*
X768Y1839D02*
X777Y1839D01*
X808Y1839D02*
X817Y1839D01*
X857Y1839D02*
X873Y1839D01*
X933Y1839D02*
X942Y1839D01*
X953Y1839D02*
X962Y1839D01*
X985Y1839D02*
X994Y1839D01*
X1025Y1839D02*
X1034Y1839D01*
X1074Y1839D02*
X1090Y1839D01*
X1150Y1839D02*
X1159Y1839D01*
X1170Y1839D02*
X1179Y1839D01*
X1242Y1839D02*
X1251Y1839D01*
X551Y1838D02*
X561Y1838D01*
X624Y1838D02*
X633Y1838D01*
X663Y1838D02*
X673Y1838D01*
X716Y1838D02*
X725Y1838D01*
X736Y1838D02*
X745Y1838D01*
X768Y1838D02*
X777Y1838D01*
X808Y1838D02*
X817Y1838D01*
X856Y1838D02*
X874Y1838D01*
X933Y1838D02*
X942Y1838D01*
X953Y1838D02*
X962Y1838D01*
X985Y1838D02*
X994Y1838D01*
X1025Y1838D02*
X1034Y1838D01*
X1073Y1838D02*
X1090Y1838D01*
X1150Y1838D02*
X1159Y1838D01*
X1170Y1838D02*
X1179Y1838D01*
X1242Y1838D02*
X1251Y1838D01*
X551Y1837D02*
X561Y1837D01*
X624Y1837D02*
X633Y1837D01*
X663Y1837D02*
X673Y1837D01*
X716Y1837D02*
X725Y1837D01*
X736Y1837D02*
X745Y1837D01*
X768Y1837D02*
X777Y1837D01*
X808Y1837D02*
X817Y1837D01*
X856Y1837D02*
X874Y1837D01*
X933Y1837D02*
X942Y1837D01*
X953Y1837D02*
X962Y1837D01*
X985Y1837D02*
X994Y1837D01*
X1025Y1837D02*
X1034Y1837D01*
X1073Y1837D02*
X1091Y1837D01*
X1150Y1837D02*
X1159Y1837D01*
X1170Y1837D02*
X1179Y1837D01*
X1242Y1837D02*
X1251Y1837D01*
X551Y1836D02*
X561Y1836D01*
X624Y1836D02*
X633Y1836D01*
X663Y1836D02*
X673Y1836D01*
X716Y1836D02*
X725Y1836D01*
X736Y1836D02*
X745Y1836D01*
X768Y1836D02*
X777Y1836D01*
X808Y1836D02*
X817Y1836D01*
X856Y1836D02*
X874Y1836D01*
X933Y1836D02*
X942Y1836D01*
X953Y1836D02*
X962Y1836D01*
X985Y1836D02*
X994Y1836D01*
X1025Y1836D02*
X1034Y1836D01*
X1073Y1836D02*
X1091Y1836D01*
X1150Y1836D02*
X1159Y1836D01*
X1170Y1836D02*
X1179Y1836D01*
X1242Y1836D02*
X1251Y1836D01*
X551Y1835D02*
X561Y1835D01*
X624Y1835D02*
X633Y1835D01*
X663Y1835D02*
X673Y1835D01*
X716Y1835D02*
X725Y1835D01*
X736Y1835D02*
X745Y1835D01*
X768Y1835D02*
X777Y1835D01*
X808Y1835D02*
X817Y1835D01*
X855Y1835D02*
X875Y1835D01*
X933Y1835D02*
X942Y1835D01*
X953Y1835D02*
X962Y1835D01*
X985Y1835D02*
X994Y1835D01*
X1025Y1835D02*
X1034Y1835D01*
X1072Y1835D02*
X1091Y1835D01*
X1150Y1835D02*
X1159Y1835D01*
X1170Y1835D02*
X1179Y1835D01*
X1242Y1835D02*
X1251Y1835D01*
X551Y1834D02*
X561Y1834D01*
X624Y1834D02*
X633Y1834D01*
X663Y1834D02*
X673Y1834D01*
X716Y1834D02*
X725Y1834D01*
X736Y1834D02*
X745Y1834D01*
X768Y1834D02*
X777Y1834D01*
X808Y1834D02*
X817Y1834D01*
X855Y1834D02*
X875Y1834D01*
X933Y1834D02*
X942Y1834D01*
X953Y1834D02*
X962Y1834D01*
X985Y1834D02*
X994Y1834D01*
X1025Y1834D02*
X1034Y1834D01*
X1072Y1834D02*
X1091Y1834D01*
X1150Y1834D02*
X1159Y1834D01*
X1170Y1834D02*
X1179Y1834D01*
X1242Y1834D02*
X1251Y1834D01*
X551Y1833D02*
X561Y1833D01*
X624Y1833D02*
X633Y1833D01*
X663Y1833D02*
X673Y1833D01*
X716Y1833D02*
X725Y1833D01*
X736Y1833D02*
X745Y1833D01*
X768Y1833D02*
X777Y1833D01*
X808Y1833D02*
X817Y1833D01*
X855Y1833D02*
X875Y1833D01*
X933Y1833D02*
X942Y1833D01*
X953Y1833D02*
X962Y1833D01*
X985Y1833D02*
X994Y1833D01*
X1025Y1833D02*
X1034Y1833D01*
X1072Y1833D02*
X1091Y1833D01*
X1150Y1833D02*
X1159Y1833D01*
X1170Y1833D02*
X1179Y1833D01*
X1242Y1833D02*
X1251Y1833D01*
X551Y1832D02*
X561Y1832D01*
X624Y1832D02*
X633Y1832D01*
X663Y1832D02*
X673Y1832D01*
X716Y1832D02*
X725Y1832D01*
X736Y1832D02*
X745Y1832D01*
X768Y1832D02*
X777Y1832D01*
X808Y1832D02*
X817Y1832D01*
X855Y1832D02*
X875Y1832D01*
X933Y1832D02*
X942Y1832D01*
X953Y1832D02*
X962Y1832D01*
X985Y1832D02*
X994Y1832D01*
X1025Y1832D02*
X1034Y1832D01*
X1072Y1832D02*
X1091Y1832D01*
X1150Y1832D02*
X1159Y1832D01*
X1170Y1832D02*
X1179Y1832D01*
X1242Y1832D02*
X1251Y1832D01*
X551Y1831D02*
X561Y1831D01*
X624Y1831D02*
X633Y1831D01*
X663Y1831D02*
X673Y1831D01*
X716Y1831D02*
X725Y1831D01*
X736Y1831D02*
X745Y1831D01*
X768Y1831D02*
X777Y1831D01*
X808Y1831D02*
X817Y1831D01*
X855Y1831D02*
X875Y1831D01*
X933Y1831D02*
X942Y1831D01*
X953Y1831D02*
X962Y1831D01*
X985Y1831D02*
X994Y1831D01*
X1025Y1831D02*
X1034Y1831D01*
X1072Y1831D02*
X1091Y1831D01*
X1150Y1831D02*
X1159Y1831D01*
X1170Y1831D02*
X1179Y1831D01*
X1242Y1831D02*
X1251Y1831D01*
X551Y1830D02*
X561Y1830D01*
X624Y1830D02*
X633Y1830D01*
X663Y1830D02*
X673Y1830D01*
X716Y1830D02*
X725Y1830D01*
X736Y1830D02*
X745Y1830D01*
X768Y1830D02*
X777Y1830D01*
X808Y1830D02*
X817Y1830D01*
X855Y1830D02*
X875Y1830D01*
X933Y1830D02*
X942Y1830D01*
X953Y1830D02*
X962Y1830D01*
X985Y1830D02*
X994Y1830D01*
X1025Y1830D02*
X1034Y1830D01*
X1072Y1830D02*
X1091Y1830D01*
X1150Y1830D02*
X1159Y1830D01*
X1170Y1830D02*
X1179Y1830D01*
X1242Y1830D02*
X1251Y1830D01*
X551Y1829D02*
X561Y1829D01*
X624Y1829D02*
X633Y1829D01*
X663Y1829D02*
X673Y1829D01*
X716Y1829D02*
X725Y1829D01*
X736Y1829D02*
X745Y1829D01*
X768Y1829D02*
X777Y1829D01*
X808Y1829D02*
X817Y1829D01*
X855Y1829D02*
X875Y1829D01*
X933Y1829D02*
X942Y1829D01*
X953Y1829D02*
X962Y1829D01*
X985Y1829D02*
X994Y1829D01*
X1025Y1829D02*
X1034Y1829D01*
X1072Y1829D02*
X1091Y1829D01*
X1150Y1829D02*
X1159Y1829D01*
X1170Y1829D02*
X1179Y1829D01*
X1242Y1829D02*
X1251Y1829D01*
X551Y1828D02*
X561Y1828D01*
X624Y1828D02*
X633Y1828D01*
X663Y1828D02*
X673Y1828D01*
X716Y1828D02*
X725Y1828D01*
X736Y1828D02*
X745Y1828D01*
X768Y1828D02*
X777Y1828D01*
X808Y1828D02*
X817Y1828D01*
X855Y1828D02*
X875Y1828D01*
X933Y1828D02*
X942Y1828D01*
X953Y1828D02*
X962Y1828D01*
X985Y1828D02*
X994Y1828D01*
X1025Y1828D02*
X1034Y1828D01*
X1072Y1828D02*
X1091Y1828D01*
X1150Y1828D02*
X1159Y1828D01*
X1170Y1828D02*
X1179Y1828D01*
X1242Y1828D02*
X1251Y1828D01*
X551Y1827D02*
X561Y1827D01*
X624Y1827D02*
X633Y1827D01*
X663Y1827D02*
X673Y1827D01*
X716Y1827D02*
X725Y1827D01*
X736Y1827D02*
X745Y1827D01*
X768Y1827D02*
X777Y1827D01*
X808Y1827D02*
X817Y1827D01*
X855Y1827D02*
X875Y1827D01*
X933Y1827D02*
X942Y1827D01*
X953Y1827D02*
X962Y1827D01*
X985Y1827D02*
X994Y1827D01*
X1025Y1827D02*
X1034Y1827D01*
X1072Y1827D02*
X1091Y1827D01*
X1150Y1827D02*
X1159Y1827D01*
X1170Y1827D02*
X1179Y1827D01*
X1242Y1827D02*
X1251Y1827D01*
X551Y1826D02*
X561Y1826D01*
X624Y1826D02*
X633Y1826D01*
X663Y1826D02*
X673Y1826D01*
X716Y1826D02*
X725Y1826D01*
X736Y1826D02*
X745Y1826D01*
X768Y1826D02*
X777Y1826D01*
X808Y1826D02*
X817Y1826D01*
X856Y1826D02*
X874Y1826D01*
X933Y1826D02*
X942Y1826D01*
X953Y1826D02*
X962Y1826D01*
X985Y1826D02*
X994Y1826D01*
X1025Y1826D02*
X1034Y1826D01*
X1072Y1826D02*
X1091Y1826D01*
X1150Y1826D02*
X1159Y1826D01*
X1170Y1826D02*
X1179Y1826D01*
X1242Y1826D02*
X1251Y1826D01*
X551Y1825D02*
X561Y1825D01*
X624Y1825D02*
X633Y1825D01*
X663Y1825D02*
X673Y1825D01*
X716Y1825D02*
X725Y1825D01*
X736Y1825D02*
X745Y1825D01*
X768Y1825D02*
X777Y1825D01*
X808Y1825D02*
X817Y1825D01*
X856Y1825D02*
X874Y1825D01*
X933Y1825D02*
X942Y1825D01*
X953Y1825D02*
X962Y1825D01*
X985Y1825D02*
X994Y1825D01*
X1025Y1825D02*
X1034Y1825D01*
X1073Y1825D02*
X1091Y1825D01*
X1150Y1825D02*
X1159Y1825D01*
X1170Y1825D02*
X1179Y1825D01*
X1242Y1825D02*
X1251Y1825D01*
X551Y1824D02*
X561Y1824D01*
X624Y1824D02*
X633Y1824D01*
X663Y1824D02*
X673Y1824D01*
X716Y1824D02*
X725Y1824D01*
X736Y1824D02*
X745Y1824D01*
X768Y1824D02*
X777Y1824D01*
X808Y1824D02*
X817Y1824D01*
X856Y1824D02*
X874Y1824D01*
X933Y1824D02*
X942Y1824D01*
X953Y1824D02*
X962Y1824D01*
X985Y1824D02*
X994Y1824D01*
X1025Y1824D02*
X1034Y1824D01*
X1073Y1824D02*
X1091Y1824D01*
X1150Y1824D02*
X1159Y1824D01*
X1170Y1824D02*
X1179Y1824D01*
X1242Y1824D02*
X1251Y1824D01*
X551Y1823D02*
X561Y1823D01*
X624Y1823D02*
X633Y1823D01*
X663Y1823D02*
X673Y1823D01*
X716Y1823D02*
X725Y1823D01*
X736Y1823D02*
X745Y1823D01*
X768Y1823D02*
X777Y1823D01*
X808Y1823D02*
X817Y1823D01*
X857Y1823D02*
X873Y1823D01*
X933Y1823D02*
X942Y1823D01*
X953Y1823D02*
X962Y1823D01*
X985Y1823D02*
X994Y1823D01*
X1025Y1823D02*
X1034Y1823D01*
X1074Y1823D02*
X1090Y1823D01*
X1150Y1823D02*
X1159Y1823D01*
X1170Y1823D02*
X1179Y1823D01*
X1242Y1823D02*
X1251Y1823D01*
X551Y1822D02*
X561Y1822D01*
X624Y1822D02*
X633Y1822D01*
X663Y1822D02*
X673Y1822D01*
X716Y1822D02*
X725Y1822D01*
X736Y1822D02*
X745Y1822D01*
X768Y1822D02*
X777Y1822D01*
X808Y1822D02*
X817Y1822D01*
X859Y1822D02*
X871Y1822D01*
X933Y1822D02*
X942Y1822D01*
X953Y1822D02*
X962Y1822D01*
X985Y1822D02*
X994Y1822D01*
X1025Y1822D02*
X1034Y1822D01*
X1075Y1822D02*
X1088Y1822D01*
X1150Y1822D02*
X1159Y1822D01*
X1170Y1822D02*
X1179Y1822D01*
X1242Y1822D02*
X1251Y1822D01*
X551Y1821D02*
X561Y1821D01*
X624Y1821D02*
X633Y1821D01*
X663Y1821D02*
X673Y1821D01*
X716Y1821D02*
X725Y1821D01*
X736Y1821D02*
X745Y1821D01*
X768Y1821D02*
X777Y1821D01*
X808Y1821D02*
X817Y1821D01*
X933Y1821D02*
X942Y1821D01*
X953Y1821D02*
X962Y1821D01*
X985Y1821D02*
X994Y1821D01*
X1025Y1821D02*
X1034Y1821D01*
X1150Y1821D02*
X1159Y1821D01*
X1170Y1821D02*
X1179Y1821D01*
X1242Y1821D02*
X1251Y1821D01*
X551Y1820D02*
X561Y1820D01*
X624Y1820D02*
X633Y1820D01*
X663Y1820D02*
X673Y1820D01*
X716Y1820D02*
X725Y1820D01*
X736Y1820D02*
X745Y1820D01*
X768Y1820D02*
X777Y1820D01*
X808Y1820D02*
X817Y1820D01*
X933Y1820D02*
X942Y1820D01*
X953Y1820D02*
X962Y1820D01*
X985Y1820D02*
X994Y1820D01*
X1025Y1820D02*
X1034Y1820D01*
X1150Y1820D02*
X1159Y1820D01*
X1170Y1820D02*
X1179Y1820D01*
X1242Y1820D02*
X1251Y1820D01*
X551Y1819D02*
X561Y1819D01*
X624Y1819D02*
X633Y1819D01*
X663Y1819D02*
X673Y1819D01*
X715Y1819D02*
X725Y1819D01*
X735Y1819D02*
X745Y1819D01*
X768Y1819D02*
X778Y1819D01*
X808Y1819D02*
X817Y1819D01*
X932Y1819D02*
X942Y1819D01*
X952Y1819D02*
X962Y1819D01*
X985Y1819D02*
X995Y1819D01*
X1025Y1819D02*
X1034Y1819D01*
X1149Y1819D02*
X1159Y1819D01*
X1169Y1819D02*
X1179Y1819D01*
X1242Y1819D02*
X1251Y1819D01*
X551Y1818D02*
X598Y1818D01*
X624Y1818D02*
X673Y1818D01*
X698Y1818D02*
X745Y1818D01*
X768Y1818D02*
X817Y1818D01*
X915Y1818D02*
X962Y1818D01*
X985Y1818D02*
X1034Y1818D01*
X1132Y1818D02*
X1179Y1818D01*
X1239Y1818D02*
X1251Y1818D01*
X551Y1817D02*
X599Y1817D01*
X624Y1817D02*
X672Y1817D01*
X697Y1817D02*
X745Y1817D01*
X769Y1817D02*
X817Y1817D01*
X914Y1817D02*
X962Y1817D01*
X985Y1817D02*
X1034Y1817D01*
X1131Y1817D02*
X1179Y1817D01*
X1238Y1817D02*
X1251Y1817D01*
X551Y1816D02*
X600Y1816D01*
X624Y1816D02*
X672Y1816D01*
X697Y1816D02*
X745Y1816D01*
X769Y1816D02*
X817Y1816D01*
X913Y1816D02*
X962Y1816D01*
X986Y1816D02*
X1034Y1816D01*
X1130Y1816D02*
X1179Y1816D01*
X1237Y1816D02*
X1251Y1816D01*
X551Y1815D02*
X600Y1815D01*
X625Y1815D02*
X672Y1815D01*
X696Y1815D02*
X745Y1815D01*
X769Y1815D02*
X816Y1815D01*
X913Y1815D02*
X962Y1815D01*
X986Y1815D02*
X1033Y1815D01*
X1130Y1815D02*
X1179Y1815D01*
X1237Y1815D02*
X1251Y1815D01*
X551Y1814D02*
X600Y1814D01*
X625Y1814D02*
X671Y1814D01*
X696Y1814D02*
X745Y1814D01*
X770Y1814D02*
X816Y1814D01*
X913Y1814D02*
X962Y1814D01*
X987Y1814D02*
X1033Y1814D01*
X1130Y1814D02*
X1179Y1814D01*
X1237Y1814D02*
X1251Y1814D01*
X551Y1813D02*
X600Y1813D01*
X626Y1813D02*
X671Y1813D01*
X696Y1813D02*
X745Y1813D01*
X770Y1813D02*
X815Y1813D01*
X913Y1813D02*
X962Y1813D01*
X987Y1813D02*
X1032Y1813D01*
X1130Y1813D02*
X1178Y1813D01*
X1237Y1813D02*
X1251Y1813D01*
X551Y1812D02*
X600Y1812D01*
X627Y1812D02*
X670Y1812D01*
X697Y1812D02*
X744Y1812D01*
X771Y1812D02*
X814Y1812D01*
X913Y1812D02*
X961Y1812D01*
X988Y1812D02*
X1031Y1812D01*
X1130Y1812D02*
X1178Y1812D01*
X1237Y1812D02*
X1250Y1812D01*
X551Y1811D02*
X599Y1811D01*
X628Y1811D02*
X669Y1811D01*
X697Y1811D02*
X744Y1811D01*
X772Y1811D02*
X813Y1811D01*
X914Y1811D02*
X961Y1811D01*
X989Y1811D02*
X1030Y1811D01*
X1131Y1811D02*
X1178Y1811D01*
X1238Y1811D02*
X1250Y1811D01*
X551Y1810D02*
X598Y1810D01*
X629Y1810D02*
X667Y1810D01*
X698Y1810D02*
X743Y1810D01*
X774Y1810D02*
X812Y1810D01*
X915Y1810D02*
X960Y1810D01*
X991Y1810D02*
X1028Y1810D01*
X1132Y1810D02*
X1177Y1810D01*
X1239Y1810D02*
X1249Y1810D01*
X552Y1809D02*
X596Y1809D01*
X632Y1809D02*
X664Y1809D01*
X700Y1809D02*
X741Y1809D01*
X777Y1809D02*
X809Y1809D01*
X917Y1809D02*
X957Y1809D01*
X994Y1809D02*
X1025Y1809D01*
X1134Y1809D02*
X1174Y1809D01*
X1241Y1809D02*
X1247Y1809D01*
X14221Y233D02*
X14436Y233D01*
X14220Y232D02*
X14436Y232D01*
X14220Y231D02*
X14436Y231D01*
X14220Y230D02*
X14436Y230D01*
X14220Y229D02*
X14436Y229D01*
X14220Y228D02*
X14436Y228D01*
X14220Y227D02*
X14436Y227D01*
X14220Y226D02*
X14436Y226D01*
X14220Y225D02*
X14436Y225D01*
X14220Y224D02*
X14436Y224D01*
X14220Y223D02*
X14436Y223D01*
X14220Y222D02*
X14436Y222D01*
X14220Y221D02*
X14436Y221D01*
X14220Y220D02*
X14436Y220D01*
X14220Y219D02*
X14436Y219D01*
X14220Y218D02*
X14436Y218D01*
X14220Y217D02*
X14436Y217D01*
X14220Y216D02*
X14436Y216D01*
X14220Y215D02*
X14436Y215D01*
X14220Y214D02*
X14436Y214D01*
X14220Y213D02*
X14436Y213D01*
X14220Y212D02*
X14436Y212D01*
X14220Y211D02*
X14436Y211D01*
X14220Y210D02*
X14436Y210D01*
X14220Y209D02*
X14436Y209D01*
X14220Y208D02*
X14436Y208D01*
X14220Y207D02*
X14436Y207D01*
X14220Y206D02*
X14436Y206D01*
X14220Y205D02*
X14436Y205D01*
X14220Y204D02*
X14436Y204D01*
X14220Y203D02*
X14436Y203D01*
X14220Y202D02*
X14436Y202D01*
X14220Y201D02*
X14436Y201D01*
X14220Y200D02*
X14436Y200D01*
X14220Y199D02*
X14436Y199D01*
X14220Y198D02*
X14436Y198D01*
X14220Y197D02*
X14436Y197D01*
X14220Y196D02*
X14436Y196D01*
X14220Y195D02*
X14436Y195D01*
X14220Y194D02*
X14436Y194D01*
X14220Y193D02*
X14436Y193D01*
X14220Y192D02*
X14436Y192D01*
X14220Y191D02*
X14436Y191D01*
X14220Y190D02*
X14436Y190D01*
X14220Y189D02*
X14436Y189D01*
X14220Y188D02*
X14436Y188D01*
X14220Y187D02*
X14436Y187D01*
X14220Y186D02*
X14436Y186D01*
X14220Y185D02*
X14436Y185D01*
X14220Y184D02*
X14436Y184D01*
X14220Y183D02*
X14436Y183D01*
X14220Y182D02*
X14436Y182D01*
X14220Y181D02*
X14436Y181D01*
X14220Y180D02*
X14436Y180D01*
X14220Y179D02*
X14436Y179D01*
X14220Y178D02*
X14436Y178D01*
X14220Y177D02*
X14436Y177D01*
X14220Y176D02*
X14436Y176D01*
X14220Y175D02*
X14436Y175D01*
X14220Y174D02*
X14436Y174D01*
X14220Y173D02*
X14436Y173D01*
X14220Y172D02*
X14436Y172D01*
X14220Y171D02*
X14436Y171D01*
X14220Y170D02*
X14436Y170D01*
X14220Y169D02*
X14436Y169D01*
X14220Y168D02*
X14436Y168D01*
X14220Y167D02*
X14436Y167D01*
X14220Y166D02*
X14436Y166D01*
X14220Y165D02*
X14436Y165D01*
X14220Y164D02*
X14436Y164D01*
X14220Y163D02*
X14436Y163D01*
X14220Y162D02*
X14436Y162D01*
X14220Y161D02*
X14436Y161D01*
X14220Y160D02*
X14436Y160D01*
X14220Y159D02*
X14436Y159D01*
X14220Y158D02*
X14436Y158D01*
X14220Y157D02*
X14436Y157D01*
X14220Y156D02*
X14436Y156D01*
X14220Y155D02*
X14436Y155D01*
X14220Y154D02*
X14436Y154D01*
X14220Y153D02*
X14436Y153D01*
X14220Y152D02*
X14436Y152D01*
X14220Y151D02*
X14436Y151D01*
X14220Y150D02*
X14436Y150D01*
X14220Y149D02*
X14436Y149D01*
X14220Y148D02*
X14436Y148D01*
X14220Y147D02*
X14436Y147D01*
X14220Y146D02*
X14436Y146D01*
X14220Y145D02*
X14436Y145D01*
X14220Y144D02*
X14436Y144D01*
X14220Y143D02*
X14436Y143D01*
X14220Y142D02*
X14436Y142D01*
X14220Y141D02*
X14436Y141D01*
X14220Y140D02*
X14436Y140D01*
X14220Y139D02*
X14436Y139D01*
X14220Y138D02*
X14436Y138D01*
X14220Y137D02*
X14436Y137D01*
X14220Y136D02*
X14436Y136D01*
X14220Y135D02*
X14436Y135D01*
X14220Y134D02*
X14436Y134D01*
X14220Y133D02*
X14436Y133D01*
X14220Y132D02*
X14436Y132D01*
X14220Y131D02*
X14436Y131D01*
X14220Y130D02*
X14436Y130D01*
X14220Y129D02*
X14436Y129D01*
X14220Y128D02*
X14436Y128D01*
X14220Y127D02*
X14436Y127D01*
X14220Y126D02*
X14436Y126D01*
X14220Y125D02*
X14436Y125D01*
X14220Y124D02*
X14436Y124D01*
X14220Y123D02*
X14436Y123D01*
X14220Y122D02*
X14436Y122D01*
X14220Y121D02*
X14436Y121D01*
X14220Y120D02*
X14436Y120D01*
X14220Y119D02*
X14436Y119D01*
X14220Y118D02*
X14436Y118D01*
X14220Y117D02*
X14436Y117D01*
X14220Y116D02*
X14436Y116D01*
X14220Y115D02*
X14436Y115D01*
X14220Y114D02*
X14436Y114D01*
X14220Y113D02*
X14436Y113D01*
X14220Y112D02*
X14436Y112D01*
X14220Y111D02*
X14436Y111D01*
X14220Y110D02*
X14436Y110D01*
X14220Y109D02*
X14436Y109D01*
X14220Y108D02*
X14436Y108D01*
X14220Y107D02*
X14436Y107D01*
X14220Y106D02*
X14436Y106D01*
X14220Y105D02*
X14436Y105D01*
X14220Y104D02*
X14436Y104D01*
X14220Y103D02*
X14436Y103D01*
X14220Y102D02*
X14436Y102D01*
X14220Y101D02*
X14436Y101D01*
X14220Y100D02*
X14436Y100D01*
X14220Y99D02*
X14436Y99D01*
X14220Y98D02*
X14436Y98D01*
X14220Y97D02*
X14436Y97D01*
X14220Y96D02*
X14436Y96D01*
X14220Y95D02*
X14436Y95D01*
X14220Y94D02*
X14436Y94D01*
X14220Y93D02*
X14436Y93D01*
X14220Y92D02*
X14436Y92D01*
X14220Y91D02*
X14436Y91D01*
X14220Y90D02*
X14436Y90D01*
X14220Y89D02*
X14436Y89D01*
X14220Y88D02*
X14436Y88D01*
X14220Y87D02*
X14436Y87D01*
X14220Y86D02*
X14436Y86D01*
X14220Y85D02*
X14436Y85D01*
X14220Y84D02*
X14436Y84D01*
X14220Y83D02*
X14436Y83D01*
X14220Y82D02*
X14436Y82D01*
X14220Y81D02*
X14436Y81D01*
X14220Y80D02*
X14436Y80D01*
X14220Y79D02*
X14436Y79D01*
X14220Y78D02*
X14436Y78D01*
X14220Y77D02*
X14436Y77D01*
X14220Y76D02*
X14436Y76D01*
X14220Y75D02*
X14436Y75D01*
X13904Y74D02*
X13974Y74D01*
X14219Y74D02*
X14436Y74D01*
X13904Y73D02*
X13974Y73D01*
X14219Y73D02*
X14436Y73D01*
X13904Y72D02*
X13974Y72D01*
X14219Y72D02*
X14436Y72D01*
X13904Y71D02*
X13974Y71D01*
X14219Y71D02*
X14436Y71D01*
X13904Y70D02*
X13974Y70D01*
X14219Y70D02*
X14436Y70D01*
X13904Y69D02*
X13974Y69D01*
X14219Y69D02*
X14436Y69D01*
X13904Y68D02*
X13974Y68D01*
X14219Y68D02*
X14436Y68D01*
X13904Y67D02*
X13974Y67D01*
X14219Y67D02*
X14436Y67D01*
X13904Y66D02*
X13974Y66D01*
X14219Y66D02*
X14436Y66D01*
X13904Y65D02*
X13974Y65D01*
X14219Y65D02*
X14436Y65D01*
X13904Y64D02*
X13974Y64D01*
X14219Y64D02*
X14436Y64D01*
X13904Y63D02*
X13974Y63D01*
X14219Y63D02*
X14436Y63D01*
X13904Y62D02*
X13974Y62D01*
X14219Y62D02*
X14436Y62D01*
X13904Y61D02*
X13974Y61D01*
X14219Y61D02*
X14436Y61D01*
X13904Y60D02*
X13974Y60D01*
X14219Y60D02*
X14436Y60D01*
X13904Y59D02*
X13974Y59D01*
X14219Y59D02*
X14436Y59D01*
X13904Y58D02*
X13974Y58D01*
X14219Y58D02*
X14436Y58D01*
X13904Y57D02*
X13974Y57D01*
X14219Y57D02*
X14436Y57D01*
X13904Y56D02*
X13974Y56D01*
X14219Y56D02*
X14436Y56D01*
X13904Y55D02*
X13974Y55D01*
X14219Y55D02*
X14436Y55D01*
X13904Y54D02*
X13974Y54D01*
X14219Y54D02*
X14436Y54D01*
X13904Y53D02*
X13974Y53D01*
X14219Y53D02*
X14436Y53D01*
X13904Y52D02*
X13974Y52D01*
X14219Y52D02*
X14436Y52D01*
X13904Y51D02*
X13974Y51D01*
X14219Y51D02*
X14436Y51D01*
X13904Y50D02*
X13974Y50D01*
X14219Y50D02*
X14436Y50D01*
X13904Y49D02*
X13974Y49D01*
X14219Y49D02*
X14436Y49D01*
X13904Y48D02*
X13974Y48D01*
X14219Y48D02*
X14436Y48D01*
X13904Y47D02*
X13974Y47D01*
X14219Y47D02*
X14436Y47D01*
X13904Y46D02*
X13974Y46D01*
X14219Y46D02*
X14436Y46D01*
X13904Y45D02*
X13974Y45D01*
X14219Y45D02*
X14436Y45D01*
X13904Y44D02*
X13974Y44D01*
X14219Y44D02*
X14436Y44D01*
X13904Y43D02*
X13974Y43D01*
X14219Y43D02*
X14436Y43D01*
X13904Y42D02*
X13974Y42D01*
X14219Y42D02*
X14436Y42D01*
X13904Y41D02*
X13974Y41D01*
X14219Y41D02*
X14436Y41D01*
X13904Y40D02*
X13974Y40D01*
X14219Y40D02*
X14436Y40D01*
X13904Y39D02*
X13974Y39D01*
X14219Y39D02*
X14436Y39D01*
X13904Y38D02*
X13974Y38D01*
X14219Y38D02*
X14436Y38D01*
X13904Y37D02*
X13974Y37D01*
X14219Y37D02*
X14436Y37D01*
X13904Y36D02*
X13974Y36D01*
X14219Y36D02*
X14436Y36D01*
X13904Y35D02*
X13974Y35D01*
X14219Y35D02*
X14436Y35D01*
X13904Y34D02*
X13974Y34D01*
X14219Y34D02*
X14436Y34D01*
X13904Y33D02*
X13974Y33D01*
X14219Y33D02*
X14436Y33D01*
X13904Y32D02*
X13974Y32D01*
X14219Y32D02*
X14436Y32D01*
X13904Y31D02*
X13974Y31D01*
X14219Y31D02*
X14436Y31D01*
X13904Y30D02*
X13974Y30D01*
X14219Y30D02*
X14436Y30D01*
X13904Y29D02*
X13974Y29D01*
X14219Y29D02*
X14436Y29D01*
X13904Y28D02*
X13974Y28D01*
X14219Y28D02*
X14436Y28D01*
X13904Y27D02*
X13974Y27D01*
X14219Y27D02*
X14436Y27D01*
X13904Y26D02*
X13974Y26D01*
X14219Y26D02*
X14436Y26D01*
X13904Y25D02*
X13974Y25D01*
X14219Y25D02*
X14436Y25D01*
X13904Y24D02*
X13974Y24D01*
X14219Y24D02*
X14436Y24D01*
X13904Y23D02*
X13974Y23D01*
X14219Y23D02*
X14436Y23D01*
X13904Y22D02*
X13974Y22D01*
X14219Y22D02*
X14436Y22D01*
X13904Y21D02*
X13974Y21D01*
X14219Y21D02*
X14436Y21D01*
X13904Y20D02*
X13974Y20D01*
X14219Y20D02*
X14436Y20D01*
X13904Y19D02*
X13974Y19D01*
X14219Y19D02*
X14436Y19D01*
X13904Y18D02*
X13974Y18D01*
X14219Y18D02*
X14436Y18D01*
X13904Y17D02*
X13974Y17D01*
X14219Y17D02*
X14436Y17D01*
X13904Y16D02*
X13974Y16D01*
X14219Y16D02*
X14436Y16D01*
X13904Y15D02*
X13974Y15D01*
X14219Y15D02*
X14436Y15D01*
X13904Y14D02*
X13974Y14D01*
X14219Y14D02*
X14436Y14D01*
X13904Y13D02*
X13974Y13D01*
X14219Y13D02*
X14436Y13D01*
X13904Y12D02*
X13974Y12D01*
X14219Y12D02*
X14436Y12D01*
X13904Y11D02*
X13974Y11D01*
X14219Y11D02*
X14436Y11D01*
X13904Y10D02*
X13974Y10D01*
X14219Y10D02*
X14436Y10D01*
X13904Y9D02*
X13974Y9D01*
X14219Y9D02*
X14436Y9D01*
X13904Y8D02*
X13974Y8D01*
X14219Y8D02*
X14436Y8D01*
X13904Y7D02*
X13974Y7D01*
X14219Y7D02*
X14436Y7D01*
X13904Y6D02*
X13974Y6D01*
X14219Y6D02*
X14436Y6D01*
X13904Y5D02*
X13974Y5D01*
X14219Y5D02*
X14436Y5D01*
X13904Y4D02*
X13974Y4D01*
X14219Y4D02*
X14436Y4D01*
X13904Y3D02*
X13974Y3D01*
X14219Y3D02*
X14436Y3D01*
X13904Y2D02*
X13974Y2D01*
X14219Y2D02*
X14436Y2D01*
X13904Y1D02*
X13974Y1D01*
X14219Y1D02*
X14436Y1D01*
X13904Y0D02*
X13974Y0D01*
X14219Y0D02*
X14436Y0D01*
D02*
G04 End of Copper1*
M02*