G04 MADE WITH FRITZING*
G04 WWW.FRITZING.ORG*
G04 DOUBLE SIDED*
G04 HOLES PLATED*
G04 CONTOUR ON CENTER OF CONTOUR VECTOR*
%ASAXBY*%
%FSLAX23Y23*%
%MOIN*%
%OFA0B0*%
%SFA1.0B1.0*%
%ADD10C,0.078000*%
%ADD11C,0.039370*%
%ADD12C,0.075000*%
%ADD13C,0.204725*%
%ADD14C,0.087000*%
%ADD15C,0.088000*%
%ADD16C,0.123000*%
%ADD17C,0.062992*%
%ADD18C,0.070361*%
%ADD19R,0.075000X0.075000*%
%ADD20R,0.123000X0.123000*%
%ADD21R,0.062992X0.062992*%
%ADD22C,0.024000*%
%ADD23C,0.048000*%
%ADD24C,0.080000*%
%ADD25C,0.090000*%
%ADD26C,0.032000*%
%ADD27C,0.020000*%
%ADD28R,0.001000X0.001000*%
%LNCOPPER0*%
G90*
G70*
G54D10*
X5230Y1891D03*
X14230Y441D03*
X14130Y441D03*
X14030Y441D03*
X13930Y441D03*
G54D11*
X304Y316D03*
X779Y316D03*
X9555Y1666D03*
X9105Y1591D03*
X5730Y1491D03*
X5655Y1441D03*
X6630Y1316D03*
X4830Y1316D03*
X2980Y1541D03*
X8655Y316D03*
X7930Y316D03*
X13455Y316D03*
X1305Y316D03*
X3130Y316D03*
X2155Y316D03*
X2680Y316D03*
X5930Y1641D03*
X6555Y1391D03*
X4905Y1391D03*
X5855Y1591D03*
G54D12*
X2630Y1241D03*
X2630Y941D03*
X2530Y1241D03*
X2530Y941D03*
X2430Y1241D03*
X2430Y941D03*
X2330Y1241D03*
X2330Y941D03*
X2230Y1241D03*
X2230Y941D03*
X2130Y1241D03*
X2130Y941D03*
X2030Y1241D03*
X2030Y941D03*
X1930Y1241D03*
X1930Y941D03*
X9030Y1391D03*
X9030Y1091D03*
X8930Y1391D03*
X8930Y1091D03*
X8830Y1391D03*
X8830Y1091D03*
X8730Y1391D03*
X8730Y1091D03*
X8630Y1391D03*
X8630Y1091D03*
X8530Y1391D03*
X8530Y1091D03*
X8430Y1391D03*
X8430Y1091D03*
X8330Y1391D03*
X8330Y1091D03*
G54D10*
X2630Y1891D03*
X6530Y941D03*
X6430Y941D03*
X6330Y941D03*
X6230Y941D03*
X6130Y941D03*
X6030Y941D03*
X5930Y941D03*
X5830Y941D03*
X5730Y941D03*
X5630Y941D03*
X5530Y941D03*
X5430Y941D03*
X5330Y941D03*
X5230Y941D03*
X5130Y941D03*
X5030Y941D03*
G54D13*
X14586Y166D03*
X14586Y1931D03*
X10380Y1930D03*
X7617Y166D03*
X3523Y166D03*
X163Y166D03*
X163Y1931D03*
X7619Y1933D03*
X3522Y1932D03*
G54D10*
X10130Y1991D03*
X10030Y1991D03*
X9930Y1991D03*
X9830Y1991D03*
X9730Y1991D03*
X9630Y1991D03*
X9530Y1991D03*
X9430Y1991D03*
X9330Y1991D03*
X4230Y1891D03*
X4330Y1891D03*
X4430Y1891D03*
X4530Y1891D03*
X5030Y1891D03*
X4930Y1891D03*
X4830Y1891D03*
G54D11*
X10610Y1711D03*
X10730Y1841D03*
X13580Y941D03*
G54D12*
X2991Y220D03*
X2814Y220D03*
G54D14*
X3041Y318D03*
X2765Y318D03*
G54D15*
X1530Y191D03*
X1727Y191D03*
X1924Y191D03*
G54D16*
X1406Y322D03*
X2048Y322D03*
G54D12*
X11653Y220D03*
X11476Y220D03*
G54D14*
X11702Y318D03*
X11426Y318D03*
G54D12*
X11102Y220D03*
X10925Y220D03*
G54D14*
X11151Y318D03*
X10875Y318D03*
G54D12*
X10550Y220D03*
X10373Y220D03*
G54D14*
X10600Y318D03*
X10324Y318D03*
G54D12*
X9999Y220D03*
X9822Y220D03*
G54D14*
X10049Y318D03*
X9773Y318D03*
G54D12*
X9448Y220D03*
X9271Y220D03*
G54D14*
X9497Y318D03*
X9222Y318D03*
G54D12*
X8306Y220D03*
X8129Y220D03*
G54D14*
X8356Y318D03*
X8080Y318D03*
G54D12*
X629Y220D03*
X452Y220D03*
G54D14*
X679Y318D03*
X403Y318D03*
G54D12*
X12204Y220D03*
X12027Y220D03*
G54D14*
X12253Y318D03*
X11977Y318D03*
G54D12*
X12755Y220D03*
X12578Y220D03*
G54D14*
X12805Y318D03*
X12529Y318D03*
G54D12*
X13306Y220D03*
X13129Y220D03*
G54D14*
X13356Y318D03*
X13080Y318D03*
G54D12*
X1730Y1791D03*
X1730Y1391D03*
G54D17*
X9389Y481D03*
X9291Y481D03*
X9940Y481D03*
X9842Y481D03*
X10491Y481D03*
X10393Y481D03*
X11043Y481D03*
X10944Y481D03*
X11594Y481D03*
X11495Y481D03*
X12145Y481D03*
X12047Y481D03*
X12696Y481D03*
X12598Y481D03*
X13247Y481D03*
X13149Y481D03*
X8267Y481D03*
X8168Y481D03*
G54D12*
X8055Y941D03*
X8055Y541D03*
X13030Y941D03*
X13030Y541D03*
X12480Y941D03*
X12480Y541D03*
X11930Y941D03*
X11930Y541D03*
X11380Y941D03*
X11380Y541D03*
X10830Y941D03*
X10830Y541D03*
X10280Y941D03*
X10280Y541D03*
X9730Y941D03*
X9730Y541D03*
X9030Y941D03*
X9030Y541D03*
X13380Y441D03*
X13380Y941D03*
X12830Y441D03*
X12830Y941D03*
X12280Y441D03*
X12280Y941D03*
X11730Y441D03*
X11730Y941D03*
X11180Y441D03*
X11180Y941D03*
X10630Y441D03*
X10630Y941D03*
X10080Y441D03*
X10080Y941D03*
X9530Y441D03*
X9530Y941D03*
X8430Y441D03*
X8430Y941D03*
X1130Y241D03*
X1130Y741D03*
X2280Y241D03*
X2280Y741D03*
X3180Y241D03*
X3180Y741D03*
X955Y241D03*
X955Y741D03*
X9930Y1791D03*
X9930Y1491D03*
X9830Y1791D03*
X9830Y1491D03*
X9730Y1791D03*
X9730Y1491D03*
X9630Y1791D03*
X9630Y1491D03*
X9530Y1791D03*
X9530Y1491D03*
X9430Y1791D03*
X9430Y1491D03*
X9330Y1791D03*
X9330Y1491D03*
X9230Y1791D03*
X9230Y1491D03*
X11180Y1491D03*
X11180Y1791D03*
X11280Y1491D03*
X11280Y1791D03*
X11380Y1491D03*
X11380Y1791D03*
X11480Y1491D03*
X11480Y1791D03*
X11580Y1491D03*
X11580Y1791D03*
X11680Y1491D03*
X11680Y1791D03*
X11780Y1491D03*
X11780Y1791D03*
X11880Y1491D03*
X11880Y1791D03*
G54D18*
X5430Y1141D03*
X5530Y1141D03*
X5630Y1141D03*
X5730Y1141D03*
X5830Y1141D03*
X5930Y1141D03*
X6030Y1141D03*
X6130Y1141D03*
X6230Y1141D03*
X6330Y1141D03*
X6430Y1141D03*
X6530Y1141D03*
X5430Y1741D03*
X5530Y1741D03*
X5630Y1741D03*
X5730Y1741D03*
X5830Y1741D03*
X5930Y1741D03*
X6030Y1741D03*
X6130Y1741D03*
X6230Y1741D03*
X6330Y1741D03*
X6430Y1741D03*
X6530Y1741D03*
G54D19*
X2630Y1241D03*
X9030Y1391D03*
G54D20*
X1406Y322D03*
X2048Y322D03*
G54D21*
X9389Y481D03*
X9940Y481D03*
X10491Y481D03*
X11043Y481D03*
X11594Y481D03*
X12145Y481D03*
X12696Y481D03*
X13247Y481D03*
X8267Y481D03*
G54D19*
X11180Y1491D03*
G54D22*
X8830Y1341D02*
X8830Y1362D01*
D02*
X13480Y541D02*
X13480Y941D01*
D02*
X13480Y941D02*
X13105Y1317D01*
D02*
X13105Y1317D02*
X8855Y1316D01*
D02*
X8855Y1316D02*
X8830Y1341D01*
D02*
X13400Y461D02*
X13480Y541D01*
G54D23*
D02*
X13340Y941D02*
X13069Y941D01*
G54D24*
D02*
X733Y316D02*
X351Y316D01*
G54D23*
D02*
X2005Y91D02*
X1953Y155D01*
D02*
X2680Y91D02*
X2005Y91D01*
D02*
X2786Y192D02*
X2680Y91D01*
G54D22*
D02*
X9330Y1591D02*
X9409Y1511D01*
D02*
X9123Y1591D02*
X9330Y1591D01*
D02*
X9568Y1652D02*
X9709Y1511D01*
D02*
X9280Y1716D02*
X9508Y1510D01*
D02*
X6555Y1716D02*
X9280Y1716D01*
D02*
X6550Y1720D02*
X6555Y1716D01*
D02*
X8030Y417D02*
X8380Y415D01*
D02*
X8380Y415D02*
X8404Y428D01*
D02*
X7155Y1316D02*
X8030Y417D01*
D02*
X6648Y1316D02*
X7155Y1316D01*
D02*
X6030Y1541D02*
X6409Y1161D01*
D02*
X2998Y1541D02*
X6030Y1541D01*
D02*
X3255Y1217D02*
X2300Y261D01*
D02*
X4980Y1217D02*
X3255Y1217D01*
D02*
X5207Y1441D02*
X4980Y1217D01*
D02*
X5636Y1441D02*
X5207Y1441D01*
D02*
X2231Y991D02*
X2231Y969D01*
D02*
X2331Y1091D02*
X2231Y991D01*
D02*
X2731Y1091D02*
X2331Y1091D01*
D02*
X2954Y1317D02*
X2731Y1091D01*
D02*
X4811Y1316D02*
X2954Y1317D01*
D02*
X2505Y565D02*
X1454Y565D01*
D02*
X1454Y565D02*
X1150Y261D01*
D02*
X4931Y1269D02*
X3205Y1265D01*
D02*
X3205Y1265D02*
X2505Y565D01*
D02*
X5154Y1491D02*
X4931Y1269D01*
D02*
X5711Y1491D02*
X5154Y1491D01*
G54D24*
D02*
X13408Y316D02*
X8701Y316D01*
D02*
X8608Y316D02*
X7976Y316D01*
G54D25*
D02*
X1357Y316D02*
X2102Y316D01*
G54D24*
D02*
X3083Y316D02*
X2726Y316D01*
G54D22*
D02*
X8431Y1442D02*
X8430Y1419D01*
D02*
X8331Y1540D02*
X8431Y1442D01*
D02*
X6130Y1541D02*
X8331Y1540D01*
D02*
X5950Y1720D02*
X6130Y1541D01*
D02*
X2531Y1339D02*
X2530Y1269D01*
D02*
X2830Y1641D02*
X2531Y1339D01*
D02*
X5911Y1641D02*
X2830Y1641D01*
D02*
X8431Y1140D02*
X8430Y1119D01*
D02*
X8205Y1365D02*
X8431Y1140D01*
D02*
X6705Y1365D02*
X8205Y1365D01*
D02*
X6680Y1391D02*
X6705Y1365D01*
D02*
X6573Y1391D02*
X6680Y1391D01*
D02*
X2905Y1365D02*
X2680Y1139D01*
D02*
X2680Y1139D02*
X2080Y1139D01*
D02*
X2080Y1139D02*
X1931Y991D01*
D02*
X1931Y991D02*
X1931Y969D01*
D02*
X4704Y1365D02*
X2905Y1365D01*
D02*
X4730Y1391D02*
X4704Y1365D01*
D02*
X4886Y1391D02*
X4730Y1391D01*
D02*
X2131Y891D02*
X2131Y912D01*
D02*
X1880Y639D02*
X2131Y891D01*
D02*
X1355Y641D02*
X1880Y639D01*
D02*
X975Y261D02*
X1355Y641D01*
D02*
X2631Y1343D02*
X2630Y1269D01*
D02*
X2880Y1591D02*
X2631Y1343D01*
D02*
X5836Y1591D02*
X2880Y1591D01*
G54D23*
D02*
X5728Y2039D02*
X5729Y1781D01*
D02*
X5680Y2091D02*
X5728Y2039D01*
D02*
X4680Y2091D02*
X5680Y2091D01*
D02*
X4530Y1941D02*
X4680Y2091D01*
D02*
X4530Y1932D02*
X4530Y1941D01*
D02*
X11780Y2039D02*
X11780Y1831D01*
D02*
X11731Y2091D02*
X11780Y2039D01*
D02*
X5780Y2091D02*
X11731Y2091D01*
D02*
X5731Y2039D02*
X5780Y2091D01*
D02*
X5730Y1781D02*
X5731Y2039D01*
D02*
X11780Y2039D02*
X11831Y2091D01*
D02*
X13680Y365D02*
X13380Y91D01*
D02*
X13680Y941D02*
X13680Y365D01*
D02*
X13231Y91D02*
X13154Y189D01*
D02*
X12580Y2091D02*
X13680Y941D01*
D02*
X13380Y91D02*
X13231Y91D01*
D02*
X11831Y2091D02*
X12580Y2091D01*
D02*
X11780Y1831D02*
X11780Y2039D01*
G54D22*
D02*
X8730Y1341D02*
X8730Y1362D01*
D02*
X12930Y1041D02*
X12705Y1266D01*
D02*
X12930Y541D02*
X12930Y1041D01*
D02*
X12705Y1266D02*
X8805Y1266D01*
D02*
X8805Y1266D02*
X8730Y1341D01*
D02*
X12850Y461D02*
X12930Y541D01*
D02*
X8630Y1341D02*
X8630Y1362D01*
D02*
X12155Y1216D02*
X8755Y1216D01*
D02*
X12380Y541D02*
X12380Y991D01*
D02*
X12380Y991D02*
X12155Y1216D01*
D02*
X8755Y1216D02*
X8630Y1341D01*
D02*
X12300Y461D02*
X12380Y541D01*
D02*
X11830Y991D02*
X11655Y1166D01*
D02*
X11830Y541D02*
X11830Y991D01*
D02*
X11655Y1166D02*
X8705Y1166D01*
D02*
X8530Y1341D02*
X8530Y1362D01*
D02*
X8705Y1166D02*
X8530Y1341D01*
D02*
X11750Y461D02*
X11830Y541D01*
D02*
X8830Y941D02*
X8830Y1062D01*
D02*
X10880Y791D02*
X8980Y791D01*
D02*
X11180Y491D02*
X10880Y791D01*
D02*
X8980Y791D02*
X8830Y941D01*
D02*
X11180Y469D02*
X11180Y491D01*
D02*
X10380Y741D02*
X8930Y741D01*
D02*
X10630Y491D02*
X10380Y741D01*
D02*
X10630Y469D02*
X10630Y491D01*
D02*
X8930Y741D02*
X8730Y941D01*
D02*
X8730Y941D02*
X8730Y1062D01*
D02*
X10080Y491D02*
X9880Y691D01*
D02*
X9880Y691D02*
X8880Y691D01*
D02*
X8880Y691D02*
X8630Y941D01*
D02*
X8630Y941D02*
X8630Y1062D01*
D02*
X10080Y469D02*
X10080Y491D01*
D02*
X9530Y491D02*
X9380Y641D01*
D02*
X9380Y641D02*
X8830Y641D01*
D02*
X8830Y641D02*
X8530Y941D01*
D02*
X8530Y941D02*
X8530Y1062D01*
D02*
X9530Y469D02*
X9530Y491D01*
D02*
X6230Y1641D02*
X6150Y1720D01*
D02*
X8830Y1641D02*
X6230Y1641D01*
D02*
X9030Y1441D02*
X8830Y1641D01*
D02*
X9030Y1419D02*
X9030Y1441D01*
D02*
X6180Y1591D02*
X6050Y1720D01*
D02*
X8780Y1591D02*
X6180Y1591D01*
D02*
X8930Y1441D02*
X8780Y1591D01*
D02*
X8930Y1419D02*
X8930Y1441D01*
G54D23*
D02*
X13131Y91D02*
X12680Y91D01*
D02*
X12680Y91D02*
X12603Y189D01*
D02*
X13180Y139D02*
X13131Y91D01*
D02*
X13150Y186D02*
X13180Y139D01*
D02*
X12580Y91D02*
X12131Y91D01*
D02*
X12131Y91D02*
X12052Y189D01*
D02*
X12631Y139D02*
X12580Y91D01*
D02*
X12600Y187D02*
X12631Y139D01*
D02*
X12049Y186D02*
X12080Y139D01*
D02*
X12080Y139D02*
X12028Y91D01*
D02*
X12028Y91D02*
X11580Y91D01*
D02*
X11580Y91D02*
X11501Y189D01*
D02*
X11028Y91D02*
X10949Y189D01*
D02*
X11480Y91D02*
X11028Y91D01*
D02*
X11531Y139D02*
X11480Y91D01*
D02*
X11498Y187D02*
X11531Y139D01*
D02*
X10480Y91D02*
X10399Y189D01*
D02*
X10931Y91D02*
X10480Y91D01*
D02*
X10980Y139D02*
X10931Y91D01*
D02*
X10947Y187D02*
X10980Y139D01*
D02*
X10428Y139D02*
X10380Y91D01*
D02*
X10380Y91D02*
X9931Y91D01*
D02*
X10396Y187D02*
X10428Y139D01*
D02*
X9931Y91D02*
X9848Y189D01*
D02*
X9380Y91D02*
X9297Y189D01*
D02*
X9828Y91D02*
X9380Y91D01*
D02*
X9880Y139D02*
X9828Y91D01*
D02*
X9845Y187D02*
X9880Y139D01*
D02*
X8159Y194D02*
X8280Y91D01*
D02*
X8280Y91D02*
X9280Y91D01*
D02*
X9280Y91D02*
X9330Y141D01*
D02*
X9330Y141D02*
X9295Y188D01*
D02*
X9569Y941D02*
X9690Y941D01*
D02*
X9069Y941D02*
X9490Y941D01*
D02*
X10119Y941D02*
X10240Y941D01*
D02*
X9769Y941D02*
X10040Y941D01*
D02*
X10319Y941D02*
X10590Y941D01*
D02*
X10669Y941D02*
X10790Y941D01*
D02*
X11219Y941D02*
X11340Y941D01*
D02*
X10869Y941D02*
X11140Y941D01*
D02*
X11419Y941D02*
X11690Y941D01*
D02*
X11969Y941D02*
X12240Y941D01*
D02*
X12519Y941D02*
X12790Y941D01*
D02*
X4830Y1841D02*
X4780Y1791D01*
D02*
X4830Y1850D02*
X4830Y1841D01*
D02*
X4780Y1791D02*
X4380Y1791D01*
D02*
X4330Y1841D02*
X4330Y1850D01*
D02*
X4380Y1791D02*
X4330Y1841D01*
D02*
X4980Y1791D02*
X5030Y1841D01*
D02*
X5030Y1841D02*
X5030Y1850D01*
D02*
X4880Y1791D02*
X4980Y1791D01*
D02*
X4830Y1841D02*
X4880Y1791D01*
D02*
X4830Y1850D02*
X4830Y1841D01*
D02*
X4371Y1891D02*
X4388Y1891D01*
G54D22*
D02*
X5031Y1165D02*
X5030Y971D01*
D02*
X5254Y1391D02*
X5031Y1165D01*
D02*
X6080Y1391D02*
X5254Y1391D01*
D02*
X6309Y1161D02*
X6080Y1391D01*
D02*
X5131Y1165D02*
X5130Y971D01*
D02*
X5305Y1339D02*
X5131Y1165D01*
D02*
X6031Y1339D02*
X5305Y1339D01*
D02*
X6209Y1161D02*
X6031Y1339D01*
D02*
X5231Y1165D02*
X5230Y971D01*
D02*
X5354Y1291D02*
X5231Y1165D01*
D02*
X5980Y1291D02*
X5354Y1291D01*
D02*
X6109Y1161D02*
X5980Y1291D01*
D02*
X5331Y1165D02*
X5330Y971D01*
D02*
X5405Y1239D02*
X5331Y1165D01*
D02*
X5931Y1239D02*
X5405Y1239D01*
D02*
X6009Y1161D02*
X5931Y1239D01*
D02*
X6408Y920D02*
X6328Y843D01*
D02*
X6328Y843D02*
X6231Y843D01*
D02*
X6231Y843D02*
X6151Y920D01*
D02*
X5750Y1120D02*
X5908Y962D01*
D02*
X6008Y962D02*
X5850Y1120D01*
D02*
X6031Y839D02*
X5951Y920D01*
D02*
X6109Y919D02*
X6031Y839D01*
D02*
X6228Y843D02*
X6151Y920D01*
D02*
X6331Y843D02*
X6228Y843D01*
D02*
X6330Y911D02*
X6331Y843D01*
D02*
X10597Y1697D02*
X10320Y1391D01*
D02*
X10320Y1391D02*
X9620Y1391D01*
D02*
X9620Y1391D02*
X9549Y1470D01*
G54D26*
D02*
X10230Y1791D02*
X9954Y1515D01*
D02*
X11145Y1791D02*
X10230Y1791D01*
G54D22*
D02*
X10020Y1691D02*
X10029Y1961D01*
D02*
X9849Y1512D02*
X10020Y1691D01*
D02*
X9330Y1819D02*
X9330Y1961D01*
D02*
X9430Y1819D02*
X9430Y1961D01*
D02*
X9530Y1819D02*
X9530Y1961D01*
D02*
X9630Y1819D02*
X9630Y1961D01*
D02*
X9730Y1819D02*
X9730Y1961D01*
D02*
X9830Y1819D02*
X9830Y1961D01*
D02*
X9930Y1819D02*
X9930Y1961D01*
D02*
X10828Y1943D02*
X10743Y1855D01*
D02*
X11430Y1941D02*
X10828Y1943D01*
D02*
X11559Y1811D02*
X11430Y1941D01*
G54D23*
D02*
X2680Y91D02*
X2786Y192D01*
D02*
X580Y91D02*
X2680Y91D01*
D02*
X480Y191D02*
X579Y91D01*
G54D22*
D02*
X905Y216D02*
X929Y228D01*
D02*
X658Y219D02*
X904Y216D01*
D02*
X3020Y223D02*
X3151Y238D01*
D02*
X12023Y494D02*
X11955Y528D01*
D02*
X12574Y494D02*
X12505Y528D01*
D02*
X13125Y493D02*
X13055Y528D01*
D02*
X11471Y494D02*
X11405Y528D01*
D02*
X10920Y494D02*
X10855Y528D01*
D02*
X10369Y494D02*
X10305Y528D01*
D02*
X9818Y494D02*
X9755Y527D01*
D02*
X9264Y487D02*
X9057Y535D01*
D02*
X8105Y491D02*
X8075Y521D01*
D02*
X8142Y485D02*
X8105Y491D01*
G54D26*
D02*
X11280Y1691D02*
X11204Y1767D01*
D02*
X11680Y1691D02*
X11280Y1691D01*
D02*
X11755Y1767D02*
X11680Y1691D01*
G54D27*
X9957Y1763D02*
X9902Y1763D01*
X9902Y1818D01*
X9957Y1818D01*
X9957Y1763D01*
D02*
G54D28*
D02*
G04 End of Copper0*
M02*