; NON-PLATED HOLES START AT T1
; THROUGH (PLATED) HOLES START AT T100
M48
INCH
T100C0.015748
T101C0.031497
T102C0.035000
T103C0.047000
T104C0.035639
T105C0.038000
T106C0.125984
T107C0.083000
T108C0.048000
%
T100
X134545Y003158
X058545Y015908
X086545Y003158
X029795Y015408
X003044Y003158
X091045Y015908
X057295Y014908
X031295Y003158
X107295Y018408
X007794Y003158
X026795Y003158
X059295Y016408
X013045Y003158
X065545Y013908
X079295Y003158
X048295Y013158
X021545Y003158
X066295Y013158
X135795Y009408
X095545Y016658
X049045Y013908
X056545Y014408
X106095Y017108
T101
X081684Y004814
X121449Y004814
X115937Y004814
X132472Y004814
X093889Y004814
X126961Y004814
X103929Y004814
X114953Y004814
X110425Y004814
X099401Y004814
X104913Y004814
X082669Y004814
X098417Y004814
X131488Y004814
X125977Y004814
X120465Y004814
X109441Y004814
X092905Y004814
T102
X011295Y007408
X106295Y004408
X111795Y014908
X096295Y017908
X113795Y005408
X084295Y004408
X092295Y017908
X080545Y009408
X017295Y017908
X094295Y014908
X133795Y004408
X108295Y009408
X116528Y002197
X088295Y013908
X099295Y014908
X025295Y009408
X083295Y010908
X120269Y002197
X004521Y002197
X098295Y017908
X023295Y009408
X118795Y014908
X022795Y007408
X119295Y009408
X094480Y002197
X116795Y017908
X117295Y009408
X011295Y002408
X095295Y009408
X115795Y014908
X085295Y013908
X130295Y009408
X114795Y014908
X083062Y002197
X086295Y013908
X092295Y014908
X118795Y017908
X112795Y017908
X020295Y009408
X094295Y017908
X097295Y017908
X124795Y009408
X009545Y002408
X119295Y005408
X022795Y002408
X081292Y002197
X111795Y009408
X114758Y002197
X022295Y009408
X098221Y002197
X111016Y002197
X021295Y009408
X112795Y014908
X093295Y014908
X095295Y017908
X113795Y014908
X133063Y002197
X106295Y009408
X128295Y004408
X006291Y002197
X108295Y005408
X019295Y012408
X097295Y009408
X090295Y005408
X029913Y002197
X026295Y009408
X087295Y013908
X130295Y005408
X093295Y017908
X090295Y013908
X124795Y005408
X024295Y012408
X113795Y017908
X085295Y010908
X084295Y013908
X090295Y009408
X128295Y009408
X087295Y010908
X122039Y002197
X024295Y009408
X031795Y002408
X127551Y002197
X117295Y004408
X125781Y002197
X103734Y002197
X017295Y013908
X019295Y009408
X117795Y017908
X095295Y004408
X089295Y013908
X102795Y009408
X116795Y014908
X109246Y002197
X020295Y012408
X113795Y009408
X097295Y014908
X122795Y009408
X096295Y014908
X100795Y009408
X090295Y010908
X100795Y004408
X084295Y009408
X031795Y007408
X083295Y013908
X086295Y010908
X114795Y017908
X098295Y014908
X099295Y017908
X026295Y012408
X131293Y002197
X117795Y014908
X023295Y012408
X115795Y017908
X009545Y007408
X028143Y002197
X095295Y014908
X089295Y010908
X133795Y009408
X088295Y010908
X102795Y005408
X022295Y012408
X021295Y012408
X025295Y012408
X092710Y002197
X105504Y002197
X097295Y005408
X080545Y005408
X122795Y004408
X111795Y017908
X099991Y002197
X111795Y004408
X084295Y010908
T103
X122533Y003181
X030408Y003181
X133557Y003181
X100486Y003181
X094974Y003181
X108751Y003181
X114263Y003181
X105998Y003181
X128045Y003181
X083557Y003181
X125286Y003181
X119774Y003181
X117022Y003181
X103239Y003181
X111510Y003181
X080798Y003181
X004026Y003181
X097727Y003181
X130798Y003181
X092215Y003181
X027649Y003181
X006785Y003181
T104
X065295Y017408
X056295Y011408
X061295Y017408
X062295Y011408
X058295Y011408
X055295Y011408
X064295Y017408
X055295Y017408
X059295Y011408
X061295Y011408
X054295Y017408
X064295Y011408
X063295Y011408
X057295Y011408
X062295Y017408
X060295Y017408
X057295Y017408
X065295Y011408
X056295Y017408
X058295Y017408
X060295Y011408
X059295Y017408
X063295Y017408
X054295Y011408
T105
X098295Y019908
X142295Y004408
X093295Y019908
X100295Y019908
X101295Y019908
X057295Y009408
X053295Y009408
X139295Y004408
X065295Y009408
X095295Y019908
X064295Y009408
X052295Y009408
X063295Y009408
X050295Y018908
X059295Y009408
X026295Y018908
X054295Y009408
X045295Y018908
X096295Y019908
X060295Y009408
X061295Y009408
X043295Y018908
X042295Y018908
X056295Y009408
X141295Y004408
X055295Y009408
X094295Y019908
X097295Y019908
X044295Y018908
X062295Y009408
X048295Y018908
X058295Y009408
X049295Y018908
X099295Y019908
X140295Y004408
X050295Y009408
X052295Y018908
X051295Y009408
T106
X076193Y019325
X145858Y019305
X145858Y001664
X001627Y019305
X035228Y001664
X103795Y019297
X035220Y019316
X076172Y001664
X001627Y001664
T107
X020475Y003218
X014055Y003218
T108
X019235Y001908
X015295Y001908
X017265Y001908
T00
M30
