G04 MADE WITH FRITZING*
G04 WWW.FRITZING.ORG*
G04 DOUBLE SIDED*
G04 HOLES PLATED*
G04 CONTOUR ON CENTER OF CONTOUR VECTOR*
%ASAXBY*%
%FSLAX23Y23*%
%MOIN*%
%OFA0B0*%
%SFA1.0B1.0*%
%ADD10C,0.088000*%
%ADD11C,0.049370*%
%ADD12C,0.085000*%
%ADD13C,0.214725*%
%ADD14C,0.097000*%
%ADD15C,0.098000*%
%ADD16C,0.133000*%
%ADD17C,0.072992*%
%ADD18C,0.080361*%
%ADD19R,0.023779X0.065118*%
%ADD20R,0.085000X0.085000*%
%ADD21R,0.133000X0.133000*%
%ADD22R,0.072992X0.072992*%
%ADD23C,0.030000*%
%ADD24R,0.001000X0.001000*%
%LNMASK1*%
G90*
G70*
G54D10*
X5230Y1891D03*
X14230Y441D03*
X14130Y441D03*
X14030Y441D03*
X13930Y441D03*
G54D11*
X304Y316D03*
X779Y316D03*
X9555Y1666D03*
X9105Y1591D03*
X5730Y1491D03*
X5655Y1441D03*
X6630Y1316D03*
X4830Y1316D03*
X2980Y1541D03*
X8655Y316D03*
X7930Y316D03*
X13455Y316D03*
X1305Y316D03*
X3130Y316D03*
X2155Y316D03*
X2680Y316D03*
X5930Y1641D03*
X6555Y1391D03*
X4905Y1391D03*
X5855Y1591D03*
G54D12*
X2630Y1241D03*
X2630Y941D03*
X2530Y1241D03*
X2530Y941D03*
X2430Y1241D03*
X2430Y941D03*
X2330Y1241D03*
X2330Y941D03*
X2230Y1241D03*
X2230Y941D03*
X2130Y1241D03*
X2130Y941D03*
X2030Y1241D03*
X2030Y941D03*
X1930Y1241D03*
X1930Y941D03*
X9030Y1391D03*
X9030Y1091D03*
X8930Y1391D03*
X8930Y1091D03*
X8830Y1391D03*
X8830Y1091D03*
X8730Y1391D03*
X8730Y1091D03*
X8630Y1391D03*
X8630Y1091D03*
X8530Y1391D03*
X8530Y1091D03*
X8430Y1391D03*
X8430Y1091D03*
X8330Y1391D03*
X8330Y1091D03*
G54D10*
X2630Y1891D03*
X6530Y941D03*
X6430Y941D03*
X6330Y941D03*
X6230Y941D03*
X6130Y941D03*
X6030Y941D03*
X5930Y941D03*
X5830Y941D03*
X5730Y941D03*
X5630Y941D03*
X5530Y941D03*
X5430Y941D03*
X5330Y941D03*
X5230Y941D03*
X5130Y941D03*
X5030Y941D03*
G54D13*
X14586Y166D03*
X14586Y1931D03*
X10380Y1930D03*
X7617Y166D03*
X3523Y166D03*
X163Y166D03*
X163Y1931D03*
X7619Y1933D03*
X3522Y1932D03*
G54D10*
X10130Y1991D03*
X10030Y1991D03*
X9930Y1991D03*
X9830Y1991D03*
X9730Y1991D03*
X9630Y1991D03*
X9530Y1991D03*
X9430Y1991D03*
X9330Y1991D03*
X4230Y1891D03*
X4330Y1891D03*
X4430Y1891D03*
X4530Y1891D03*
X5030Y1891D03*
X4930Y1891D03*
X4830Y1891D03*
G54D11*
X10610Y1711D03*
X10730Y1841D03*
X13580Y941D03*
G54D12*
X2991Y220D03*
X2814Y220D03*
G54D14*
X3041Y318D03*
X2765Y318D03*
G54D15*
X1530Y191D03*
X1727Y191D03*
X1924Y191D03*
G54D16*
X1406Y322D03*
X2048Y322D03*
G54D12*
X11653Y220D03*
X11476Y220D03*
G54D14*
X11702Y318D03*
X11426Y318D03*
G54D12*
X11102Y220D03*
X10925Y220D03*
G54D14*
X11151Y318D03*
X10875Y318D03*
G54D12*
X10550Y220D03*
X10373Y220D03*
G54D14*
X10600Y318D03*
X10324Y318D03*
G54D12*
X9999Y220D03*
X9822Y220D03*
G54D14*
X10049Y318D03*
X9773Y318D03*
G54D12*
X9448Y220D03*
X9271Y220D03*
G54D14*
X9497Y318D03*
X9222Y318D03*
G54D12*
X8306Y220D03*
X8129Y220D03*
G54D14*
X8356Y318D03*
X8080Y318D03*
G54D12*
X629Y220D03*
X452Y220D03*
G54D14*
X679Y318D03*
X403Y318D03*
G54D12*
X12204Y220D03*
X12027Y220D03*
G54D14*
X12253Y318D03*
X11977Y318D03*
G54D12*
X12755Y220D03*
X12578Y220D03*
G54D14*
X12805Y318D03*
X12529Y318D03*
G54D12*
X13306Y220D03*
X13129Y220D03*
G54D14*
X13356Y318D03*
X13080Y318D03*
G54D12*
X1730Y1791D03*
X1730Y1391D03*
G54D17*
X9389Y481D03*
X9291Y481D03*
X9940Y481D03*
X9842Y481D03*
X10491Y481D03*
X10393Y481D03*
X11043Y481D03*
X10944Y481D03*
X11594Y481D03*
X11495Y481D03*
X12145Y481D03*
X12047Y481D03*
X12696Y481D03*
X12598Y481D03*
X13247Y481D03*
X13149Y481D03*
X8267Y481D03*
X8168Y481D03*
G54D12*
X8055Y941D03*
X8055Y541D03*
X13030Y941D03*
X13030Y541D03*
X12480Y941D03*
X12480Y541D03*
X11930Y941D03*
X11930Y541D03*
X11380Y941D03*
X11380Y541D03*
X10830Y941D03*
X10830Y541D03*
X10280Y941D03*
X10280Y541D03*
X9730Y941D03*
X9730Y541D03*
X9030Y941D03*
X9030Y541D03*
X13380Y441D03*
X13380Y941D03*
X12830Y441D03*
X12830Y941D03*
X12280Y441D03*
X12280Y941D03*
X11730Y441D03*
X11730Y941D03*
X11180Y441D03*
X11180Y941D03*
X10630Y441D03*
X10630Y941D03*
X10080Y441D03*
X10080Y941D03*
X9530Y441D03*
X9530Y941D03*
X8430Y441D03*
X8430Y941D03*
X1130Y241D03*
X1130Y741D03*
X2280Y241D03*
X2280Y741D03*
X3180Y241D03*
X3180Y741D03*
X955Y241D03*
X955Y741D03*
X9930Y1791D03*
X9930Y1491D03*
X9830Y1791D03*
X9830Y1491D03*
X9730Y1791D03*
X9730Y1491D03*
X9630Y1791D03*
X9630Y1491D03*
X9530Y1791D03*
X9530Y1491D03*
X9430Y1791D03*
X9430Y1491D03*
X9330Y1791D03*
X9330Y1491D03*
X9230Y1791D03*
X9230Y1491D03*
X11180Y1491D03*
X11180Y1791D03*
X11280Y1491D03*
X11280Y1791D03*
X11380Y1491D03*
X11380Y1791D03*
X11480Y1491D03*
X11480Y1791D03*
X11580Y1491D03*
X11580Y1791D03*
X11680Y1491D03*
X11680Y1791D03*
X11780Y1491D03*
X11780Y1791D03*
X11880Y1491D03*
X11880Y1791D03*
G54D18*
X5430Y1141D03*
X5530Y1141D03*
X5630Y1141D03*
X5730Y1141D03*
X5830Y1141D03*
X5930Y1141D03*
X6030Y1141D03*
X6130Y1141D03*
X6230Y1141D03*
X6330Y1141D03*
X6430Y1141D03*
X6530Y1141D03*
X5430Y1741D03*
X5530Y1741D03*
X5630Y1741D03*
X5730Y1741D03*
X5830Y1741D03*
X5930Y1741D03*
X6030Y1741D03*
X6130Y1741D03*
X6230Y1741D03*
X6330Y1741D03*
X6430Y1741D03*
X6530Y1741D03*
G54D19*
X14046Y141D03*
X14149Y141D03*
X14072Y141D03*
X14098Y141D03*
X14123Y141D03*
G54D20*
X2630Y1241D03*
X9030Y1391D03*
G54D21*
X1406Y322D03*
X2048Y322D03*
G54D22*
X9389Y481D03*
X9940Y481D03*
X10491Y481D03*
X11043Y481D03*
X11594Y481D03*
X12145Y481D03*
X12696Y481D03*
X13247Y481D03*
X8267Y481D03*
G54D20*
X11180Y1491D03*
G54D23*
G36*
X9957Y1763D02*
X9902Y1763D01*
X9902Y1818D01*
X9957Y1818D01*
X9957Y1763D01*
G37*
D02*
G54D24*
X14216Y238D02*
X14441Y238D01*
X14215Y237D02*
X14441Y237D01*
X14215Y236D02*
X14441Y236D01*
X14215Y235D02*
X14441Y235D01*
X14215Y234D02*
X14441Y234D01*
X13667Y233D02*
X13990Y233D01*
X14215Y233D02*
X14441Y233D01*
X13667Y232D02*
X13990Y232D01*
X14215Y232D02*
X14441Y232D01*
X13667Y231D02*
X13990Y231D01*
X14215Y231D02*
X14441Y231D01*
X13667Y230D02*
X13990Y230D01*
X14215Y230D02*
X14441Y230D01*
X13667Y229D02*
X13990Y229D01*
X14215Y229D02*
X14441Y229D01*
X13667Y228D02*
X13990Y228D01*
X14215Y228D02*
X14441Y228D01*
X13667Y227D02*
X13990Y227D01*
X14215Y227D02*
X14441Y227D01*
X13667Y226D02*
X13990Y226D01*
X14215Y226D02*
X14441Y226D01*
X13667Y225D02*
X13990Y225D01*
X14215Y225D02*
X14441Y225D01*
X13667Y224D02*
X13990Y224D01*
X14215Y224D02*
X14441Y224D01*
X13667Y223D02*
X13990Y223D01*
X14215Y223D02*
X14441Y223D01*
X13667Y222D02*
X13990Y222D01*
X14215Y222D02*
X14441Y222D01*
X13667Y221D02*
X13990Y221D01*
X14215Y221D02*
X14441Y221D01*
X13667Y220D02*
X13990Y220D01*
X14215Y220D02*
X14441Y220D01*
X13667Y219D02*
X13990Y219D01*
X14215Y219D02*
X14441Y219D01*
X13667Y218D02*
X13990Y218D01*
X14215Y218D02*
X14441Y218D01*
X13667Y217D02*
X13990Y217D01*
X14215Y217D02*
X14441Y217D01*
X13667Y216D02*
X13990Y216D01*
X14215Y216D02*
X14441Y216D01*
X13667Y215D02*
X13990Y215D01*
X14215Y215D02*
X14441Y215D01*
X13667Y214D02*
X13990Y214D01*
X14215Y214D02*
X14441Y214D01*
X13667Y213D02*
X13990Y213D01*
X14215Y213D02*
X14441Y213D01*
X13667Y212D02*
X13990Y212D01*
X14215Y212D02*
X14441Y212D01*
X13667Y211D02*
X13990Y211D01*
X14215Y211D02*
X14441Y211D01*
X13667Y210D02*
X13990Y210D01*
X14215Y210D02*
X14441Y210D01*
X13667Y209D02*
X13990Y209D01*
X14215Y209D02*
X14441Y209D01*
X13667Y208D02*
X13990Y208D01*
X14215Y208D02*
X14441Y208D01*
X13667Y207D02*
X13990Y207D01*
X14215Y207D02*
X14441Y207D01*
X13667Y206D02*
X13990Y206D01*
X14215Y206D02*
X14441Y206D01*
X13667Y205D02*
X13990Y205D01*
X14215Y205D02*
X14441Y205D01*
X13667Y204D02*
X13990Y204D01*
X14215Y204D02*
X14441Y204D01*
X13667Y203D02*
X13990Y203D01*
X14215Y203D02*
X14441Y203D01*
X13667Y202D02*
X13990Y202D01*
X14215Y202D02*
X14441Y202D01*
X13667Y201D02*
X13990Y201D01*
X14215Y201D02*
X14441Y201D01*
X13667Y200D02*
X13990Y200D01*
X14215Y200D02*
X14441Y200D01*
X13667Y199D02*
X13990Y199D01*
X14215Y199D02*
X14441Y199D01*
X13667Y198D02*
X13990Y198D01*
X14215Y198D02*
X14441Y198D01*
X13667Y197D02*
X13990Y197D01*
X14215Y197D02*
X14441Y197D01*
X13667Y196D02*
X13990Y196D01*
X14215Y196D02*
X14441Y196D01*
X13667Y195D02*
X13990Y195D01*
X14215Y195D02*
X14441Y195D01*
X13667Y194D02*
X13990Y194D01*
X14215Y194D02*
X14441Y194D01*
X13667Y193D02*
X13990Y193D01*
X14215Y193D02*
X14441Y193D01*
X13667Y192D02*
X13990Y192D01*
X14215Y192D02*
X14441Y192D01*
X13667Y191D02*
X13990Y191D01*
X14215Y191D02*
X14441Y191D01*
X13667Y190D02*
X13990Y190D01*
X14215Y190D02*
X14441Y190D01*
X13667Y189D02*
X13990Y189D01*
X14215Y189D02*
X14441Y189D01*
X13667Y188D02*
X13990Y188D01*
X14215Y188D02*
X14441Y188D01*
X13667Y187D02*
X13990Y187D01*
X14215Y187D02*
X14441Y187D01*
X13667Y186D02*
X13990Y186D01*
X14215Y186D02*
X14441Y186D01*
X13667Y185D02*
X13990Y185D01*
X14215Y185D02*
X14441Y185D01*
X13667Y184D02*
X13990Y184D01*
X14215Y184D02*
X14441Y184D01*
X13667Y183D02*
X13990Y183D01*
X14215Y183D02*
X14441Y183D01*
X13667Y182D02*
X13990Y182D01*
X14215Y182D02*
X14441Y182D01*
X13667Y181D02*
X13990Y181D01*
X14215Y181D02*
X14441Y181D01*
X13667Y180D02*
X13990Y180D01*
X14215Y180D02*
X14441Y180D01*
X13667Y179D02*
X13990Y179D01*
X14215Y179D02*
X14441Y179D01*
X13667Y178D02*
X13990Y178D01*
X14215Y178D02*
X14441Y178D01*
X13667Y177D02*
X13990Y177D01*
X14215Y177D02*
X14441Y177D01*
X13667Y176D02*
X13990Y176D01*
X14215Y176D02*
X14441Y176D01*
X13667Y175D02*
X13990Y175D01*
X14215Y175D02*
X14441Y175D01*
X13667Y174D02*
X13990Y174D01*
X14215Y174D02*
X14441Y174D01*
X13667Y173D02*
X13990Y173D01*
X14215Y173D02*
X14441Y173D01*
X13667Y172D02*
X13990Y172D01*
X14215Y172D02*
X14441Y172D01*
X13667Y171D02*
X13990Y171D01*
X14215Y171D02*
X14441Y171D01*
X13667Y170D02*
X13990Y170D01*
X14215Y170D02*
X14441Y170D01*
X13667Y169D02*
X13990Y169D01*
X14215Y169D02*
X14441Y169D01*
X13667Y168D02*
X13990Y168D01*
X14215Y168D02*
X14441Y168D01*
X13667Y167D02*
X13990Y167D01*
X14215Y167D02*
X14441Y167D01*
X13667Y166D02*
X13990Y166D01*
X14215Y166D02*
X14441Y166D01*
X13667Y165D02*
X13990Y165D01*
X14215Y165D02*
X14441Y165D01*
X13667Y164D02*
X13990Y164D01*
X14215Y164D02*
X14441Y164D01*
X13667Y163D02*
X13990Y163D01*
X14215Y163D02*
X14441Y163D01*
X13667Y162D02*
X13990Y162D01*
X14215Y162D02*
X14441Y162D01*
X13667Y161D02*
X13990Y161D01*
X14215Y161D02*
X14441Y161D01*
X13667Y160D02*
X13990Y160D01*
X14215Y160D02*
X14441Y160D01*
X13667Y159D02*
X13990Y159D01*
X14215Y159D02*
X14441Y159D01*
X13667Y158D02*
X13990Y158D01*
X14215Y158D02*
X14441Y158D01*
X13667Y157D02*
X13990Y157D01*
X14215Y157D02*
X14441Y157D01*
X13667Y156D02*
X13990Y156D01*
X14215Y156D02*
X14441Y156D01*
X13667Y155D02*
X13990Y155D01*
X14215Y155D02*
X14441Y155D01*
X13667Y154D02*
X13990Y154D01*
X14215Y154D02*
X14441Y154D01*
X13667Y153D02*
X13990Y153D01*
X14215Y153D02*
X14441Y153D01*
X13667Y152D02*
X13990Y152D01*
X14215Y152D02*
X14441Y152D01*
X13667Y151D02*
X13990Y151D01*
X14215Y151D02*
X14441Y151D01*
X13667Y150D02*
X13990Y150D01*
X14215Y150D02*
X14441Y150D01*
X13667Y149D02*
X13990Y149D01*
X14215Y149D02*
X14441Y149D01*
X13667Y148D02*
X13990Y148D01*
X14215Y148D02*
X14441Y148D01*
X13667Y147D02*
X13990Y147D01*
X14215Y147D02*
X14441Y147D01*
X13667Y146D02*
X13990Y146D01*
X14215Y146D02*
X14441Y146D01*
X13667Y145D02*
X13990Y145D01*
X14215Y145D02*
X14441Y145D01*
X13667Y144D02*
X13990Y144D01*
X14215Y144D02*
X14441Y144D01*
X13667Y143D02*
X13990Y143D01*
X14215Y143D02*
X14441Y143D01*
X13667Y142D02*
X13990Y142D01*
X14215Y142D02*
X14441Y142D01*
X13667Y141D02*
X13990Y141D01*
X14215Y141D02*
X14441Y141D01*
X13667Y140D02*
X13990Y140D01*
X14215Y140D02*
X14441Y140D01*
X13667Y139D02*
X13990Y139D01*
X14215Y139D02*
X14441Y139D01*
X13667Y138D02*
X13990Y138D01*
X14215Y138D02*
X14441Y138D01*
X13667Y137D02*
X13990Y137D01*
X14215Y137D02*
X14441Y137D01*
X13667Y136D02*
X13990Y136D01*
X14215Y136D02*
X14441Y136D01*
X13667Y135D02*
X13990Y135D01*
X14215Y135D02*
X14441Y135D01*
X13667Y134D02*
X13990Y134D01*
X14215Y134D02*
X14441Y134D01*
X13667Y133D02*
X13990Y133D01*
X14215Y133D02*
X14441Y133D01*
X13667Y132D02*
X13990Y132D01*
X14215Y132D02*
X14441Y132D01*
X13667Y131D02*
X13990Y131D01*
X14215Y131D02*
X14441Y131D01*
X13667Y130D02*
X13990Y130D01*
X14215Y130D02*
X14441Y130D01*
X13667Y129D02*
X13990Y129D01*
X14215Y129D02*
X14441Y129D01*
X13667Y128D02*
X13990Y128D01*
X14215Y128D02*
X14441Y128D01*
X13667Y127D02*
X13990Y127D01*
X14215Y127D02*
X14441Y127D01*
X13667Y126D02*
X13990Y126D01*
X14215Y126D02*
X14441Y126D01*
X13667Y125D02*
X13990Y125D01*
X14215Y125D02*
X14441Y125D01*
X13667Y124D02*
X13990Y124D01*
X14215Y124D02*
X14441Y124D01*
X13667Y123D02*
X13990Y123D01*
X14215Y123D02*
X14441Y123D01*
X13667Y122D02*
X13990Y122D01*
X14215Y122D02*
X14441Y122D01*
X13667Y121D02*
X13990Y121D01*
X14215Y121D02*
X14441Y121D01*
X13667Y120D02*
X13990Y120D01*
X14215Y120D02*
X14441Y120D01*
X13667Y119D02*
X13990Y119D01*
X14215Y119D02*
X14441Y119D01*
X13667Y118D02*
X13990Y118D01*
X14215Y118D02*
X14441Y118D01*
X13667Y117D02*
X13990Y117D01*
X14215Y117D02*
X14441Y117D01*
X13667Y116D02*
X13990Y116D01*
X14215Y116D02*
X14441Y116D01*
X13667Y115D02*
X13990Y115D01*
X14215Y115D02*
X14441Y115D01*
X13667Y114D02*
X13990Y114D01*
X14215Y114D02*
X14441Y114D01*
X13667Y113D02*
X13990Y113D01*
X14215Y113D02*
X14441Y113D01*
X13667Y112D02*
X13990Y112D01*
X14215Y112D02*
X14441Y112D01*
X13667Y111D02*
X13990Y111D01*
X14215Y111D02*
X14441Y111D01*
X13667Y110D02*
X13990Y110D01*
X14215Y110D02*
X14441Y110D01*
X13667Y109D02*
X13990Y109D01*
X14215Y109D02*
X14441Y109D01*
X13667Y108D02*
X13990Y108D01*
X14215Y108D02*
X14441Y108D01*
X13667Y107D02*
X13990Y107D01*
X14215Y107D02*
X14441Y107D01*
X13667Y106D02*
X13990Y106D01*
X14215Y106D02*
X14441Y106D01*
X13667Y105D02*
X13990Y105D01*
X14215Y105D02*
X14441Y105D01*
X13667Y104D02*
X13990Y104D01*
X14215Y104D02*
X14441Y104D01*
X13667Y103D02*
X13990Y103D01*
X14215Y103D02*
X14441Y103D01*
X13667Y102D02*
X13990Y102D01*
X14215Y102D02*
X14441Y102D01*
X13667Y101D02*
X13990Y101D01*
X14215Y101D02*
X14441Y101D01*
X13667Y100D02*
X13990Y100D01*
X14215Y100D02*
X14441Y100D01*
X13667Y99D02*
X13990Y99D01*
X14215Y99D02*
X14441Y99D01*
X13667Y98D02*
X13990Y98D01*
X14215Y98D02*
X14441Y98D01*
X13667Y97D02*
X13990Y97D01*
X14215Y97D02*
X14441Y97D01*
X13667Y96D02*
X13990Y96D01*
X14215Y96D02*
X14441Y96D01*
X13667Y95D02*
X13990Y95D01*
X14215Y95D02*
X14441Y95D01*
X13667Y94D02*
X13990Y94D01*
X14215Y94D02*
X14441Y94D01*
X13667Y93D02*
X13990Y93D01*
X14215Y93D02*
X14441Y93D01*
X13667Y92D02*
X13990Y92D01*
X14215Y92D02*
X14441Y92D01*
X13667Y91D02*
X13990Y91D01*
X14215Y91D02*
X14441Y91D01*
X13667Y90D02*
X13990Y90D01*
X14215Y90D02*
X14441Y90D01*
X13667Y89D02*
X13990Y89D01*
X14215Y89D02*
X14441Y89D01*
X13667Y88D02*
X13990Y88D01*
X14215Y88D02*
X14441Y88D01*
X13667Y87D02*
X13990Y87D01*
X14215Y87D02*
X14441Y87D01*
X13667Y86D02*
X13990Y86D01*
X14215Y86D02*
X14441Y86D01*
X13667Y85D02*
X13990Y85D01*
X14215Y85D02*
X14441Y85D01*
X13667Y84D02*
X13990Y84D01*
X14215Y84D02*
X14441Y84D01*
X13667Y83D02*
X13990Y83D01*
X14215Y83D02*
X14441Y83D01*
X13667Y82D02*
X13990Y82D01*
X14215Y82D02*
X14441Y82D01*
X13667Y81D02*
X13990Y81D01*
X14215Y81D02*
X14441Y81D01*
X13667Y80D02*
X13990Y80D01*
X14215Y80D02*
X14441Y80D01*
X13667Y79D02*
X13990Y79D01*
X14214Y79D02*
X14441Y79D01*
X13667Y78D02*
X13990Y78D01*
X14214Y78D02*
X14441Y78D01*
X13667Y77D02*
X13990Y77D01*
X14214Y77D02*
X14441Y77D01*
X13667Y76D02*
X13990Y76D01*
X14214Y76D02*
X14441Y76D01*
X13667Y75D02*
X13990Y75D01*
X14214Y75D02*
X14441Y75D01*
X13667Y74D02*
X13990Y74D01*
X14214Y74D02*
X14441Y74D01*
X13667Y73D02*
X13990Y73D01*
X14214Y73D02*
X14441Y73D01*
X13667Y72D02*
X13990Y72D01*
X14214Y72D02*
X14441Y72D01*
X13667Y71D02*
X13990Y71D01*
X14214Y71D02*
X14441Y71D01*
X13667Y70D02*
X13990Y70D01*
X14214Y70D02*
X14441Y70D01*
X13667Y69D02*
X13990Y69D01*
X14214Y69D02*
X14441Y69D01*
X13667Y68D02*
X13990Y68D01*
X14214Y68D02*
X14441Y68D01*
X13667Y67D02*
X13990Y67D01*
X14214Y67D02*
X14441Y67D01*
X13667Y66D02*
X13990Y66D01*
X14214Y66D02*
X14441Y66D01*
X13667Y65D02*
X13990Y65D01*
X14214Y65D02*
X14441Y65D01*
X13667Y64D02*
X13990Y64D01*
X14214Y64D02*
X14441Y64D01*
X13667Y63D02*
X13990Y63D01*
X14214Y63D02*
X14441Y63D01*
X13667Y62D02*
X13990Y62D01*
X14214Y62D02*
X14441Y62D01*
X13667Y61D02*
X13990Y61D01*
X14214Y61D02*
X14441Y61D01*
X13667Y60D02*
X13990Y60D01*
X14214Y60D02*
X14441Y60D01*
X13667Y59D02*
X13990Y59D01*
X14214Y59D02*
X14441Y59D01*
X13667Y58D02*
X13990Y58D01*
X14214Y58D02*
X14441Y58D01*
X13667Y57D02*
X13990Y57D01*
X14214Y57D02*
X14441Y57D01*
X13667Y56D02*
X13990Y56D01*
X14214Y56D02*
X14441Y56D01*
X13667Y55D02*
X13990Y55D01*
X14214Y55D02*
X14441Y55D01*
X13667Y54D02*
X13990Y54D01*
X14214Y54D02*
X14441Y54D01*
X13667Y53D02*
X13990Y53D01*
X14214Y53D02*
X14441Y53D01*
X13667Y52D02*
X13990Y52D01*
X14214Y52D02*
X14441Y52D01*
X13667Y51D02*
X13990Y51D01*
X14214Y51D02*
X14441Y51D01*
X13667Y50D02*
X13990Y50D01*
X14214Y50D02*
X14441Y50D01*
X13667Y49D02*
X13990Y49D01*
X14214Y49D02*
X14441Y49D01*
X13667Y48D02*
X13990Y48D01*
X14214Y48D02*
X14441Y48D01*
X13667Y47D02*
X13990Y47D01*
X14214Y47D02*
X14441Y47D01*
X13667Y46D02*
X13990Y46D01*
X14214Y46D02*
X14441Y46D01*
X13667Y45D02*
X13990Y45D01*
X14214Y45D02*
X14441Y45D01*
X13667Y44D02*
X13990Y44D01*
X14214Y44D02*
X14441Y44D01*
X13667Y43D02*
X13990Y43D01*
X14214Y43D02*
X14441Y43D01*
X13667Y42D02*
X13990Y42D01*
X14214Y42D02*
X14441Y42D01*
X13667Y41D02*
X13990Y41D01*
X14214Y41D02*
X14441Y41D01*
X13667Y40D02*
X13990Y40D01*
X14214Y40D02*
X14441Y40D01*
X13667Y39D02*
X13990Y39D01*
X14214Y39D02*
X14441Y39D01*
X13667Y38D02*
X13990Y38D01*
X14214Y38D02*
X14441Y38D01*
X13667Y37D02*
X13990Y37D01*
X14214Y37D02*
X14441Y37D01*
X13667Y36D02*
X13990Y36D01*
X14214Y36D02*
X14441Y36D01*
X13667Y35D02*
X13990Y35D01*
X14214Y35D02*
X14441Y35D01*
X13667Y34D02*
X13990Y34D01*
X14214Y34D02*
X14441Y34D01*
X13667Y33D02*
X13990Y33D01*
X14214Y33D02*
X14441Y33D01*
X13667Y32D02*
X13990Y32D01*
X14214Y32D02*
X14441Y32D01*
X13667Y31D02*
X13990Y31D01*
X14214Y31D02*
X14441Y31D01*
X13667Y30D02*
X13990Y30D01*
X14214Y30D02*
X14441Y30D01*
X13667Y29D02*
X13990Y29D01*
X14214Y29D02*
X14441Y29D01*
X13667Y28D02*
X13990Y28D01*
X14214Y28D02*
X14441Y28D01*
X13667Y27D02*
X13990Y27D01*
X14214Y27D02*
X14441Y27D01*
X13667Y26D02*
X13990Y26D01*
X14214Y26D02*
X14441Y26D01*
X13667Y25D02*
X13990Y25D01*
X14214Y25D02*
X14441Y25D01*
X13667Y24D02*
X13990Y24D01*
X14214Y24D02*
X14441Y24D01*
X13667Y23D02*
X13990Y23D01*
X14214Y23D02*
X14441Y23D01*
X13667Y22D02*
X13990Y22D01*
X14214Y22D02*
X14441Y22D01*
X13667Y21D02*
X13990Y21D01*
X14214Y21D02*
X14441Y21D01*
X13667Y20D02*
X13990Y20D01*
X14214Y20D02*
X14441Y20D01*
X13667Y19D02*
X13990Y19D01*
X14214Y19D02*
X14441Y19D01*
X13667Y18D02*
X13990Y18D01*
X14214Y18D02*
X14441Y18D01*
X13667Y17D02*
X13990Y17D01*
X14214Y17D02*
X14441Y17D01*
X13667Y16D02*
X13990Y16D01*
X14214Y16D02*
X14441Y16D01*
X13667Y15D02*
X13990Y15D01*
X14214Y15D02*
X14441Y15D01*
X13667Y14D02*
X13990Y14D01*
X14214Y14D02*
X14441Y14D01*
X13667Y13D02*
X13990Y13D01*
X14214Y13D02*
X14441Y13D01*
X13667Y12D02*
X13990Y12D01*
X14214Y12D02*
X14441Y12D01*
X13667Y11D02*
X13990Y11D01*
X14214Y11D02*
X14441Y11D01*
X13667Y10D02*
X13990Y10D01*
X14214Y10D02*
X14441Y10D01*
X13667Y9D02*
X13990Y9D01*
X14214Y9D02*
X14441Y9D01*
X13667Y8D02*
X13990Y8D01*
X14214Y8D02*
X14441Y8D01*
X13667Y7D02*
X13990Y7D01*
X14214Y7D02*
X14441Y7D01*
X13667Y6D02*
X13990Y6D01*
X14214Y6D02*
X14441Y6D01*
X13667Y5D02*
X13990Y5D01*
X14214Y5D02*
X14441Y5D01*
X13667Y4D02*
X13990Y4D01*
X14214Y4D02*
X14441Y4D01*
X13667Y3D02*
X13990Y3D01*
X14214Y3D02*
X14441Y3D01*
X13667Y2D02*
X13990Y2D01*
X14214Y2D02*
X14441Y2D01*
X13667Y1D02*
X13990Y1D01*
X14214Y1D02*
X14441Y1D01*
X13667Y0D02*
X13990Y0D01*
X14214Y0D02*
X14441Y0D01*
X13667Y-1D02*
X13989Y-1D01*
X14214Y-1D02*
X14441Y-1D01*
D02*
G04 End of Mask1*
M02*