G04 MADE WITH FRITZING*
G04 WWW.FRITZING.ORG*
G04 DOUBLE SIDED*
G04 HOLES PLATED*
G04 CONTOUR ON CENTER OF CONTOUR VECTOR*
%ASAXBY*%
%FSLAX23Y23*%
%MOIN*%
%OFA0B0*%
%SFA1.0B1.0*%
%ADD10C,0.088000*%
%ADD11C,0.049370*%
%ADD12C,0.085000*%
%ADD13C,0.214725*%
%ADD14C,0.097000*%
%ADD15C,0.098000*%
%ADD16C,0.133000*%
%ADD17C,0.072992*%
%ADD18C,0.080361*%
%ADD19R,0.085000X0.085000*%
%ADD20R,0.133000X0.133000*%
%ADD21R,0.072992X0.072992*%
%ADD22C,0.030000*%
%ADD23R,0.001000X0.001000*%
%LNMASK0*%
G90*
G70*
G54D10*
X5230Y1891D03*
X14230Y441D03*
X14130Y441D03*
X14030Y441D03*
X13930Y441D03*
G54D11*
X304Y316D03*
X779Y316D03*
X9555Y1666D03*
X9105Y1591D03*
X5730Y1491D03*
X5655Y1441D03*
X6630Y1316D03*
X4830Y1316D03*
X2980Y1541D03*
X8655Y316D03*
X7930Y316D03*
X13455Y316D03*
X1305Y316D03*
X3130Y316D03*
X2155Y316D03*
X2680Y316D03*
X5930Y1641D03*
X6555Y1391D03*
X4905Y1391D03*
X5855Y1591D03*
G54D12*
X2630Y1241D03*
X2630Y941D03*
X2530Y1241D03*
X2530Y941D03*
X2430Y1241D03*
X2430Y941D03*
X2330Y1241D03*
X2330Y941D03*
X2230Y1241D03*
X2230Y941D03*
X2130Y1241D03*
X2130Y941D03*
X2030Y1241D03*
X2030Y941D03*
X1930Y1241D03*
X1930Y941D03*
X9030Y1391D03*
X9030Y1091D03*
X8930Y1391D03*
X8930Y1091D03*
X8830Y1391D03*
X8830Y1091D03*
X8730Y1391D03*
X8730Y1091D03*
X8630Y1391D03*
X8630Y1091D03*
X8530Y1391D03*
X8530Y1091D03*
X8430Y1391D03*
X8430Y1091D03*
X8330Y1391D03*
X8330Y1091D03*
G54D10*
X2630Y1891D03*
X6530Y941D03*
X6430Y941D03*
X6330Y941D03*
X6230Y941D03*
X6130Y941D03*
X6030Y941D03*
X5930Y941D03*
X5830Y941D03*
X5730Y941D03*
X5630Y941D03*
X5530Y941D03*
X5430Y941D03*
X5330Y941D03*
X5230Y941D03*
X5130Y941D03*
X5030Y941D03*
G54D13*
X14586Y166D03*
X14586Y1931D03*
X10380Y1930D03*
X7617Y166D03*
X3523Y166D03*
X163Y166D03*
X163Y1931D03*
X7619Y1933D03*
X3522Y1932D03*
G54D10*
X10130Y1991D03*
X10030Y1991D03*
X9930Y1991D03*
X9830Y1991D03*
X9730Y1991D03*
X9630Y1991D03*
X9530Y1991D03*
X9430Y1991D03*
X9330Y1991D03*
X4230Y1891D03*
X4330Y1891D03*
X4430Y1891D03*
X4530Y1891D03*
X5030Y1891D03*
X4930Y1891D03*
X4830Y1891D03*
G54D11*
X10610Y1711D03*
X10730Y1841D03*
X13580Y941D03*
G54D12*
X2991Y220D03*
X2814Y220D03*
G54D14*
X3041Y318D03*
X2765Y318D03*
G54D15*
X1530Y191D03*
X1727Y191D03*
X1924Y191D03*
G54D16*
X1406Y322D03*
X2048Y322D03*
G54D12*
X11653Y220D03*
X11476Y220D03*
G54D14*
X11702Y318D03*
X11426Y318D03*
G54D12*
X11102Y220D03*
X10925Y220D03*
G54D14*
X11151Y318D03*
X10875Y318D03*
G54D12*
X10550Y220D03*
X10373Y220D03*
G54D14*
X10600Y318D03*
X10324Y318D03*
G54D12*
X9999Y220D03*
X9822Y220D03*
G54D14*
X10049Y318D03*
X9773Y318D03*
G54D12*
X9448Y220D03*
X9271Y220D03*
G54D14*
X9497Y318D03*
X9222Y318D03*
G54D12*
X8306Y220D03*
X8129Y220D03*
G54D14*
X8356Y318D03*
X8080Y318D03*
G54D12*
X629Y220D03*
X452Y220D03*
G54D14*
X679Y318D03*
X403Y318D03*
G54D12*
X12204Y220D03*
X12027Y220D03*
G54D14*
X12253Y318D03*
X11977Y318D03*
G54D12*
X12755Y220D03*
X12578Y220D03*
G54D14*
X12805Y318D03*
X12529Y318D03*
G54D12*
X13306Y220D03*
X13129Y220D03*
G54D14*
X13356Y318D03*
X13080Y318D03*
G54D12*
X1730Y1791D03*
X1730Y1391D03*
G54D17*
X9389Y481D03*
X9291Y481D03*
X9940Y481D03*
X9842Y481D03*
X10491Y481D03*
X10393Y481D03*
X11043Y481D03*
X10944Y481D03*
X11594Y481D03*
X11495Y481D03*
X12145Y481D03*
X12047Y481D03*
X12696Y481D03*
X12598Y481D03*
X13247Y481D03*
X13149Y481D03*
X8267Y481D03*
X8168Y481D03*
G54D12*
X8055Y941D03*
X8055Y541D03*
X13030Y941D03*
X13030Y541D03*
X12480Y941D03*
X12480Y541D03*
X11930Y941D03*
X11930Y541D03*
X11380Y941D03*
X11380Y541D03*
X10830Y941D03*
X10830Y541D03*
X10280Y941D03*
X10280Y541D03*
X9730Y941D03*
X9730Y541D03*
X9030Y941D03*
X9030Y541D03*
X13380Y441D03*
X13380Y941D03*
X12830Y441D03*
X12830Y941D03*
X12280Y441D03*
X12280Y941D03*
X11730Y441D03*
X11730Y941D03*
X11180Y441D03*
X11180Y941D03*
X10630Y441D03*
X10630Y941D03*
X10080Y441D03*
X10080Y941D03*
X9530Y441D03*
X9530Y941D03*
X8430Y441D03*
X8430Y941D03*
X1130Y241D03*
X1130Y741D03*
X2280Y241D03*
X2280Y741D03*
X3180Y241D03*
X3180Y741D03*
X955Y241D03*
X955Y741D03*
X9930Y1791D03*
X9930Y1491D03*
X9830Y1791D03*
X9830Y1491D03*
X9730Y1791D03*
X9730Y1491D03*
X9630Y1791D03*
X9630Y1491D03*
X9530Y1791D03*
X9530Y1491D03*
X9430Y1791D03*
X9430Y1491D03*
X9330Y1791D03*
X9330Y1491D03*
X9230Y1791D03*
X9230Y1491D03*
X11180Y1491D03*
X11180Y1791D03*
X11280Y1491D03*
X11280Y1791D03*
X11380Y1491D03*
X11380Y1791D03*
X11480Y1491D03*
X11480Y1791D03*
X11580Y1491D03*
X11580Y1791D03*
X11680Y1491D03*
X11680Y1791D03*
X11780Y1491D03*
X11780Y1791D03*
X11880Y1491D03*
X11880Y1791D03*
G54D18*
X5430Y1141D03*
X5530Y1141D03*
X5630Y1141D03*
X5730Y1141D03*
X5830Y1141D03*
X5930Y1141D03*
X6030Y1141D03*
X6130Y1141D03*
X6230Y1141D03*
X6330Y1141D03*
X6430Y1141D03*
X6530Y1141D03*
X5430Y1741D03*
X5530Y1741D03*
X5630Y1741D03*
X5730Y1741D03*
X5830Y1741D03*
X5930Y1741D03*
X6030Y1741D03*
X6130Y1741D03*
X6230Y1741D03*
X6330Y1741D03*
X6430Y1741D03*
X6530Y1741D03*
G54D19*
X2630Y1241D03*
X9030Y1391D03*
G54D20*
X1406Y322D03*
X2048Y322D03*
G54D21*
X9389Y481D03*
X9940Y481D03*
X10491Y481D03*
X11043Y481D03*
X11594Y481D03*
X12145Y481D03*
X12696Y481D03*
X13247Y481D03*
X8267Y481D03*
G54D19*
X11180Y1491D03*
G54D22*
G36*
X9957Y1763D02*
X9902Y1763D01*
X9902Y1818D01*
X9957Y1818D01*
X9957Y1763D01*
G37*
D02*
G54D23*
D02*
G04 End of Mask0*
M02*